<?xml version="1.0" encoding="UTF-8"?>
<svg width="24" height="24" version="1.1" viewBox="0 0 24 24" xmlns="http://www.w3.org/2000/svg">
 <path d="M0 0h24v24H0z" fill="none"/>
 <g transform="translate(.88213 .61419)">
  <g transform="translate(0 .0093374)">
   <text x="0.9759565" y="17.808514" fill="#999999" font-family="sans-serif" font-size="3.7116px" stroke-width=".34796" style="line-height:1.25" xml:space="preserve"><tspan x="0.9759565" y="17.808514" fill="#999999" font-family="'Fira Sans'" stroke-width=".34796">COLLECTION</tspan></text>
   <g transform="translate(.97485 -4.4282)" stroke="#999" stroke-width=".3">
    <rect x="8.793" y="8.4547" width="4.6497" height="5.8622" ry=".07032" fill="#fff" fill-opacity=".99634"/>
    <g transform="translate(6.7511 5.3235)" fill="#ccc" stroke-linecap="round" stroke-linejoin="round">
     <path d="m3.3173 5.0623h2.0989"/>
     <path d="m3.3173 7.0623h2.0989"/>
     <path d="m3.3173 6.0587h2.0989"/>
    </g>
   </g>
   <g transform="translate(.47485 -3.9282)" stroke="#999" stroke-width=".3">
    <rect x="8.793" y="8.4547" width="4.6497" height="5.8622" ry=".07032" fill="#fff" fill-opacity=".99634"/>
    <g transform="translate(6.7511 5.3235)" fill="#ccc" stroke-linecap="round" stroke-linejoin="round">
     <path d="m3.3173 5.0623h2.0989"/>
     <path d="m3.3173 7.0623h2.0989"/>
     <path d="m3.3173 6.0587h2.0989"/>
    </g>
   </g>
   <g transform="translate(0 -3.4048)" stroke="#999" stroke-width=".3">
    <rect x="8.793" y="8.4547" width="4.6497" height="5.8622" ry=".07032" fill="#fff" fill-opacity=".99634"/>
    <g transform="translate(6.7511 5.3235)" fill="#ccc" stroke-linecap="round" stroke-linejoin="round">
     <path d="m3.3173 5.0623h2.0989"/>
     <path d="m3.3173 7.0623h2.0989"/>
     <path d="m3.3173 6.0587h2.0989"/>
    </g>
   </g>
  </g>
 </g>
</svg>
