<svg id="Laag_1" data-name="Laag 1" xmlns="http://www.w3.org/2000/svg" xmlns:xlink="http://www.w3.org/1999/xlink" viewBox="0 0 699.77 209.97"><defs><style>.cls-1,.cls-10,.cls-11,.cls-2,.cls-3,.cls-4,.cls-5,.cls-6,.cls-7,.cls-8,.cls-9{opacity:0.6;}.cls-1{fill:url(#Naamloos_verloop_3);}.cls-2{fill:url(#Naamloos_verloop_3-2);}.cls-3{fill:url(#Naamloos_verloop_7);}.cls-4{fill:url(#Naamloos_verloop_3-3);}.cls-5{fill:url(#Naamloos_verloop_3-4);}.cls-6{fill:url(#Naamloos_verloop_7-2);}.cls-7{fill:url(#Naamloos_verloop_3-5);}.cls-8{fill:url(#Naamloos_verloop_3-6);}.cls-9{fill:url(#Naamloos_verloop_3-7);}.cls-10{fill:url(#Naamloos_verloop_3-8);}.cls-11{fill:url(#Naamloos_verloop_7-3);}.cls-12{fill:#f2f2f2;}.cls-13{fill:#ccc;}</style><linearGradient id="Naamloos_verloop_3" x1="-1734.32" y1="1060.2" x2="-1704.76" y2="1060.2" gradientTransform="translate(2057.58 536.44) rotate(45)" gradientUnits="userSpaceOnUse"><stop offset="0.19" stop-color="#f2f2f2"/><stop offset="1" stop-color="#f2f2f2" stop-opacity="0"/></linearGradient><linearGradient id="Naamloos_verloop_3-2" x1="-1900.63" y1="736.26" x2="-1871.06" y2="736.26" gradientTransform="translate(2086.93 -138.44) rotate(15)" xlink:href="#Naamloos_verloop_3"/><linearGradient id="Naamloos_verloop_7" x1="89.32" y1="88.6" x2="99.37" y2="91.29" gradientUnits="userSpaceOnUse"><stop offset="0.19" stop-color="#f2f2f2"/><stop offset="1" stop-color="#f2f2f2" stop-opacity="0.5"/></linearGradient><linearGradient id="Naamloos_verloop_3-3" x1="-1867.79" y1="376.66" x2="-1838.22" y2="376.66" gradientTransform="translate(1774.91 -737.58) rotate(-15)" xlink:href="#Naamloos_verloop_3"/><linearGradient id="Naamloos_verloop_3-4" x1="-1674.48" y1="77.5" x2="-1644.91" y2="77.5" gradientTransform="translate(1205.12 -1100.44) rotate(-45)" xlink:href="#Naamloos_verloop_3"/><linearGradient id="Naamloos_verloop_7-2" x1="96.93" y1="117.35" x2="104.34" y2="109.94" xlink:href="#Naamloos_verloop_7"/><linearGradient id="Naamloos_verloop_3-5" x1="-1075.51" y1="1286.33" x2="-1045.95" y2="1286.33" gradientTransform="translate(1095.58 1418.26) rotate(105)" xlink:href="#Naamloos_verloop_3"/><linearGradient id="Naamloos_verloop_3-6" x1="-1443.21" y1="1261.58" x2="-1413.64" y2="1261.58" gradientTransform="matrix(0.26, 0.97, -0.97, 0.26, 1694.72, 1106.23)" xlink:href="#Naamloos_verloop_3"/><linearGradient id="Naamloos_verloop_3-7" x1="-977.34" y1="1261.49" x2="-959.3" y2="1261.49" gradientTransform="matrix(-0.26, -0.97, -0.97, 0.26, 1095.58, -1129.79)" xlink:href="#Naamloos_verloop_3"/><linearGradient id="Naamloos_verloop_3-8" x1="-1330.81" y1="1281.52" x2="-1312.78" y2="1281.52" gradientTransform="matrix(0.26, -0.97, -0.97, -0.26, 1694.72, -817.77)" xlink:href="#Naamloos_verloop_3"/><linearGradient id="Naamloos_verloop_7-3" x1="110.38" y1="67.53" x2="113.1" y2="77.67" xlink:href="#Naamloos_verloop_7"/></defs><polygon class="cls-1" points="101.17 81.97 78.46 62.86 84.65 56.67 103.76 79.38 101.17 81.97"/><polygon class="cls-2" points="88.59 90.23 59.38 85.04 61.64 76.59 89.54 86.7 88.59 90.23"/><path class="cls-3" d="M100.27,87.93l-9.82-3.56-2.26,8.45,10.26,1.83A19.42,19.42,0,0,1,100.27,87.93Z"/><polygon class="cls-4" points="97.29 103.78 69.39 113.89 67.12 105.44 96.34 100.24 97.29 103.78"/><polygon class="cls-5" points="98.09 118.78 78.98 141.49 72.79 135.3 95.5 116.19 98.09 118.78"/><path class="cls-6" d="M104.11,110.17a19.33,19.33,0,0,1-2.22-2.69l-8,6.78,6.19,6.18,6.77-8A19.33,19.33,0,0,1,104.11,110.17Z"/><polygon class="cls-7" points="122.03 74.55 127.22 45.33 135.67 47.6 125.56 75.5 122.03 74.55"/><polygon class="cls-8" points="108.48 67.75 98.38 39.85 106.83 37.59 112.02 66.81 108.48 67.75"/><polygon class="cls-9" points="124.28 123.61 127.45 141.43 132.61 140.05 126.44 123.03 124.28 123.61"/><polygon class="cls-10" points="116.02 118.31 109.86 135.32 115.01 136.71 118.18 118.88 116.02 118.31"/><path class="cls-11" d="M116.45,76.77,114.61,66.4l-8.45,2.26,3.57,9.87A19.67,19.67,0,0,1,116.45,76.77Z"/><circle class="cls-12" cx="102.6" cy="38.72" r="4.37"/><circle class="cls-12" cx="60.51" cy="80.81" r="4.37"/><circle class="cls-12" cx="89.32" cy="88.6" r="4.37"/><circle class="cls-12" cx="110.38" cy="67.53" r="4.37"/><circle class="cls-12" cx="68.25" cy="109.66" r="4.37"/><circle class="cls-12" cx="131.45" cy="46.47" r="4.37"/><circle class="cls-12" cx="96.93" cy="117.35" r="4.37"/><circle class="cls-12" cx="75.89" cy="138.4" r="4.37"/><circle class="cls-12" cx="81.56" cy="59.77" r="4.37"/><circle class="cls-12" cx="130.03" cy="140.74" r="2.67"/><circle class="cls-12" cx="112.43" cy="136.01" r="2.67"/><path d="M262.71,153.59a10.33,10.33,0,0,1-4.31-1.05c-.21-.1-.28-.19-.28-.31a.75.75,0,0,1,.07-.28l.58-1.51c.05-.1.09-.14.19-.14a1.13,1.13,0,0,1,.46.21,7.21,7.21,0,0,0,3.32.91,2.22,2.22,0,0,0,2.47-2.29c0-1.45-.49-1.87-3-3.24-2-1.07-3.78-2-3.78-4.57s2-4.34,4.87-4.34a7.89,7.89,0,0,1,4,1.05c.14.09.23.16.23.28a.47.47,0,0,1-.05.16l-.6,1.4c-.07.14-.12.21-.24.21a1,1,0,0,1-.42-.19,5.8,5.8,0,0,0-2.84-.81c-1.47,0-2.34.74-2.34,2s.42,1.51,2.17,2.47c2.43,1.31,4.6,2.26,4.6,5.37C267.73,151.72,265.75,153.59,262.71,153.59Z"/><path d="M282.29,152c0,.12-.07.24-.26.38a5.22,5.22,0,0,1-3.59,1.3c-3.69,0-5.65-3-5.65-8.54,0-3.59,1-8.18,5.51-8.18a5.72,5.72,0,0,1,3.66,1.4c.17.14.24.25.24.37a.61.61,0,0,1-.12.3l-.75,1.19c0,.1-.11.12-.21.12a.44.44,0,0,1-.28-.12,3.9,3.9,0,0,0-2.45-1.12c-2,0-2.87,1.77-2.87,5.69,0,4.53,1,6.77,3.15,6.77a3.44,3.44,0,0,0,2.24-1,.57.57,0,0,1,.33-.16.23.23,0,0,1,.23.14l.7,1.12A.65.65,0,0,1,282.29,152Z"/><path d="M287.35,139.19c-.35,0-.4,0-.4-.39v-1.12c0-.35.05-.4.4-.4h5.88c.35,0,.42.05.42.4v1.12c0,.35-.07.39-.42.39h-1.66v12.18h1.66c.35,0,.42,0,.42.4v1.12c0,.35-.07.39-.42.39h-5.88c-.35,0-.4,0-.4-.39v-1.12c0-.35.05-.4.4-.4H289V139.19Z"/><path d="M306.59,139.38h-4.8v4.55H306c.33,0,.4,0,.4.39v1.26c0,.33-.07.38-.4.38h-4.22v5.2H307c.35,0,.4.07.4.42v1.31c0,.35-.05.39-.4.39h-7.4c-.35,0-.37,0-.37-.39V137.68c0-.35,0-.4.37-.4h7.52c.28,0,.37.07.37.21a1,1,0,0,1-.05.26l-.39,1.3A.41.41,0,0,1,306.59,139.38Z"/><path d="M320.79,153l-4.71-9.57a16.36,16.36,0,0,1-1.07-2.75c.07.86.14,1.7.14,2.56v9.69c0,.35-.07.39-.42.39h-1.4c-.35,0-.4,0-.4-.39V137.68c0-.35.05-.4.4-.4H315c.28,0,.32,0,.46.3l4.43,8.89a16.81,16.81,0,0,1,1.08,2.75c-.07-.81-.1-1.65-.1-2.47v-9.07c0-.35.05-.4.4-.4h1.4c.35,0,.4.05.4.4v15.21c0,.35-.05.39-.4.39h-1.4C321,153.28,320.93,153.24,320.79,153Z"/><path d="M338.41,152c0,.12-.07.24-.25.38a5.25,5.25,0,0,1-3.6,1.3c-3.68,0-5.64-3-5.64-8.54,0-3.59,1.05-8.18,5.5-8.18a5.76,5.76,0,0,1,3.67,1.4c.16.14.23.25.23.37a.61.61,0,0,1-.12.3l-.74,1.19a.2.2,0,0,1-.21.12.42.42,0,0,1-.28-.12,4,4,0,0,0-2.45-1.12c-2,0-2.87,1.77-2.87,5.69,0,4.53,1,6.77,3.15,6.77a3.48,3.48,0,0,0,2.24-1,.54.54,0,0,1,.32-.16.24.24,0,0,1,.24.14l.7,1.12A.62.62,0,0,1,338.41,152Z"/><path d="M351.17,139.38h-4.81v4.55h4.22c.33,0,.4,0,.4.39v1.26c0,.33-.07.38-.4.38h-4.22v5.2h5.2c.35,0,.4.07.4.42v1.31c0,.35,0,.39-.4.39h-7.39c-.35,0-.38,0-.38-.39V137.68c0-.35,0-.4.38-.4h7.51c.28,0,.37.07.37.21a1.51,1.51,0,0,1,0,.26l-.4,1.3A.4.4,0,0,1,351.17,139.38Z"/><path d="M365.22,148.15a3.07,3.07,0,1,1,3-3.07A3.06,3.06,0,0,1,365.22,148.15Z"/><path d="M386.22,139.38h-4.8v4.55h4.22c.33,0,.39,0,.39.39v1.26c0,.33-.06.38-.39.38h-4.22v5.2h5.2c.35,0,.4.07.4.42v1.31c0,.35,0,.39-.4.39h-7.4c-.35,0-.37,0-.37-.39V137.68c0-.35,0-.4.37-.4h7.51c.29,0,.38.07.38.21a1,1,0,0,1-.05.26l-.39,1.3A.41.41,0,0,1,386.22,139.38Z"/><path d="M400.42,153l-4.71-9.57a16.47,16.47,0,0,1-1.08-2.75c.07.86.14,1.7.14,2.56v9.69c0,.35-.07.39-.42.39H393c-.35,0-.39,0-.39-.39V137.68c0-.35,0-.4.39-.4h1.68c.28,0,.33,0,.47.3l4.43,8.89a16.81,16.81,0,0,1,1.08,2.75c-.07-.81-.1-1.65-.1-2.47v-9.07c0-.35.05-.4.4-.4h1.4c.35,0,.4.05.4.4v15.21c0,.35,0,.39-.4.39h-1.4C400.63,153.28,400.56,153.24,400.42,153Z"/><path d="M414.68,147.1c-.35,0-.4,0-.4-.4v-1.26c0-.35.05-.41.4-.41h3.78c.33,0,.42.06.42.41v6.68c0,.23-.07.32-.37.51a8.11,8.11,0,0,1-4,1c-3.92,0-5.92-2.8-5.92-8.23,0-5.58,2.05-8.49,6-8.49a6.76,6.76,0,0,1,3.89,1.19.38.38,0,0,1,.19.28.83.83,0,0,1-.09.28l-.61,1.19a.24.24,0,0,1-.23.16.38.38,0,0,1-.24-.07,5,5,0,0,0-2.87-1c-2.3,0-3.35,1.94-3.35,6.13,0,2.64.16,6.47,3.47,6.47a4.22,4.22,0,0,0,1.8-.42v-4Z"/><path d="M424.48,139.19c-.35,0-.4,0-.4-.39v-1.12c0-.35.05-.4.4-.4h5.88c.35,0,.42.05.42.4v1.12c0,.35-.07.39-.42.39H428.7v12.18h1.66c.35,0,.42,0,.42.4v1.12c0,.35-.07.39-.42.39h-5.88c-.35,0-.4,0-.4-.39v-1.12c0-.35.05-.4.4-.4h1.65V139.19Z"/><path d="M444.09,153l-4.71-9.57a16.47,16.47,0,0,1-1.08-2.75c.07.86.14,1.7.14,2.56v9.69c0,.35-.07.39-.42.39h-1.4c-.35,0-.39,0-.39-.39V137.68c0-.35,0-.4.39-.4h1.68c.28,0,.33,0,.47.3l4.43,8.89a16.69,16.69,0,0,1,1.07,2.75c-.07-.81-.09-1.65-.09-2.47v-9.07c0-.35.05-.4.4-.4H446c.35,0,.39.05.39.4v15.21c0,.35,0,.39-.39.39h-1.4C444.3,153.28,444.23,153.24,444.09,153Z"/><path d="M460.37,139.38h-4.81v4.55h4.22c.33,0,.4,0,.4.39v1.26c0,.33-.07.38-.4.38h-4.22v5.2h5.21c.34,0,.39.07.39.42v1.31c0,.35-.05.39-.39.39h-7.4c-.35,0-.37,0-.37-.39V137.68c0-.35,0-.4.37-.4h7.51c.28,0,.37.07.37.21a1.51,1.51,0,0,1,0,.26l-.4,1.3A.4.4,0,0,1,460.37,139.38Z"/><path d="M474.2,139.38h-4.8v4.55h4.22c.33,0,.4,0,.4.39v1.26c0,.33-.07.38-.4.38H469.4v5.2h5.2c.35,0,.4.07.4.42v1.31c0,.35-.05.39-.4.39h-7.4c-.35,0-.37,0-.37-.39V137.68c0-.35,0-.4.37-.4h7.52c.28,0,.37.07.37.21a1,1,0,0,1,0,.26l-.39,1.3A.41.41,0,0,1,474.2,139.38Z"/><path d="M490.74,152.89c0,.11-.07.18-.23.23l-1.82.44-.21.05c-.09,0-.17-.07-.26-.26l-3.54-7h-1.5v6.51c0,.35-.07.39-.42.39H481c-.35,0-.38-.07-.38-.44V137.68c0-.35,0-.4.38-.4h3.71c2,0,2.89.21,3.71.89a4.23,4.23,0,0,1,1.35,3.4,4.44,4.44,0,0,1-2.82,4.5l3.61,6.44A1.05,1.05,0,0,1,490.74,152.89Zm-6.18-13.65h-1.38v5.16h1.22c2,0,2.84-.84,2.84-2.76S486.54,139.24,484.56,139.24Z"/><path d="M495.84,139.19c-.35,0-.39,0-.39-.39v-1.12c0-.35,0-.4.39-.4h5.88c.35,0,.42.05.42.4v1.12c0,.35-.07.39-.42.39h-1.66v12.18h1.66c.35,0,.42,0,.42.4v1.12c0,.35-.07.39-.42.39h-5.88c-.35,0-.39,0-.39-.39v-1.12c0-.35,0-.4.39-.4h1.66V139.19Z"/><path d="M515.45,153l-4.71-9.57a16.36,16.36,0,0,1-1.07-2.75c.07.86.14,1.7.14,2.56v9.69c0,.35-.07.39-.42.39H508c-.35,0-.4,0-.4-.39V137.68c0-.35.05-.4.4-.4h1.68c.28,0,.32,0,.46.3l4.44,8.89a17.64,17.64,0,0,1,1.07,2.75c-.07-.81-.09-1.65-.09-2.47v-9.07c0-.35,0-.4.39-.4h1.4c.35,0,.4.05.4.4v15.21c0,.35,0,.39-.4.39h-1.4C515.66,153.28,515.59,153.24,515.45,153Z"/><path d="M529.72,147.1c-.35,0-.4,0-.4-.4v-1.26c0-.35,0-.41.4-.41h3.78c.32,0,.42.06.42.41v6.68c0,.23-.07.32-.38.51a8,8,0,0,1-4,1c-3.92,0-5.93-2.8-5.93-8.23,0-5.58,2-8.49,6-8.49a6.8,6.8,0,0,1,3.9,1.19c.11.09.19.18.19.28a.68.68,0,0,1-.1.28l-.6,1.19a.25.25,0,0,1-.24.16.37.37,0,0,1-.23-.07,5,5,0,0,0-2.87-1c-2.31,0-3.36,1.94-3.36,6.13,0,2.64.16,6.47,3.48,6.47a4.18,4.18,0,0,0,1.79-.42v-4Z"/><path d="M547.78,148.15a3.07,3.07,0,1,1,3-3.07A3.06,3.06,0,0,1,547.78,148.15Z"/><path d="M565.17,153.28h-3.74c-.35,0-.37,0-.37-.39V137.68c0-.35.05-.4.37-.4h3.27c4.78,0,6.56,2.82,6.56,7.77C571.26,149.41,570.07,153.28,565.17,153.28Zm-.35-13.9h-1.19v11.78h1.3c3.39,0,3.62-2.92,3.62-5.9C568.55,142,568.11,139.38,564.82,139.38Z"/><path d="M584.63,139.38h-4.81v4.55H584c.33,0,.4,0,.4.39v1.26c0,.33-.07.38-.4.38h-4.22v5.2H585c.35,0,.4.07.4.42v1.31c0,.35,0,.39-.4.39h-7.39c-.35,0-.37,0-.37-.39V137.68c0-.35,0-.4.37-.4h7.51c.28,0,.37.07.37.21a1.51,1.51,0,0,1,0,.26l-.4,1.3A.4.4,0,0,1,584.63,139.38Z"/><path d="M595,153.59a10.33,10.33,0,0,1-4.31-1.05c-.21-.1-.28-.19-.28-.31a.75.75,0,0,1,.07-.28l.58-1.51c.05-.1.09-.14.19-.14a1.13,1.13,0,0,1,.46.21,7.21,7.21,0,0,0,3.32.91,2.22,2.22,0,0,0,2.47-2.29c0-1.45-.49-1.87-3-3.24-2-1.07-3.78-2-3.78-4.57s2-4.34,4.87-4.34a7.89,7.89,0,0,1,4,1.05c.14.09.23.16.23.28a.47.47,0,0,1-.05.16l-.6,1.4c-.07.14-.12.21-.24.21a1,1,0,0,1-.42-.19,5.8,5.8,0,0,0-2.84-.81c-1.47,0-2.34.74-2.34,2s.42,1.51,2.17,2.47c2.43,1.31,4.6,2.26,4.6,5.37C600,151.72,598,153.59,595,153.59Z"/><path d="M605.2,139.19c-.35,0-.39,0-.39-.39v-1.12c0-.35,0-.4.39-.4h5.88c.35,0,.42.05.42.4v1.12c0,.35-.07.39-.42.39h-1.66v12.18h1.66c.35,0,.42,0,.42.4v1.12c0,.35-.07.39-.42.39H605.2c-.35,0-.39,0-.39-.39v-1.12c0-.35,0-.4.39-.4h1.66V139.19Z"/><path d="M622.08,147.1c-.35,0-.4,0-.4-.4v-1.26c0-.35.05-.41.4-.41h3.78c.33,0,.42.06.42.41v6.68c0,.23-.07.32-.38.51a8,8,0,0,1-4,1c-3.92,0-5.93-2.8-5.93-8.23,0-5.58,2.06-8.49,6-8.49a6.76,6.76,0,0,1,3.89,1.19.38.38,0,0,1,.19.28.68.68,0,0,1-.1.28l-.6,1.19a.24.24,0,0,1-.24.16.37.37,0,0,1-.23-.07,5,5,0,0,0-2.87-1c-2.31,0-3.36,1.94-3.36,6.13,0,2.64.17,6.47,3.48,6.47a4.22,4.22,0,0,0,1.8-.42v-4Z"/><path d="M640.26,153l-4.71-9.57a16.36,16.36,0,0,1-1.07-2.75c.07.86.14,1.7.14,2.56v9.69c0,.35-.07.39-.42.39h-1.4c-.35,0-.4,0-.4-.39V137.68c0-.35.05-.4.4-.4h1.68c.28,0,.32,0,.46.3l4.44,8.89a17.64,17.64,0,0,1,1.07,2.75c-.07-.81-.09-1.65-.09-2.47v-9.07c0-.35,0-.4.39-.4h1.4c.35,0,.4.05.4.4v15.21c0,.35,0,.39-.4.39h-1.4C640.47,153.28,640.4,153.24,640.26,153Z"/><path class="cls-12" d="M128.23,104.92V97.66l17.2-28.74c.42-.69.62-.9.9-.9a2.6,2.6,0,0,1,1,.28L151.44,70c.76.34,1,.55,1,1a2,2,0,0,1-.42,1L136,99.32h10.78l.9-11.12c.07-1.18.28-1.32,1.45-1.32h4.7c1.31,0,1.45.14,1.45,1.46V99.53h3.94c1.31,0,1.45.14,1.45,1.66v3.73c0,1.17-.21,1.38-1.45,1.38h-3.94v9c0,1.25-.14,1.38-1.45,1.38h-5.73c-1.32,0-1.45-.13-1.45-1.38v-9H129.68C128.36,106.3,128.23,106.16,128.23,104.92Z"/><path class="cls-12" d="M192,69.61l-1.45,5.46c-.28,1-.49,1.17-1.53,1.17h-8.49V114c0,1.31-.14,1.45-1.45,1.45h-6.71c-1.31,0-1.45-.14-1.45-1.45V76.24h-8.7c-1.32,0-1.45-.13-1.45-1.38V69.47c0-1.24.13-1.45,1.45-1.45h28.53c1,0,1.38.21,1.38.76A4,4,0,0,1,192,69.61Z"/><path class="cls-12" d="M226.63,111.55c-3.31,3.45-7.6,5-13.68,5-6.42,0-10.84-1.93-13.47-6-1.66-2.62-2.35-5.8-2.35-11.19V69.47c0-1.31.14-1.45,1.45-1.45h6.57c1.24,0,1.45.21,1.45,1.45V99.39c0,4.56.27,5.87,1.38,7.32,1.24,1.66,3.11,2.42,5.66,2.42,5.46,0,7.67-2.76,7.67-9.6V69.47c0-1.24.21-1.45,1.45-1.45H229c1.31,0,1.45.14,1.45,1.45V99.39C230.43,105.47,229.47,108.58,226.63,111.55Z"/><path class="cls-13" d="M244.31,115.72a5.26,5.26,0,0,1-5.27-5.2,5.19,5.19,0,0,1,5.27-5.23,5.22,5.22,0,0,1,0,10.43Z"/><path class="cls-13" d="M289.72,114.73l-6.15,1.73c-.62.2-.62.2-.83.2s-.55-.2-1-1L272,96h-3.66v18c0,1.24-.21,1.45-1.45,1.45h-6.36c-1.31,0-1.45-.14-1.45-1.66V69.47c0-1.31.14-1.45,1.45-1.45h11.27c5.18,0,7.8.49,10.22,1.8C286,72,287.93,76,287.93,81.63c0,6.36-2.28,10.3-7.74,13.2l10.29,18a2.29,2.29,0,0,1,.35,1C290.83,114.24,290.55,114.52,289.72,114.73ZM271.07,75.07h-2.7V88.68h1.94c6.08,0,8.22-1.86,8.22-7.12C278.53,76.66,276.66,75.07,271.07,75.07Z"/><path class="cls-13" d="M321.33,100.7H302.75c.13,6,2.55,8.71,7.67,8.71a17.1,17.1,0,0,0,7.87-2.14,1.85,1.85,0,0,1,.9-.28c.34,0,.55.21.76.62l1.73,4.15a1.28,1.28,0,0,1,.2.76c0,.76-.55,1.17-2.83,2.14a23.57,23.57,0,0,1-9.53,1.93c-4.42,0-7.88-1.17-10.3-3.38-3.31-3-5.18-8.29-5.18-14.58,0-11.12,6-18.52,15.13-18.52S322.85,86.4,322.85,99C322.85,100.36,322.58,100.7,321.33,100.7ZM308.62,86.4c-3.52,0-5.11,2.21-5.74,7.88h10.78C313.52,88.54,312.14,86.4,308.62,86.4Z"/><path class="cls-13" d="M349.53,113.42c-2.07,2.14-4.83,3.17-8.49,3.17a26.28,26.28,0,0,1-11.75-2.9c-1.24-.62-1.52-.83-1.52-1.31a2.38,2.38,0,0,1,.21-.83l1.59-4.21c.2-.49.41-.69.69-.69a1.52,1.52,0,0,1,.62.2c3.66,2,6.77,3,9.4,3,2.41,0,4-1.45,4-3.59,0-1.93-.83-2.62-5.32-4.35s-5.94-2.56-7.18-3.73A9.16,9.16,0,0,1,329,91.38c0-6.64,5.12-11.27,12.3-11.27,4.35,0,10.57,1.87,10.57,3.18a1.87,1.87,0,0,1-.2.76L350,88c-.21.41-.42.62-.69.62a2.16,2.16,0,0,1-.56-.14,18,18,0,0,0-7-1.79c-2.84,0-4.43,1.24-4.43,3.52,0,1.87.76,2.56,4.56,4,5.12,2,6.57,2.76,8,4.14a9.86,9.86,0,0,1,2.83,7.05A11.71,11.71,0,0,1,349.53,113.42Z"/><path class="cls-13" d="M385.32,100.7H366.74c.14,6,2.55,8.71,7.67,8.71a17.1,17.1,0,0,0,7.87-2.14,1.85,1.85,0,0,1,.9-.28c.35,0,.55.21.76.62l1.73,4.15a1.23,1.23,0,0,1,.21.76c0,.76-.56,1.17-2.84,2.14a23.57,23.57,0,0,1-9.53,1.93c-4.42,0-7.88-1.17-10.3-3.38-3.31-3-5.18-8.29-5.18-14.58,0-11.12,6-18.52,15.13-18.52S386.84,86.4,386.84,99C386.84,100.36,386.57,100.7,385.32,100.7ZM372.61,86.4c-3.52,0-5.11,2.21-5.73,7.88h10.77C377.52,88.54,376.13,86.4,372.61,86.4Z"/><path class="cls-13" d="M419.33,114.18l-5.39,2.14a1.82,1.82,0,0,1-.83.21c-.62,0-1.31-1.32-2.07-4.08-2.77,2.83-5.25,3.94-8.85,3.94-6.35,0-10.36-4.08-10.36-10.44,0-6.14,3.32-9.74,10.3-11.12a45,45,0,0,1,7.73-.62V92.07c0-3.94-1.1-5.19-4.56-5.19a22.71,22.71,0,0,0-7.73,1.8,1.82,1.82,0,0,1-.76.21c-.35,0-.56-.21-.7-.69l-1.45-4.15a3.36,3.36,0,0,1-.13-.76c0-1.45,6.28-3.18,11.81-3.18s9.19,1.8,10.78,5.32a12.82,12.82,0,0,1,1,5.74v14.09a15.37,15.37,0,0,0,1.59,7.47,1.87,1.87,0,0,1,.2.76A.79.79,0,0,1,419.33,114.18Zm-19.14-8.71a4.55,4.55,0,0,0,4.42,4.77,7.11,7.11,0,0,0,5.25-2.7v-7.6C403,99.94,400.19,101.46,400.19,105.47Z"/><path class="cls-13" d="M447.71,82.39,445.56,88c-.13.41-.34.62-.55.62a1.64,1.64,0,0,1-.48-.14,8.71,8.71,0,0,0-2.77-.55c-1.45,0-3.17,1-5.25,3.32v23c0,1-.14,1.18-1.17,1.18h-6.43c-1,0-1.17-.14-1.17-1.18v-21a19.71,19.71,0,0,0-2.07-9.6,2,2,0,0,1-.14-.62c0-.28.27-.56.69-.7l5.59-2c.56-.21.56-.21.83-.21.83,0,1.87,2.08,2.63,5.39,1.45-1.66,1.66-2,2.35-2.69a8.86,8.86,0,0,1,6.29-2.7c2.07,0,3.93.76,3.93,1.52A4,4,0,0,1,447.71,82.39Z"/><path class="cls-13" d="M475.28,84.81l-2.42,4.42a.83.83,0,0,1-.62.49,1.09,1.09,0,0,1-.69-.28c-2.56-1.86-3.8-2.35-5.87-2.35-4.7,0-6.84,3.59-6.84,11.61,0,7.53,2.14,10.92,6.9,10.92a10,10,0,0,0,5.67-1.94,1.42,1.42,0,0,1,.76-.34c.21,0,.41.2.55.48l1.66,4.21c.21.56.21.56.21.83,0,1.73-5.32,3.73-10,3.73-9.4,0-14.85-6.42-14.85-17.55,0-11.74,6.08-18.93,16-18.93,4.21,0,9.81,2.21,9.81,3.94A1.75,1.75,0,0,1,475.28,84.81Z"/><path class="cls-13" d="M489,115.42h-6.43c-1,0-1.17-.14-1.17-1.18V68c0-1,.07-1,1-1.24l6.43-1.31a2.1,2.1,0,0,1,.62-.07c.48,0,.69.34.69,1.17V84.12a13.25,13.25,0,0,1,9.54-4,8.72,8.72,0,0,1,7.6,3.73c1,1.73,1.38,3.6,1.38,7.12v23.28c0,1-.14,1.18-1.18,1.18h-6.42c-1,0-1.18-.14-1.18-1.18V93c0-4.21-1-5.8-3.8-5.8-2.07,0-3.66.76-5.94,2.83v24.25C490.14,115.28,490,115.42,489,115.42Z"/><path class="cls-13" d="M542.11,113.69c-2.77,1.38-4.7,1.73-11.27,1.73H520c-1.25,0-1.46-.21-1.46-1.45V69.47c0-1.24.21-1.45,1.46-1.45h10.84c4.7,0,5.32.07,7.19.42,8.77,1.66,12.85,9.12,12.85,23.35C550.88,103.54,548.05,110.65,542.11,113.69Zm-5.53-36.75c-1.59-1.11-2.84-1.39-6.15-1.39H528v32.34h2.42c3.73,0,5.73-.49,7.18-1.8,2.35-2.07,3.32-6.15,3.32-13.89C540.93,83.29,539.69,79,536.58,76.94Z"/><path class="cls-13" d="M583.71,114.18l-5.39,2.14a1.82,1.82,0,0,1-.83.21c-.62,0-1.31-1.32-2.07-4.08-2.76,2.83-5.25,3.94-8.84,3.94-6.36,0-10.37-4.08-10.37-10.44,0-6.14,3.32-9.74,10.3-11.12a45,45,0,0,1,7.74-.62V92.07c0-3.94-1.11-5.19-4.56-5.19a22.71,22.71,0,0,0-7.74,1.8,1.82,1.82,0,0,1-.76.21c-.35,0-.56-.21-.69-.69L559,84.05a3.36,3.36,0,0,1-.13-.76c0-1.45,6.28-3.18,11.81-3.18s9.19,1.8,10.78,5.32a12.82,12.82,0,0,1,1,5.74v14.09a15.37,15.37,0,0,0,1.59,7.47,1.87,1.87,0,0,1,.2.76A.79.79,0,0,1,583.71,114.18Zm-19.14-8.71a4.55,4.55,0,0,0,4.42,4.77,7.14,7.14,0,0,0,5.26-2.7v-7.6C567.34,99.94,564.57,101.46,564.57,105.47Z"/><path class="cls-13" d="M610.64,115.42a22.75,22.75,0,0,1-7,1.17c-3.59,0-6.21-1.17-7.8-3.52-1.18-1.73-1.52-3.45-1.52-7.32v-18h-4.77c-1,0-1.17-.13-1.17-1.17V82.46c0-1,.13-1.17,1.17-1.17h4.77V72.58c0-1,.14-1.1,1.1-1.24l6.36-.9h.62c.48,0,.69.28.69,1.11v9.74H611c.9,0,1.17.14,1.17.69a1.88,1.88,0,0,1-.07.62l-.9,4.08c-.2.83-.41,1-1.24,1h-6.84V104.5c0,3.66.49,4.42,2.56,4.42,1.38,0,2-.13,4.56-1.17a2,2,0,0,1,.62-.14c.34,0,.55.28.69.69l1.11,4.84a2.23,2.23,0,0,1,.13.76C612.78,114.59,612.37,114.87,610.64,115.42Z"/><path class="cls-13" d="M644.28,114.18l-5.39,2.14a1.82,1.82,0,0,1-.83.21c-.62,0-1.31-1.32-2.08-4.08-2.76,2.83-5.25,3.94-8.84,3.94-6.36,0-10.36-4.08-10.36-10.44,0-6.14,3.31-9.74,10.29-11.12a45.25,45.25,0,0,1,7.74-.62V92.07c0-3.94-1.11-5.19-4.56-5.19a22.76,22.76,0,0,0-7.74,1.8,1.75,1.75,0,0,1-.76.21c-.34,0-.55-.21-.69-.69l-1.45-4.15a2.9,2.9,0,0,1-.14-.76c0-1.45,6.29-3.18,11.82-3.18s9.19,1.8,10.77,5.32a12.68,12.68,0,0,1,1,5.74v14.09a15.49,15.49,0,0,0,1.59,7.47,1.75,1.75,0,0,1,.21.76A.81.81,0,0,1,644.28,114.18Zm-19.14-8.71a4.54,4.54,0,0,0,4.42,4.77,7.12,7.12,0,0,0,5.25-2.7v-7.6C627.9,99.94,625.14,101.46,625.14,105.47Z"/></svg>