<?xml version="1.0" encoding="UTF-8" standalone="no"?>
<svg
   id="Laag_1"
   data-name="Laag 1"
   viewBox="0 0 588.72002 170.97"
   version="1.1"
   sodipodi:docname="logo-gray-cropped.svg"
   inkscape:version="1.2.2 (732a01da63, 2022-12-09)"
   xmlns:inkscape="http://www.inkscape.org/namespaces/inkscape"
   xmlns:sodipodi="http://sodipodi.sourceforge.net/DTD/sodipodi-0.dtd"
   xmlns:xlink="http://www.w3.org/1999/xlink"
   xmlns="http://www.w3.org/2000/svg"
   xmlns:svg="http://www.w3.org/2000/svg">
  <sodipodi:namedview
     id="namedview2033"
     pagecolor="#ffffff"
     bordercolor="#000000"
     borderopacity="0.25"
     inkscape:showpageshadow="2"
     inkscape:pageopacity="0.0"
     inkscape:pagecheckerboard="0"
     inkscape:deskcolor="#d1d1d1"
     showgrid="false"
     inkscape:zoom="3.9784501"
     inkscape:cx="293.83302"
     inkscape:cy="105.8201"
     inkscape:window-width="2880"
     inkscape:window-height="1814"
     inkscape:window-x="-11"
     inkscape:window-y="-11"
     inkscape:window-maximized="1"
     inkscape:current-layer="Laag_1" />
  <defs
     id="defs1902">
    <style
       id="style1881">.cls-1,.cls-10,.cls-11,.cls-2,.cls-3,.cls-4,.cls-5,.cls-6,.cls-7,.cls-8,.cls-9{opacity:0.6;}.cls-1{fill:url(#Naamloos_verloop_3);}.cls-2{fill:url(#Naamloos_verloop_3-2);}.cls-3{fill:url(#Naamloos_verloop_7);}.cls-4{fill:url(#Naamloos_verloop_3-3);}.cls-5{fill:url(#Naamloos_verloop_3-4);}.cls-6{fill:url(#Naamloos_verloop_7-2);}.cls-7{fill:url(#Naamloos_verloop_3-5);}.cls-8{fill:url(#Naamloos_verloop_3-6);}.cls-9{fill:url(#Naamloos_verloop_3-7);}.cls-10{fill:url(#Naamloos_verloop_3-8);}.cls-11{fill:url(#Naamloos_verloop_7-3);}.cls-12{fill:#f2f2f2;}.cls-13{fill:#ccc;}</style>
    <linearGradient
       id="Naamloos_verloop_3"
       x1="-1734.3199"
       y1="1060.2"
       x2="-1704.76"
       y2="1060.2"
       gradientTransform="rotate(45,381.24964,2751.9388)"
       gradientUnits="userSpaceOnUse">
      <stop
         offset="0.19"
         stop-color="#f2f2f2"
         id="stop1883" />
      <stop
         offset="1"
         stop-color="#f2f2f2"
         stop-opacity="0"
         id="stop1885" />
    </linearGradient>
    <linearGradient
       id="Naamloos_verloop_3-2"
       x1="-1900.63"
       y1="736.26001"
       x2="-1871.0601"
       y2="736.26001"
       gradientTransform="rotate(15,1569.2431,7856.6836)"
       xlink:href="#Naamloos_verloop_3" />
    <linearGradient
       id="Naamloos_verloop_7"
       x1="89.32"
       y1="88.599998"
       x2="99.370003"
       y2="91.290001"
       gradientUnits="userSpaceOnUse">
      <stop
         offset="0.19"
         stop-color="#f2f2f2"
         id="stop1889" />
      <stop
         offset="1"
         stop-color="#f2f2f2"
         stop-opacity="0.5"
         id="stop1891" />
    </linearGradient>
    <linearGradient
       id="Naamloos_verloop_3-3"
       x1="-1867.79"
       y1="376.66"
       x2="-1838.22"
       y2="376.66"
       gradientTransform="rotate(-15,-1913.7832,-7109.68)"
       xlink:href="#Naamloos_verloop_3" />
    <linearGradient
       id="Naamloos_verloop_3-4"
       x1="-1674.48"
       y1="77.5"
       x2="-1644.91"
       y2="77.5"
       gradientTransform="rotate(-45,-725.78859,-2004.9285)"
       xlink:href="#Naamloos_verloop_3" />
    <linearGradient
       id="Naamloos_verloop_7-2"
       x1="96.93"
       y1="117.35"
       x2="104.34"
       y2="109.94"
       xlink:href="#Naamloos_verloop_7"
       gradientTransform="translate(-56.139998,-10.350001)" />
    <linearGradient
       id="Naamloos_verloop_3-5"
       x1="-1075.51"
       y1="1286.33"
       x2="-1045.95"
       y2="1286.33"
       gradientTransform="rotate(105,3.655413,1129.4641)"
       xlink:href="#Naamloos_verloop_3" />
    <linearGradient
       id="Naamloos_verloop_3-6"
       x1="-1443.21"
       y1="1261.58"
       x2="-1413.64"
       y2="1261.58"
       gradientTransform="matrix(0.26,0.97,-0.97,0.26,1694.72,1106.23)"
       xlink:href="#Naamloos_verloop_3" />
    <linearGradient
       id="Naamloos_verloop_3-7"
       x1="-977.34003"
       y1="1261.49"
       x2="-959.29999"
       y2="1261.49"
       gradientTransform="matrix(-0.26,-0.97,-0.97,0.26,1095.58,-1129.79)"
       xlink:href="#Naamloos_verloop_3" />
    <linearGradient
       id="Naamloos_verloop_3-8"
       x1="-1330.8101"
       y1="1281.52"
       x2="-1312.78"
       y2="1281.52"
       gradientTransform="matrix(0.26,-0.97,-0.97,-0.26,1694.72,-817.77)"
       xlink:href="#Naamloos_verloop_3" />
    <linearGradient
       id="Naamloos_verloop_7-3"
       x1="110.38"
       y1="67.529999"
       x2="113.1"
       y2="77.669998"
       xlink:href="#Naamloos_verloop_7"
       gradientTransform="translate(-56.139998,-10.350001)" />
    <linearGradient
       inkscape:collect="always"
       xlink:href="#Naamloos_verloop_3"
       id="linearGradient2035"
       gradientUnits="userSpaceOnUse"
       gradientTransform="rotate(45,381.24964,2751.9388)"
       x1="-1734.3199"
       y1="1060.2"
       x2="-1704.76"
       y2="1060.2" />
    <linearGradient
       inkscape:collect="always"
       xlink:href="#Naamloos_verloop_7"
       id="linearGradient2037"
       gradientUnits="userSpaceOnUse"
       x1="89.32"
       y1="88.599998"
       x2="99.370003"
       y2="91.290001"
       gradientTransform="translate(-56.139998,-10.350001)" />
  </defs>
  <polygon
     class="cls-1"
     points="103.76,79.38 101.17,81.97 78.46,62.86 84.65,56.67 "
     id="polygon1904"
     style="fill:url(#linearGradient2035)"
     transform="translate(-56.139998,-10.350001)" />
  <polygon
     class="cls-2"
     points="89.54,86.7 88.59,90.23 59.38,85.04 61.64,76.59 "
     id="polygon1906"
     style="fill:url(#Naamloos_verloop_3-2)"
     transform="translate(-56.139998,-10.350001)" />
  <path
     class="cls-3"
     d="m 44.130002,77.58 -9.82,-3.56 -2.26,8.45 10.26,1.83 a 19.42,19.42 0 0 1 1.82,-6.72 z"
     id="path1908"
     style="fill:url(#linearGradient2037)" />
  <polygon
     class="cls-4"
     points="96.34,100.24 97.29,103.78 69.39,113.89 67.12,105.44 "
     id="polygon1910"
     style="fill:url(#Naamloos_verloop_3-3)"
     transform="translate(-56.139998,-10.350001)" />
  <polygon
     class="cls-5"
     points="95.5,116.19 98.09,118.78 78.98,141.49 72.79,135.3 "
     id="polygon1912"
     style="fill:url(#Naamloos_verloop_3-4)"
     transform="translate(-56.139998,-10.350001)" />
  <path
     class="cls-6"
     d="m 47.970002,99.82 a 19.33,19.33 0 0 1 -2.22,-2.69 l -8,6.78 6.19,6.18 6.77,-8 a 19.33,19.33 0 0 1 -2.74,-2.27 z"
     id="path1914"
     style="fill:url(#Naamloos_verloop_7-2)" />
  <polygon
     class="cls-7"
     points="125.56,75.5 122.03,74.55 127.22,45.33 135.67,47.6 "
     id="polygon1916"
     style="fill:url(#Naamloos_verloop_3-5)"
     transform="translate(-56.139998,-10.350001)" />
  <polygon
     class="cls-8"
     points="112.02,66.81 108.48,67.75 98.38,39.85 106.83,37.59 "
     id="polygon1918"
     style="fill:url(#Naamloos_verloop_3-6)"
     transform="translate(-56.139998,-10.350001)" />
  <polygon
     class="cls-9"
     points="126.44,123.03 124.28,123.61 127.45,141.43 132.61,140.05 "
     id="polygon1920"
     style="fill:url(#Naamloos_verloop_3-7)"
     transform="translate(-56.139998,-10.350001)" />
  <polygon
     class="cls-10"
     points="118.18,118.88 116.02,118.31 109.86,135.32 115.01,136.71 "
     id="polygon1922"
     style="fill:url(#Naamloos_verloop_3-8)"
     transform="translate(-56.139998,-10.350001)" />
  <path
     class="cls-11"
     d="m 60.310002,66.42 -1.84,-10.37 -8.45,2.26 3.57,9.87 a 19.67,19.67 0 0 1 6.72,-1.76 z"
     id="path1924"
     style="fill:url(#Naamloos_verloop_7-3)" />
  <circle
     class="cls-12"
     cx="46.459999"
     cy="28.369995"
     r="4.3699999"
     id="circle1926" />
  <circle
     class="cls-12"
     cx="4.3699999"
     cy="70.459991"
     r="4.3699999"
     id="circle1928" />
  <circle
     class="cls-12"
     cx="33.18"
     cy="78.25"
     r="4.3699999"
     id="circle1930" />
  <circle
     class="cls-12"
     cx="54.239998"
     cy="57.179993"
     r="4.3699999"
     id="circle1932" />
  <circle
     class="cls-12"
     cx="12.110002"
     cy="99.310013"
     r="4.3699999"
     id="circle1934" />
  <circle
     class="cls-12"
     cx="75.309998"
     cy="36.119995"
     r="4.3699999"
     id="circle1936" />
  <circle
     class="cls-12"
     cx="40.790001"
     cy="107"
     r="4.3699999"
     id="circle1938" />
  <circle
     class="cls-12"
     cx="19.75"
     cy="128.05"
     r="4.3699999"
     id="circle1940" />
  <circle
     class="cls-12"
     cx="25.419998"
     cy="49.419998"
     r="4.3699999"
     id="circle1942" />
  <circle
     class="cls-12"
     cx="73.889999"
     cy="130.39001"
     r="2.6700001"
     id="circle1944" />
  <circle
     class="cls-12"
     cx="56.290001"
     cy="125.66"
     r="2.6700001"
     id="circle1946" />
  <path
     d="m 206.57,143.24 a 10.33,10.33 0 0 1 -4.31,-1.05 c -0.21,-0.1 -0.28,-0.19 -0.28,-0.31 a 0.75,0.75 0 0 1 0.07,-0.28 l 0.58,-1.51 c 0.05,-0.1 0.09,-0.14 0.19,-0.14 a 1.13,1.13 0 0 1 0.46,0.21 7.21,7.21 0 0 0 3.32,0.91 2.22,2.22 0 0 0 2.47,-2.29 c 0,-1.45 -0.49,-1.87 -3,-3.24 -2,-1.07 -3.78,-2 -3.78,-4.57 0,-2.57 2,-4.34 4.87,-4.34 a 7.89,7.89 0 0 1 4,1.05 c 0.14,0.09 0.23,0.16 0.23,0.28 a 0.47,0.47 0 0 1 -0.05,0.16 l -0.6,1.4 c -0.07,0.14 -0.12,0.21 -0.24,0.21 a 1,1 0 0 1 -0.42,-0.19 5.8,5.8 0 0 0 -2.84,-0.81 c -1.47,0 -2.34,0.74 -2.34,2 0,1.26 0.42,1.51 2.17,2.47 2.43,1.31 4.6,2.26 4.6,5.37 -0.08,2.8 -2.06,4.67 -5.1,4.67 z"
     id="path1948" />
  <path
     d="m 226.15,141.65 c 0,0.12 -0.07,0.24 -0.26,0.38 a 5.22,5.22 0 0 1 -3.59,1.3 c -3.69,0 -5.65,-3 -5.65,-8.54 0,-3.59 1,-8.18 5.51,-8.18 a 5.72,5.72 0 0 1 3.66,1.4 c 0.17,0.14 0.24,0.25 0.24,0.37 a 0.61,0.61 0 0 1 -0.12,0.3 l -0.75,1.19 c 0,0.1 -0.11,0.12 -0.21,0.12 a 0.44,0.44 0 0 1 -0.28,-0.12 3.9,3.9 0 0 0 -2.45,-1.12 c -2,0 -2.87,1.77 -2.87,5.69 0,4.53 1,6.77 3.15,6.77 a 3.44,3.44 0 0 0 2.24,-1 0.57,0.57 0 0 1 0.33,-0.16 0.23,0.23 0 0 1 0.23,0.14 l 0.7,1.12 a 0.65,0.65 0 0 1 0.12,0.34 z"
     id="path1950" />
  <path
     d="m 231.21,128.84 c -0.35,0 -0.4,0 -0.4,-0.39 v -1.12 c 0,-0.35 0.05,-0.4 0.4,-0.4 h 5.88 c 0.35,0 0.42,0.05 0.42,0.4 v 1.12 c 0,0.35 -0.07,0.39 -0.42,0.39 h -1.66 v 12.18 h 1.66 c 0.35,0 0.42,0 0.42,0.4 v 1.12 c 0,0.35 -0.07,0.39 -0.42,0.39 h -5.88 c -0.35,0 -0.4,0 -0.4,-0.39 v -1.12 c 0,-0.35 0.05,-0.4 0.4,-0.4 h 1.65 v -12.18 z"
     id="path1952" />
  <path
     d="m 250.45,129.03 h -4.8 v 4.55 h 4.21 c 0.33,0 0.4,0 0.4,0.39 v 1.26 c 0,0.33 -0.07,0.38 -0.4,0.38 h -4.22 v 5.2 h 5.22 c 0.35,0 0.4,0.07 0.4,0.42 v 1.31 c 0,0.35 -0.05,0.39 -0.4,0.39 h -7.4 c -0.35,0 -0.37,0 -0.37,-0.39 v -15.21 c 0,-0.35 0,-0.4 0.37,-0.4 h 7.52 c 0.28,0 0.37,0.07 0.37,0.21 a 1,1 0 0 1 -0.05,0.26 l -0.39,1.3 a 0.41,0.41 0 0 1 -0.46,0.33 z"
     id="path1954" />
  <path
     d="m 264.65,142.65 -4.71,-9.57 a 16.36,16.36 0 0 1 -1.07,-2.75 c 0.07,0.86 0.14,1.7 0.14,2.56 v 9.69 c 0,0.35 -0.07,0.39 -0.42,0.39 h -1.4 c -0.35,0 -0.4,0 -0.4,-0.39 v -15.25 c 0,-0.35 0.05,-0.4 0.4,-0.4 h 1.67 c 0.28,0 0.32,0 0.46,0.3 l 4.43,8.89 a 16.81,16.81 0 0 1 1.08,2.75 c -0.07,-0.81 -0.1,-1.65 -0.1,-2.47 v -9.07 c 0,-0.35 0.05,-0.4 0.4,-0.4 h 1.4 c 0.35,0 0.4,0.05 0.4,0.4 v 15.21 c 0,0.35 -0.05,0.39 -0.4,0.39 h -1.4 c -0.27,0 -0.34,-0.04 -0.48,-0.28 z"
     id="path1956" />
  <path
     d="m 282.27,141.65 c 0,0.12 -0.07,0.24 -0.25,0.38 a 5.25,5.25 0 0 1 -3.6,1.3 c -3.68,0 -5.64,-3 -5.64,-8.54 0,-3.59 1.05,-8.18 5.5,-8.18 a 5.76,5.76 0 0 1 3.67,1.4 c 0.16,0.14 0.23,0.25 0.23,0.37 a 0.61,0.61 0 0 1 -0.12,0.3 l -0.74,1.19 a 0.2,0.2 0 0 1 -0.21,0.12 0.42,0.42 0 0 1 -0.28,-0.12 4,4 0 0 0 -2.45,-1.12 c -2,0 -2.87,1.77 -2.87,5.69 0,4.53 1,6.77 3.15,6.77 a 3.48,3.48 0 0 0 2.24,-1 0.54,0.54 0 0 1 0.32,-0.16 0.24,0.24 0 0 1 0.24,0.14 l 0.7,1.12 a 0.62,0.62 0 0 1 0.11,0.34 z"
     id="path1958" />
  <path
     d="m 295.03,129.03 h -4.81 v 4.55 h 4.22 c 0.33,0 0.4,0 0.4,0.39 v 1.26 c 0,0.33 -0.07,0.38 -0.4,0.38 h -4.22 v 5.2 h 5.2 c 0.35,0 0.4,0.07 0.4,0.42 v 1.31 c 0,0.35 0,0.39 -0.4,0.39 h -7.39 c -0.35,0 -0.38,0 -0.38,-0.39 v -15.21 c 0,-0.35 0,-0.4 0.38,-0.4 h 7.51 c 0.28,0 0.37,0.07 0.37,0.21 a 1.51,1.51 0 0 1 0,0.26 l -0.4,1.3 a 0.4,0.4 0 0 1 -0.48,0.33 z"
     id="path1960" />
  <path
     d="m 309.08,137.8 a 3.07,3.07 0 1 1 3,-3.07 3.06,3.06 0 0 1 -3,3.07 z"
     id="path1962" />
  <path
     d="m 330.08,129.03 h -4.8 v 4.55 h 4.22 c 0.33,0 0.39,0 0.39,0.39 v 1.26 c 0,0.33 -0.06,0.38 -0.39,0.38 h -4.22 v 5.2 h 5.2 c 0.35,0 0.4,0.07 0.4,0.42 v 1.31 c 0,0.35 0,0.39 -0.4,0.39 h -7.4 c -0.35,0 -0.37,0 -0.37,-0.39 v -15.21 c 0,-0.35 0,-0.4 0.37,-0.4 h 7.51 c 0.29,0 0.38,0.07 0.38,0.21 a 1,1 0 0 1 -0.05,0.26 l -0.39,1.3 a 0.41,0.41 0 0 1 -0.45,0.33 z"
     id="path1964" />
  <path
     d="m 344.28,142.65 -4.71,-9.57 a 16.47,16.47 0 0 1 -1.08,-2.75 c 0.07,0.86 0.14,1.7 0.14,2.56 v 9.69 c 0,0.35 -0.07,0.39 -0.42,0.39 h -1.35 c -0.35,0 -0.39,0 -0.39,-0.39 v -15.25 c 0,-0.35 0,-0.4 0.39,-0.4 h 1.68 c 0.28,0 0.33,0 0.47,0.3 l 4.43,8.89 a 16.81,16.81 0 0 1 1.08,2.75 c -0.07,-0.81 -0.1,-1.65 -0.1,-2.47 v -9.07 c 0,-0.35 0.05,-0.4 0.4,-0.4 h 1.4 c 0.35,0 0.4,0.05 0.4,0.4 v 15.21 c 0,0.35 0,0.39 -0.4,0.39 h -1.4 c -0.33,0 -0.4,-0.04 -0.54,-0.28 z"
     id="path1966" />
  <path
     d="m 358.54,136.75 c -0.35,0 -0.4,0 -0.4,-0.4 v -1.26 c 0,-0.35 0.05,-0.41 0.4,-0.41 h 3.78 c 0.33,0 0.42,0.06 0.42,0.41 v 6.68 c 0,0.23 -0.07,0.32 -0.37,0.51 a 8.11,8.11 0 0 1 -4,1 c -3.92,0 -5.92,-2.8 -5.92,-8.23 0,-5.58 2.05,-8.49 6,-8.49 a 6.76,6.76 0 0 1 3.89,1.19 0.38,0.38 0 0 1 0.19,0.28 0.83,0.83 0 0 1 -0.09,0.28 l -0.61,1.19 a 0.24,0.24 0 0 1 -0.23,0.16 0.38,0.38 0 0 1 -0.24,-0.07 5,5 0 0 0 -2.87,-1 c -2.3,0 -3.35,1.94 -3.35,6.13 0,2.64 0.16,6.47 3.47,6.47 a 4.22,4.22 0 0 0 1.8,-0.42 v -4 z"
     id="path1968" />
  <path
     d="m 368.34,128.84 c -0.35,0 -0.4,0 -0.4,-0.39 v -1.12 c 0,-0.35 0.05,-0.4 0.4,-0.4 h 5.88 c 0.35,0 0.42,0.05 0.42,0.4 v 1.12 c 0,0.35 -0.07,0.39 -0.42,0.39 h -1.66 v 12.18 h 1.66 c 0.35,0 0.42,0 0.42,0.4 v 1.12 c 0,0.35 -0.07,0.39 -0.42,0.39 h -5.88 c -0.35,0 -0.4,0 -0.4,-0.39 v -1.12 c 0,-0.35 0.05,-0.4 0.4,-0.4 h 1.65 v -12.18 z"
     id="path1970" />
  <path
     d="m 387.95,142.65 -4.71,-9.57 a 16.47,16.47 0 0 1 -1.08,-2.75 c 0.07,0.86 0.14,1.7 0.14,2.56 v 9.69 c 0,0.35 -0.07,0.39 -0.42,0.39 h -1.4 c -0.35,0 -0.39,0 -0.39,-0.39 v -15.25 c 0,-0.35 0,-0.4 0.39,-0.4 h 1.68 c 0.28,0 0.33,0 0.47,0.3 l 4.43,8.89 a 16.69,16.69 0 0 1 1.07,2.75 c -0.07,-0.81 -0.09,-1.65 -0.09,-2.47 v -9.07 c 0,-0.35 0.05,-0.4 0.4,-0.4 h 1.42 c 0.35,0 0.39,0.05 0.39,0.4 v 15.21 c 0,0.35 0,0.39 -0.39,0.39 h -1.4 c -0.3,0 -0.37,-0.04 -0.51,-0.28 z"
     id="path1972" />
  <path
     d="m 404.23,129.03 h -4.81 v 4.55 h 4.22 c 0.33,0 0.4,0 0.4,0.39 v 1.26 c 0,0.33 -0.07,0.38 -0.4,0.38 h -4.22 v 5.2 h 5.21 c 0.34,0 0.39,0.07 0.39,0.42 v 1.31 c 0,0.35 -0.05,0.39 -0.39,0.39 h -7.4 c -0.35,0 -0.37,0 -0.37,-0.39 v -15.21 c 0,-0.35 0,-0.4 0.37,-0.4 h 7.51 c 0.28,0 0.37,0.07 0.37,0.21 a 1.51,1.51 0 0 1 0,0.26 l -0.4,1.3 a 0.4,0.4 0 0 1 -0.48,0.33 z"
     id="path1974" />
  <path
     d="m 418.06,129.03 h -4.8 v 4.55 h 4.22 c 0.33,0 0.4,0 0.4,0.39 v 1.26 c 0,0.33 -0.07,0.38 -0.4,0.38 h -4.22 v 5.2 h 5.2 c 0.35,0 0.4,0.07 0.4,0.42 v 1.31 c 0,0.35 -0.05,0.39 -0.4,0.39 h -7.4 c -0.35,0 -0.37,0 -0.37,-0.39 v -15.21 c 0,-0.35 0,-0.4 0.37,-0.4 h 7.52 c 0.28,0 0.37,0.07 0.37,0.21 a 1,1 0 0 1 0,0.26 l -0.39,1.3 a 0.41,0.41 0 0 1 -0.5,0.33 z"
     id="path1976" />
  <path
     d="m 434.6,142.54 c 0,0.11 -0.07,0.18 -0.23,0.23 l -1.82,0.44 -0.21,0.05 c -0.09,0 -0.17,-0.07 -0.26,-0.26 l -3.54,-7 h -1.5 v 6.51 c 0,0.35 -0.07,0.39 -0.42,0.39 h -1.76 c -0.35,0 -0.38,-0.07 -0.38,-0.44 v -15.13 c 0,-0.35 0,-0.4 0.38,-0.4 h 3.71 c 2,0 2.89,0.21 3.71,0.89 a 4.23,4.23 0 0 1 1.35,3.4 4.44,4.44 0 0 1 -2.82,4.5 l 3.61,6.44 a 1.05,1.05 0 0 1 0.18,0.38 z m -6.18,-13.65 h -1.38 v 5.16 h 1.22 c 2,0 2.84,-0.84 2.84,-2.76 0,-1.92 -0.7,-2.4 -2.68,-2.4 z"
     id="path1978" />
  <path
     d="m 439.7,128.84 c -0.35,0 -0.39,0 -0.39,-0.39 v -1.12 c 0,-0.35 0,-0.4 0.39,-0.4 h 5.88 c 0.35,0 0.42,0.05 0.42,0.4 v 1.12 c 0,0.35 -0.07,0.39 -0.42,0.39 h -1.66 v 12.18 h 1.66 c 0.35,0 0.42,0 0.42,0.4 v 1.12 c 0,0.35 -0.07,0.39 -0.42,0.39 h -5.88 c -0.35,0 -0.39,0 -0.39,-0.39 v -1.12 c 0,-0.35 0,-0.4 0.39,-0.4 h 1.66 v -12.18 z"
     id="path1980" />
  <path
     d="m 459.31,142.65 -4.71,-9.57 a 16.36,16.36 0 0 1 -1.07,-2.75 c 0.07,0.86 0.14,1.7 0.14,2.56 v 9.69 c 0,0.35 -0.07,0.39 -0.42,0.39 h -1.39 c -0.35,0 -0.4,0 -0.4,-0.39 v -15.25 c 0,-0.35 0.05,-0.4 0.4,-0.4 h 1.68 c 0.28,0 0.32,0 0.46,0.3 l 4.44,8.89 a 17.64,17.64 0 0 1 1.07,2.75 c -0.07,-0.81 -0.09,-1.65 -0.09,-2.47 v -9.07 c 0,-0.35 0,-0.4 0.39,-0.4 h 1.4 c 0.35,0 0.4,0.05 0.4,0.4 v 15.21 c 0,0.35 0,0.39 -0.4,0.39 h -1.4 c -0.29,0 -0.36,-0.04 -0.5,-0.28 z"
     id="path1982" />
  <path
     d="m 473.58,136.75 c -0.35,0 -0.4,0 -0.4,-0.4 v -1.26 c 0,-0.35 0,-0.41 0.4,-0.41 h 3.78 c 0.32,0 0.42,0.06 0.42,0.41 v 6.68 c 0,0.23 -0.07,0.32 -0.38,0.51 a 8,8 0 0 1 -4,1 c -3.92,0 -5.93,-2.8 -5.93,-8.23 0,-5.58 2,-8.49 6,-8.49 a 6.8,6.8 0 0 1 3.9,1.19 c 0.11,0.09 0.19,0.18 0.19,0.28 a 0.68,0.68 0 0 1 -0.1,0.28 l -0.6,1.19 a 0.25,0.25 0 0 1 -0.24,0.16 0.37,0.37 0 0 1 -0.23,-0.07 5,5 0 0 0 -2.87,-1 c -2.31,0 -3.36,1.94 -3.36,6.13 0,2.64 0.16,6.47 3.48,6.47 a 4.18,4.18 0 0 0 1.79,-0.42 v -4 z"
     id="path1984" />
  <path
     d="m 491.64,137.8 a 3.07,3.07 0 1 1 3,-3.07 3.06,3.06 0 0 1 -3,3.07 z"
     id="path1986" />
  <path
     d="m 509.03,142.93 h -3.74 c -0.35,0 -0.37,0 -0.37,-0.39 v -15.21 c 0,-0.35 0.05,-0.4 0.37,-0.4 h 3.27 c 4.78,0 6.56,2.82 6.56,7.77 0,4.36 -1.19,8.23 -6.09,8.23 z m -0.35,-13.9 h -1.19 v 11.78 h 1.3 c 3.39,0 3.62,-2.92 3.62,-5.9 0,-3.26 -0.44,-5.88 -3.73,-5.88 z"
     id="path1988" />
  <path
     d="m 528.49,129.03 h -4.81 v 4.55 h 4.18 c 0.33,0 0.4,0 0.4,0.39 v 1.26 c 0,0.33 -0.07,0.38 -0.4,0.38 h -4.22 v 5.2 h 5.22 c 0.35,0 0.4,0.07 0.4,0.42 v 1.31 c 0,0.35 0,0.39 -0.4,0.39 h -7.39 c -0.35,0 -0.37,0 -0.37,-0.39 v -15.21 c 0,-0.35 0,-0.4 0.37,-0.4 h 7.51 c 0.28,0 0.37,0.07 0.37,0.21 a 1.51,1.51 0 0 1 0,0.26 l -0.4,1.3 a 0.4,0.4 0 0 1 -0.46,0.33 z"
     id="path1990" />
  <path
     d="m 538.86,143.24 a 10.33,10.33 0 0 1 -4.31,-1.05 c -0.21,-0.1 -0.28,-0.19 -0.28,-0.31 a 0.75,0.75 0 0 1 0.07,-0.28 l 0.58,-1.51 c 0.05,-0.1 0.09,-0.14 0.19,-0.14 a 1.13,1.13 0 0 1 0.46,0.21 7.21,7.21 0 0 0 3.32,0.91 2.22,2.22 0 0 0 2.47,-2.29 c 0,-1.45 -0.49,-1.87 -3,-3.24 -2,-1.07 -3.78,-2 -3.78,-4.57 0,-2.57 2,-4.34 4.87,-4.34 a 7.89,7.89 0 0 1 4,1.05 c 0.14,0.09 0.23,0.16 0.23,0.28 a 0.47,0.47 0 0 1 -0.05,0.16 l -0.6,1.4 c -0.07,0.14 -0.12,0.21 -0.24,0.21 a 1,1 0 0 1 -0.42,-0.19 5.8,5.8 0 0 0 -2.84,-0.81 c -1.47,0 -2.34,0.74 -2.34,2 0,1.26 0.42,1.51 2.17,2.47 2.43,1.31 4.6,2.26 4.6,5.37 -0.1,2.8 -2.1,4.67 -5.1,4.67 z"
     id="path1992" />
  <path
     d="m 549.06,128.84 c -0.35,0 -0.39,0 -0.39,-0.39 v -1.12 c 0,-0.35 0,-0.4 0.39,-0.4 h 5.88 c 0.35,0 0.42,0.05 0.42,0.4 v 1.12 c 0,0.35 -0.07,0.39 -0.42,0.39 h -1.66 v 12.18 h 1.66 c 0.35,0 0.42,0 0.42,0.4 v 1.12 c 0,0.35 -0.07,0.39 -0.42,0.39 h -5.88 c -0.35,0 -0.39,0 -0.39,-0.39 v -1.12 c 0,-0.35 0,-0.4 0.39,-0.4 h 1.66 v -12.18 z"
     id="path1994" />
  <path
     d="m 565.94,136.75 c -0.35,0 -0.4,0 -0.4,-0.4 v -1.26 c 0,-0.35 0.05,-0.41 0.4,-0.41 h 3.78 c 0.33,0 0.42,0.06 0.42,0.41 v 6.68 c 0,0.23 -0.07,0.32 -0.38,0.51 a 8,8 0 0 1 -4,1 c -3.92,0 -5.93,-2.8 -5.93,-8.23 0,-5.58 2.06,-8.49 6,-8.49 a 6.76,6.76 0 0 1 3.89,1.19 0.38,0.38 0 0 1 0.19,0.28 0.68,0.68 0 0 1 -0.1,0.28 l -0.6,1.19 a 0.24,0.24 0 0 1 -0.24,0.16 0.37,0.37 0 0 1 -0.23,-0.07 5,5 0 0 0 -2.87,-1 c -2.31,0 -3.36,1.94 -3.36,6.13 0,2.64 0.17,6.47 3.48,6.47 a 4.22,4.22 0 0 0 1.8,-0.42 v -4 z"
     id="path1996" />
  <path
     d="m 584.12,142.65 -4.71,-9.57 a 16.36,16.36 0 0 1 -1.07,-2.75 c 0.07,0.86 0.14,1.7 0.14,2.56 v 9.69 c 0,0.35 -0.07,0.39 -0.42,0.39 h -1.4 c -0.35,0 -0.4,0 -0.4,-0.39 v -15.25 c 0,-0.35 0.05,-0.4 0.4,-0.4 h 1.68 c 0.28,0 0.32,0 0.46,0.3 l 4.44,8.89 a 17.64,17.64 0 0 1 1.07,2.75 c -0.07,-0.81 -0.09,-1.65 -0.09,-2.47 v -9.07 c 0,-0.35 0,-0.4 0.39,-0.4 h 1.4 c 0.35,0 0.4,0.05 0.4,0.4 v 15.21 c 0,0.35 0,0.39 -0.4,0.39 h -1.4 c -0.28,0 -0.35,-0.04 -0.49,-0.28 z"
     id="path1998" />
  <path
     class="cls-12"
     d="m 72.090002,94.57 v -7.26 l 17.2,-28.74 c 0.42,-0.69 0.62,-0.9 0.9,-0.9 a 2.6,2.6 0 0 1 1,0.28 l 4.11,1.7 c 0.76,0.34 1,0.55 1,1 a 2,2 0 0 1 -0.42,1 l -16.02,27.32 h 10.78 l 0.9,-11.12 c 0.07,-1.18 0.28,-1.32 1.45,-1.32 h 4.7 c 1.31,0 1.45,0.14 1.45,1.46 V 89.18 H 103.08 c 1.31,0 1.45,0.14 1.45,1.66 v 3.73 c 0,1.17 -0.21,1.38 -1.45,1.38 h -3.939998 v 9 c 0,1.25 -0.14,1.38 -1.45,1.38 h -5.73 c -1.32,0 -1.45,-0.13 -1.45,-1.38 v -9 h -16.97 c -1.32,0 -1.45,-0.14 -1.45,-1.38 z"
     id="path2000" />
  <path
     class="cls-12"
     d="m 135.86,59.26 -1.45,5.46 c -0.28,1 -0.49,1.17 -1.53,1.17 h -8.49 v 37.76 c 0,1.31 -0.14,1.45 -1.45,1.45 h -6.71 c -1.31,0 -1.45,-0.14 -1.45,-1.45 V 65.89 h -8.7 c -1.32,0 -1.45,-0.13 -1.45,-1.38 v -5.39 c 0,-1.24 0.13,-1.45 1.45,-1.45 h 28.53 c 1,0 1.38,0.21 1.38,0.76 a 4,4 0 0 1 -0.13,0.83 z"
     id="path2002" />
  <path
     class="cls-12"
     d="m 170.49,101.2 c -3.31,3.45 -7.6,5 -13.68,5 -6.42,0 -10.84,-1.93 -13.47,-6 -1.66,-2.62 -2.35,-5.8 -2.35,-11.19 V 59.12 c 0,-1.31 0.14,-1.45 1.45,-1.45 h 6.57 c 1.24,0 1.45,0.21 1.45,1.45 v 29.92 c 0,4.56 0.27,5.87 1.38,7.32 1.24,1.66 3.11,2.42 5.66,2.42 5.46,0 7.67,-2.76 7.67,-9.6 V 59.12 c 0,-1.24 0.21,-1.45 1.45,-1.45 h 6.24 c 1.31,0 1.45,0.14 1.45,1.45 v 29.92 c -0.02,6.08 -0.98,9.19 -3.82,12.16 z"
     id="path2004" />
  <path
     class="cls-13"
     d="m 188.17,105.37 a 5.26,5.26 0 0 1 -5.27,-5.2 5.19,5.19 0 0 1 5.27,-5.23 5.22,5.22 0 0 1 0,10.43 z"
     id="path2006" />
  <path
     class="cls-13"
     d="m 233.58,104.38 -6.15,1.73 c -0.62,0.2 -0.62,0.2 -0.83,0.2 -0.21,0 -0.55,-0.2 -1,-1 l -9.74,-19.66 h -3.66 v 18 c 0,1.24 -0.21,1.45 -1.45,1.45 h -6.36 c -1.31,0 -1.45,-0.14 -1.45,-1.66 V 59.12 c 0,-1.31 0.14,-1.45 1.45,-1.45 h 11.27 c 5.18,0 7.8,0.49 10.22,1.8 3.98,2.18 5.91,6.18 5.91,11.81 0,6.36 -2.28,10.3 -7.74,13.2 l 10.29,18 a 2.29,2.29 0 0 1 0.35,1 c 0,0.41 -0.28,0.69 -1.11,0.9 z M 214.93,64.72 h -2.7 v 13.61 h 1.94 c 6.08,0 8.22,-1.86 8.22,-7.12 0,-4.9 -1.87,-6.49 -7.46,-6.49 z"
     id="path2008" />
  <path
     class="cls-13"
     d="m 265.19,90.35 h -18.58 c 0.13,6 2.55,8.71 7.67,8.71 a 17.1,17.1 0 0 0 7.87,-2.14 1.85,1.85 0 0 1 0.9,-0.28 c 0.34,0 0.55,0.21 0.76,0.62 l 1.73,4.15 a 1.28,1.28 0 0 1 0.2,0.76 c 0,0.76 -0.55,1.17 -2.83,2.14 a 23.57,23.57 0 0 1 -9.53,1.93 c -4.42,0 -7.88,-1.17 -10.3,-3.38 -3.31,-3 -5.18,-8.29 -5.18,-14.58 0,-11.12 6,-18.52 15.13,-18.52 9.13,0 13.68,6.29 13.68,18.89 0,1.36 -0.27,1.7 -1.52,1.7 z m -12.71,-14.3 c -3.52,0 -5.11,2.21 -5.74,7.88 h 10.78 c -0.14,-5.74 -1.52,-7.88 -5.04,-7.88 z"
     id="path2010" />
  <path
     class="cls-13"
     d="m 293.39,103.07 c -2.07,2.14 -4.83,3.17 -8.49,3.17 a 26.28,26.28 0 0 1 -11.75,-2.9 c -1.24,-0.62 -1.52,-0.83 -1.52,-1.31 a 2.38,2.38 0 0 1 0.21,-0.83 l 1.59,-4.21 c 0.2,-0.49 0.41,-0.69 0.69,-0.69 a 1.52,1.52 0 0 1 0.62,0.2 c 3.66,2 6.77,3 9.4,3 2.41,0 4,-1.45 4,-3.59 0,-1.93 -0.83,-2.62 -5.32,-4.35 -4.49,-1.73 -5.94,-2.56 -7.18,-3.73 a 9.16,9.16 0 0 1 -2.78,-6.8 c 0,-6.64 5.12,-11.27 12.3,-11.27 4.35,0 10.57,1.87 10.57,3.18 a 1.87,1.87 0 0 1 -0.2,0.76 l -1.67,3.95 c -0.21,0.41 -0.42,0.62 -0.69,0.62 a 2.16,2.16 0 0 1 -0.56,-0.14 18,18 0 0 0 -7,-1.79 c -2.84,0 -4.43,1.24 -4.43,3.52 0,1.87 0.76,2.56 4.56,4 5.12,2 6.57,2.76 8,4.14 a 9.86,9.86 0 0 1 2.83,7.05 11.71,11.71 0 0 1 -3.18,8.02 z"
     id="path2012" />
  <path
     class="cls-13"
     d="M 329.18,90.35 H 310.6 c 0.14,6 2.55,8.71 7.67,8.71 a 17.1,17.1 0 0 0 7.87,-2.14 1.85,1.85 0 0 1 0.9,-0.28 c 0.35,0 0.55,0.21 0.76,0.62 l 1.73,4.15 a 1.23,1.23 0 0 1 0.21,0.76 c 0,0.76 -0.56,1.17 -2.84,2.14 a 23.57,23.57 0 0 1 -9.53,1.93 c -4.42,0 -7.88,-1.17 -10.3,-3.38 -3.31,-3 -5.18,-8.29 -5.18,-14.58 0,-11.12 6,-18.52 15.13,-18.52 9.13,0 13.68,6.29 13.68,18.89 0,1.36 -0.27,1.7 -1.52,1.7 z m -12.71,-14.3 c -3.52,0 -5.11,2.21 -5.73,7.88 h 10.77 c -0.13,-5.74 -1.52,-7.88 -5.04,-7.88 z"
     id="path2014" />
  <path
     class="cls-13"
     d="m 363.19,103.83 -5.39,2.14 a 1.82,1.82 0 0 1 -0.83,0.21 c -0.62,0 -1.31,-1.32 -2.07,-4.08 -2.77,2.83 -5.25,3.94 -8.85,3.94 -6.35,0 -10.36,-4.08 -10.36,-10.44 0,-6.14 3.32,-9.74 10.3,-11.12 a 45,45 0 0 1 7.73,-0.62 v -2.14 c 0,-3.94 -1.1,-5.19 -4.56,-5.19 a 22.71,22.71 0 0 0 -7.73,1.8 1.82,1.82 0 0 1 -0.76,0.21 c -0.35,0 -0.56,-0.21 -0.7,-0.69 l -1.45,-4.15 a 3.36,3.36 0 0 1 -0.13,-0.76 c 0,-1.45 6.28,-3.18 11.81,-3.18 5.53,0 9.19,1.8 10.78,5.32 a 12.82,12.82 0 0 1 1,5.74 v 14.09 a 15.37,15.37 0 0 0 1.59,7.47 1.87,1.87 0 0 1 0.2,0.76 0.79,0.79 0 0 1 -0.58,0.69 z m -19.14,-8.71 a 4.55,4.55 0 0 0 4.42,4.77 7.11,7.11 0 0 0 5.25,-2.7 v -7.6 c -6.86,0 -9.67,1.52 -9.67,5.53 z"
     id="path2016" />
  <path
     class="cls-13"
     d="m 391.57,72.04 -2.15,5.61 c -0.13,0.41 -0.34,0.62 -0.55,0.62 a 1.64,1.64 0 0 1 -0.48,-0.14 8.71,8.71 0 0 0 -2.77,-0.55 c -1.45,0 -3.17,1 -5.25,3.32 v 23 c 0,1 -0.14,1.18 -1.17,1.18 h -6.43 c -1,0 -1.17,-0.14 -1.17,-1.18 v -21 a 19.71,19.71 0 0 0 -2.07,-9.6 2,2 0 0 1 -0.14,-0.62 c 0,-0.28 0.27,-0.56 0.69,-0.7 l 5.59,-2 c 0.56,-0.21 0.56,-0.21 0.83,-0.21 0.83,0 1.87,2.08 2.63,5.39 1.45,-1.66 1.66,-2 2.35,-2.69 a 8.86,8.86 0 0 1 6.29,-2.7 c 2.07,0 3.93,0.76 3.93,1.52 a 4,4 0 0 1 -0.13,0.75 z"
     id="path2018" />
  <path
     class="cls-13"
     d="m 419.14,74.46 -2.42,4.42 a 0.83,0.83 0 0 1 -0.62,0.49 1.09,1.09 0 0 1 -0.69,-0.28 c -2.56,-1.86 -3.8,-2.35 -5.87,-2.35 -4.7,0 -6.84,3.59 -6.84,11.61 0,7.53 2.14,10.92 6.9,10.92 a 10,10 0 0 0 5.67,-1.94 1.42,1.42 0 0 1 0.76,-0.34 c 0.21,0 0.41,0.2 0.55,0.48 l 1.66,4.21 c 0.21,0.56 0.21,0.56 0.21,0.83 0,1.73 -5.32,3.73 -10,3.73 -9.4,0 -14.85,-6.42 -14.85,-17.55 0,-11.74 6.08,-18.93 16,-18.93 4.21,0 9.81,2.21 9.81,3.94 a 1.75,1.75 0 0 1 -0.27,0.76 z"
     id="path2020" />
  <path
     class="cls-13"
     d="m 432.86,105.07 h -6.43 c -1,0 -1.17,-0.14 -1.17,-1.18 V 57.65 c 0,-1 0.07,-1 1,-1.24 l 6.43,-1.31 a 2.1,2.1 0 0 1 0.62,-0.07 c 0.48,0 0.69,0.34 0.69,1.17 v 17.57 a 13.25,13.25 0 0 1 9.54,-4 8.72,8.72 0 0 1 7.6,3.73 c 1,1.73 1.38,3.6 1.38,7.12 v 23.28 c 0,1 -0.14,1.18 -1.18,1.18 h -6.42 c -1,0 -1.18,-0.14 -1.18,-1.18 V 82.65 c 0,-4.21 -1,-5.8 -3.8,-5.8 -2.07,0 -3.66,0.76 -5.94,2.83 v 24.25 c 0,1 -0.14,1.14 -1.14,1.14 z"
     id="path2022" />
  <path
     class="cls-13"
     d="m 485.97,103.34 c -2.77,1.38 -4.7,1.73 -11.27,1.73 h -10.84 c -1.25,0 -1.46,-0.21 -1.46,-1.45 v -44.5 c 0,-1.24 0.21,-1.45 1.46,-1.45 h 10.84 c 4.7,0 5.32,0.07 7.19,0.42 8.77,1.66 12.85,9.12 12.85,23.35 0,11.75 -2.83,18.86 -8.77,21.9 z m -5.53,-36.75 c -1.59,-1.11 -2.84,-1.39 -6.15,-1.39 h -2.43 v 32.34 h 2.42 c 3.73,0 5.73,-0.49 7.18,-1.8 2.35,-2.07 3.32,-6.15 3.32,-13.89 0.01,-8.91 -1.23,-13.2 -4.34,-15.26 z"
     id="path2024" />
  <path
     class="cls-13"
     d="m 527.57,103.83 -5.39,2.14 a 1.82,1.82 0 0 1 -0.83,0.21 c -0.62,0 -1.31,-1.32 -2.07,-4.08 -2.76,2.83 -5.25,3.94 -8.84,3.94 -6.36,0 -10.37,-4.08 -10.37,-10.44 0,-6.14 3.32,-9.74 10.3,-11.12 a 45,45 0 0 1 7.74,-0.62 v -2.14 c 0,-3.94 -1.11,-5.19 -4.56,-5.19 a 22.71,22.71 0 0 0 -7.74,1.8 1.82,1.82 0 0 1 -0.76,0.21 c -0.35,0 -0.56,-0.21 -0.69,-0.69 l -1.5,-4.15 a 3.36,3.36 0 0 1 -0.13,-0.76 c 0,-1.45 6.28,-3.18 11.81,-3.18 5.53,0 9.19,1.8 10.78,5.32 a 12.82,12.82 0 0 1 1,5.74 v 14.09 a 15.37,15.37 0 0 0 1.59,7.47 1.87,1.87 0 0 1 0.2,0.76 0.79,0.79 0 0 1 -0.54,0.69 z m -19.14,-8.71 a 4.55,4.55 0 0 0 4.42,4.77 7.14,7.14 0 0 0 5.26,-2.7 v -7.6 c -6.91,0 -9.68,1.52 -9.68,5.53 z"
     id="path2026" />
  <path
     class="cls-13"
     d="m 554.5,105.07 a 22.75,22.75 0 0 1 -7,1.17 c -3.59,0 -6.21,-1.17 -7.8,-3.52 -1.18,-1.73 -1.52,-3.45 -1.52,-7.32 v -18 h -4.77 c -1,0 -1.17,-0.13 -1.17,-1.17 v -4.12 c 0,-1 0.13,-1.17 1.17,-1.17 h 4.77 v -8.71 c 0,-1 0.14,-1.1 1.1,-1.24 l 6.36,-0.9 h 0.62 c 0.48,0 0.69,0.28 0.69,1.11 v 9.74 h 7.91 c 0.9,0 1.17,0.14 1.17,0.69 a 1.88,1.88 0 0 1 -0.07,0.62 l -0.9,4.08 c -0.2,0.83 -0.41,1 -1.24,1 h -6.84 v 16.82 c 0,3.66 0.49,4.42 2.56,4.42 1.38,0 2,-0.13 4.56,-1.17 a 2,2 0 0 1 0.62,-0.14 c 0.34,0 0.55,0.28 0.69,0.69 l 1.11,4.84 a 2.23,2.23 0 0 1 0.13,0.76 c -0.01,0.69 -0.42,0.97 -2.15,1.52 z"
     id="path2028" />
  <path
     class="cls-13"
     d="m 588.14,103.83 -5.39,2.14 a 1.82,1.82 0 0 1 -0.83,0.21 c -0.62,0 -1.31,-1.32 -2.08,-4.08 -2.76,2.83 -5.25,3.94 -8.84,3.94 -6.36,0 -10.36,-4.08 -10.36,-10.44 0,-6.14 3.31,-9.74 10.29,-11.12 a 45.25,45.25 0 0 1 7.74,-0.62 v -2.14 c 0,-3.94 -1.11,-5.19 -4.56,-5.19 a 22.76,22.76 0 0 0 -7.74,1.8 1.75,1.75 0 0 1 -0.76,0.21 c -0.34,0 -0.55,-0.21 -0.69,-0.69 l -1.45,-4.15 a 2.9,2.9 0 0 1 -0.14,-0.76 c 0,-1.45 6.29,-3.18 11.82,-3.18 5.53,0 9.19,1.8 10.77,5.32 a 12.68,12.68 0 0 1 1,5.74 v 14.09 a 15.49,15.49 0 0 0 1.59,7.47 1.75,1.75 0 0 1 0.21,0.76 0.81,0.81 0 0 1 -0.58,0.69 z M 569,95.12 a 4.54,4.54 0 0 0 4.42,4.77 7.12,7.12 0 0 0 5.25,-2.7 v -7.6 c -6.91,0 -9.67,1.52 -9.67,5.53 z"
     id="path2030" />
</svg>
