<svg xmlns="http://www.w3.org/2000/svg" xmlns:xlink="http://www.w3.org/1999/xlink" style="margin:auto;background:#ffffff;display:block;" width="100px" height="100px" viewBox="0 0 100 100" preserveAspectRatio="xMidYMid">
<g transform="rotate(0 50 50)">
  <rect x="47.5" y="27.5" rx="2.5" ry="4.95" width="5" height="11" fill="{{primary_color}}">
    <animate attributeName="opacity" values="1;0" keyTimes="0;1" dur="0.8s" begin="-0.7333333333333333s" repeatCount="indefinite"></animate>
  </rect>
</g><g transform="rotate(30 50 50)">
  <rect x="47.5" y="27.5" rx="2.5" ry="4.95" width="5" height="11" fill="{{primary_color}}">
    <animate attributeName="opacity" values="1;0" keyTimes="0;1" dur="0.8s" begin="-0.6666666666666666s" repeatCount="indefinite"></animate>
  </rect>
</g><g transform="rotate(60 50 50)">
  <rect x="47.5" y="27.5" rx="2.5" ry="4.95" width="5" height="11" fill="{{primary_color}}">
    <animate attributeName="opacity" values="1;0" keyTimes="0;1" dur="0.8s" begin="-0.6s" repeatCount="indefinite"></animate>
  </rect>
</g><g transform="rotate(90 50 50)">
  <rect x="47.5" y="27.5" rx="2.5" ry="4.95" width="5" height="11" fill="{{primary_color}}">
    <animate attributeName="opacity" values="1;0" keyTimes="0;1" dur="0.8s" begin="-0.5333333333333333s" repeatCount="indefinite"></animate>
  </rect>
</g><g transform="rotate(120 50 50)">
  <rect x="47.5" y="27.5" rx="2.5" ry="4.95" width="5" height="11" fill="{{primary_color}}">
    <animate attributeName="opacity" values="1;0" keyTimes="0;1" dur="0.8s" begin="-0.4666666666666667s" repeatCount="indefinite"></animate>
  </rect>
</g><g transform="rotate(150 50 50)">
  <rect x="47.5" y="27.5" rx="2.5" ry="4.95" width="5" height="11" fill="{{primary_color}}">
    <animate attributeName="opacity" values="1;0" keyTimes="0;1" dur="0.8s" begin="-0.4s" repeatCount="indefinite"></animate>
  </rect>
</g><g transform="rotate(180 50 50)">
  <rect x="47.5" y="27.5" rx="2.5" ry="4.95" width="5" height="11" fill="{{primary_color}}">
    <animate attributeName="opacity" values="1;0" keyTimes="0;1" dur="0.8s" begin="-0.3333333333333333s" repeatCount="indefinite"></animate>
  </rect>
</g><g transform="rotate(210 50 50)">
  <rect x="47.5" y="27.5" rx="2.5" ry="4.95" width="5" height="11" fill="{{primary_color}}">
    <animate attributeName="opacity" values="1;0" keyTimes="0;1" dur="0.8s" begin="-0.26666666666666666s" repeatCount="indefinite"></animate>
  </rect>
</g><g transform="rotate(240 50 50)">
  <rect x="47.5" y="27.5" rx="2.5" ry="4.95" width="5" height="11" fill="{{primary_color}}">
    <animate attributeName="opacity" values="1;0" keyTimes="0;1" dur="0.8s" begin="-0.2s" repeatCount="indefinite"></animate>
  </rect>
</g><g transform="rotate(270 50 50)">
  <rect x="47.5" y="27.5" rx="2.5" ry="4.95" width="5" height="11" fill="{{primary_color}}">
    <animate attributeName="opacity" values="1;0" keyTimes="0;1" dur="0.8s" begin="-0.13333333333333333s" repeatCount="indefinite"></animate>
  </rect>
</g><g transform="rotate(300 50 50)">
  <rect x="47.5" y="27.5" rx="2.5" ry="4.95" width="5" height="11" fill="{{primary_color}}">
    <animate attributeName="opacity" values="1;0" keyTimes="0;1" dur="0.8s" begin="-0.06666666666666667s" repeatCount="indefinite"></animate>
  </rect>
</g><g transform="rotate(330 50 50)">
  <rect x="47.5" y="27.5" rx="2.5" ry="4.95" width="5" height="11" fill="{{primary_color}}">
    <animate attributeName="opacity" values="1;0" keyTimes="0;1" dur="0.8s" begin="0s" repeatCount="indefinite"></animate>
  </rect>
</g>
</svg>
