<?xml version="1.0" encoding="UTF-8" standalone="no"?>
<!-- Created with Inkscape (http://www.inkscape.org/) -->

<svg
   version="1.1"
   id="svg1"
   width="869.29132"
   height="161.47275"
   viewBox="0 0 869.29132 161.47275"
   sodipodi:docname="account.pdf"
   xmlns:inkscape="http://www.inkscape.org/namespaces/inkscape"
   xmlns:sodipodi="http://sodipodi.sourceforge.net/DTD/sodipodi-0.dtd"
   xmlns="http://www.w3.org/2000/svg"
   xmlns:svg="http://www.w3.org/2000/svg">
  <defs
     id="defs1" />
  <sodipodi:namedview
     id="namedview1"
     pagecolor="#ffffff"
     bordercolor="#000000"
     borderopacity="0.25"
     inkscape:showpageshadow="2"
     inkscape:pageopacity="0.0"
     inkscape:pagecheckerboard="0"
     inkscape:deskcolor="#d1d1d1">
    <inkscape:page
       x="0"
       y="0"
       inkscape:label="1"
       id="page1"
       width="869.29132"
       height="161.47275"
       margin="0"
       bleed="0" />
  </sodipodi:namedview>
  <g
     id="g1"
     inkscape:groupmode="layer"
     inkscape:label="1">
    <path
       id="path1"
       d="m 288.254,0 h 75.383 c 3.461,0 6.246,2.785 6.246,6.246 v 8.617 c 0,3.461 -2.785,6.246 -6.246,6.246 h -75.383 c -3.461,0 -6.246,-2.785 -6.246,-6.246 V 6.246 C 282.008,2.785 284.793,0 288.254,0 Z"
       style="fill:#5d536c;fill-opacity:1;fill-rule:nonzero;stroke:none"
       transform="scale(1.3333333)" />
    <path
       id="path2"
       d="m 293.352,6.496 0.863,0.106 v 7.578 h -0.754 l -0.082,-0.715 c -0.203,0.289 -0.434,0.496 -0.699,0.633 -0.258,0.132 -0.539,0.199 -0.836,0.199 -0.469,0 -0.856,-0.117 -1.156,-0.356 -0.305,-0.234 -0.532,-0.562 -0.68,-0.984 -0.145,-0.422 -0.219,-0.914 -0.219,-1.473 0,-0.539 0.082,-1.019 0.25,-1.445 0.168,-0.426 0.41,-0.762 0.723,-1.004 0.32,-0.246 0.699,-0.371 1.144,-0.371 0.598,0 1.082,0.215 1.446,0.637 z m -1.219,2.859 c -0.453,0 -0.801,0.18 -1.043,0.532 -0.242,0.351 -0.363,0.883 -0.363,1.597 0,1.411 0.433,2.114 1.296,2.114 0.305,0 0.567,-0.086 0.786,-0.254 0.218,-0.176 0.398,-0.375 0.543,-0.598 V 10.051 C 293.207,9.832 293.027,9.66 292.82,9.543 292.609,9.418 292.383,9.355 292.133,9.355 Z m 6.871,-3.105 c 0.191,0 0.344,0.059 0.461,0.176 0.117,0.113 0.176,0.258 0.176,0.426 0,0.171 -0.059,0.32 -0.176,0.437 -0.117,0.117 -0.27,0.176 -0.461,0.176 -0.184,0 -0.332,-0.059 -0.445,-0.176 -0.114,-0.117 -0.172,-0.266 -0.172,-0.437 0,-0.168 0.058,-0.313 0.172,-0.426 0.113,-0.117 0.261,-0.176 0.445,-0.176 z m 0.805,2.527 v 4.535 c 0,0.602 -0.137,1.106 -0.411,1.512 -0.269,0.406 -0.66,0.731 -1.175,0.973 -0.512,0.246 -1.129,0.433 -1.856,0.555 l -0.144,-0.664 c 0.535,-0.09 1.007,-0.223 1.418,-0.403 0.41,-0.176 0.73,-0.422 0.957,-0.726 0.234,-0.309 0.347,-0.707 0.347,-1.192 V 9.461 h -2.246 V 8.777 Z m 3.48,-2.257 v 2.996 c 0.215,-0.282 0.473,-0.493 0.781,-0.637 0.313,-0.141 0.625,-0.215 0.946,-0.215 0.523,0 0.91,0.141 1.152,0.422 0.242,0.281 0.363,0.668 0.363,1.168 v 3.926 h -0.859 v -3.907 c 0,-0.324 -0.078,-0.558 -0.227,-0.707 -0.152,-0.148 -0.386,-0.222 -0.707,-0.222 -0.207,0 -0.402,0.043 -0.586,0.136 -0.183,0.094 -0.351,0.208 -0.496,0.344 -0.148,0.137 -0.269,0.278 -0.367,0.422 V 14.18 H 302.43 V 6.613 Z m 9.582,7.386 c -0.183,0.121 -0.41,0.219 -0.672,0.285 -0.265,0.071 -0.523,0.106 -0.773,0.106 -0.582,0 -1.031,-0.152 -1.344,-0.457 -0.316,-0.305 -0.473,-0.695 -0.473,-1.176 V 9.445 h -1.242 V 8.777 h 1.242 V 7.551 l 0.86,-0.102 v 1.328 h 1.867 l -0.102,0.668 h -1.765 v 3.211 c 0,0.301 0.082,0.528 0.238,0.688 0.16,0.156 0.426,0.234 0.793,0.234 0.203,0 0.391,-0.023 0.559,-0.07 0.171,-0.051 0.332,-0.11 0.476,-0.188 z m 3.078,-4.144 c 0,-0.227 0.078,-0.422 0.235,-0.582 0.16,-0.164 0.355,-0.242 0.589,-0.242 0.239,0 0.438,0.078 0.594,0.242 0.16,0.16 0.242,0.355 0.242,0.582 0,0.23 -0.082,0.426 -0.242,0.59 -0.156,0.164 -0.355,0.246 -0.594,0.246 -0.234,0 -0.429,-0.082 -0.589,-0.246 -0.157,-0.164 -0.235,-0.36 -0.235,-0.59 z m 0,3.699 c 0,-0.223 0.078,-0.418 0.235,-0.582 0.16,-0.164 0.355,-0.246 0.589,-0.246 0.239,0 0.438,0.082 0.594,0.246 0.16,0.164 0.242,0.359 0.242,0.582 0,0.23 -0.082,0.43 -0.242,0.594 -0.156,0.16 -0.355,0.242 -0.594,0.242 -0.234,0 -0.429,-0.082 -0.589,-0.242 -0.157,-0.164 -0.235,-0.364 -0.235,-0.594 z m 8.356,-1.082 h -2.793 l -0.563,1.801 h -0.879 l 2.297,-7.063 h 1.141 l 2.297,7.063 h -0.934 z m -2.563,-0.738 h 2.332 l -1.156,-3.778 z m 7.742,1.91 c 0.274,0 0.524,-0.043 0.754,-0.125 0.239,-0.09 0.453,-0.207 0.653,-0.344 l 0.421,0.563 c -0.238,0.203 -0.519,0.359 -0.851,0.476 -0.332,0.117 -0.656,0.176 -0.977,0.176 -0.535,0 -0.992,-0.117 -1.371,-0.344 -0.379,-0.234 -0.664,-0.558 -0.863,-0.976 -0.199,-0.418 -0.297,-0.911 -0.297,-1.477 0,-0.539 0.098,-1.023 0.297,-1.449 0.199,-0.43 0.488,-0.766 0.867,-1.012 0.379,-0.25 0.84,-0.375 1.379,-0.375 0.688,0 1.289,0.211 1.805,0.625 l -0.422,0.574 c -0.465,-0.32 -0.93,-0.48 -1.395,-0.48 -0.464,0 -0.847,0.176 -1.148,0.527 -0.301,0.352 -0.449,0.879 -0.449,1.59 0,0.723 0.148,1.246 0.449,1.57 0.301,0.321 0.684,0.481 1.148,0.481 z m 6.157,0 c 0.269,0 0.519,-0.043 0.754,-0.125 0.234,-0.09 0.453,-0.207 0.648,-0.344 l 0.422,0.563 c -0.235,0.203 -0.52,0.359 -0.852,0.476 -0.332,0.117 -0.656,0.176 -0.972,0.176 -0.539,0 -0.996,-0.117 -1.375,-0.344 -0.375,-0.234 -0.664,-0.558 -0.864,-0.976 -0.195,-0.418 -0.297,-0.911 -0.297,-1.477 0,-0.539 0.102,-1.023 0.297,-1.449 0.2,-0.43 0.489,-0.766 0.868,-1.012 0.378,-0.25 0.839,-0.375 1.378,-0.375 0.688,0 1.29,0.211 1.809,0.625 l -0.422,0.574 c -0.469,-0.32 -0.933,-0.48 -1.394,-0.48 -0.465,0 -0.848,0.176 -1.149,0.527 -0.301,0.352 -0.453,0.879 -0.453,1.59 0,0.723 0.152,1.246 0.453,1.57 0.301,0.321 0.684,0.481 1.149,0.481 z m 5.769,-4.887 c 0.762,0 1.336,0.254 1.727,0.766 0.39,0.508 0.586,1.191 0.586,2.047 0,0.55 -0.09,1.035 -0.27,1.461 -0.176,0.421 -0.437,0.757 -0.781,1 -0.348,0.238 -0.77,0.359 -1.274,0.359 -0.761,0 -1.339,-0.258 -1.734,-0.77 -0.391,-0.511 -0.59,-1.195 -0.59,-2.043 0,-0.55 0.09,-1.043 0.27,-1.464 0.176,-0.43 0.437,-0.758 0.781,-0.997 0.352,-0.238 0.777,-0.359 1.285,-0.359 z m 0,0.703 c -0.465,0 -0.816,0.172 -1.058,0.52 -0.235,0.343 -0.352,0.879 -0.352,1.597 0,0.715 0.113,1.246 0.348,1.59 0.234,0.344 0.586,0.516 1.05,0.516 0.465,0 0.813,-0.176 1.047,-0.52 0.235,-0.343 0.352,-0.879 0.352,-1.593 0,-0.719 -0.113,-1.25 -0.348,-1.59 -0.23,-0.348 -0.578,-0.52 -1.039,-0.52 z m 4.957,-0.59 v 3.828 c 0,0.356 0.074,0.61 0.223,0.766 0.144,0.16 0.375,0.238 0.687,0.238 0.297,0 0.575,-0.086 0.84,-0.254 0.266,-0.167 0.473,-0.371 0.621,-0.601 V 8.777 h 0.86 v 5.403 h -0.731 l -0.074,-0.731 c -0.211,0.274 -0.473,0.485 -0.789,0.633 -0.313,0.141 -0.625,0.215 -0.938,0.215 -0.523,0 -0.914,-0.141 -1.175,-0.418 -0.258,-0.277 -0.383,-0.672 -0.383,-1.172 v -3.93 z m 5.293,5.403 V 8.777 h 0.735 l 0.066,0.75 c 0.219,-0.277 0.492,-0.488 0.82,-0.636 0.328,-0.149 0.649,-0.227 0.965,-0.227 0.527,0 0.914,0.141 1.152,0.422 0.243,0.281 0.364,0.668 0.364,1.168 v 3.926 h -0.86 v -3.289 c 0,-0.371 -0.023,-0.668 -0.062,-0.891 -0.043,-0.227 -0.129,-0.395 -0.262,-0.5 -0.129,-0.105 -0.328,-0.156 -0.601,-0.156 -0.211,0 -0.411,0.043 -0.598,0.136 -0.184,0.094 -0.352,0.208 -0.5,0.348 -0.141,0.137 -0.262,0.277 -0.356,0.418 v 3.934 z m 10.442,-0.274 c -0.184,0.121 -0.411,0.219 -0.672,0.285 -0.262,0.071 -0.524,0.106 -0.774,0.106 -0.582,0 -1.031,-0.152 -1.344,-0.457 -0.316,-0.305 -0.472,-0.695 -0.472,-1.176 V 9.445 h -1.242 V 8.777 h 1.242 V 7.551 l 0.863,-0.102 v 1.328 h 1.863 l -0.101,0.668 h -1.762 v 3.211 c 0,0.301 0.078,0.528 0.235,0.688 0.16,0.156 0.425,0.234 0.792,0.234 0.204,0 0.391,-0.023 0.559,-0.07 0.172,-0.051 0.332,-0.11 0.481,-0.188 z"
       style="fill:#ffffff;fill-opacity:1;fill-rule:nonzero;stroke:none"
       transform="scale(1.3333333)" />
    <path
       id="path3"
       d="m 229.516,34.723 0.859,0.109 v 7.574 h -0.754 l -0.082,-0.715 c -0.199,0.289 -0.434,0.497 -0.695,0.633 -0.262,0.133 -0.539,0.199 -0.836,0.199 -0.469,0 -0.856,-0.117 -1.16,-0.355 -0.305,-0.234 -0.532,-0.563 -0.676,-0.984 -0.149,-0.422 -0.223,-0.914 -0.223,-1.473 0,-0.539 0.086,-1.02 0.254,-1.445 0.164,-0.426 0.406,-0.762 0.723,-1.004 0.316,-0.246 0.699,-0.371 1.14,-0.371 0.602,0 1.082,0.214 1.45,0.636 z m -1.223,2.863 c -0.449,0 -0.797,0.176 -1.039,0.527 -0.242,0.352 -0.363,0.883 -0.363,1.598 0,1.41 0.429,2.113 1.297,2.113 0.304,0 0.566,-0.086 0.785,-0.254 0.218,-0.175 0.398,-0.375 0.543,-0.597 v -2.696 c -0.149,-0.218 -0.325,-0.39 -0.536,-0.507 -0.207,-0.125 -0.437,-0.184 -0.687,-0.184 z m 6.871,-3.109 c 0.191,0 0.348,0.058 0.465,0.175 0.113,0.114 0.172,0.258 0.172,0.426 0,0.172 -0.059,0.32 -0.172,0.438 -0.117,0.117 -0.274,0.175 -0.465,0.175 -0.184,0 -0.332,-0.058 -0.445,-0.175 -0.114,-0.118 -0.168,-0.266 -0.168,-0.438 0,-0.168 0.054,-0.312 0.168,-0.426 0.113,-0.117 0.261,-0.175 0.445,-0.175 z m 0.809,2.527 v 4.535 c 0,0.602 -0.137,1.106 -0.411,1.512 -0.273,0.406 -0.664,0.73 -1.175,0.972 -0.512,0.247 -1.133,0.434 -1.856,0.555 l -0.144,-0.664 c 0.531,-0.09 1.004,-0.223 1.414,-0.402 0.41,-0.176 0.73,-0.422 0.961,-0.727 0.23,-0.308 0.347,-0.707 0.347,-1.191 v -3.906 h -2.246 v -0.684 z m 3.48,-2.254 v 2.992 c 0.211,-0.281 0.473,-0.492 0.781,-0.637 0.309,-0.14 0.625,-0.214 0.942,-0.214 0.527,0 0.91,0.14 1.152,0.421 0.246,0.282 0.367,0.668 0.367,1.168 v 3.926 h -0.863 V 38.5 c 0,-0.324 -0.074,-0.559 -0.227,-0.707 -0.148,-0.148 -0.386,-0.223 -0.707,-0.223 -0.203,0 -0.398,0.043 -0.582,0.137 -0.187,0.094 -0.351,0.207 -0.5,0.344 -0.144,0.137 -0.269,0.277 -0.363,0.422 v 3.933 H 238.59 V 34.84 Z m 9.578,7.383 c -0.183,0.121 -0.406,0.219 -0.672,0.289 -0.261,0.066 -0.519,0.101 -0.773,0.101 -0.582,0 -1.027,-0.152 -1.344,-0.457 -0.312,-0.304 -0.472,-0.695 -0.472,-1.175 v -3.219 h -1.239 v -0.668 h 1.239 v -1.227 l 0.863,-0.101 v 1.328 h 1.867 l -0.102,0.668 h -1.765 v 3.211 c 0,0.301 0.078,0.527 0.234,0.687 0.16,0.157 0.426,0.235 0.797,0.235 0.199,0 0.387,-0.024 0.559,-0.071 0.172,-0.05 0.328,-0.109 0.476,-0.187 z m 3.078,-4.145 c 0,-0.226 0.079,-0.422 0.235,-0.582 0.164,-0.164 0.359,-0.242 0.59,-0.242 0.242,0 0.437,0.078 0.597,0.242 0.16,0.16 0.239,0.356 0.239,0.582 0,0.231 -0.079,0.426 -0.239,0.59 -0.16,0.164 -0.355,0.246 -0.597,0.246 -0.231,0 -0.426,-0.082 -0.59,-0.246 -0.156,-0.164 -0.235,-0.359 -0.235,-0.59 z m 0,3.7 c 0,-0.223 0.079,-0.418 0.235,-0.583 0.164,-0.164 0.359,-0.246 0.59,-0.246 0.242,0 0.437,0.082 0.597,0.246 0.16,0.165 0.239,0.36 0.239,0.583 0,0.23 -0.079,0.429 -0.239,0.593 -0.16,0.16 -0.355,0.242 -0.597,0.242 -0.231,0 -0.426,-0.082 -0.59,-0.242 -0.156,-0.164 -0.235,-0.363 -0.235,-0.593 z m 7.383,0.089 c 0.274,0 0.524,-0.043 0.754,-0.125 0.238,-0.09 0.453,-0.203 0.652,-0.343 l 0.422,0.562 c -0.238,0.203 -0.519,0.359 -0.851,0.477 -0.332,0.117 -0.657,0.175 -0.977,0.175 -0.535,0 -0.992,-0.117 -1.371,-0.343 -0.379,-0.235 -0.664,-0.559 -0.863,-0.977 -0.199,-0.418 -0.297,-0.91 -0.297,-1.476 0,-0.539 0.098,-1.024 0.297,-1.45 0.199,-0.429 0.488,-0.765 0.867,-1.011 0.379,-0.25 0.84,-0.375 1.379,-0.375 0.687,0 1.289,0.211 1.805,0.625 l -0.418,0.578 c -0.469,-0.324 -0.934,-0.485 -1.399,-0.485 -0.465,0 -0.847,0.176 -1.148,0.528 -0.301,0.351 -0.449,0.879 -0.449,1.59 0,0.722 0.148,1.246 0.449,1.57 0.301,0.32 0.683,0.48 1.148,0.48 z m 7.582,-0.55 c 0,0.218 0.035,0.375 0.106,0.476 0.074,0.098 0.183,0.172 0.336,0.215 l -0.211,0.605 c -0.235,-0.031 -0.438,-0.105 -0.61,-0.222 -0.175,-0.117 -0.3,-0.297 -0.383,-0.539 -0.191,0.25 -0.437,0.441 -0.73,0.57 -0.293,0.129 -0.609,0.191 -0.961,0.191 -0.539,0 -0.965,-0.152 -1.277,-0.457 -0.309,-0.304 -0.465,-0.707 -0.465,-1.211 0,-0.558 0.215,-0.984 0.652,-1.281 0.434,-0.297 1.059,-0.445 1.879,-0.445 h 0.797 v -0.453 c 0,-0.391 -0.113,-0.664 -0.344,-0.824 -0.226,-0.164 -0.539,-0.247 -0.945,-0.247 -0.176,0 -0.383,0.02 -0.625,0.067 -0.238,0.039 -0.5,0.109 -0.777,0.211 l -0.227,-0.653 c 0.328,-0.125 0.637,-0.21 0.93,-0.261 0.293,-0.051 0.57,-0.078 0.836,-0.078 0.668,0 1.172,0.16 1.511,0.472 0.336,0.317 0.508,0.739 0.508,1.274 z m -2.23,0.64 c 0.265,0 0.519,-0.066 0.758,-0.199 0.242,-0.137 0.445,-0.328 0.605,-0.566 v -1.391 h -0.781 c -0.594,0 -1.016,0.105 -1.262,0.309 -0.242,0.207 -0.363,0.48 -0.363,0.828 0,0.679 0.347,1.019 1.043,1.019 z m 8.804,0.266 c -0.183,0.125 -0.41,0.219 -0.671,0.289 -0.266,0.066 -0.524,0.101 -0.774,0.101 -0.582,0 -1.031,-0.152 -1.344,-0.457 -0.316,-0.304 -0.472,-0.695 -0.472,-1.175 v -3.219 h -1.242 v -0.668 h 1.242 v -1.227 l 0.859,-0.101 v 1.328 h 1.867 l -0.101,0.668 h -1.766 v 3.211 c 0,0.301 0.082,0.527 0.238,0.687 0.161,0.157 0.426,0.235 0.793,0.235 0.203,0 0.391,-0.024 0.559,-0.071 0.172,-0.05 0.332,-0.109 0.476,-0.187 z m 2.543,-2.121 c 0.024,0.625 0.188,1.082 0.493,1.367 0.308,0.285 0.671,0.426 1.086,0.426 0.277,0 0.527,-0.039 0.75,-0.121 0.222,-0.082 0.453,-0.207 0.691,-0.368 l 0.406,0.571 c -0.25,0.199 -0.535,0.355 -0.863,0.465 -0.324,0.113 -0.656,0.171 -0.992,0.171 -0.528,0 -0.977,-0.117 -1.344,-0.355 -0.367,-0.234 -0.648,-0.563 -0.844,-0.984 -0.191,-0.422 -0.285,-0.914 -0.285,-1.473 0,-0.547 0.094,-1.031 0.285,-1.457 0.196,-0.422 0.469,-0.754 0.824,-1 0.356,-0.242 0.77,-0.363 1.25,-0.363 0.68,0 1.215,0.238 1.606,0.707 0.391,0.472 0.59,1.121 0.59,1.941 0,0.09 -0.004,0.18 -0.012,0.262 -0.004,0.082 -0.008,0.152 -0.012,0.211 z m 1.465,-2.414 c -0.398,0 -0.734,0.144 -1.004,0.425 -0.269,0.286 -0.422,0.727 -0.457,1.321 h 2.817 c -0.008,-0.578 -0.137,-1.012 -0.379,-1.305 -0.242,-0.293 -0.567,-0.441 -0.977,-0.441 z m 8.403,-1.168 0.265,0.812 c -0.23,0.07 -0.476,0.113 -0.738,0.133 -0.258,0.016 -0.535,0.023 -0.84,0.023 0.625,0.29 0.938,0.743 0.938,1.36 0,0.535 -0.18,0.972 -0.539,1.32 -0.356,0.344 -0.852,0.516 -1.493,0.516 -0.179,0 -0.332,-0.008 -0.457,-0.024 -0.117,-0.019 -0.234,-0.043 -0.347,-0.078 -0.082,0.059 -0.149,0.133 -0.203,0.231 -0.055,0.093 -0.079,0.191 -0.079,0.293 0,0.129 0.051,0.238 0.153,0.324 0.105,0.082 0.293,0.125 0.57,0.125 h 0.973 c 0.363,0 0.687,0.066 0.976,0.195 0.285,0.129 0.516,0.305 0.68,0.528 0.168,0.218 0.254,0.468 0.254,0.746 0,0.527 -0.227,0.937 -0.68,1.218 -0.445,0.286 -1.082,0.426 -1.902,0.426 -0.574,0 -1.028,-0.058 -1.356,-0.18 -0.332,-0.117 -0.57,-0.293 -0.714,-0.539 -0.141,-0.238 -0.211,-0.539 -0.211,-0.906 h 0.781 c 0,0.207 0.039,0.383 0.121,0.52 0.082,0.136 0.23,0.234 0.445,0.3 0.219,0.071 0.528,0.102 0.93,0.102 0.594,0 1.031,-0.074 1.305,-0.223 0.273,-0.148 0.41,-0.371 0.41,-0.664 0,-0.254 -0.117,-0.449 -0.352,-0.578 -0.23,-0.129 -0.523,-0.195 -0.871,-0.195 h -0.965 c -0.468,0 -0.812,-0.102 -1.031,-0.309 -0.219,-0.203 -0.328,-0.441 -0.328,-0.707 0,-0.367 0.199,-0.683 0.598,-0.941 -0.606,-0.324 -0.911,-0.82 -0.911,-1.496 0,-0.364 0.094,-0.688 0.274,-0.969 0.18,-0.281 0.433,-0.504 0.758,-0.664 0.324,-0.16 0.699,-0.242 1.125,-0.242 0.453,0 0.824,-0.02 1.105,-0.055 0.285,-0.039 0.527,-0.094 0.731,-0.16 0.203,-0.07 0.414,-0.149 0.625,-0.242 z m -2.461,1.086 c -0.434,0 -0.758,0.121 -0.965,0.355 -0.207,0.234 -0.309,0.535 -0.309,0.895 0,0.363 0.106,0.664 0.313,0.902 0.211,0.234 0.539,0.352 0.98,0.352 0.379,0 0.672,-0.11 0.871,-0.332 0.203,-0.223 0.305,-0.532 0.305,-0.93 0,-0.828 -0.398,-1.242 -1.195,-1.242 z m 6.281,-0.625 c 0.762,0 1.34,0.257 1.726,0.765 0.391,0.508 0.586,1.192 0.586,2.047 0,0.551 -0.089,1.035 -0.265,1.461 -0.18,0.422 -0.442,0.758 -0.785,1 -0.348,0.238 -0.77,0.359 -1.274,0.359 -0.762,0 -1.34,-0.257 -1.73,-0.769 -0.395,-0.512 -0.59,-1.195 -0.59,-2.043 0,-0.551 0.086,-1.043 0.265,-1.465 0.176,-0.426 0.438,-0.758 0.786,-0.996 0.347,-0.238 0.773,-0.359 1.281,-0.359 z m 0,0.703 c -0.465,0 -0.817,0.172 -1.059,0.519 -0.234,0.344 -0.351,0.879 -0.351,1.598 0,0.715 0.117,1.246 0.347,1.59 0.239,0.344 0.586,0.515 1.051,0.515 0.465,0 0.817,-0.175 1.047,-0.519 0.238,-0.344 0.356,-0.875 0.356,-1.594 0,-0.719 -0.118,-1.25 -0.352,-1.59 -0.23,-0.347 -0.578,-0.519 -1.039,-0.519 z m 4.148,4.812 v -0.664 h 0.84 v -4.074 h -0.84 v -0.664 h 1.496 l 0.161,1.277 c 0.207,-0.445 0.461,-0.789 0.757,-1.031 0.301,-0.242 0.692,-0.363 1.18,-0.363 0.152,0 0.285,0.011 0.402,0.035 0.118,0.023 0.239,0.047 0.364,0.082 l -0.125,1.828 h -0.707 V 37.68 c -0.012,0 -0.028,0 -0.047,0 -0.824,0 -1.418,0.593 -1.778,1.777 v 2.285 h 1.098 v 0.664 z m 8.149,-7.929 c 0.191,0 0.344,0.058 0.457,0.175 0.117,0.114 0.176,0.258 0.176,0.426 0,0.172 -0.059,0.32 -0.176,0.438 -0.113,0.117 -0.266,0.175 -0.457,0.175 -0.18,0 -0.328,-0.058 -0.446,-0.175 -0.117,-0.118 -0.175,-0.266 -0.175,-0.438 0,-0.168 0.058,-0.312 0.175,-0.426 0.118,-0.117 0.266,-0.175 0.446,-0.175 z m 0.687,2.527 v 4.719 h 1.524 v 0.683 h -4.051 V 41.723 H 302 v -4.035 h -1.613 v -0.684 z m 4.098,3.008 c 0.023,0.625 0.187,1.082 0.492,1.367 0.309,0.285 0.672,0.426 1.086,0.426 0.277,0 0.527,-0.039 0.75,-0.121 0.223,-0.082 0.453,-0.207 0.691,-0.368 l 0.407,0.571 c -0.25,0.199 -0.535,0.355 -0.864,0.465 -0.324,0.113 -0.656,0.171 -0.992,0.171 -0.527,0 -0.976,-0.117 -1.343,-0.355 -0.368,-0.234 -0.649,-0.563 -0.844,-0.984 -0.192,-0.422 -0.285,-0.914 -0.285,-1.473 0,-0.547 0.093,-1.031 0.285,-1.453 0.195,-0.426 0.468,-0.758 0.82,-1 0.356,-0.246 0.774,-0.367 1.254,-0.367 0.68,0 1.215,0.238 1.605,0.711 0.391,0.468 0.59,1.117 0.59,1.937 0,0.09 -0.004,0.18 -0.011,0.262 -0.004,0.082 -0.008,0.152 -0.012,0.211 z m 1.465,-2.414 c -0.399,0 -0.735,0.144 -1.004,0.425 -0.27,0.286 -0.422,0.727 -0.457,1.321 h 2.816 c -0.008,-0.578 -0.136,-1.012 -0.379,-1.305 -0.242,-0.293 -0.566,-0.441 -0.976,-0.441 z m 5.847,4.211 c 0.418,0 0.747,-0.075 0.985,-0.231 0.238,-0.152 0.359,-0.363 0.359,-0.625 0,-0.16 -0.031,-0.301 -0.094,-0.422 -0.058,-0.117 -0.179,-0.226 -0.363,-0.32 -0.183,-0.102 -0.469,-0.199 -0.851,-0.293 -0.371,-0.094 -0.696,-0.199 -0.973,-0.32 -0.274,-0.121 -0.488,-0.282 -0.641,-0.477 -0.152,-0.191 -0.226,-0.445 -0.226,-0.758 0,-0.453 0.187,-0.812 0.57,-1.078 0.379,-0.262 0.871,-0.394 1.481,-0.394 0.433,0 0.812,0.058 1.132,0.175 0.325,0.118 0.602,0.258 0.828,0.422 l -0.382,0.582 c -0.2,-0.14 -0.426,-0.254 -0.676,-0.343 -0.246,-0.09 -0.543,-0.137 -0.891,-0.137 -0.426,0 -0.726,0.066 -0.902,0.199 -0.18,0.129 -0.27,0.301 -0.27,0.508 0,0.16 0.043,0.293 0.129,0.402 0.09,0.102 0.239,0.192 0.446,0.274 0.211,0.082 0.496,0.175 0.863,0.273 0.351,0.098 0.66,0.207 0.922,0.34 0.265,0.129 0.469,0.301 0.609,0.512 0.149,0.207 0.223,0.48 0.223,0.816 0,0.383 -0.11,0.691 -0.328,0.934 -0.219,0.234 -0.504,0.406 -0.852,0.515 -0.344,0.106 -0.711,0.16 -1.098,0.16 -0.488,0 -0.906,-0.07 -1.25,-0.211 -0.343,-0.144 -0.628,-0.316 -0.863,-0.519 l 0.492,-0.566 c 0.211,0.171 0.457,0.316 0.731,0.425 0.273,0.106 0.574,0.157 0.89,0.157 z"
       style="fill:#000000;fill-opacity:1;fill-rule:nonzero;stroke:none"
       transform="scale(1.3333333)" />
    <path
       id="path4"
       d="m 340.516,34.723 0.863,0.109 v 7.574 h -0.754 l -0.082,-0.715 c -0.203,0.289 -0.434,0.5 -0.699,0.633 -0.258,0.133 -0.539,0.199 -0.836,0.199 -0.469,0 -0.856,-0.117 -1.16,-0.355 -0.301,-0.234 -0.528,-0.563 -0.676,-0.984 -0.145,-0.422 -0.219,-0.914 -0.219,-1.469 0,-0.543 0.082,-1.024 0.25,-1.449 0.168,-0.426 0.41,-0.762 0.723,-1.004 0.32,-0.246 0.699,-0.371 1.144,-0.371 0.598,0 1.078,0.214 1.446,0.636 z m -1.219,2.863 c -0.453,0 -0.801,0.176 -1.043,0.527 -0.242,0.352 -0.363,0.887 -0.363,1.602 0,1.406 0.433,2.109 1.297,2.109 0.304,0 0.566,-0.082 0.785,-0.254 0.218,-0.175 0.398,-0.375 0.543,-0.597 v -2.696 c -0.149,-0.218 -0.325,-0.386 -0.532,-0.507 -0.211,-0.125 -0.437,-0.184 -0.687,-0.184 z m 6.871,-3.109 c 0.191,0 0.344,0.058 0.461,0.175 0.117,0.118 0.176,0.258 0.176,0.426 0,0.172 -0.059,0.32 -0.176,0.442 -0.117,0.113 -0.27,0.171 -0.461,0.171 -0.184,0 -0.332,-0.058 -0.445,-0.171 -0.114,-0.122 -0.172,-0.27 -0.172,-0.442 0,-0.168 0.058,-0.308 0.172,-0.426 0.113,-0.117 0.261,-0.175 0.445,-0.175 z m 0.805,2.527 v 4.535 c 0,0.602 -0.137,1.106 -0.411,1.512 -0.269,0.406 -0.66,0.73 -1.175,0.976 -0.512,0.246 -1.129,0.43 -1.856,0.551 l -0.144,-0.664 c 0.535,-0.09 1.008,-0.223 1.418,-0.402 0.41,-0.176 0.73,-0.418 0.957,-0.727 0.234,-0.308 0.347,-0.703 0.347,-1.191 v -3.906 h -2.246 v -0.684 z m 3.48,-2.254 v 2.992 c 0.215,-0.277 0.473,-0.492 0.781,-0.633 0.313,-0.144 0.625,-0.218 0.942,-0.218 0.527,0 0.914,0.14 1.156,0.421 0.242,0.282 0.363,0.672 0.363,1.168 v 3.926 h -0.859 v -3.902 c 0,-0.324 -0.078,-0.563 -0.227,-0.707 -0.152,-0.152 -0.386,-0.227 -0.707,-0.227 -0.207,0 -0.402,0.047 -0.586,0.137 -0.183,0.094 -0.351,0.207 -0.496,0.344 -0.148,0.137 -0.269,0.277 -0.367,0.422 v 3.933 h -0.859 V 34.84 Z m 9.582,7.383 c -0.187,0.125 -0.41,0.219 -0.672,0.289 -0.265,0.066 -0.523,0.101 -0.773,0.101 -0.582,0 -1.031,-0.152 -1.344,-0.457 -0.316,-0.304 -0.473,-0.695 -0.473,-1.175 v -3.219 h -1.242 v -0.668 h 1.242 v -1.223 l 0.86,-0.105 v 1.328 h 1.867 l -0.102,0.668 h -1.765 v 3.211 c 0,0.301 0.078,0.531 0.238,0.687 0.16,0.157 0.426,0.235 0.793,0.235 0.203,0 0.391,-0.024 0.559,-0.071 0.172,-0.046 0.332,-0.109 0.476,-0.183 z m 3.074,-4.145 c 0,-0.226 0.082,-0.422 0.239,-0.582 0.16,-0.16 0.355,-0.242 0.59,-0.242 0.238,0 0.437,0.082 0.593,0.242 0.16,0.16 0.242,0.356 0.242,0.582 0,0.231 -0.082,0.426 -0.242,0.59 -0.156,0.164 -0.355,0.246 -0.593,0.246 -0.235,0 -0.43,-0.082 -0.59,-0.246 -0.157,-0.164 -0.239,-0.359 -0.239,-0.59 z m 0,3.7 c 0,-0.223 0.082,-0.415 0.239,-0.579 0.16,-0.164 0.355,-0.246 0.59,-0.246 0.238,0 0.437,0.082 0.593,0.246 0.16,0.164 0.242,0.356 0.242,0.579 0,0.23 -0.082,0.429 -0.242,0.593 -0.156,0.16 -0.355,0.242 -0.593,0.242 -0.235,0 -0.43,-0.082 -0.59,-0.242 -0.157,-0.164 -0.239,-0.359 -0.239,-0.593 z m 6.993,-7.211 c 0.191,0 0.343,0.058 0.457,0.175 0.113,0.118 0.171,0.258 0.171,0.426 0,0.172 -0.058,0.32 -0.171,0.442 -0.114,0.113 -0.266,0.171 -0.457,0.171 -0.184,0 -0.332,-0.058 -0.446,-0.171 -0.117,-0.122 -0.176,-0.27 -0.176,-0.442 0,-0.168 0.059,-0.308 0.176,-0.426 0.114,-0.117 0.262,-0.175 0.446,-0.175 z m 0.687,2.527 v 4.719 h 1.523 v 0.683 h -4.054 v -0.683 h 1.668 v -4.035 h -1.614 v -0.684 z m 6.649,-2.281 0.863,0.109 v 7.574 h -0.754 l -0.082,-0.715 c -0.203,0.289 -0.434,0.5 -0.699,0.633 -0.258,0.133 -0.536,0.199 -0.836,0.199 -0.465,0 -0.852,-0.117 -1.157,-0.355 -0.304,-0.234 -0.531,-0.563 -0.679,-0.984 -0.145,-0.422 -0.219,-0.914 -0.219,-1.469 0,-0.543 0.082,-1.024 0.25,-1.449 0.168,-0.426 0.41,-0.762 0.723,-1.004 0.32,-0.246 0.699,-0.371 1.144,-0.371 0.598,0 1.082,0.214 1.446,0.636 z m -1.219,2.863 c -0.453,0 -0.797,0.176 -1.043,0.527 -0.242,0.352 -0.364,0.887 -0.364,1.602 0,1.406 0.434,2.109 1.297,2.109 0.305,0 0.567,-0.082 0.786,-0.254 0.218,-0.175 0.402,-0.375 0.543,-0.597 v -2.696 c -0.145,-0.218 -0.325,-0.386 -0.532,-0.507 -0.207,-0.125 -0.437,-0.184 -0.687,-0.184 z"
       style="fill:#000000;fill-opacity:1;fill-rule:nonzero;stroke:none"
       transform="scale(1.3333333)" />
    <path
       id="path5"
       d="M 323.914,27.383 V 50.539 L 221.844,50.418"
       style="fill:none;stroke:#000000;stroke-width:1.41732;stroke-linecap:round;stroke-linejoin:miter;stroke-miterlimit:4;stroke-dasharray:none;stroke-opacity:1"
       transform="scale(1.3333333)" />
    <path
       id="path6"
       d="m 222.418,3.455 c -0.354,0.355 -9.547,-2.112 -9.675,-2.593 -0.13,-0.484 6.598,-7.213 7.082,-7.083 0.483,0.126 2.947,9.322 2.593,9.676 z"
       style="fill:#ffffff;fill-opacity:1;fill-rule:nonzero;stroke:#000000;stroke-width:1.17266;stroke-linecap:round;stroke-linejoin:round;stroke-miterlimit:4;stroke-dasharray:none;stroke-opacity:1"
       transform="matrix(1.3333333,0.31164133,-0.35726533,1.1630587,0,0)" />
    <path
       id="path7"
       d="m 212.621,6.08 c -0.354,0.355 -9.546,-2.112 -9.675,-2.593 -0.13,-0.484 6.599,-7.213 7.083,-7.083 0.483,0.126 2.947,9.322 2.592,9.676 z"
       style="fill:#ffffff;fill-opacity:1;fill-rule:nonzero;stroke:#000000;stroke-width:1.17266;stroke-linecap:round;stroke-linejoin:round;stroke-miterlimit:4;stroke-dasharray:none;stroke-opacity:1"
       transform="matrix(1.3333333,0.31164133,-0.35726533,1.1630587,0,0)" />
    <path
       id="path8"
       d="m 328.113,27.383 v 23.156 l 113.11,-0.117"
       style="fill:none;stroke:#000000;stroke-width:1.41732;stroke-linecap:round;stroke-linejoin:miter;stroke-miterlimit:4;stroke-dasharray:none;stroke-opacity:1"
       transform="scale(1.3333333)" />
    <path
       id="path9"
       d="m -395.633,168.932 c -0.354,0.354 -9.546,-2.109 -9.676,-2.593 -0.129,-0.485 6.599,-7.214 7.083,-7.084 0.484,0.13 2.947,9.322 2.593,9.677 z"
       style="fill:#ffffff;fill-opacity:1;fill-rule:nonzero;stroke:#000000;stroke-width:1.17266;stroke-linecap:round;stroke-linejoin:round;stroke-miterlimit:4;stroke-dasharray:none;stroke-opacity:1"
       transform="matrix(-1.3333333,0.31164133,0.35726533,1.1630587,0,0)" />
    <path
       id="path10"
       d="m 340.516,94.723 0.863,0.109 v 7.574 h -0.754 l -0.082,-0.715 c -0.203,0.289 -0.434,0.5 -0.699,0.633 -0.258,0.133 -0.539,0.199 -0.836,0.199 -0.469,0 -0.856,-0.117 -1.16,-0.355 -0.301,-0.234 -0.528,-0.563 -0.676,-0.984 -0.145,-0.422 -0.219,-0.914 -0.219,-1.469 0,-0.543 0.082,-1.024 0.25,-1.449 0.168,-0.426 0.41,-0.762 0.723,-1.004 0.32,-0.246 0.699,-0.367 1.144,-0.367 0.598,0 1.078,0.21 1.446,0.632 z m -1.219,2.863 c -0.453,0 -0.801,0.176 -1.043,0.527 -0.242,0.352 -0.363,0.887 -0.363,1.602 0,1.406 0.433,2.109 1.297,2.109 0.304,0 0.566,-0.082 0.785,-0.254 0.218,-0.175 0.398,-0.375 0.543,-0.597 v -2.696 c -0.149,-0.218 -0.325,-0.386 -0.532,-0.507 -0.211,-0.125 -0.437,-0.184 -0.687,-0.184 z m 6.871,-3.109 c 0.191,0 0.344,0.058 0.461,0.175 0.117,0.118 0.176,0.258 0.176,0.426 0,0.172 -0.059,0.32 -0.176,0.442 -0.117,0.113 -0.27,0.171 -0.461,0.171 -0.184,0 -0.332,-0.058 -0.445,-0.171 -0.114,-0.122 -0.172,-0.27 -0.172,-0.442 0,-0.168 0.058,-0.308 0.172,-0.426 0.113,-0.117 0.261,-0.175 0.445,-0.175 z m 0.805,2.527 v 4.535 c 0,0.602 -0.137,1.106 -0.411,1.512 -0.269,0.406 -0.66,0.73 -1.175,0.976 -0.512,0.246 -1.129,0.43 -1.856,0.551 l -0.144,-0.664 c 0.535,-0.09 1.008,-0.223 1.418,-0.402 0.41,-0.176 0.73,-0.418 0.957,-0.727 0.234,-0.308 0.347,-0.703 0.347,-1.191 v -3.906 h -2.246 v -0.684 z m 3.48,-2.254 v 2.992 c 0.215,-0.277 0.473,-0.492 0.781,-0.633 0.313,-0.144 0.625,-0.218 0.942,-0.218 0.527,0 0.914,0.14 1.156,0.421 0.242,0.282 0.363,0.672 0.363,1.168 v 3.926 h -0.859 v -3.902 c 0,-0.324 -0.078,-0.563 -0.227,-0.707 -0.152,-0.152 -0.386,-0.227 -0.707,-0.227 -0.207,0 -0.402,0.047 -0.586,0.137 -0.183,0.094 -0.351,0.207 -0.496,0.344 -0.148,0.137 -0.269,0.277 -0.367,0.422 v 3.933 h -0.859 V 94.84 Z m 9.582,7.383 c -0.187,0.125 -0.41,0.219 -0.672,0.289 -0.265,0.066 -0.523,0.101 -0.773,0.101 -0.582,0 -1.031,-0.152 -1.344,-0.457 -0.316,-0.304 -0.473,-0.695 -0.473,-1.175 v -3.219 h -1.242 v -0.668 h 1.242 v -1.223 l 0.86,-0.105 v 1.328 h 1.867 l -0.102,0.668 h -1.765 v 3.211 c 0,0.301 0.078,0.531 0.238,0.687 0.16,0.157 0.426,0.235 0.793,0.235 0.203,0 0.391,-0.024 0.559,-0.071 0.172,-0.046 0.332,-0.109 0.476,-0.183 z m 3.074,-4.145 c 0,-0.226 0.082,-0.422 0.239,-0.582 0.16,-0.16 0.355,-0.242 0.59,-0.242 0.238,0 0.437,0.082 0.593,0.242 0.16,0.16 0.242,0.356 0.242,0.582 0,0.231 -0.082,0.426 -0.242,0.59 -0.156,0.164 -0.355,0.246 -0.593,0.246 -0.235,0 -0.43,-0.082 -0.59,-0.246 -0.157,-0.164 -0.239,-0.359 -0.239,-0.59 z m 0,3.7 c 0,-0.223 0.082,-0.415 0.239,-0.579 0.16,-0.164 0.355,-0.246 0.59,-0.246 0.238,0 0.437,0.082 0.593,0.246 0.16,0.164 0.242,0.356 0.242,0.579 0,0.23 -0.082,0.429 -0.242,0.593 -0.156,0.16 -0.355,0.242 -0.593,0.242 -0.235,0 -0.43,-0.082 -0.59,-0.242 -0.157,-0.164 -0.239,-0.359 -0.239,-0.593 z m 8.137,-6.965 c 0.289,0 0.551,0.027 0.789,0.078 0.235,0.051 0.457,0.121 0.672,0.215 l -0.277,0.64 c -0.176,-0.074 -0.364,-0.133 -0.559,-0.168 -0.195,-0.039 -0.394,-0.058 -0.601,-0.058 -0.754,0 -1.133,0.3 -1.133,0.898 v 1.098 h 1.832 l -0.094,0.676 h -1.738 v 4.304 h -0.864 v -4.304 h -1.285 v -0.676 h 1.285 v -1.078 c 0,-0.332 0.086,-0.621 0.258,-0.868 0.176,-0.242 0.41,-0.425 0.707,-0.558 0.297,-0.133 0.633,-0.199 1.008,-0.199 z m 5.008,0.129 c 0.191,0 0.344,0.058 0.457,0.175 0.117,0.114 0.176,0.258 0.176,0.426 0,0.172 -0.059,0.32 -0.176,0.438 -0.113,0.117 -0.266,0.175 -0.457,0.175 -0.18,0 -0.328,-0.058 -0.445,-0.175 -0.118,-0.118 -0.176,-0.266 -0.176,-0.438 0,-0.168 0.058,-0.312 0.176,-0.426 0.117,-0.117 0.265,-0.175 0.445,-0.175 z m 0.687,2.574 v 4.297 h 1.524 v 0.683 h -4.051 v -0.683 h 1.668 v -3.621 h -1.617 v -0.676 z m 3.473,4.98 v -0.664 h 0.84 v -4.074 h -0.84 v -0.664 h 1.496 l 0.16,1.277 c 0.207,-0.445 0.461,-0.789 0.758,-1.031 0.297,-0.242 0.692,-0.363 1.18,-0.363 0.152,0 0.285,0.011 0.402,0.035 0.117,0.023 0.238,0.051 0.363,0.082 l -0.125,1.828 h -0.707 v -1.148 c -0.011,0 -0.027,0 -0.046,0 -0.829,0 -1.418,0.589 -1.778,1.773 v 2.285 h 1.098 v 0.664 z m 7.938,-0.597 c 0.418,0 0.746,-0.075 0.984,-0.231 0.238,-0.152 0.359,-0.359 0.359,-0.625 0,-0.16 -0.031,-0.301 -0.093,-0.418 -0.055,-0.121 -0.18,-0.23 -0.364,-0.324 -0.183,-0.102 -0.468,-0.195 -0.851,-0.293 -0.371,-0.094 -0.696,-0.199 -0.973,-0.316 -0.273,-0.125 -0.488,-0.286 -0.641,-0.477 -0.152,-0.195 -0.226,-0.449 -0.226,-0.762 0,-0.453 0.191,-0.812 0.57,-1.074 0.379,-0.266 0.871,-0.398 1.481,-0.398 0.433,0 0.812,0.058 1.132,0.175 0.325,0.118 0.602,0.258 0.829,0.422 l -0.383,0.582 c -0.199,-0.136 -0.426,-0.254 -0.676,-0.343 -0.246,-0.09 -0.543,-0.137 -0.891,-0.137 -0.425,0 -0.726,0.066 -0.902,0.199 -0.18,0.129 -0.269,0.301 -0.269,0.508 0,0.16 0.042,0.293 0.128,0.402 0.09,0.102 0.239,0.192 0.446,0.274 0.211,0.082 0.496,0.175 0.863,0.273 0.352,0.098 0.66,0.207 0.922,0.34 0.265,0.129 0.469,0.301 0.613,0.512 0.145,0.207 0.219,0.48 0.219,0.816 0,0.383 -0.109,0.691 -0.328,0.934 -0.219,0.234 -0.504,0.406 -0.852,0.515 -0.344,0.106 -0.711,0.16 -1.097,0.16 -0.489,0 -0.907,-0.07 -1.25,-0.211 -0.344,-0.144 -0.629,-0.316 -0.864,-0.515 l 0.492,-0.57 c 0.211,0.171 0.458,0.316 0.731,0.425 0.277,0.106 0.574,0.157 0.891,0.157 z m 8.605,0.324 c -0.184,0.125 -0.41,0.219 -0.672,0.289 -0.262,0.066 -0.519,0.101 -0.773,0.101 -0.582,0 -1.032,-0.152 -1.344,-0.457 -0.316,-0.304 -0.473,-0.695 -0.473,-1.175 v -3.219 h -1.242 v -0.668 h 1.242 v -1.223 l 0.864,-0.105 v 1.328 h 1.867 l -0.106,0.668 h -1.761 v 3.211 c 0,0.301 0.078,0.527 0.234,0.687 0.16,0.157 0.426,0.235 0.793,0.235 0.203,0 0.391,-0.024 0.562,-0.071 0.168,-0.046 0.329,-0.109 0.477,-0.183 z m 1.348,2.133 v -0.754 h 5.129 v 0.754 z m 6.672,-1.86 v -5.402 h 0.734 l 0.066,0.75 c 0.219,-0.277 0.493,-0.488 0.821,-0.637 0.328,-0.148 0.648,-0.226 0.964,-0.226 0.532,0 0.915,0.14 1.153,0.421 0.242,0.282 0.367,0.672 0.367,1.168 v 3.926 h -0.863 v -3.289 c 0,-0.367 -0.02,-0.664 -0.063,-0.89 -0.039,-0.227 -0.129,-0.391 -0.261,-0.5 -0.129,-0.106 -0.329,-0.157 -0.598,-0.157 -0.215,0 -0.414,0.047 -0.602,0.137 -0.183,0.094 -0.351,0.211 -0.496,0.348 -0.144,0.14 -0.265,0.277 -0.359,0.418 v 3.933 z M 415,101.227 c 0,0.218 0.035,0.378 0.105,0.476 0.075,0.098 0.184,0.172 0.333,0.215 l -0.208,0.605 c -0.234,-0.031 -0.437,-0.105 -0.613,-0.222 -0.172,-0.117 -0.301,-0.297 -0.379,-0.535 -0.195,0.25 -0.437,0.437 -0.73,0.566 -0.293,0.129 -0.613,0.191 -0.961,0.191 -0.539,0 -0.965,-0.152 -1.277,-0.457 -0.313,-0.304 -0.465,-0.707 -0.465,-1.211 0,-0.554 0.215,-0.984 0.648,-1.281 0.438,-0.297 1.063,-0.445 1.883,-0.445 h 0.797 v -0.453 c 0,-0.387 -0.117,-0.664 -0.344,-0.824 -0.227,-0.164 -0.543,-0.247 -0.945,-0.247 -0.176,0 -0.387,0.024 -0.625,0.067 -0.239,0.043 -0.5,0.109 -0.781,0.211 l -0.223,-0.653 c 0.328,-0.121 0.637,-0.21 0.926,-0.261 0.297,-0.051 0.574,-0.078 0.836,-0.078 0.671,0 1.175,0.16 1.515,0.472 0.336,0.317 0.508,0.739 0.508,1.274 z m -2.234,0.64 c 0.269,0 0.523,-0.066 0.761,-0.199 0.243,-0.137 0.446,-0.324 0.606,-0.566 v -1.391 h -0.781 c -0.594,0 -1.016,0.105 -1.262,0.309 -0.242,0.207 -0.363,0.48 -0.363,0.828 0,0.679 0.347,1.019 1.039,1.019 z m 8.078,-4.976 c 0.172,0 0.336,0.039 0.5,0.113 0.16,0.078 0.289,0.223 0.394,0.437 0.102,0.215 0.153,0.532 0.153,0.942 v 4.023 h -0.801 v -3.883 c 0,-0.339 -0.02,-0.582 -0.063,-0.734 -0.039,-0.148 -0.156,-0.227 -0.351,-0.227 -0.16,0 -0.321,0.055 -0.485,0.157 -0.16,0.097 -0.312,0.261 -0.461,0.492 v 4.195 h -0.804 v -3.883 c 0,-0.339 -0.02,-0.582 -0.063,-0.734 -0.039,-0.148 -0.156,-0.227 -0.351,-0.227 -0.168,0 -0.332,0.055 -0.489,0.157 -0.156,0.097 -0.308,0.261 -0.457,0.492 v 4.195 h -0.793 v -5.402 h 0.676 l 0.051,0.629 c 0.148,-0.211 0.312,-0.383 0.492,-0.524 0.188,-0.144 0.414,-0.218 0.684,-0.218 0.203,0 0.398,0.05 0.578,0.152 0.184,0.094 0.316,0.281 0.402,0.562 0.145,-0.21 0.313,-0.382 0.496,-0.511 0.184,-0.133 0.414,-0.199 0.692,-0.199 z m 3.273,3.121 c 0.024,0.625 0.188,1.082 0.492,1.367 0.309,0.285 0.668,0.426 1.086,0.426 0.278,0 0.528,-0.039 0.75,-0.121 0.223,-0.082 0.453,-0.204 0.692,-0.368 l 0.406,0.571 c -0.25,0.199 -0.539,0.355 -0.863,0.468 -0.325,0.114 -0.657,0.168 -0.996,0.168 -0.524,0 -0.973,-0.117 -1.34,-0.355 -0.367,-0.234 -0.649,-0.563 -0.844,-0.984 -0.191,-0.422 -0.285,-0.914 -0.285,-1.469 0,-0.551 0.094,-1.035 0.285,-1.457 0.195,-0.426 0.469,-0.758 0.82,-1 0.356,-0.242 0.774,-0.367 1.254,-0.367 0.68,0 1.215,0.238 1.606,0.711 0.39,0.468 0.586,1.117 0.586,1.937 0,0.094 0,0.18 -0.008,0.262 -0.004,0.082 -0.008,0.152 -0.012,0.211 z m 1.465,-2.41 c -0.398,0 -0.734,0.14 -1.004,0.425 -0.269,0.282 -0.422,0.723 -0.457,1.317 h 2.817 c -0.012,-0.578 -0.137,-1.012 -0.379,-1.301 -0.243,-0.297 -0.571,-0.441 -0.977,-0.441 z"
       style="fill:#000000;fill-opacity:1;fill-rule:nonzero;stroke:none"
       transform="scale(1.3333333)" />
    <path
       id="path11"
       d="m 328.113,87.383 v 23.156 l 113.11,-0.117"
       style="fill:none;stroke:#000000;stroke-width:1.41732;stroke-linecap:round;stroke-linejoin:miter;stroke-miterlimit:4;stroke-dasharray:none;stroke-opacity:1"
       transform="scale(1.3333333)" />
    <path
       id="path12"
       d="m -378.437,233.108 c -0.354,0.355 -9.546,-2.108 -9.676,-2.593 -0.129,-0.485 6.599,-7.213 7.083,-7.083 0.484,0.13 2.947,9.322 2.593,9.676 z"
       style="fill:#ffffff;fill-opacity:1;fill-rule:nonzero;stroke:#000000;stroke-width:1.17266;stroke-linecap:round;stroke-linejoin:round;stroke-miterlimit:4;stroke-dasharray:none;stroke-opacity:1"
       transform="matrix(-1.3333333,0.31164133,0.35726533,1.1630587,0,0)" />
    <path
       id="path13"
       d="m 340.516,64.723 0.863,0.109 v 7.574 h -0.754 l -0.082,-0.715 c -0.203,0.289 -0.434,0.5 -0.699,0.633 -0.258,0.133 -0.539,0.199 -0.836,0.199 -0.469,0 -0.856,-0.117 -1.16,-0.355 -0.301,-0.234 -0.528,-0.563 -0.676,-0.984 -0.145,-0.422 -0.219,-0.914 -0.219,-1.469 0,-0.543 0.082,-1.024 0.25,-1.449 0.168,-0.426 0.41,-0.762 0.723,-1.004 0.32,-0.246 0.699,-0.367 1.144,-0.367 0.598,0 1.078,0.21 1.446,0.632 z m -1.219,2.863 c -0.453,0 -0.801,0.176 -1.043,0.527 -0.242,0.352 -0.363,0.887 -0.363,1.602 0,1.406 0.433,2.109 1.297,2.109 0.304,0 0.566,-0.082 0.785,-0.254 0.218,-0.175 0.398,-0.375 0.543,-0.597 v -2.696 c -0.149,-0.218 -0.325,-0.386 -0.532,-0.507 -0.211,-0.125 -0.437,-0.184 -0.687,-0.184 z m 6.871,-3.109 c 0.191,0 0.344,0.058 0.461,0.175 0.117,0.118 0.176,0.258 0.176,0.426 0,0.172 -0.059,0.32 -0.176,0.442 -0.117,0.113 -0.27,0.171 -0.461,0.171 -0.184,0 -0.332,-0.058 -0.445,-0.171 -0.114,-0.122 -0.172,-0.27 -0.172,-0.442 0,-0.168 0.058,-0.308 0.172,-0.426 0.113,-0.117 0.261,-0.175 0.445,-0.175 z m 0.805,2.527 v 4.535 c 0,0.602 -0.137,1.106 -0.411,1.512 -0.269,0.406 -0.66,0.73 -1.175,0.976 -0.512,0.246 -1.129,0.43 -1.856,0.551 l -0.144,-0.664 c 0.535,-0.09 1.008,-0.223 1.418,-0.402 0.41,-0.176 0.73,-0.418 0.957,-0.727 0.234,-0.308 0.347,-0.703 0.347,-1.191 v -3.906 h -2.246 v -0.684 z m 3.48,-2.254 v 2.992 c 0.215,-0.277 0.473,-0.492 0.781,-0.633 0.313,-0.144 0.625,-0.218 0.942,-0.218 0.527,0 0.914,0.14 1.156,0.421 0.242,0.282 0.363,0.672 0.363,1.168 v 3.926 h -0.859 v -3.902 c 0,-0.324 -0.078,-0.563 -0.227,-0.707 -0.152,-0.152 -0.386,-0.227 -0.707,-0.227 -0.207,0 -0.402,0.047 -0.586,0.137 -0.183,0.094 -0.351,0.207 -0.496,0.344 -0.148,0.137 -0.269,0.277 -0.367,0.422 v 3.933 h -0.859 V 64.84 Z m 9.582,7.383 c -0.187,0.125 -0.41,0.219 -0.672,0.289 -0.265,0.066 -0.523,0.101 -0.773,0.101 -0.582,0 -1.031,-0.152 -1.344,-0.457 -0.316,-0.304 -0.473,-0.695 -0.473,-1.171 v -3.223 h -1.242 v -0.668 h 1.242 v -1.223 l 0.86,-0.105 v 1.328 h 1.867 l -0.102,0.668 h -1.765 v 3.211 c 0,0.301 0.078,0.531 0.238,0.687 0.16,0.157 0.426,0.235 0.793,0.235 0.203,0 0.391,-0.024 0.559,-0.071 0.172,-0.046 0.332,-0.109 0.476,-0.183 z m 3.074,-4.145 c 0,-0.226 0.082,-0.422 0.239,-0.582 0.16,-0.16 0.355,-0.242 0.59,-0.242 0.238,0 0.437,0.082 0.593,0.242 0.16,0.16 0.242,0.356 0.242,0.582 0,0.231 -0.082,0.426 -0.242,0.59 -0.156,0.164 -0.355,0.246 -0.593,0.246 -0.235,0 -0.43,-0.082 -0.59,-0.246 -0.157,-0.164 -0.239,-0.359 -0.239,-0.59 z m 0,3.7 c 0,-0.223 0.082,-0.415 0.239,-0.579 0.16,-0.164 0.355,-0.246 0.59,-0.246 0.238,0 0.437,0.082 0.593,0.246 0.16,0.164 0.242,0.356 0.242,0.579 0,0.23 -0.082,0.429 -0.242,0.593 -0.156,0.16 -0.355,0.242 -0.593,0.242 -0.235,0 -0.43,-0.082 -0.59,-0.242 -0.157,-0.164 -0.239,-0.359 -0.239,-0.593 z m 5.621,-1.676 c 0.024,0.625 0.188,1.082 0.493,1.367 0.308,0.285 0.672,0.426 1.089,0.426 0.278,0 0.524,-0.039 0.747,-0.121 0.222,-0.082 0.453,-0.204 0.695,-0.368 l 0.402,0.571 c -0.25,0.199 -0.535,0.355 -0.859,0.468 -0.324,0.114 -0.656,0.168 -0.996,0.168 -0.528,0 -0.973,-0.117 -1.344,-0.355 -0.367,-0.234 -0.645,-0.563 -0.84,-0.984 -0.191,-0.422 -0.289,-0.914 -0.289,-1.469 0,-0.547 0.098,-1.035 0.289,-1.457 0.195,-0.426 0.469,-0.758 0.821,-1 0.355,-0.242 0.773,-0.363 1.25,-0.363 0.679,0 1.214,0.234 1.605,0.707 0.395,0.468 0.59,1.117 0.59,1.937 0,0.094 -0.004,0.18 -0.012,0.262 -0.004,0.082 -0.008,0.152 -0.012,0.211 z m 1.469,-2.41 c -0.402,0 -0.734,0.14 -1.008,0.425 -0.269,0.282 -0.421,0.723 -0.453,1.317 h 2.813 c -0.008,-0.578 -0.133,-1.012 -0.379,-1.301 -0.242,-0.297 -0.567,-0.441 -0.973,-0.441 z m 7.567,-0.711 c 0.172,0 0.339,0.039 0.5,0.113 0.16,0.078 0.293,0.223 0.394,0.437 0.102,0.215 0.152,0.532 0.152,0.946 v 4.019 h -0.8 v -3.883 c 0,-0.339 -0.02,-0.582 -0.059,-0.734 -0.043,-0.148 -0.16,-0.227 -0.355,-0.227 -0.16,0 -0.321,0.055 -0.481,0.157 -0.16,0.097 -0.316,0.261 -0.461,0.492 v 4.195 h -0.808 v -3.883 c 0,-0.339 -0.02,-0.582 -0.059,-0.734 -0.043,-0.148 -0.16,-0.227 -0.355,-0.227 -0.168,0 -0.329,0.055 -0.489,0.157 -0.156,0.097 -0.308,0.261 -0.453,0.492 v 4.195 h -0.797 v -5.402 h 0.676 l 0.055,0.629 c 0.144,-0.211 0.308,-0.383 0.492,-0.524 0.184,-0.144 0.41,-0.214 0.68,-0.214 0.207,0 0.398,0.046 0.582,0.148 0.179,0.094 0.312,0.281 0.398,0.562 0.149,-0.21 0.313,-0.382 0.496,-0.511 0.188,-0.133 0.418,-0.203 0.696,-0.203 z m 6.464,4.336 c 0,0.218 0.036,0.378 0.106,0.476 0.074,0.098 0.184,0.172 0.336,0.215 l -0.211,0.605 c -0.234,-0.031 -0.438,-0.105 -0.613,-0.218 -0.172,-0.121 -0.301,-0.301 -0.379,-0.539 -0.196,0.25 -0.438,0.437 -0.731,0.566 -0.293,0.129 -0.613,0.191 -0.961,0.191 -0.539,0 -0.965,-0.152 -1.277,-0.457 -0.309,-0.304 -0.465,-0.707 -0.465,-1.211 0,-0.554 0.215,-0.984 0.649,-1.281 0.437,-0.297 1.062,-0.445 1.882,-0.445 h 0.797 v -0.453 c 0,-0.387 -0.117,-0.664 -0.343,-0.824 -0.227,-0.164 -0.543,-0.247 -0.946,-0.247 -0.176,0 -0.386,0.024 -0.625,0.067 -0.238,0.043 -0.5,0.109 -0.777,0.211 l -0.227,-0.653 c 0.328,-0.121 0.637,-0.21 0.926,-0.261 0.297,-0.051 0.574,-0.078 0.836,-0.078 0.672,0 1.176,0.16 1.516,0.472 0.336,0.317 0.507,0.739 0.507,1.274 z m -2.23,0.64 c 0.266,0 0.52,-0.066 0.758,-0.199 0.242,-0.137 0.445,-0.324 0.605,-0.566 v -1.387 h -0.781 c -0.594,0 -1.016,0.101 -1.262,0.305 -0.242,0.207 -0.363,0.48 -0.363,0.828 0,0.679 0.348,1.019 1.043,1.019 z m 6.562,-7.39 c 0.192,0 0.344,0.058 0.458,0.175 0.117,0.118 0.171,0.258 0.171,0.426 0,0.172 -0.054,0.32 -0.171,0.442 -0.114,0.113 -0.266,0.171 -0.458,0.171 -0.179,0 -0.332,-0.058 -0.445,-0.171 -0.117,-0.122 -0.176,-0.27 -0.176,-0.442 0,-0.168 0.059,-0.308 0.176,-0.426 0.113,-0.117 0.266,-0.175 0.445,-0.175 z m 0.688,2.527 v 4.719 h 1.523 v 0.683 h -4.05 v -0.683 h 1.664 v -4.035 h -1.614 v -0.684 z m 5.523,-2.172 v 6.238 c 0,0.27 0.082,0.457 0.247,0.571 0.168,0.109 0.382,0.164 0.644,0.164 0.16,0 0.316,-0.016 0.461,-0.051 0.152,-0.035 0.301,-0.082 0.449,-0.137 l 0.231,0.629 c -0.149,0.07 -0.332,0.137 -0.551,0.192 -0.215,0.058 -0.461,0.085 -0.734,0.085 -0.477,0 -0.864,-0.132 -1.165,-0.394 -0.296,-0.266 -0.445,-0.633 -0.445,-1.102 v -5.515 h -1.656 v -0.68 z"
       style="fill:#000000;fill-opacity:1;fill-rule:nonzero;stroke:none"
       transform="scale(1.3333333)" />
    <path
       id="path14"
       d="m 328.113,57.383 v 23.156 l 113.11,-0.117"
       style="fill:none;stroke:#000000;stroke-width:1.41732;stroke-linecap:round;stroke-linejoin:miter;stroke-miterlimit:4;stroke-dasharray:none;stroke-opacity:1"
       transform="scale(1.3333333)" />
    <path
       id="path15"
       d="m -387.035,201.02 c -0.354,0.355 -9.546,-2.108 -9.676,-2.593 -0.129,-0.485 6.599,-7.214 7.083,-7.084 0.484,0.131 2.947,9.322 2.593,9.677 z"
       style="fill:#ffffff;fill-opacity:1;fill-rule:nonzero;stroke:#000000;stroke-width:1.17266;stroke-linecap:round;stroke-linejoin:round;stroke-miterlimit:4;stroke-dasharray:none;stroke-opacity:1"
       transform="matrix(-1.3333333,0.31164133,0.35726533,1.1630587,0,0)" />
    <path
       id="path16"
       d="m 235.453,64.723 0.863,0.109 v 7.574 h -0.754 l -0.082,-0.715 c -0.203,0.289 -0.437,0.5 -0.699,0.633 -0.258,0.133 -0.539,0.199 -0.836,0.199 -0.468,0 -0.855,-0.117 -1.16,-0.355 -0.305,-0.234 -0.527,-0.563 -0.676,-0.984 -0.148,-0.422 -0.218,-0.914 -0.218,-1.469 0,-0.543 0.082,-1.024 0.25,-1.449 0.168,-0.426 0.406,-0.762 0.722,-1.004 0.317,-0.246 0.699,-0.367 1.145,-0.367 0.597,0 1.078,0.21 1.445,0.632 z m -1.219,2.863 c -0.453,0 -0.8,0.176 -1.043,0.527 -0.242,0.352 -0.363,0.887 -0.363,1.602 0,1.406 0.434,2.109 1.297,2.109 0.305,0 0.566,-0.082 0.785,-0.254 0.219,-0.175 0.399,-0.375 0.543,-0.597 v -2.696 c -0.148,-0.218 -0.324,-0.386 -0.535,-0.507 -0.207,-0.125 -0.438,-0.184 -0.684,-0.184 z m 6.871,-3.109 c 0.192,0 0.344,0.058 0.461,0.175 0.118,0.118 0.172,0.258 0.172,0.426 0,0.172 -0.054,0.32 -0.172,0.442 -0.117,0.113 -0.269,0.171 -0.461,0.171 -0.187,0 -0.335,-0.058 -0.449,-0.171 -0.109,-0.122 -0.168,-0.27 -0.168,-0.442 0,-0.168 0.059,-0.308 0.168,-0.426 0.114,-0.117 0.262,-0.175 0.449,-0.175 z m 0.805,2.527 v 4.535 c 0,0.602 -0.137,1.106 -0.41,1.512 -0.27,0.406 -0.664,0.73 -1.176,0.976 -0.512,0.246 -1.133,0.43 -1.855,0.551 l -0.145,-0.664 c 0.535,-0.09 1.004,-0.223 1.414,-0.402 0.41,-0.176 0.731,-0.418 0.961,-0.727 0.231,-0.308 0.348,-0.703 0.348,-1.191 v -3.906 h -2.246 v -0.684 z m 3.481,-2.254 v 2.992 c 0.211,-0.277 0.472,-0.492 0.781,-0.633 0.308,-0.144 0.625,-0.218 0.941,-0.218 0.528,0 0.914,0.14 1.157,0.421 0.242,0.282 0.363,0.672 0.363,1.168 v 3.926 h -0.863 v -3.902 c 0,-0.324 -0.075,-0.563 -0.223,-0.707 -0.152,-0.152 -0.387,-0.227 -0.711,-0.227 -0.203,0 -0.398,0.047 -0.582,0.137 -0.188,0.094 -0.352,0.207 -0.5,0.344 -0.145,0.137 -0.266,0.277 -0.363,0.422 v 3.933 h -0.86 V 64.84 Z m 9.582,7.383 c -0.188,0.125 -0.411,0.219 -0.672,0.289 -0.266,0.066 -0.524,0.101 -0.778,0.101 -0.578,0 -1.027,-0.152 -1.343,-0.457 -0.313,-0.304 -0.469,-0.695 -0.469,-1.171 v -3.223 h -1.242 v -0.668 h 1.242 v -1.223 l 0.859,-0.105 v 1.328 h 1.868 l -0.102,0.668 h -1.766 v 3.211 c 0,0.301 0.078,0.531 0.239,0.687 0.16,0.157 0.421,0.235 0.793,0.235 0.203,0 0.386,-0.024 0.558,-0.071 0.172,-0.046 0.332,-0.109 0.477,-0.183 z m 3.074,-4.145 c 0,-0.226 0.078,-0.422 0.238,-0.582 0.16,-0.16 0.356,-0.242 0.59,-0.242 0.238,0 0.437,0.082 0.594,0.242 0.16,0.16 0.242,0.356 0.242,0.582 0,0.231 -0.082,0.426 -0.242,0.59 -0.157,0.164 -0.356,0.246 -0.594,0.246 -0.234,0 -0.43,-0.082 -0.59,-0.246 -0.16,-0.164 -0.238,-0.359 -0.238,-0.59 z m 0,3.7 c 0,-0.223 0.078,-0.415 0.238,-0.579 0.16,-0.164 0.356,-0.246 0.59,-0.246 0.238,0 0.437,0.082 0.594,0.246 0.16,0.164 0.242,0.356 0.242,0.579 0,0.23 -0.082,0.429 -0.242,0.593 -0.157,0.16 -0.356,0.242 -0.594,0.242 -0.234,0 -0.43,-0.082 -0.59,-0.242 -0.16,-0.164 -0.238,-0.359 -0.238,-0.593 z m 7.047,-6.856 v 6.238 c 0,0.27 0.082,0.457 0.246,0.571 0.168,0.109 0.383,0.164 0.644,0.164 0.164,0 0.317,-0.016 0.465,-0.051 0.149,-0.035 0.297,-0.082 0.446,-0.137 l 0.23,0.629 c -0.148,0.07 -0.332,0.137 -0.551,0.192 -0.215,0.058 -0.457,0.085 -0.73,0.085 -0.481,0 -0.867,-0.132 -1.164,-0.394 -0.297,-0.266 -0.45,-0.633 -0.45,-1.102 v -5.515 h -1.656 v -0.68 z m 7.918,6.395 c 0,0.218 0.035,0.378 0.109,0.476 0.07,0.098 0.18,0.172 0.332,0.215 l -0.211,0.605 c -0.23,-0.031 -0.433,-0.105 -0.609,-0.218 -0.176,-0.121 -0.301,-0.301 -0.379,-0.539 -0.195,0.25 -0.442,0.437 -0.734,0.566 -0.29,0.129 -0.61,0.191 -0.958,0.191 -0.542,0 -0.968,-0.152 -1.277,-0.457 -0.312,-0.304 -0.469,-0.707 -0.469,-1.211 0,-0.554 0.219,-0.984 0.653,-1.281 0.433,-0.297 1.062,-0.445 1.883,-0.445 h 0.793 v -0.453 c 0,-0.387 -0.114,-0.664 -0.344,-0.824 -0.227,-0.164 -0.539,-0.247 -0.942,-0.247 -0.179,0 -0.386,0.024 -0.625,0.067 -0.242,0.043 -0.5,0.109 -0.781,0.211 l -0.226,-0.653 c 0.328,-0.121 0.636,-0.21 0.929,-0.261 0.293,-0.051 0.571,-0.078 0.836,-0.078 0.668,0 1.172,0.16 1.512,0.472 0.34,0.317 0.508,0.739 0.508,1.274 z m -2.231,0.64 c 0.266,0 0.52,-0.066 0.758,-0.199 0.242,-0.137 0.445,-0.324 0.606,-0.566 v -1.387 h -0.778 c -0.597,0 -1.015,0.101 -1.262,0.305 -0.242,0.207 -0.367,0.48 -0.367,0.828 0,0.679 0.348,1.019 1.043,1.019 z m 6.356,-0.058 c 0.414,0 0.742,-0.075 0.984,-0.231 0.238,-0.152 0.359,-0.359 0.359,-0.625 0,-0.16 -0.031,-0.301 -0.093,-0.418 -0.059,-0.121 -0.18,-0.23 -0.364,-0.324 -0.187,-0.102 -0.468,-0.195 -0.851,-0.293 -0.375,-0.094 -0.699,-0.199 -0.977,-0.316 -0.273,-0.125 -0.484,-0.286 -0.64,-0.477 -0.149,-0.195 -0.227,-0.449 -0.227,-0.762 0,-0.453 0.192,-0.812 0.57,-1.074 0.379,-0.266 0.875,-0.398 1.485,-0.398 0.433,0 0.808,0.058 1.133,0.175 0.324,0.118 0.597,0.258 0.824,0.422 l -0.379,0.582 c -0.203,-0.136 -0.426,-0.254 -0.676,-0.343 -0.246,-0.09 -0.547,-0.137 -0.894,-0.137 -0.422,0 -0.723,0.066 -0.903,0.199 -0.176,0.133 -0.265,0.301 -0.265,0.508 0,0.16 0.043,0.293 0.129,0.402 0.086,0.102 0.234,0.192 0.445,0.274 0.207,0.082 0.496,0.175 0.859,0.273 0.356,0.098 0.66,0.207 0.926,0.34 0.262,0.129 0.465,0.301 0.609,0.512 0.149,0.207 0.219,0.48 0.219,0.816 0,0.383 -0.109,0.691 -0.328,0.934 -0.219,0.234 -0.5,0.406 -0.852,0.515 -0.343,0.106 -0.71,0.16 -1.093,0.16 -0.492,0 -0.907,-0.07 -1.254,-0.211 -0.34,-0.144 -0.629,-0.316 -0.86,-0.515 l 0.493,-0.57 c 0.211,0.171 0.453,0.316 0.726,0.425 0.278,0.106 0.574,0.16 0.895,0.16 z m 8.601,0.324 c -0.183,0.125 -0.406,0.219 -0.668,0.289 -0.265,0.066 -0.523,0.101 -0.777,0.101 -0.582,0 -1.027,-0.152 -1.344,-0.457 -0.312,-0.304 -0.469,-0.695 -0.469,-1.171 v -3.223 h -1.242 v -0.668 h 1.242 v -1.223 l 0.86,-0.105 v 1.328 h 1.867 l -0.102,0.668 h -1.765 v 3.211 c 0,0.301 0.078,0.531 0.234,0.687 0.164,0.157 0.426,0.235 0.797,0.235 0.203,0 0.387,-0.024 0.559,-0.071 0.172,-0.046 0.328,-0.109 0.476,-0.183 z m 1.352,2.133 v -0.754 h 5.129 v 0.754 z m 6.672,-1.86 v -5.402 h 0.73 l 0.07,0.75 c 0.219,-0.277 0.493,-0.488 0.821,-0.637 0.328,-0.148 0.648,-0.226 0.961,-0.226 0.531,0 0.918,0.14 1.156,0.421 0.242,0.282 0.363,0.672 0.363,1.168 v 3.926 H 297 v -3.289 c 0,-0.367 -0.02,-0.664 -0.059,-0.89 -0.043,-0.227 -0.129,-0.391 -0.261,-0.5 -0.133,-0.106 -0.332,-0.157 -0.602,-0.157 -0.211,0 -0.41,0.047 -0.598,0.137 -0.187,0.094 -0.351,0.211 -0.5,0.352 -0.144,0.136 -0.261,0.273 -0.359,0.414 v 3.933 z m 10.019,-1.179 c 0,0.218 0.035,0.378 0.11,0.476 0.07,0.098 0.179,0.172 0.332,0.215 l -0.211,0.605 c -0.231,-0.031 -0.438,-0.105 -0.61,-0.218 -0.175,-0.121 -0.3,-0.301 -0.379,-0.539 -0.195,0.25 -0.441,0.437 -0.734,0.566 -0.289,0.129 -0.609,0.191 -0.961,0.191 -0.539,0 -0.965,-0.152 -1.273,-0.457 -0.313,-0.304 -0.469,-0.707 -0.469,-1.211 0,-0.554 0.219,-0.984 0.652,-1.281 0.434,-0.297 1.063,-0.445 1.883,-0.445 h 0.793 v -0.453 c 0,-0.387 -0.113,-0.664 -0.344,-0.824 -0.226,-0.164 -0.539,-0.247 -0.941,-0.247 -0.18,0 -0.387,0.024 -0.629,0.067 -0.238,0.043 -0.496,0.109 -0.777,0.211 l -0.227,-0.653 c 0.328,-0.121 0.637,-0.21 0.93,-0.261 0.293,-0.051 0.57,-0.078 0.836,-0.078 0.668,0 1.172,0.16 1.511,0.472 0.34,0.317 0.508,0.739 0.508,1.274 z m -2.23,0.64 c 0.265,0 0.519,-0.066 0.758,-0.199 0.242,-0.137 0.445,-0.324 0.605,-0.566 v -1.387 h -0.777 c -0.598,0 -1.016,0.101 -1.262,0.305 -0.246,0.207 -0.367,0.48 -0.367,0.828 0,0.679 0.347,1.019 1.043,1.019 z m 8.078,-4.976 c 0.168,0 0.336,0.039 0.496,0.113 0.16,0.078 0.293,0.223 0.395,0.437 0.101,0.215 0.152,0.532 0.152,0.946 v 4.019 h -0.797 v -3.883 c 0,-0.339 -0.023,-0.582 -0.063,-0.734 -0.042,-0.148 -0.16,-0.227 -0.355,-0.227 -0.16,0 -0.32,0.055 -0.48,0.157 -0.161,0.097 -0.317,0.261 -0.461,0.492 v 4.195 h -0.805 v -3.883 c 0,-0.339 -0.023,-0.582 -0.063,-0.734 -0.043,-0.148 -0.16,-0.227 -0.355,-0.227 -0.168,0 -0.328,0.055 -0.484,0.157 -0.161,0.097 -0.313,0.261 -0.457,0.492 v 4.195 h -0.797 v -5.402 h 0.679 l 0.051,0.629 c 0.145,-0.211 0.309,-0.383 0.492,-0.524 0.184,-0.144 0.411,-0.214 0.68,-0.214 0.207,0 0.398,0.046 0.582,0.148 0.18,0.094 0.313,0.281 0.399,0.562 0.148,-0.21 0.312,-0.382 0.496,-0.511 0.187,-0.133 0.418,-0.203 0.695,-0.203 z m 3.269,3.121 c 0.024,0.625 0.188,1.082 0.493,1.367 0.308,0.285 0.671,0.426 1.089,0.426 0.274,0 0.524,-0.039 0.747,-0.121 0.222,-0.082 0.453,-0.204 0.691,-0.368 l 0.406,0.571 c -0.25,0.199 -0.535,0.355 -0.859,0.468 -0.328,0.114 -0.656,0.168 -0.996,0.168 -0.528,0 -0.977,-0.117 -1.344,-0.355 -0.367,-0.234 -0.645,-0.563 -0.84,-0.984 -0.191,-0.422 -0.289,-0.914 -0.289,-1.469 0,-0.547 0.098,-1.035 0.289,-1.457 0.195,-0.426 0.469,-0.758 0.82,-1 0.356,-0.242 0.774,-0.363 1.25,-0.363 0.68,0 1.215,0.234 1.606,0.707 0.394,0.468 0.59,1.117 0.59,1.937 0,0.094 -0.004,0.18 -0.012,0.262 -0.004,0.082 -0.008,0.152 -0.012,0.211 z m 1.469,-2.41 c -0.402,0 -0.734,0.14 -1.008,0.425 -0.269,0.282 -0.421,0.723 -0.453,1.317 h 2.813 c -0.008,-0.578 -0.137,-1.012 -0.379,-1.301 -0.242,-0.297 -0.567,-0.441 -0.973,-0.441 z"
       style="fill:#000000;fill-opacity:1;fill-rule:nonzero;stroke:none"
       transform="scale(1.3333333)" />
    <path
       id="path17"
       d="M 323.777,57.383 V 80.539 L 210.668,80.422"
       style="fill:none;stroke:#000000;stroke-width:1.41732;stroke-linecap:round;stroke-linejoin:miter;stroke-miterlimit:4;stroke-dasharray:none;stroke-opacity:1"
       transform="scale(1.3333333)" />
    <path
       id="path18"
       d="m 221.187,38.047 c -0.354,0.355 -9.545,-2.108 -9.675,-2.593 -0.13,-0.484 6.598,-7.213 7.082,-7.083 0.484,0.13 2.947,9.322 2.593,9.676 z"
       style="fill:#ffffff;fill-opacity:1;fill-rule:nonzero;stroke:#000000;stroke-width:1.17266;stroke-linecap:round;stroke-linejoin:round;stroke-miterlimit:4;stroke-dasharray:none;stroke-opacity:1"
       transform="matrix(1.3333333,0.31164133,-0.35726533,1.1630587,0,0)" />
    <path
       id="path19"
       d="M 456.18,39.285 H 537.2 V 60.394 H 456.18 Z"
       style="fill:#005580;fill-opacity:1;fill-rule:nonzero;stroke:#005580;stroke-width:1.41732;stroke-linecap:round;stroke-linejoin:round;stroke-miterlimit:4;stroke-dasharray:none;stroke-opacity:1"
       transform="scale(1.3333333)" />
    <path
       id="path20"
       d="m 465.137,53.465 h -0.985 l 1.996,-2.852 -1.75,-2.551 h 1.024 l 1.25,2.012 1.266,-2.012 h 0.984 l -1.742,2.516 1.988,2.887 h -1.055 l -1.476,-2.32 z m 7.468,-0.598 c 0.418,0 0.747,-0.074 0.985,-0.23 0.238,-0.153 0.359,-0.364 0.359,-0.625 0,-0.16 -0.031,-0.301 -0.094,-0.422 -0.058,-0.117 -0.179,-0.227 -0.363,-0.32 -0.183,-0.102 -0.469,-0.2 -0.851,-0.293 -0.371,-0.094 -0.7,-0.2 -0.973,-0.317 -0.277,-0.125 -0.488,-0.285 -0.645,-0.48 -0.148,-0.192 -0.222,-0.446 -0.222,-0.758 0,-0.453 0.187,-0.813 0.566,-1.078 0.383,-0.262 0.875,-0.395 1.485,-0.395 0.433,0 0.812,0.059 1.132,0.176 0.325,0.117 0.602,0.258 0.825,0.422 l -0.379,0.582 c -0.203,-0.141 -0.426,-0.254 -0.676,-0.344 -0.246,-0.09 -0.543,-0.137 -0.895,-0.137 -0.421,0 -0.722,0.067 -0.902,0.2 -0.176,0.129 -0.266,0.3 -0.266,0.507 0,0.161 0.043,0.293 0.129,0.399 0.09,0.105 0.239,0.195 0.446,0.277 0.207,0.082 0.496,0.176 0.863,0.274 0.351,0.093 0.66,0.207 0.922,0.34 0.261,0.128 0.465,0.3 0.609,0.511 0.149,0.207 0.223,0.481 0.223,0.817 0,0.382 -0.11,0.691 -0.328,0.933 -0.219,0.235 -0.504,0.406 -0.852,0.516 -0.348,0.105 -0.711,0.16 -1.098,0.16 -0.488,0 -0.906,-0.07 -1.253,-0.211 -0.34,-0.144 -0.629,-0.316 -0.86,-0.519 l 0.492,-0.567 c 0.211,0.172 0.454,0.317 0.727,0.426 0.277,0.105 0.574,0.156 0.894,0.156 z m 7.547,-7.086 0.864,0.11 v 7.574 h -0.754 L 480.18,52.75 c -0.203,0.289 -0.434,0.496 -0.7,0.633 -0.257,0.133 -0.539,0.199 -0.835,0.199 -0.469,0 -0.852,-0.117 -1.157,-0.355 -0.304,-0.235 -0.531,-0.563 -0.679,-0.985 -0.145,-0.422 -0.219,-0.914 -0.219,-1.472 0,-0.54 0.082,-1.02 0.25,-1.446 0.168,-0.426 0.41,-0.762 0.722,-1.004 0.321,-0.246 0.7,-0.371 1.145,-0.371 0.598,0 1.082,0.215 1.445,0.637 z m -1.218,2.864 c -0.454,0 -0.801,0.175 -1.043,0.527 -0.243,0.351 -0.364,0.883 -0.364,1.598 0,1.41 0.434,2.113 1.297,2.113 0.305,0 0.567,-0.086 0.785,-0.254 0.219,-0.176 0.399,-0.375 0.543,-0.598 v -2.695 c -0.144,-0.219 -0.324,-0.391 -0.531,-0.508 -0.211,-0.125 -0.437,-0.183 -0.687,-0.183 z m 5.351,0.402 c 0,-0.227 0.082,-0.422 0.238,-0.582 0.161,-0.16 0.356,-0.242 0.59,-0.242 0.239,0 0.438,0.082 0.594,0.242 0.16,0.16 0.242,0.355 0.242,0.582 0,0.23 -0.082,0.426 -0.242,0.59 -0.156,0.164 -0.355,0.246 -0.594,0.246 -0.234,0 -0.429,-0.082 -0.59,-0.246 -0.156,-0.164 -0.238,-0.36 -0.238,-0.59 z m 0,3.699 c 0,-0.223 0.082,-0.418 0.238,-0.582 0.161,-0.164 0.356,-0.246 0.59,-0.246 0.239,0 0.438,0.082 0.594,0.246 0.16,0.164 0.242,0.359 0.242,0.582 0,0.231 -0.082,0.43 -0.242,0.594 -0.156,0.16 -0.355,0.242 -0.594,0.242 -0.234,0 -0.429,-0.082 -0.59,-0.242 -0.156,-0.164 -0.238,-0.363 -0.238,-0.594 z m 6.992,-7.211 c 0.192,0 0.344,0.059 0.457,0.176 0.114,0.113 0.172,0.258 0.172,0.426 0,0.172 -0.058,0.32 -0.172,0.437 -0.113,0.117 -0.265,0.176 -0.457,0.176 -0.183,0 -0.332,-0.059 -0.445,-0.176 -0.117,-0.117 -0.176,-0.265 -0.176,-0.437 0,-0.168 0.059,-0.313 0.176,-0.426 0.113,-0.117 0.262,-0.176 0.445,-0.176 z m 0.688,2.527 v 4.719 h 1.523 v 0.684 h -4.054 v -0.684 h 1.668 v -4.035 h -1.614 v -0.684 z m 3.418,5.403 v -5.403 h 0.734 l 0.067,0.75 c 0.218,-0.277 0.492,-0.488 0.82,-0.636 0.328,-0.149 0.648,-0.227 0.965,-0.227 0.531,0 0.914,0.141 1.152,0.422 0.246,0.281 0.367,0.672 0.367,1.168 v 3.926 h -0.863 v -3.289 c 0,-0.367 -0.02,-0.668 -0.063,-0.891 -0.039,-0.226 -0.128,-0.394 -0.261,-0.5 -0.129,-0.105 -0.328,-0.156 -0.598,-0.156 -0.215,0 -0.414,0.043 -0.601,0.137 -0.184,0.093 -0.352,0.207 -0.497,0.347 -0.144,0.137 -0.265,0.278 -0.359,0.418 v 3.934 z m 10.441,-0.274 c -0.183,0.125 -0.406,0.219 -0.672,0.289 -0.261,0.067 -0.519,0.102 -0.773,0.102 -0.582,0 -1.027,-0.152 -1.344,-0.457 -0.312,-0.305 -0.473,-0.695 -0.473,-1.176 V 48.73 h -1.238 v -0.668 h 1.238 v -1.226 l 0.864,-0.102 v 1.328 h 1.867 l -0.105,0.668 h -1.762 v 3.211 c 0,0.301 0.078,0.528 0.234,0.688 0.16,0.156 0.426,0.234 0.797,0.234 0.199,0 0.387,-0.023 0.559,-0.07 0.172,-0.051 0.328,-0.109 0.476,-0.188 z m 2.543,-2.121 c 0.028,0.625 0.192,1.082 0.492,1.368 0.309,0.285 0.672,0.425 1.09,0.425 0.278,0 0.528,-0.039 0.746,-0.121 0.223,-0.082 0.453,-0.207 0.696,-0.367 l 0.402,0.57 c -0.25,0.2 -0.535,0.356 -0.859,0.469 -0.325,0.109 -0.657,0.168 -0.996,0.168 -0.528,0 -0.973,-0.117 -1.344,-0.355 -0.364,-0.235 -0.645,-0.563 -0.84,-0.985 -0.192,-0.422 -0.289,-0.914 -0.289,-1.472 0,-0.547 0.097,-1.032 0.289,-1.454 0.195,-0.425 0.469,-0.757 0.82,-1 0.356,-0.246 0.774,-0.367 1.25,-0.367 0.68,0 1.215,0.239 1.606,0.711 0.394,0.469 0.59,1.117 0.59,1.938 0,0.09 -0.004,0.179 -0.012,0.261 -0.004,0.082 -0.008,0.153 -0.012,0.211 z m 1.469,-2.414 c -0.402,0 -0.734,0.145 -1.004,0.426 -0.273,0.285 -0.426,0.727 -0.457,1.32 h 2.813 c -0.008,-0.578 -0.133,-1.011 -0.379,-1.304 -0.243,-0.293 -0.567,-0.442 -0.973,-0.442 z m 8.398,-1.168 0.27,0.813 c -0.234,0.07 -0.481,0.113 -0.738,0.133 -0.258,0.015 -0.539,0.023 -0.844,0.023 0.625,0.289 0.937,0.742 0.937,1.359 0,0.536 -0.175,0.973 -0.535,1.321 -0.355,0.343 -0.855,0.515 -1.492,0.515 -0.184,0 -0.336,-0.007 -0.457,-0.023 -0.121,-0.02 -0.238,-0.043 -0.352,-0.078 -0.082,0.058 -0.148,0.133 -0.203,0.23 -0.05,0.094 -0.078,0.192 -0.078,0.293 0,0.129 0.051,0.238 0.156,0.324 0.102,0.082 0.293,0.125 0.567,0.125 h 0.976 c 0.364,0 0.688,0.067 0.973,0.196 0.289,0.133 0.516,0.308 0.684,0.527 0.168,0.219 0.25,0.469 0.25,0.746 0,0.531 -0.227,0.938 -0.676,1.219 -0.449,0.285 -1.082,0.426 -1.902,0.426 -0.575,0 -1.028,-0.059 -1.36,-0.18 -0.332,-0.113 -0.57,-0.293 -0.715,-0.539 -0.136,-0.238 -0.207,-0.539 -0.207,-0.906 h 0.778 c 0,0.207 0.043,0.383 0.125,0.519 0.082,0.137 0.23,0.239 0.445,0.301 0.215,0.07 0.523,0.102 0.926,0.102 0.597,0 1.031,-0.075 1.304,-0.223 0.274,-0.149 0.411,-0.367 0.411,-0.664 0,-0.254 -0.118,-0.449 -0.348,-0.578 -0.234,-0.129 -0.524,-0.196 -0.875,-0.196 h -0.961 c -0.469,0 -0.813,-0.101 -1.031,-0.308 -0.219,-0.203 -0.328,-0.442 -0.328,-0.707 0,-0.367 0.199,-0.684 0.593,-0.942 -0.605,-0.324 -0.906,-0.82 -0.906,-1.492 0,-0.367 0.09,-0.691 0.27,-0.972 0.183,-0.282 0.433,-0.504 0.761,-0.664 0.325,-0.161 0.7,-0.243 1.121,-0.243 0.457,0 0.825,-0.019 1.11,-0.054 0.281,-0.039 0.523,-0.094 0.726,-0.161 0.207,-0.07 0.414,-0.148 0.625,-0.242 z m -2.461,1.086 c -0.433,0 -0.753,0.121 -0.964,0.356 -0.204,0.234 -0.305,0.535 -0.305,0.894 0,0.364 0.101,0.664 0.312,0.903 0.211,0.234 0.536,0.351 0.977,0.351 0.383,0 0.672,-0.109 0.875,-0.332 0.199,-0.223 0.301,-0.531 0.301,-0.93 0,-0.828 -0.399,-1.242 -1.196,-1.242 z m 4.903,2.496 c 0.023,0.625 0.187,1.082 0.492,1.368 0.309,0.285 0.672,0.425 1.09,0.425 0.273,0 0.523,-0.039 0.746,-0.121 0.223,-0.082 0.453,-0.207 0.691,-0.367 l 0.407,0.57 c -0.25,0.2 -0.536,0.356 -0.86,0.469 -0.328,0.109 -0.656,0.168 -0.996,0.168 -0.527,0 -0.976,-0.117 -1.344,-0.355 -0.367,-0.235 -0.644,-0.563 -0.84,-0.985 -0.191,-0.422 -0.289,-0.914 -0.289,-1.472 0,-0.547 0.098,-1.032 0.289,-1.454 0.196,-0.425 0.469,-0.757 0.821,-1 0.355,-0.246 0.769,-0.367 1.25,-0.367 0.679,0 1.215,0.239 1.605,0.711 0.395,0.469 0.59,1.117 0.59,1.938 0,0.09 -0.004,0.179 -0.012,0.261 -0.004,0.082 -0.007,0.153 -0.011,0.211 z m 1.469,-2.414 c -0.403,0 -0.739,0.145 -1.008,0.426 -0.27,0.285 -0.422,0.727 -0.457,1.32 h 2.816 c -0.008,-0.578 -0.137,-1.011 -0.379,-1.304 -0.242,-0.293 -0.566,-0.442 -0.972,-0.442 z m 4.058,4.809 v -0.664 h 0.844 v -4.074 h -0.844 v -0.665 h 1.5 l 0.156,1.278 c 0.211,-0.445 0.465,-0.789 0.762,-1.031 0.297,-0.243 0.691,-0.364 1.18,-0.364 0.148,0 0.281,0.012 0.398,0.035 0.121,0.024 0.242,0.051 0.363,0.082 l -0.121,1.829 h -0.707 v -1.149 c -0.015,0 -0.031,0 -0.046,0 -0.829,0 -1.422,0.59 -1.782,1.774 v 2.285 h 1.098 v 0.664 z"
       style="fill:#ffffff;fill-opacity:1;fill-rule:nonzero;stroke:none"
       transform="scale(1.3333333)" />
    <path
       id="path21"
       d="m 456.18,69.285 h 76.535 V 90.394 H 456.18 Z"
       style="fill:#800015;fill-opacity:1;fill-rule:nonzero;stroke:#800015;stroke-width:1.41732;stroke-linecap:round;stroke-linejoin:round;stroke-miterlimit:4;stroke-dasharray:none;stroke-opacity:1"
       transform="scale(1.3333333)" />
    <path
       id="path22"
       d="m 465.137,83.465 h -0.985 l 1.996,-2.852 -1.75,-2.551 h 1.024 l 1.25,2.012 1.266,-2.012 h 0.984 l -1.742,2.516 1.988,2.887 h -1.055 l -1.476,-2.32 z m 7.468,-0.598 c 0.418,0 0.747,-0.074 0.985,-0.23 0.238,-0.153 0.359,-0.36 0.359,-0.625 0,-0.16 -0.031,-0.301 -0.094,-0.422 -0.058,-0.117 -0.179,-0.227 -0.363,-0.32 -0.183,-0.102 -0.469,-0.2 -0.851,-0.293 -0.371,-0.094 -0.7,-0.2 -0.973,-0.317 -0.277,-0.125 -0.488,-0.285 -0.645,-0.48 -0.148,-0.192 -0.222,-0.446 -0.222,-0.758 0,-0.453 0.187,-0.813 0.566,-1.078 0.383,-0.262 0.875,-0.395 1.485,-0.395 0.433,0 0.812,0.059 1.132,0.176 0.325,0.117 0.602,0.258 0.825,0.422 l -0.379,0.582 c -0.203,-0.141 -0.426,-0.254 -0.676,-0.344 -0.246,-0.09 -0.543,-0.137 -0.895,-0.137 -0.421,0 -0.722,0.067 -0.902,0.2 -0.176,0.129 -0.266,0.3 -0.266,0.507 0,0.161 0.043,0.293 0.129,0.399 0.09,0.105 0.239,0.195 0.446,0.277 0.207,0.082 0.496,0.176 0.863,0.274 0.351,0.093 0.66,0.207 0.922,0.34 0.261,0.128 0.465,0.3 0.609,0.511 0.149,0.207 0.223,0.481 0.223,0.817 0,0.382 -0.11,0.691 -0.328,0.933 -0.219,0.235 -0.504,0.406 -0.852,0.516 -0.348,0.105 -0.711,0.16 -1.098,0.16 -0.488,0 -0.906,-0.07 -1.253,-0.211 -0.34,-0.144 -0.629,-0.316 -0.86,-0.519 l 0.492,-0.567 c 0.211,0.172 0.454,0.317 0.727,0.426 0.277,0.105 0.574,0.156 0.894,0.156 z m 7.547,-7.086 0.864,0.11 v 7.574 h -0.754 L 480.18,82.75 c -0.203,0.289 -0.434,0.5 -0.7,0.633 -0.257,0.133 -0.539,0.199 -0.835,0.199 -0.469,0 -0.852,-0.117 -1.157,-0.355 -0.304,-0.235 -0.531,-0.563 -0.679,-0.985 -0.145,-0.422 -0.219,-0.914 -0.219,-1.472 0,-0.54 0.082,-1.02 0.25,-1.446 0.168,-0.426 0.41,-0.762 0.722,-1.004 0.321,-0.246 0.7,-0.371 1.145,-0.371 0.598,0 1.082,0.215 1.445,0.637 z m -1.218,2.864 c -0.454,0 -0.801,0.175 -1.043,0.527 -0.243,0.351 -0.364,0.883 -0.364,1.598 0,1.41 0.434,2.113 1.297,2.113 0.305,0 0.567,-0.086 0.785,-0.254 0.219,-0.176 0.399,-0.375 0.543,-0.598 v -2.695 c -0.144,-0.219 -0.324,-0.391 -0.531,-0.508 -0.211,-0.125 -0.437,-0.183 -0.687,-0.183 z m 5.351,0.402 c 0,-0.227 0.082,-0.422 0.238,-0.582 0.161,-0.16 0.356,-0.242 0.59,-0.242 0.239,0 0.438,0.082 0.594,0.242 0.16,0.16 0.242,0.355 0.242,0.582 0,0.23 -0.082,0.426 -0.242,0.59 -0.156,0.164 -0.355,0.246 -0.594,0.246 -0.234,0 -0.429,-0.082 -0.59,-0.246 -0.156,-0.164 -0.238,-0.36 -0.238,-0.59 z m 0,3.699 c 0,-0.223 0.082,-0.414 0.238,-0.582 0.161,-0.164 0.356,-0.242 0.59,-0.242 0.239,0 0.438,0.078 0.594,0.242 0.16,0.164 0.242,0.359 0.242,0.582 0,0.231 -0.082,0.43 -0.242,0.594 -0.156,0.16 -0.355,0.242 -0.594,0.242 -0.234,0 -0.429,-0.082 -0.59,-0.242 -0.156,-0.164 -0.238,-0.363 -0.238,-0.594 z m 6.781,0.121 c 0.418,0 0.746,-0.074 0.985,-0.23 0.238,-0.153 0.359,-0.364 0.359,-0.625 0,-0.16 -0.031,-0.301 -0.094,-0.422 -0.058,-0.117 -0.179,-0.227 -0.363,-0.32 -0.183,-0.102 -0.469,-0.2 -0.851,-0.293 -0.372,-0.094 -0.696,-0.2 -0.973,-0.317 -0.274,-0.125 -0.488,-0.285 -0.641,-0.48 -0.152,-0.192 -0.226,-0.446 -0.226,-0.758 0,-0.453 0.187,-0.813 0.57,-1.078 0.379,-0.262 0.871,-0.395 1.48,-0.395 0.434,0 0.813,0.059 1.133,0.176 0.325,0.117 0.602,0.258 0.825,0.422 l -0.379,0.582 c -0.2,-0.141 -0.426,-0.254 -0.676,-0.344 -0.246,-0.09 -0.543,-0.137 -0.891,-0.137 -0.426,0 -0.726,0.067 -0.902,0.2 -0.18,0.129 -0.27,0.3 -0.27,0.507 0,0.161 0.043,0.293 0.129,0.399 0.09,0.105 0.239,0.195 0.446,0.277 0.211,0.082 0.496,0.176 0.863,0.274 0.351,0.093 0.66,0.207 0.922,0.34 0.261,0.128 0.468,0.3 0.609,0.511 0.149,0.207 0.223,0.481 0.223,0.817 0,0.382 -0.11,0.691 -0.328,0.933 -0.219,0.235 -0.504,0.406 -0.852,0.516 -0.348,0.105 -0.711,0.16 -1.098,0.16 -0.488,0 -0.906,-0.07 -1.25,-0.211 -0.343,-0.144 -0.628,-0.316 -0.863,-0.519 l 0.492,-0.567 c 0.211,0.172 0.453,0.317 0.727,0.426 0.277,0.105 0.574,0.156 0.894,0.156 z m 8.606,0.324 c -0.184,0.125 -0.41,0.219 -0.672,0.289 -0.266,0.067 -0.523,0.102 -0.773,0.102 -0.582,0 -1.032,-0.152 -1.344,-0.457 -0.317,-0.305 -0.473,-0.695 -0.473,-1.176 V 78.73 h -1.242 v -0.668 h 1.242 v -1.226 l 0.86,-0.102 v 1.328 h 1.867 l -0.102,0.668 h -1.765 v 3.211 c 0,0.301 0.082,0.528 0.238,0.688 0.16,0.156 0.426,0.234 0.793,0.234 0.203,0 0.39,-0.023 0.558,-0.07 0.172,-0.051 0.332,-0.109 0.477,-0.188 z m 1.918,0.274 v -0.664 h 0.84 v -4.074 h -0.84 v -0.665 h 1.496 l 0.16,1.278 c 0.207,-0.445 0.461,-0.789 0.758,-1.031 0.297,-0.243 0.691,-0.364 1.18,-0.364 0.152,0 0.285,0.012 0.402,0.035 0.117,0.024 0.238,0.051 0.363,0.082 l -0.125,1.829 h -0.707 v -1.149 c -0.012,0 -0.027,0 -0.047,0 -0.828,0 -1.418,0.59 -1.777,1.774 v 2.285 h 1.098 v 0.664 z m 8.148,-7.93 c 0.192,0 0.344,0.059 0.457,0.176 0.117,0.113 0.172,0.258 0.172,0.426 0,0.172 -0.055,0.32 -0.172,0.441 -0.113,0.113 -0.265,0.172 -0.457,0.172 -0.179,0 -0.332,-0.059 -0.445,-0.172 -0.117,-0.121 -0.176,-0.269 -0.176,-0.441 0,-0.168 0.059,-0.313 0.176,-0.426 0.113,-0.117 0.266,-0.176 0.445,-0.176 z m 0.688,2.527 v 4.719 h 1.523 v 0.684 h -4.051 v -0.684 h 1.664 v -4.035 h -1.613 v -0.684 z m 3.422,5.403 v -5.403 h 0.73 l 0.067,0.75 c 0.218,-0.277 0.492,-0.488 0.82,-0.636 0.328,-0.149 0.652,-0.227 0.965,-0.227 0.531,0 0.914,0.141 1.156,0.422 0.242,0.281 0.363,0.672 0.363,1.168 v 3.926 h -0.863 v -3.289 c 0,-0.367 -0.02,-0.668 -0.063,-0.891 -0.039,-0.226 -0.125,-0.394 -0.261,-0.5 -0.129,-0.105 -0.328,-0.156 -0.598,-0.156 -0.211,0 -0.414,0.043 -0.602,0.137 -0.183,0.093 -0.347,0.207 -0.496,0.347 -0.144,0.137 -0.261,0.278 -0.359,0.418 v 3.934 z m 10.543,-5.977 0.265,0.813 c -0.234,0.07 -0.48,0.113 -0.738,0.133 -0.258,0.015 -0.539,0.023 -0.84,0.023 0.625,0.289 0.938,0.742 0.938,1.359 0,0.536 -0.18,0.973 -0.539,1.321 -0.356,0.343 -0.852,0.515 -1.493,0.515 -0.179,0 -0.332,-0.007 -0.457,-0.023 -0.117,-0.02 -0.234,-0.043 -0.347,-0.078 -0.082,0.058 -0.153,0.133 -0.207,0.23 -0.051,0.094 -0.075,0.192 -0.075,0.293 0,0.129 0.051,0.238 0.153,0.324 0.101,0.082 0.293,0.125 0.57,0.125 h 0.973 c 0.363,0 0.687,0.067 0.976,0.196 0.285,0.129 0.512,0.308 0.68,0.527 0.168,0.219 0.254,0.469 0.254,0.746 0,0.528 -0.227,0.938 -0.68,1.219 -0.445,0.285 -1.082,0.426 -1.902,0.426 -0.574,0 -1.027,-0.059 -1.36,-0.18 -0.332,-0.113 -0.566,-0.293 -0.71,-0.539 -0.141,-0.238 -0.211,-0.539 -0.211,-0.906 h 0.781 c 0,0.207 0.039,0.383 0.121,0.519 0.082,0.137 0.23,0.235 0.445,0.301 0.215,0.07 0.528,0.102 0.93,0.102 0.594,0 1.027,-0.075 1.301,-0.223 0.273,-0.149 0.41,-0.367 0.41,-0.664 0,-0.254 -0.113,-0.449 -0.348,-0.578 -0.23,-0.129 -0.523,-0.196 -0.871,-0.196 h -0.965 c -0.468,0 -0.812,-0.101 -1.031,-0.308 -0.219,-0.203 -0.328,-0.442 -0.328,-0.707 0,-0.367 0.199,-0.684 0.598,-0.942 -0.606,-0.324 -0.911,-0.82 -0.911,-1.492 0,-0.367 0.09,-0.691 0.274,-0.972 0.18,-0.282 0.433,-0.504 0.758,-0.664 0.324,-0.161 0.699,-0.243 1.125,-0.243 0.453,0 0.82,-0.019 1.105,-0.054 0.285,-0.039 0.527,-0.094 0.731,-0.161 0.203,-0.07 0.41,-0.148 0.625,-0.242 z m -2.461,1.09 c -0.438,0 -0.758,0.117 -0.965,0.352 -0.207,0.234 -0.309,0.535 -0.309,0.894 0,0.364 0.106,0.664 0.313,0.903 0.211,0.234 0.539,0.351 0.98,0.351 0.379,0 0.668,-0.109 0.871,-0.332 0.203,-0.223 0.301,-0.531 0.301,-0.93 0,-0.828 -0.398,-1.238 -1.191,-1.238 z"
       style="fill:#ffffff;fill-opacity:1;fill-rule:nonzero;stroke:none"
       transform="scale(1.3333333)" />
    <path
       id="path23"
       d="m 456.18,99.285 h 76.535 v 21.109 H 456.18 Z"
       style="fill:#800015;fill-opacity:1;fill-rule:nonzero;stroke:#800015;stroke-width:1.41732;stroke-linecap:round;stroke-linejoin:round;stroke-miterlimit:4;stroke-dasharray:none;stroke-opacity:1"
       transform="scale(1.3333333)" />
    <path
       id="path24"
       d="m 465.137,113.465 h -0.985 l 1.996,-2.852 -1.75,-2.551 h 1.024 l 1.25,2.012 1.266,-2.012 h 0.984 l -1.742,2.516 1.988,2.887 h -1.055 l -1.476,-2.32 z m 7.468,-0.598 c 0.418,0 0.747,-0.074 0.985,-0.23 0.238,-0.153 0.359,-0.36 0.359,-0.625 0,-0.16 -0.031,-0.301 -0.094,-0.422 -0.058,-0.117 -0.179,-0.227 -0.363,-0.32 -0.183,-0.102 -0.469,-0.2 -0.851,-0.293 -0.371,-0.094 -0.7,-0.2 -0.973,-0.317 -0.277,-0.125 -0.488,-0.285 -0.645,-0.48 -0.148,-0.192 -0.222,-0.446 -0.222,-0.758 0,-0.453 0.187,-0.813 0.566,-1.078 0.383,-0.262 0.875,-0.395 1.485,-0.395 0.433,0 0.812,0.059 1.132,0.176 0.325,0.117 0.602,0.258 0.825,0.422 l -0.379,0.582 c -0.203,-0.141 -0.426,-0.254 -0.676,-0.344 -0.246,-0.09 -0.543,-0.137 -0.895,-0.137 -0.421,0 -0.722,0.067 -0.902,0.2 -0.176,0.129 -0.266,0.3 -0.266,0.507 0,0.161 0.043,0.293 0.129,0.403 0.09,0.101 0.239,0.191 0.446,0.273 0.207,0.082 0.496,0.176 0.863,0.274 0.351,0.093 0.66,0.207 0.922,0.34 0.261,0.128 0.465,0.3 0.609,0.511 0.149,0.207 0.223,0.481 0.223,0.817 0,0.382 -0.11,0.691 -0.328,0.933 -0.219,0.235 -0.504,0.406 -0.852,0.516 -0.348,0.105 -0.711,0.16 -1.098,0.16 -0.488,0 -0.906,-0.07 -1.253,-0.211 -0.34,-0.144 -0.629,-0.316 -0.86,-0.519 l 0.492,-0.567 c 0.211,0.172 0.454,0.317 0.727,0.426 0.277,0.105 0.574,0.156 0.894,0.156 z m 7.547,-7.086 0.864,0.11 v 7.574 h -0.754 l -0.082,-0.715 c -0.203,0.289 -0.434,0.5 -0.7,0.633 -0.257,0.133 -0.539,0.199 -0.835,0.199 -0.469,0 -0.852,-0.117 -1.157,-0.355 -0.304,-0.235 -0.531,-0.563 -0.679,-0.985 -0.145,-0.422 -0.219,-0.914 -0.219,-1.472 0,-0.54 0.082,-1.02 0.25,-1.446 0.168,-0.426 0.41,-0.762 0.722,-1.004 0.321,-0.246 0.7,-0.371 1.145,-0.371 0.598,0 1.082,0.215 1.445,0.637 z m -1.218,2.864 c -0.454,0 -0.801,0.175 -1.043,0.527 -0.243,0.351 -0.364,0.883 -0.364,1.598 0,1.41 0.434,2.113 1.297,2.113 0.305,0 0.567,-0.086 0.785,-0.254 0.219,-0.176 0.399,-0.375 0.543,-0.598 v -2.695 c -0.144,-0.219 -0.324,-0.391 -0.531,-0.508 -0.211,-0.125 -0.437,-0.183 -0.687,-0.183 z m 5.351,0.402 c 0,-0.227 0.082,-0.422 0.238,-0.582 0.161,-0.16 0.356,-0.242 0.59,-0.242 0.239,0 0.438,0.082 0.594,0.242 0.16,0.16 0.242,0.355 0.242,0.582 0,0.23 -0.082,0.426 -0.242,0.59 -0.156,0.164 -0.355,0.246 -0.594,0.246 -0.234,0 -0.429,-0.082 -0.59,-0.246 -0.156,-0.164 -0.238,-0.36 -0.238,-0.59 z m 0,3.699 c 0,-0.223 0.082,-0.414 0.238,-0.582 0.161,-0.16 0.356,-0.242 0.59,-0.242 0.239,0 0.438,0.082 0.594,0.242 0.16,0.164 0.242,0.359 0.242,0.582 0,0.231 -0.082,0.43 -0.242,0.594 -0.156,0.16 -0.355,0.242 -0.594,0.242 -0.234,0 -0.429,-0.082 -0.59,-0.242 -0.156,-0.164 -0.238,-0.363 -0.238,-0.594 z m 6.781,0.121 c 0.418,0 0.746,-0.074 0.985,-0.23 0.238,-0.153 0.359,-0.364 0.359,-0.625 0,-0.16 -0.031,-0.301 -0.094,-0.422 -0.058,-0.117 -0.179,-0.227 -0.363,-0.32 -0.183,-0.102 -0.469,-0.2 -0.851,-0.293 -0.372,-0.094 -0.696,-0.2 -0.973,-0.317 -0.274,-0.125 -0.488,-0.285 -0.641,-0.48 -0.152,-0.192 -0.226,-0.446 -0.226,-0.758 0,-0.453 0.187,-0.813 0.57,-1.078 0.379,-0.262 0.871,-0.395 1.48,-0.395 0.434,0 0.813,0.059 1.133,0.176 0.325,0.117 0.602,0.258 0.825,0.422 l -0.379,0.582 c -0.2,-0.141 -0.426,-0.254 -0.676,-0.344 -0.246,-0.09 -0.543,-0.137 -0.891,-0.137 -0.426,0 -0.726,0.067 -0.902,0.2 -0.18,0.129 -0.27,0.3 -0.27,0.507 0,0.161 0.043,0.293 0.129,0.403 0.09,0.101 0.239,0.191 0.446,0.273 0.211,0.082 0.496,0.176 0.863,0.274 0.351,0.093 0.66,0.207 0.922,0.34 0.261,0.128 0.468,0.3 0.609,0.511 0.149,0.207 0.223,0.481 0.223,0.817 0,0.382 -0.11,0.691 -0.328,0.933 -0.219,0.235 -0.504,0.406 -0.852,0.516 -0.348,0.105 -0.711,0.16 -1.098,0.16 -0.488,0 -0.906,-0.07 -1.25,-0.211 -0.343,-0.144 -0.628,-0.316 -0.863,-0.519 l 0.492,-0.567 c 0.211,0.172 0.453,0.317 0.727,0.426 0.277,0.105 0.574,0.156 0.894,0.156 z m 8.606,0.324 c -0.184,0.125 -0.41,0.219 -0.672,0.289 -0.266,0.067 -0.523,0.102 -0.773,0.102 -0.582,0 -1.032,-0.152 -1.344,-0.457 -0.317,-0.305 -0.473,-0.695 -0.473,-1.176 v -3.219 h -1.242 v -0.668 h 1.242 v -1.226 l 0.86,-0.102 v 1.328 h 1.867 l -0.102,0.668 h -1.765 v 3.211 c 0,0.301 0.082,0.528 0.238,0.688 0.16,0.156 0.426,0.234 0.793,0.234 0.203,0 0.39,-0.023 0.558,-0.07 0.172,-0.051 0.332,-0.109 0.477,-0.188 z m 1.918,0.274 v -0.664 h 0.84 v -4.074 h -0.84 v -0.665 h 1.496 l 0.16,1.278 c 0.207,-0.445 0.461,-0.789 0.758,-1.031 0.297,-0.243 0.691,-0.364 1.18,-0.364 0.152,0 0.285,0.012 0.402,0.035 0.117,0.02 0.238,0.047 0.363,0.082 l -0.125,1.829 h -0.707 v -1.149 c -0.012,0 -0.027,0 -0.047,0 -0.828,0 -1.418,0.59 -1.777,1.774 v 2.285 h 1.098 v 0.664 z m 8.148,-7.93 c 0.192,0 0.344,0.059 0.457,0.176 0.117,0.113 0.172,0.258 0.172,0.426 0,0.172 -0.055,0.32 -0.172,0.441 -0.113,0.113 -0.265,0.172 -0.457,0.172 -0.179,0 -0.332,-0.059 -0.445,-0.172 -0.117,-0.121 -0.176,-0.269 -0.176,-0.441 0,-0.168 0.059,-0.313 0.176,-0.426 0.113,-0.117 0.266,-0.176 0.445,-0.176 z m 0.688,2.527 v 4.719 h 1.523 v 0.684 h -4.051 v -0.684 h 1.664 v -4.035 h -1.613 v -0.684 z m 3.422,5.403 v -5.403 h 0.73 l 0.067,0.75 c 0.218,-0.277 0.492,-0.488 0.82,-0.636 0.328,-0.149 0.652,-0.227 0.965,-0.227 0.531,0 0.914,0.141 1.156,0.422 0.242,0.281 0.363,0.672 0.363,1.168 v 3.926 h -0.863 v -3.289 c 0,-0.367 -0.02,-0.668 -0.063,-0.891 -0.039,-0.226 -0.125,-0.394 -0.261,-0.5 -0.129,-0.105 -0.328,-0.156 -0.598,-0.156 -0.211,0 -0.414,0.043 -0.602,0.137 -0.183,0.093 -0.347,0.207 -0.496,0.347 -0.144,0.137 -0.261,0.278 -0.359,0.418 v 3.934 z m 10.543,-5.977 0.265,0.813 c -0.234,0.07 -0.48,0.113 -0.738,0.133 -0.258,0.015 -0.539,0.023 -0.84,0.023 0.625,0.289 0.938,0.742 0.938,1.359 0,0.536 -0.18,0.973 -0.539,1.321 -0.356,0.343 -0.852,0.515 -1.493,0.515 -0.179,0 -0.332,-0.007 -0.457,-0.023 -0.117,-0.02 -0.234,-0.043 -0.347,-0.078 -0.082,0.058 -0.153,0.137 -0.207,0.23 -0.051,0.094 -0.075,0.192 -0.075,0.293 0,0.129 0.051,0.238 0.153,0.324 0.101,0.082 0.293,0.125 0.57,0.125 h 0.973 c 0.363,0 0.687,0.067 0.976,0.196 0.285,0.129 0.512,0.308 0.68,0.527 0.168,0.219 0.254,0.469 0.254,0.746 0,0.528 -0.227,0.938 -0.68,1.219 -0.445,0.285 -1.082,0.426 -1.902,0.426 -0.574,0 -1.027,-0.059 -1.36,-0.18 -0.332,-0.113 -0.566,-0.293 -0.71,-0.539 -0.141,-0.238 -0.211,-0.539 -0.211,-0.906 h 0.781 c 0,0.207 0.039,0.383 0.121,0.519 0.082,0.137 0.23,0.239 0.445,0.301 0.215,0.07 0.528,0.102 0.93,0.102 0.594,0 1.027,-0.075 1.301,-0.223 0.273,-0.149 0.41,-0.367 0.41,-0.664 0,-0.254 -0.113,-0.449 -0.348,-0.578 -0.23,-0.129 -0.523,-0.196 -0.871,-0.196 h -0.965 c -0.468,0 -0.812,-0.101 -1.031,-0.308 -0.219,-0.203 -0.328,-0.442 -0.328,-0.707 0,-0.367 0.199,-0.684 0.598,-0.942 -0.606,-0.324 -0.911,-0.82 -0.911,-1.492 0,-0.367 0.09,-0.691 0.274,-0.972 0.18,-0.282 0.433,-0.504 0.758,-0.664 0.324,-0.161 0.699,-0.243 1.125,-0.243 0.453,0 0.82,-0.019 1.105,-0.054 0.285,-0.039 0.527,-0.094 0.731,-0.161 0.203,-0.07 0.41,-0.148 0.625,-0.242 z m -2.461,1.09 c -0.438,0 -0.758,0.117 -0.965,0.352 -0.207,0.234 -0.309,0.535 -0.309,0.894 0,0.364 0.106,0.664 0.313,0.903 0.211,0.234 0.539,0.351 0.98,0.351 0.379,0 0.668,-0.109 0.871,-0.332 0.203,-0.223 0.301,-0.531 0.301,-0.93 0,-0.828 -0.398,-1.238 -1.191,-1.238 z"
       style="fill:#ffffff;fill-opacity:1;fill-rule:nonzero;stroke:none"
       transform="scale(1.3333333)" />
    <path
       id="path25"
       d="m 117.18,69.285 h 76.535 V 90.394 H 117.18 Z"
       style="fill:#800015;fill-opacity:1;fill-rule:nonzero;stroke:#800015;stroke-width:1.41732;stroke-linecap:round;stroke-linejoin:round;stroke-miterlimit:4;stroke-dasharray:none;stroke-opacity:1"
       transform="scale(1.3333333)" />
    <path
       id="path26"
       d="m 126.137,83.465 h -0.985 l 1.996,-2.852 -1.75,-2.551 h 1.024 l 1.25,2.012 1.266,-2.012 h 0.984 l -1.742,2.516 1.988,2.887 h -1.055 l -1.476,-2.32 z m 7.468,-0.598 c 0.418,0 0.747,-0.074 0.985,-0.23 0.238,-0.153 0.359,-0.36 0.359,-0.625 0,-0.16 -0.031,-0.301 -0.094,-0.422 -0.058,-0.117 -0.179,-0.227 -0.363,-0.32 -0.183,-0.102 -0.469,-0.2 -0.851,-0.293 -0.371,-0.094 -0.696,-0.2 -0.973,-0.317 -0.273,-0.125 -0.488,-0.285 -0.641,-0.48 -0.152,-0.192 -0.226,-0.446 -0.226,-0.758 0,-0.453 0.187,-0.813 0.566,-1.078 0.383,-0.262 0.875,-0.395 1.485,-0.395 0.433,0 0.812,0.059 1.132,0.176 0.325,0.117 0.602,0.258 0.825,0.422 l -0.379,0.582 c -0.2,-0.141 -0.426,-0.254 -0.676,-0.344 -0.246,-0.09 -0.543,-0.137 -0.891,-0.137 -0.425,0 -0.726,0.067 -0.906,0.2 -0.176,0.129 -0.266,0.3 -0.266,0.507 0,0.161 0.043,0.293 0.129,0.399 0.09,0.105 0.239,0.195 0.446,0.277 0.211,0.082 0.496,0.176 0.863,0.274 0.351,0.093 0.66,0.207 0.922,0.34 0.261,0.128 0.469,0.3 0.609,0.511 0.149,0.207 0.223,0.481 0.223,0.817 0,0.382 -0.11,0.691 -0.328,0.933 -0.219,0.235 -0.504,0.406 -0.852,0.516 -0.348,0.105 -0.711,0.16 -1.098,0.16 -0.488,0 -0.906,-0.07 -1.25,-0.211 -0.343,-0.144 -0.632,-0.316 -0.863,-0.519 l 0.492,-0.567 c 0.211,0.172 0.454,0.317 0.727,0.426 0.277,0.105 0.574,0.156 0.894,0.156 z m 7.547,-7.086 0.864,0.11 v 7.574 h -0.754 L 141.18,82.75 c -0.203,0.289 -0.434,0.496 -0.7,0.633 -0.257,0.133 -0.535,0.199 -0.835,0.199 -0.465,0 -0.852,-0.117 -1.157,-0.355 -0.304,-0.235 -0.531,-0.563 -0.679,-0.985 -0.145,-0.422 -0.219,-0.914 -0.219,-1.472 0,-0.54 0.082,-1.02 0.25,-1.446 0.168,-0.426 0.41,-0.762 0.722,-1.004 0.321,-0.246 0.7,-0.371 1.145,-0.371 0.598,0 1.082,0.215 1.445,0.637 z m -1.218,2.864 c -0.454,0 -0.797,0.175 -1.043,0.527 -0.243,0.351 -0.364,0.883 -0.364,1.598 0,1.41 0.434,2.113 1.297,2.113 0.305,0 0.567,-0.086 0.785,-0.254 0.219,-0.176 0.403,-0.375 0.543,-0.598 v -2.695 c -0.144,-0.219 -0.324,-0.387 -0.531,-0.508 -0.211,-0.125 -0.437,-0.183 -0.687,-0.183 z m 5.351,0.402 c 0,-0.227 0.082,-0.422 0.238,-0.582 0.161,-0.164 0.356,-0.242 0.59,-0.242 0.239,0 0.438,0.078 0.594,0.242 0.16,0.16 0.242,0.355 0.242,0.582 0,0.23 -0.082,0.426 -0.242,0.59 -0.156,0.164 -0.355,0.246 -0.594,0.246 -0.234,0 -0.429,-0.082 -0.59,-0.246 -0.156,-0.164 -0.238,-0.36 -0.238,-0.59 z m 0,3.699 c 0,-0.223 0.082,-0.418 0.238,-0.582 0.161,-0.164 0.356,-0.246 0.59,-0.246 0.239,0 0.438,0.082 0.594,0.246 0.16,0.164 0.242,0.359 0.242,0.582 0,0.231 -0.082,0.43 -0.242,0.594 -0.156,0.16 -0.355,0.242 -0.594,0.242 -0.234,0 -0.429,-0.082 -0.59,-0.242 -0.156,-0.164 -0.238,-0.363 -0.238,-0.594 z m 6.781,0.121 c 0.418,0 0.746,-0.074 0.985,-0.23 0.238,-0.153 0.359,-0.364 0.359,-0.625 0,-0.16 -0.031,-0.301 -0.094,-0.422 -0.058,-0.117 -0.179,-0.227 -0.363,-0.32 -0.183,-0.102 -0.469,-0.2 -0.851,-0.293 -0.372,-0.094 -0.696,-0.2 -0.973,-0.317 -0.274,-0.125 -0.488,-0.285 -0.641,-0.48 -0.152,-0.192 -0.226,-0.446 -0.226,-0.758 0,-0.453 0.187,-0.813 0.57,-1.078 0.379,-0.262 0.871,-0.395 1.48,-0.395 0.434,0 0.813,0.059 1.133,0.176 0.325,0.117 0.602,0.258 0.828,0.422 l -0.382,0.582 c -0.2,-0.141 -0.426,-0.254 -0.676,-0.344 -0.246,-0.09 -0.543,-0.137 -0.891,-0.137 -0.426,0 -0.726,0.067 -0.902,0.2 -0.18,0.129 -0.27,0.3 -0.27,0.507 0,0.161 0.043,0.293 0.129,0.399 0.09,0.105 0.239,0.195 0.446,0.277 0.211,0.082 0.496,0.176 0.863,0.274 0.351,0.093 0.66,0.207 0.922,0.34 0.265,0.128 0.468,0.3 0.609,0.511 0.149,0.207 0.223,0.481 0.223,0.817 0,0.382 -0.11,0.691 -0.328,0.933 -0.219,0.235 -0.504,0.406 -0.852,0.516 -0.344,0.105 -0.711,0.16 -1.098,0.16 -0.488,0 -0.906,-0.07 -1.25,-0.211 -0.343,-0.144 -0.628,-0.316 -0.863,-0.519 l 0.492,-0.567 c 0.211,0.172 0.457,0.317 0.731,0.426 0.273,0.105 0.574,0.156 0.89,0.156 z m 8.606,0.324 c -0.184,0.125 -0.41,0.219 -0.672,0.289 -0.262,0.067 -0.52,0.102 -0.773,0.102 -0.582,0 -1.032,-0.152 -1.344,-0.457 -0.317,-0.305 -0.473,-0.695 -0.473,-1.176 V 78.73 h -1.242 v -0.668 h 1.242 v -1.226 l 0.863,-0.102 v 1.328 h 1.864 l -0.102,0.668 h -1.762 v 3.211 c 0,0.301 0.079,0.528 0.235,0.688 0.16,0.156 0.426,0.234 0.793,0.234 0.203,0 0.39,-0.023 0.562,-0.07 0.168,-0.051 0.328,-0.109 0.477,-0.188 z m 1.918,0.274 v -0.664 h 0.84 v -4.074 h -0.84 v -0.665 h 1.496 l 0.16,1.278 c 0.207,-0.445 0.461,-0.789 0.758,-1.031 0.297,-0.243 0.691,-0.364 1.18,-0.364 0.152,0 0.285,0.012 0.402,0.035 0.117,0.02 0.238,0.047 0.363,0.082 l -0.125,1.829 h -0.707 v -1.149 c -0.012,0 -0.027,0 -0.047,0 -0.824,0 -1.418,0.59 -1.777,1.774 v 2.285 h 1.098 v 0.664 z m 8.148,-7.93 c 0.192,0 0.344,0.059 0.457,0.176 0.117,0.113 0.176,0.258 0.176,0.426 0,0.172 -0.059,0.32 -0.176,0.437 -0.113,0.117 -0.265,0.176 -0.457,0.176 -0.179,0 -0.328,-0.059 -0.445,-0.176 -0.117,-0.117 -0.176,-0.265 -0.176,-0.437 0,-0.168 0.059,-0.313 0.176,-0.426 0.117,-0.117 0.266,-0.176 0.445,-0.176 z m 0.688,2.527 v 4.719 h 1.523 v 0.684 h -4.051 v -0.684 h 1.664 v -4.035 h -1.613 v -0.684 z m 3.422,5.403 v -5.403 h 0.73 l 0.067,0.75 c 0.218,-0.277 0.492,-0.488 0.82,-0.636 0.328,-0.149 0.652,-0.227 0.965,-0.227 0.531,0 0.914,0.141 1.156,0.422 0.242,0.281 0.363,0.672 0.363,1.168 v 3.926 h -0.863 v -3.289 c 0,-0.367 -0.02,-0.668 -0.059,-0.891 -0.043,-0.226 -0.129,-0.394 -0.261,-0.5 -0.133,-0.105 -0.332,-0.156 -0.602,-0.156 -0.211,0 -0.41,0.043 -0.602,0.137 -0.183,0.093 -0.347,0.211 -0.496,0.347 -0.144,0.137 -0.261,0.278 -0.359,0.418 v 3.934 z m 10.543,-5.977 0.265,0.813 c -0.23,0.07 -0.476,0.113 -0.738,0.133 -0.258,0.015 -0.535,0.023 -0.84,0.023 0.625,0.289 0.938,0.742 0.938,1.359 0,0.536 -0.18,0.973 -0.539,1.321 -0.356,0.343 -0.852,0.515 -1.493,0.515 -0.179,0 -0.332,-0.007 -0.457,-0.023 -0.117,-0.02 -0.234,-0.043 -0.347,-0.078 -0.082,0.058 -0.153,0.137 -0.207,0.23 -0.051,0.094 -0.075,0.192 -0.075,0.293 0,0.129 0.051,0.238 0.153,0.324 0.101,0.082 0.293,0.125 0.57,0.125 h 0.973 c 0.363,0 0.687,0.067 0.976,0.196 0.285,0.129 0.512,0.308 0.68,0.527 0.168,0.219 0.254,0.469 0.254,0.746 0,0.528 -0.227,0.938 -0.68,1.219 -0.445,0.285 -1.082,0.426 -1.902,0.426 -0.574,0 -1.027,-0.059 -1.36,-0.18 -0.328,-0.113 -0.566,-0.293 -0.71,-0.539 -0.141,-0.238 -0.211,-0.539 -0.211,-0.906 h 0.781 c 0,0.207 0.039,0.383 0.121,0.519 0.082,0.137 0.23,0.235 0.445,0.301 0.215,0.07 0.528,0.102 0.93,0.102 0.594,0 1.027,-0.075 1.301,-0.223 0.273,-0.149 0.41,-0.367 0.41,-0.664 0,-0.254 -0.113,-0.449 -0.348,-0.578 -0.23,-0.129 -0.523,-0.196 -0.871,-0.196 h -0.965 c -0.468,0 -0.812,-0.101 -1.031,-0.308 -0.219,-0.203 -0.328,-0.442 -0.328,-0.707 0,-0.367 0.199,-0.684 0.598,-0.942 -0.606,-0.324 -0.911,-0.82 -0.911,-1.492 0,-0.367 0.09,-0.691 0.274,-0.972 0.18,-0.282 0.433,-0.504 0.758,-0.664 0.324,-0.161 0.699,-0.243 1.125,-0.243 0.453,0 0.824,-0.019 1.105,-0.054 0.285,-0.039 0.527,-0.094 0.731,-0.161 0.203,-0.07 0.41,-0.148 0.625,-0.242 z m -2.461,1.09 c -0.438,0 -0.758,0.117 -0.965,0.352 -0.207,0.234 -0.309,0.535 -0.309,0.894 0,0.364 0.106,0.664 0.313,0.903 0.211,0.234 0.539,0.351 0.98,0.351 0.379,0 0.668,-0.109 0.871,-0.332 0.203,-0.223 0.305,-0.531 0.305,-0.93 0,-0.828 -0.398,-1.238 -1.195,-1.238 z"
       style="fill:#ffffff;fill-opacity:1;fill-rule:nonzero;stroke:none"
       transform="scale(1.3333333)" />
    <path
       id="path27"
       d="m 106.219,39.285 h 81.758 c 3.461,0 6.246,2.785 6.246,6.246 v 8.617 c 0,3.461 -2.785,6.247 -6.246,6.247 h -81.758 c -3.461,0 -6.246,-2.786 -6.246,-6.247 v -8.617 c 0,-3.461 2.785,-6.246 6.246,-6.246 z"
       style="fill:#007580;fill-opacity:1;fill-rule:nonzero;stroke:none"
       transform="scale(1.3333333)" />
    <path
       id="path28"
       d="m 111.637,45.781 0.863,0.11 v 7.574 h -0.754 l -0.082,-0.715 c -0.203,0.289 -0.434,0.496 -0.699,0.633 -0.258,0.133 -0.539,0.199 -0.836,0.199 -0.469,0 -0.856,-0.117 -1.156,-0.355 -0.305,-0.235 -0.532,-0.563 -0.68,-0.985 -0.145,-0.422 -0.219,-0.914 -0.219,-1.472 0,-0.54 0.082,-1.02 0.25,-1.446 0.168,-0.426 0.41,-0.762 0.723,-1.004 0.32,-0.246 0.699,-0.371 1.144,-0.371 0.598,0 1.079,0.215 1.446,0.637 z m -1.219,2.864 c -0.453,0 -0.801,0.175 -1.043,0.527 -0.242,0.351 -0.363,0.883 -0.363,1.598 0,1.41 0.433,2.113 1.297,2.113 0.304,0 0.566,-0.086 0.785,-0.254 0.218,-0.176 0.398,-0.375 0.543,-0.598 v -2.695 c -0.145,-0.219 -0.325,-0.391 -0.532,-0.508 -0.21,-0.125 -0.437,-0.183 -0.687,-0.183 z m 6.871,-3.11 c 0.191,0 0.344,0.059 0.461,0.176 0.117,0.113 0.176,0.258 0.176,0.426 0,0.172 -0.059,0.32 -0.176,0.437 -0.117,0.117 -0.27,0.176 -0.461,0.176 -0.184,0 -0.332,-0.059 -0.445,-0.176 -0.114,-0.117 -0.172,-0.265 -0.172,-0.437 0,-0.168 0.058,-0.313 0.172,-0.426 0.113,-0.117 0.261,-0.176 0.445,-0.176 z m 0.805,2.527 v 4.536 c 0,0.601 -0.137,1.105 -0.41,1.511 -0.27,0.407 -0.661,0.731 -1.176,0.973 -0.512,0.246 -1.129,0.434 -1.856,0.555 l -0.144,-0.664 c 0.535,-0.09 1.008,-0.223 1.418,-0.403 0.41,-0.175 0.726,-0.418 0.957,-0.726 0.234,-0.309 0.347,-0.707 0.347,-1.192 v -3.906 h -2.246 v -0.684 z m 3.48,-2.253 v 2.992 c 0.215,-0.281 0.473,-0.492 0.781,-0.637 0.313,-0.141 0.625,-0.215 0.946,-0.215 0.523,0 0.91,0.141 1.152,0.422 0.242,0.281 0.363,0.672 0.363,1.168 v 3.926 h -0.859 v -3.903 c 0,-0.328 -0.078,-0.562 -0.227,-0.71 -0.152,-0.149 -0.386,-0.223 -0.707,-0.223 -0.207,0 -0.402,0.043 -0.585,0.137 -0.184,0.093 -0.352,0.207 -0.497,0.343 -0.148,0.137 -0.269,0.278 -0.367,0.422 v 3.934 h -0.859 v -7.567 z m 9.582,7.382 c -0.187,0.125 -0.41,0.219 -0.672,0.289 -0.265,0.067 -0.523,0.102 -0.773,0.102 -0.582,0 -1.031,-0.152 -1.344,-0.457 -0.316,-0.305 -0.472,-0.695 -0.472,-1.176 V 48.73 h -1.243 v -0.668 h 1.243 v -1.226 l 0.859,-0.102 v 1.328 h 1.867 l -0.101,0.668 h -1.766 v 3.211 c 0,0.301 0.078,0.528 0.238,0.688 0.16,0.156 0.426,0.234 0.793,0.234 0.203,0 0.391,-0.023 0.559,-0.07 0.172,-0.051 0.332,-0.109 0.476,-0.188 z m 3.074,-4.144 c 0,-0.227 0.082,-0.422 0.239,-0.582 0.16,-0.16 0.355,-0.242 0.59,-0.242 0.238,0 0.437,0.082 0.593,0.242 0.16,0.16 0.243,0.355 0.243,0.582 0,0.23 -0.083,0.426 -0.243,0.59 -0.156,0.164 -0.355,0.246 -0.593,0.246 -0.235,0 -0.43,-0.082 -0.59,-0.246 -0.157,-0.164 -0.239,-0.36 -0.239,-0.59 z m 0,3.699 c 0,-0.223 0.082,-0.418 0.239,-0.582 0.16,-0.164 0.355,-0.246 0.59,-0.246 0.238,0 0.437,0.082 0.593,0.246 0.16,0.164 0.243,0.359 0.243,0.582 0,0.231 -0.083,0.43 -0.243,0.594 -0.156,0.16 -0.355,0.242 -0.593,0.242 -0.235,0 -0.43,-0.082 -0.59,-0.242 -0.157,-0.164 -0.239,-0.363 -0.239,-0.594 z m 7.586,-6.457 c 0.461,0 0.848,0.059 1.161,0.176 0.308,0.113 0.605,0.285 0.886,0.512 l -0.496,0.578 c -0.222,-0.188 -0.461,-0.321 -0.711,-0.399 -0.246,-0.082 -0.504,-0.125 -0.773,-0.125 -0.387,0 -0.742,0.094 -1.071,0.278 -0.328,0.183 -0.593,0.484 -0.796,0.91 -0.196,0.418 -0.297,0.988 -0.297,1.711 0,0.703 0.093,1.261 0.281,1.687 0.191,0.426 0.449,0.731 0.777,0.918 0.325,0.188 0.688,0.281 1.086,0.281 0.395,0 0.719,-0.058 0.973,-0.179 0.262,-0.117 0.484,-0.254 0.668,-0.41 l 0.461,0.585 c -0.215,0.208 -0.496,0.391 -0.84,0.543 -0.348,0.153 -0.77,0.227 -1.273,0.227 -0.575,0 -1.09,-0.141 -1.551,-0.414 -0.465,-0.281 -0.828,-0.695 -1.098,-1.238 -0.273,-0.543 -0.406,-1.211 -0.406,-2 0,-0.793 0.137,-1.461 0.41,-2 0.277,-0.543 0.645,-0.953 1.102,-1.227 0.457,-0.277 0.961,-0.414 1.507,-0.414 z m 7.379,5.996 c 0,0.219 0.035,0.375 0.11,0.477 0.07,0.097 0.183,0.172 0.332,0.215 l -0.211,0.605 c -0.231,-0.031 -0.434,-0.105 -0.61,-0.223 -0.175,-0.117 -0.3,-0.297 -0.378,-0.535 -0.196,0.246 -0.442,0.438 -0.735,0.567 -0.289,0.129 -0.609,0.191 -0.957,0.191 -0.543,0 -0.969,-0.152 -1.277,-0.457 C 145.156,52.82 145,52.418 145,51.914 c 0,-0.559 0.219,-0.984 0.652,-1.281 0.434,-0.297 1.063,-0.445 1.883,-0.445 h 0.793 v -0.454 c 0,-0.39 -0.113,-0.664 -0.344,-0.824 -0.222,-0.164 -0.539,-0.246 -0.941,-0.246 -0.18,0 -0.387,0.024 -0.625,0.066 -0.242,0.04 -0.5,0.11 -0.781,0.211 l -0.227,-0.652 c 0.328,-0.121 0.641,-0.211 0.93,-0.262 0.293,-0.05 0.574,-0.078 0.836,-0.078 0.672,0 1.176,0.16 1.512,0.473 0.339,0.316 0.507,0.738 0.507,1.273 z m -2.23,0.641 c 0.265,0 0.519,-0.067 0.758,-0.199 0.246,-0.137 0.445,-0.329 0.605,-0.567 v -1.39 h -0.777 c -0.594,0 -1.016,0.105 -1.262,0.308 -0.242,0.207 -0.363,0.481 -0.363,0.824 0,0.684 0.347,1.024 1.039,1.024 z m 8.805,0.265 c -0.184,0.125 -0.407,0.219 -0.672,0.289 -0.262,0.067 -0.52,0.102 -0.774,0.102 -0.582,0 -1.027,-0.152 -1.344,-0.457 -0.312,-0.305 -0.472,-0.695 -0.472,-1.176 V 48.73 h -1.238 v -0.668 h 1.238 v -1.226 l 0.863,-0.102 v 1.328 h 1.867 l -0.105,0.668 h -1.762 v 3.211 c 0,0.301 0.078,0.528 0.234,0.688 0.161,0.156 0.426,0.234 0.797,0.234 0.2,0 0.387,-0.023 0.559,-0.07 0.172,-0.051 0.328,-0.109 0.477,-0.188 z m 2.542,-2.121 c 0.028,0.625 0.192,1.082 0.493,1.368 0.308,0.285 0.672,0.425 1.09,0.425 0.277,0 0.527,-0.039 0.746,-0.121 0.222,-0.082 0.453,-0.207 0.695,-0.367 l 0.402,0.57 c -0.246,0.2 -0.535,0.356 -0.859,0.469 -0.324,0.109 -0.656,0.168 -0.996,0.168 -0.528,0 -0.973,-0.117 -1.344,-0.355 -0.363,-0.235 -0.644,-0.563 -0.84,-0.985 -0.191,-0.422 -0.289,-0.914 -0.289,-1.472 0,-0.547 0.098,-1.032 0.289,-1.454 0.196,-0.425 0.469,-0.757 0.821,-1 0.355,-0.246 0.773,-0.367 1.25,-0.367 0.679,0 1.214,0.239 1.605,0.711 0.395,0.469 0.59,1.117 0.59,1.938 0,0.09 -0.004,0.179 -0.012,0.261 -0.004,0.082 -0.008,0.153 -0.012,0.211 z m 1.469,-2.41 c -0.398,0 -0.734,0.141 -1.004,0.422 -0.273,0.285 -0.422,0.727 -0.457,1.32 h 2.817 c -0.012,-0.578 -0.137,-1.011 -0.383,-1.304 -0.242,-0.293 -0.566,-0.438 -0.973,-0.438 z m 8.399,-1.172 0.269,0.813 c -0.234,0.07 -0.48,0.113 -0.738,0.133 -0.258,0.015 -0.539,0.023 -0.844,0.023 0.625,0.289 0.942,0.742 0.942,1.359 0,0.536 -0.18,0.973 -0.539,1.321 -0.356,0.343 -0.856,0.515 -1.493,0.515 -0.183,0 -0.336,-0.007 -0.457,-0.023 -0.121,-0.02 -0.238,-0.043 -0.347,-0.078 -0.082,0.058 -0.153,0.137 -0.207,0.23 -0.051,0.094 -0.078,0.192 -0.078,0.293 0,0.129 0.05,0.238 0.156,0.324 0.101,0.082 0.293,0.125 0.566,0.125 h 0.977 c 0.363,0 0.687,0.067 0.972,0.196 0.289,0.133 0.516,0.308 0.684,0.531 0.168,0.219 0.25,0.465 0.25,0.742 0,0.531 -0.227,0.938 -0.676,1.219 -0.449,0.285 -1.082,0.426 -1.902,0.426 -0.574,0 -1.027,-0.059 -1.36,-0.18 -0.332,-0.113 -0.57,-0.293 -0.714,-0.535 -0.137,-0.242 -0.207,-0.543 -0.207,-0.91 h 0.777 c 0,0.211 0.043,0.383 0.125,0.519 0.082,0.137 0.23,0.239 0.445,0.301 0.215,0.07 0.524,0.102 0.93,0.102 0.594,0 1.027,-0.075 1.301,-0.223 0.273,-0.149 0.41,-0.367 0.41,-0.664 0,-0.254 -0.117,-0.449 -0.348,-0.578 -0.234,-0.129 -0.523,-0.196 -0.871,-0.196 h -0.965 c -0.468,0 -0.812,-0.101 -1.031,-0.308 -0.219,-0.203 -0.328,-0.442 -0.328,-0.707 0,-0.367 0.199,-0.684 0.594,-0.942 -0.606,-0.324 -0.907,-0.82 -0.907,-1.492 0,-0.367 0.09,-0.691 0.27,-0.972 0.184,-0.282 0.437,-0.504 0.762,-0.664 0.324,-0.161 0.699,-0.243 1.121,-0.243 0.457,0 0.824,-0.019 1.109,-0.054 0.281,-0.039 0.527,-0.094 0.727,-0.161 0.207,-0.07 0.414,-0.148 0.625,-0.242 z m -2.461,1.09 c -0.434,0 -0.754,0.117 -0.965,0.352 -0.203,0.238 -0.305,0.535 -0.305,0.894 0,0.364 0.102,0.664 0.313,0.903 0.211,0.234 0.539,0.351 0.976,0.351 0.383,0 0.672,-0.109 0.875,-0.332 0.199,-0.223 0.301,-0.531 0.301,-0.93 0,-0.828 -0.398,-1.238 -1.195,-1.238 z M 172,47.949 c 0.766,0 1.34,0.258 1.73,0.766 0.391,0.508 0.582,1.191 0.582,2.047 0,0.55 -0.085,1.035 -0.265,1.461 -0.176,0.422 -0.438,0.757 -0.785,1 -0.344,0.238 -0.77,0.359 -1.27,0.359 -0.762,0 -1.34,-0.258 -1.734,-0.77 -0.395,-0.511 -0.59,-1.195 -0.59,-2.042 0,-0.551 0.09,-1.043 0.266,-1.465 0.179,-0.426 0.441,-0.758 0.785,-0.996 0.347,-0.239 0.777,-0.36 1.281,-0.36 z m 0,0.703 c -0.465,0 -0.816,0.172 -1.055,0.52 -0.234,0.344 -0.355,0.879 -0.355,1.598 0,0.714 0.117,1.246 0.351,1.589 0.235,0.344 0.586,0.516 1.051,0.516 0.465,0 0.813,-0.176 1.047,-0.52 0.234,-0.343 0.352,-0.875 0.352,-1.593 0,-0.719 -0.118,-1.25 -0.348,-1.59 -0.234,-0.348 -0.578,-0.52 -1.043,-0.52 z m 4.148,4.813 v -0.664 h 0.844 v -4.074 h -0.844 v -0.665 h 1.5 l 0.161,1.278 c 0.207,-0.445 0.461,-0.789 0.757,-1.031 0.297,-0.243 0.692,-0.364 1.18,-0.364 0.149,0 0.281,0.012 0.399,0.035 0.121,0.024 0.242,0.051 0.363,0.082 l -0.121,1.829 h -0.707 v -1.149 c -0.016,0 -0.032,0 -0.047,0 -0.828,0 -1.422,0.59 -1.781,1.774 v 2.285 h 1.097 v 0.664 z m 10.598,-5.403 -1.898,5.438 c -0.125,0.363 -0.286,0.699 -0.481,1.004 -0.191,0.305 -0.445,0.555 -0.754,0.754 -0.308,0.203 -0.699,0.328 -1.175,0.375 l -0.133,-0.688 c 0.371,-0.062 0.668,-0.156 0.883,-0.281 0.214,-0.129 0.382,-0.289 0.507,-0.488 0.125,-0.196 0.235,-0.434 0.332,-0.711 h -0.289 l -1.886,-5.403 h 0.925 l 1.547,4.747 1.528,-4.747 z"
       style="fill:#ffffff;fill-opacity:1;fill-rule:nonzero;stroke:none"
       transform="scale(1.3333333)" />
  </g>
</svg>
