<?xml version="1.0" encoding="UTF-8" standalone="no"?>
<!-- Created with Inkscape (http://www.inkscape.org/) -->

<svg
   version="1.1"
   id="svg1"
   width="869.29132"
   height="121.4713"
   viewBox="0 0 869.29132 121.4713"
   sodipodi:docname="category.pdf"
   xmlns:inkscape="http://www.inkscape.org/namespaces/inkscape"
   xmlns:sodipodi="http://sodipodi.sourceforge.net/DTD/sodipodi-0.dtd"
   xmlns="http://www.w3.org/2000/svg"
   xmlns:svg="http://www.w3.org/2000/svg">
  <defs
     id="defs1" />
  <sodipodi:namedview
     id="namedview1"
     pagecolor="#ffffff"
     bordercolor="#000000"
     borderopacity="0.25"
     inkscape:showpageshadow="2"
     inkscape:pageopacity="0.0"
     inkscape:pagecheckerboard="0"
     inkscape:deskcolor="#d1d1d1">
    <inkscape:page
       x="0"
       y="0"
       inkscape:label="1"
       id="page1"
       width="869.29132"
       height="121.4713"
       margin="0"
       bleed="0" />
  </sodipodi:namedview>
  <g
     id="g1"
     inkscape:groupmode="layer"
     inkscape:label="1">
    <path
       id="path1"
       d="m 340.508,34.723 0.859,0.109 v 7.574 h -0.754 l -0.082,-0.715 c -0.199,0.289 -0.433,0.5 -0.695,0.633 -0.262,0.133 -0.539,0.199 -0.836,0.199 -0.469,0 -0.855,-0.117 -1.16,-0.355 -0.305,-0.234 -0.528,-0.563 -0.676,-0.984 -0.148,-0.422 -0.223,-0.914 -0.223,-1.473 0,-0.539 0.086,-1.02 0.254,-1.445 0.168,-0.426 0.407,-0.762 0.723,-1.004 0.316,-0.246 0.699,-0.371 1.144,-0.371 0.598,0 1.079,0.214 1.446,0.636 z m -1.223,2.863 c -0.449,0 -0.797,0.176 -1.039,0.527 -0.242,0.352 -0.363,0.887 -0.363,1.602 0,1.406 0.429,2.109 1.297,2.109 0.304,0 0.566,-0.082 0.785,-0.254 0.219,-0.175 0.398,-0.375 0.543,-0.597 v -2.696 c -0.149,-0.218 -0.324,-0.386 -0.535,-0.507 -0.207,-0.125 -0.438,-0.184 -0.688,-0.184 z m 6.875,-3.109 c 0.192,0 0.344,0.058 0.461,0.175 0.117,0.118 0.172,0.258 0.172,0.426 0,0.172 -0.055,0.32 -0.172,0.442 -0.117,0.113 -0.269,0.171 -0.461,0.171 -0.187,0 -0.336,-0.058 -0.449,-0.171 -0.109,-0.122 -0.168,-0.27 -0.168,-0.442 0,-0.168 0.059,-0.308 0.168,-0.426 0.113,-0.117 0.262,-0.175 0.449,-0.175 z m 0.805,2.527 v 4.535 c 0,0.602 -0.137,1.106 -0.41,1.512 -0.27,0.406 -0.664,0.73 -1.176,0.976 -0.512,0.246 -1.133,0.43 -1.856,0.551 l -0.144,-0.664 c 0.535,-0.09 1.004,-0.223 1.414,-0.402 0.41,-0.176 0.73,-0.418 0.961,-0.727 0.23,-0.308 0.348,-0.703 0.348,-1.191 v -3.906 h -2.247 v -0.684 z m 3.48,-2.254 v 2.992 c 0.211,-0.277 0.473,-0.492 0.782,-0.633 0.308,-0.144 0.625,-0.218 0.941,-0.218 0.527,0 0.91,0.14 1.156,0.421 0.242,0.282 0.364,0.672 0.364,1.168 v 3.926 h -0.864 v -3.902 c 0,-0.324 -0.074,-0.563 -0.222,-0.707 -0.153,-0.152 -0.387,-0.227 -0.711,-0.227 -0.203,0 -0.399,0.047 -0.582,0.137 -0.188,0.094 -0.352,0.207 -0.5,0.344 -0.145,0.137 -0.266,0.277 -0.364,0.422 v 3.933 h -0.859 V 34.84 Z m 9.578,7.383 c -0.183,0.125 -0.406,0.219 -0.668,0.289 -0.265,0.066 -0.523,0.101 -0.777,0.101 -0.582,0 -1.027,-0.152 -1.344,-0.457 -0.312,-0.304 -0.468,-0.695 -0.468,-1.175 v -3.219 h -1.243 v -0.668 h 1.243 v -1.223 l 0.859,-0.105 v 1.328 h 1.867 l -0.101,0.668 h -1.766 v 3.211 c 0,0.301 0.078,0.527 0.234,0.687 0.164,0.157 0.426,0.235 0.797,0.235 0.203,0 0.387,-0.024 0.559,-0.071 0.172,-0.046 0.332,-0.109 0.476,-0.183 z m 3.079,-4.145 c 0,-0.226 0.078,-0.422 0.238,-0.582 0.16,-0.16 0.355,-0.242 0.59,-0.242 0.238,0 0.437,0.082 0.593,0.242 0.161,0.16 0.239,0.356 0.239,0.582 0,0.231 -0.078,0.426 -0.239,0.59 -0.156,0.164 -0.355,0.246 -0.593,0.246 -0.235,0 -0.43,-0.082 -0.59,-0.246 -0.16,-0.164 -0.238,-0.359 -0.238,-0.59 z m 0,3.7 c 0,-0.223 0.078,-0.415 0.238,-0.579 0.16,-0.164 0.355,-0.246 0.59,-0.246 0.238,0 0.437,0.082 0.593,0.246 0.161,0.164 0.239,0.356 0.239,0.579 0,0.23 -0.078,0.429 -0.239,0.593 -0.156,0.16 -0.355,0.242 -0.593,0.242 -0.235,0 -0.43,-0.082 -0.59,-0.242 -0.16,-0.164 -0.238,-0.363 -0.238,-0.593 z m 6.992,-7.211 c 0.191,0 0.344,0.058 0.453,0.175 0.117,0.118 0.176,0.258 0.176,0.426 0,0.172 -0.059,0.32 -0.176,0.442 -0.109,0.113 -0.262,0.171 -0.453,0.171 -0.184,0 -0.332,-0.058 -0.449,-0.171 -0.114,-0.122 -0.172,-0.27 -0.172,-0.442 0,-0.168 0.058,-0.308 0.172,-0.426 0.117,-0.117 0.265,-0.175 0.449,-0.175 z m 0.683,2.527 v 4.719 h 1.524 v 0.683 h -4.051 v -0.683 h 1.668 v -4.035 h -1.617 v -0.684 z m 6.653,-2.281 0.863,0.109 v 7.574 h -0.754 l -0.082,-0.715 c -0.203,0.289 -0.434,0.5 -0.699,0.633 -0.258,0.133 -0.539,0.199 -0.836,0.199 -0.469,0 -0.856,-0.117 -1.156,-0.355 -0.305,-0.234 -0.532,-0.563 -0.68,-0.984 -0.145,-0.422 -0.219,-0.914 -0.219,-1.473 0,-0.539 0.082,-1.02 0.25,-1.445 0.168,-0.426 0.41,-0.762 0.723,-1.004 0.32,-0.246 0.699,-0.371 1.144,-0.371 0.598,0 1.082,0.214 1.446,0.636 z m -1.219,2.863 c -0.453,0 -0.801,0.176 -1.043,0.527 -0.242,0.352 -0.363,0.887 -0.363,1.602 0,1.406 0.433,2.109 1.297,2.109 0.304,0 0.566,-0.082 0.785,-0.254 0.218,-0.175 0.398,-0.375 0.543,-0.597 v -2.696 c -0.145,-0.218 -0.325,-0.386 -0.532,-0.507 -0.21,-0.125 -0.437,-0.184 -0.687,-0.184 z"
       style="fill:#000000;fill-opacity:1;fill-rule:nonzero;stroke:none"
       transform="scale(1.3333333)" />
    <path
       id="path2"
       d="M 328.102,27.383 V 50.539 L 441.215,50.422"
       style="fill:none;stroke:#000000;stroke-width:1.41732;stroke-linecap:round;stroke-linejoin:miter;stroke-miterlimit:4;stroke-dasharray:none;stroke-opacity:1"
       transform="scale(1.3333333)" />
    <path
       id="path3"
       d="m -395.622,168.929 c -0.355,0.355 -9.549,-2.108 -9.679,-2.592 -0.13,-0.485 6.602,-7.215 7.086,-7.085 0.484,0.13 2.947,9.322 2.593,9.677 z"
       style="fill:#ffffff;fill-opacity:1;fill-rule:nonzero;stroke:#000000;stroke-width:1.17266;stroke-linecap:round;stroke-linejoin:round;stroke-miterlimit:4;stroke-dasharray:none;stroke-opacity:1"
       transform="matrix(-1.3333333,0.31164133,0.35726533,1.1630587,0,0)" />
    <path
       id="path4"
       d="m 340.508,64.723 0.859,0.109 v 7.574 h -0.754 l -0.082,-0.715 c -0.199,0.289 -0.433,0.5 -0.695,0.633 -0.262,0.133 -0.539,0.199 -0.836,0.199 -0.469,0 -0.855,-0.117 -1.16,-0.355 -0.305,-0.234 -0.528,-0.563 -0.676,-0.984 -0.148,-0.422 -0.223,-0.914 -0.223,-1.469 0,-0.543 0.086,-1.024 0.254,-1.449 0.168,-0.426 0.407,-0.762 0.723,-1.004 0.316,-0.246 0.699,-0.367 1.144,-0.367 0.598,0 1.079,0.21 1.446,0.632 z m -1.223,2.863 c -0.449,0 -0.797,0.176 -1.039,0.527 -0.242,0.352 -0.363,0.887 -0.363,1.602 0,1.406 0.429,2.109 1.297,2.109 0.304,0 0.566,-0.082 0.785,-0.254 0.219,-0.175 0.398,-0.375 0.543,-0.597 v -2.696 c -0.149,-0.218 -0.324,-0.386 -0.535,-0.507 -0.207,-0.125 -0.438,-0.184 -0.688,-0.184 z m 6.875,-3.109 c 0.192,0 0.344,0.058 0.461,0.175 0.117,0.118 0.172,0.258 0.172,0.426 0,0.172 -0.055,0.32 -0.172,0.442 -0.117,0.113 -0.269,0.171 -0.461,0.171 -0.187,0 -0.336,-0.058 -0.449,-0.171 -0.109,-0.122 -0.168,-0.27 -0.168,-0.442 0,-0.168 0.059,-0.312 0.168,-0.426 0.113,-0.117 0.262,-0.175 0.449,-0.175 z m 0.805,2.527 v 4.535 c 0,0.602 -0.137,1.106 -0.41,1.512 -0.27,0.406 -0.664,0.73 -1.176,0.976 -0.512,0.246 -1.133,0.43 -1.856,0.551 l -0.144,-0.664 c 0.535,-0.09 1.004,-0.223 1.414,-0.402 0.41,-0.176 0.73,-0.418 0.961,-0.727 0.23,-0.308 0.348,-0.703 0.348,-1.191 v -3.906 h -2.247 v -0.684 z m 3.48,-2.254 v 2.992 c 0.211,-0.277 0.473,-0.492 0.782,-0.633 0.308,-0.144 0.625,-0.218 0.941,-0.218 0.527,0 0.91,0.14 1.156,0.421 0.242,0.282 0.364,0.672 0.364,1.168 v 3.926 h -0.864 v -3.902 c 0,-0.324 -0.074,-0.563 -0.222,-0.707 -0.153,-0.152 -0.387,-0.227 -0.711,-0.227 -0.203,0 -0.399,0.047 -0.582,0.137 -0.188,0.094 -0.352,0.207 -0.5,0.344 -0.145,0.137 -0.266,0.277 -0.364,0.422 v 3.933 h -0.859 V 64.84 Z m 9.578,7.383 c -0.183,0.125 -0.406,0.219 -0.668,0.289 -0.265,0.066 -0.523,0.101 -0.777,0.101 -0.582,0 -1.027,-0.152 -1.344,-0.457 -0.312,-0.304 -0.468,-0.695 -0.468,-1.175 v -3.219 h -1.243 v -0.668 h 1.243 v -1.223 l 0.859,-0.105 v 1.328 h 1.867 l -0.101,0.668 h -1.766 v 3.211 c 0,0.301 0.078,0.527 0.234,0.687 0.164,0.157 0.426,0.235 0.797,0.235 0.203,0 0.387,-0.024 0.559,-0.071 0.172,-0.046 0.332,-0.109 0.476,-0.183 z m 3.079,-4.145 c 0,-0.226 0.078,-0.422 0.238,-0.582 0.16,-0.16 0.355,-0.242 0.59,-0.242 0.238,0 0.437,0.082 0.593,0.242 0.161,0.16 0.239,0.356 0.239,0.582 0,0.231 -0.078,0.426 -0.239,0.59 -0.156,0.164 -0.355,0.246 -0.593,0.246 -0.235,0 -0.43,-0.082 -0.59,-0.246 -0.16,-0.164 -0.238,-0.359 -0.238,-0.59 z m 0,3.7 c 0,-0.223 0.078,-0.415 0.238,-0.579 0.16,-0.164 0.355,-0.246 0.59,-0.246 0.238,0 0.437,0.082 0.593,0.246 0.161,0.164 0.239,0.356 0.239,0.579 0,0.23 -0.078,0.429 -0.239,0.593 -0.156,0.16 -0.355,0.242 -0.593,0.242 -0.235,0 -0.43,-0.082 -0.59,-0.242 -0.16,-0.164 -0.238,-0.363 -0.238,-0.593 z m 7.359,-4.797 c 0.48,0 0.859,0.117 1.144,0.351 0.286,0.231 0.493,0.559 0.622,0.985 0.125,0.418 0.187,0.91 0.187,1.476 0,0.543 -0.074,1.027 -0.23,1.457 -0.149,0.422 -0.379,0.758 -0.688,1 -0.308,0.242 -0.695,0.363 -1.164,0.363 -0.59,0 -1.066,-0.207 -1.426,-0.625 v 2.575 l -0.859,0.105 v -7.574 h 0.73 l 0.075,0.754 c 0.199,-0.278 0.433,-0.488 0.707,-0.641 0.273,-0.148 0.574,-0.226 0.902,-0.226 z m -0.203,0.695 c -0.301,0 -0.563,0.09 -0.793,0.269 -0.227,0.18 -0.414,0.379 -0.559,0.598 v 2.676 c 0.141,0.207 0.317,0.375 0.528,0.496 0.218,0.121 0.453,0.18 0.711,0.18 0.445,0 0.785,-0.172 1.007,-0.512 0.227,-0.344 0.34,-0.875 0.34,-1.594 0,-1.41 -0.414,-2.113 -1.234,-2.113 z m 7.808,3.641 c 0,0.218 0.036,0.378 0.11,0.476 0.07,0.098 0.179,0.172 0.332,0.215 l -0.211,0.605 c -0.231,-0.031 -0.438,-0.105 -0.609,-0.218 -0.176,-0.121 -0.301,-0.301 -0.379,-0.539 -0.196,0.25 -0.442,0.437 -0.735,0.566 -0.289,0.129 -0.609,0.191 -0.961,0.191 -0.539,0 -0.965,-0.152 -1.273,-0.457 -0.313,-0.304 -0.469,-0.707 -0.469,-1.211 0,-0.554 0.219,-0.984 0.652,-1.281 0.434,-0.297 1.063,-0.445 1.883,-0.445 h 0.793 v -0.453 c 0,-0.387 -0.113,-0.664 -0.344,-0.824 -0.226,-0.164 -0.539,-0.247 -0.941,-0.247 -0.18,0 -0.387,0.024 -0.629,0.067 -0.238,0.043 -0.496,0.109 -0.777,0.211 l -0.227,-0.653 c 0.328,-0.121 0.637,-0.21 0.93,-0.261 0.293,-0.051 0.57,-0.078 0.836,-0.078 0.668,0 1.172,0.16 1.512,0.472 0.339,0.317 0.507,0.739 0.507,1.274 z m -2.23,0.64 c 0.266,0 0.519,-0.066 0.758,-0.199 0.242,-0.137 0.445,-0.324 0.605,-0.566 v -1.387 h -0.777 c -0.598,0 -1.016,0.101 -1.262,0.305 -0.246,0.207 -0.367,0.48 -0.367,0.828 0,0.679 0.348,1.019 1.043,1.019 z m 4.57,0.539 v -0.664 h 0.84 v -4.074 h -0.84 v -0.664 h 1.496 l 0.16,1.277 c 0.208,-0.445 0.461,-0.785 0.758,-1.031 0.297,-0.242 0.692,-0.363 1.18,-0.363 0.148,0 0.285,0.011 0.398,0.035 0.122,0.023 0.243,0.051 0.368,0.082 l -0.125,1.828 h -0.707 v -1.148 c -0.016,0 -0.028,0 -0.047,0 -0.828,0 -1.422,0.589 -1.782,1.773 v 2.285 h 1.098 v 0.664 z m 6.778,-2.394 c 0.023,0.625 0.187,1.082 0.492,1.367 0.308,0.285 0.672,0.426 1.09,0.426 0.273,0 0.523,-0.039 0.746,-0.121 0.222,-0.082 0.453,-0.204 0.691,-0.368 l 0.406,0.571 c -0.25,0.199 -0.535,0.355 -0.859,0.468 -0.328,0.114 -0.656,0.168 -0.996,0.168 -0.527,0 -0.977,-0.117 -1.344,-0.355 -0.367,-0.234 -0.644,-0.563 -0.84,-0.984 -0.191,-0.422 -0.289,-0.914 -0.289,-1.469 0,-0.551 0.098,-1.035 0.289,-1.457 0.196,-0.426 0.469,-0.758 0.821,-1 0.355,-0.242 0.769,-0.367 1.25,-0.367 0.679,0 1.214,0.238 1.605,0.711 0.395,0.468 0.59,1.117 0.59,1.937 0,0.094 -0.004,0.18 -0.012,0.262 -0.004,0.082 -0.008,0.152 -0.012,0.211 z m 1.468,-2.41 c -0.402,0 -0.738,0.14 -1.007,0.425 -0.27,0.282 -0.422,0.723 -0.457,1.317 h 2.816 c -0.008,-0.578 -0.137,-1.012 -0.379,-1.301 -0.242,-0.297 -0.566,-0.441 -0.973,-0.441 z m 4.008,4.804 v -5.402 h 0.735 l 0.066,0.75 c 0.219,-0.277 0.492,-0.488 0.82,-0.637 0.328,-0.148 0.649,-0.226 0.965,-0.226 0.531,0 0.914,0.14 1.152,0.421 0.243,0.282 0.368,0.672 0.368,1.168 v 3.926 h -0.864 v -3.289 c 0,-0.367 -0.019,-0.664 -0.062,-0.89 -0.039,-0.227 -0.129,-0.391 -0.262,-0.5 -0.129,-0.106 -0.328,-0.157 -0.598,-0.157 -0.214,0 -0.414,0.047 -0.601,0.137 -0.184,0.094 -0.352,0.211 -0.496,0.348 -0.145,0.14 -0.266,0.277 -0.36,0.418 v 3.933 z m 10.442,-0.273 c -0.184,0.125 -0.407,0.219 -0.672,0.289 -0.262,0.066 -0.52,0.101 -0.774,0.101 -0.582,0 -1.027,-0.152 -1.344,-0.457 -0.316,-0.304 -0.472,-0.695 -0.472,-1.175 v -3.219 h -1.238 v -0.668 h 1.238 v -1.223 l 0.863,-0.105 v 1.328 h 1.867 l -0.105,0.668 h -1.762 v 3.211 c 0,0.301 0.078,0.527 0.235,0.687 0.16,0.157 0.425,0.235 0.796,0.235 0.2,0 0.387,-0.024 0.559,-0.071 0.168,-0.046 0.328,-0.109 0.477,-0.183 z m 1.347,2.133 v -0.754 h 5.129 v 0.754 z m 8.719,-9.789 c 0.191,0 0.344,0.058 0.457,0.175 0.117,0.114 0.176,0.258 0.176,0.426 0,0.172 -0.059,0.32 -0.176,0.442 -0.113,0.113 -0.266,0.171 -0.457,0.171 -0.18,0 -0.328,-0.058 -0.445,-0.171 -0.118,-0.122 -0.176,-0.27 -0.176,-0.442 0,-0.168 0.058,-0.312 0.176,-0.426 0.117,-0.117 0.265,-0.175 0.445,-0.175 z m 0.687,2.527 v 4.719 h 1.524 v 0.683 h -4.051 v -0.683 h 1.668 v -4.035 h -1.617 v -0.684 z m 6.653,-2.281 0.859,0.109 v 7.574 h -0.754 l -0.082,-0.715 c -0.199,0.289 -0.433,0.5 -0.695,0.633 -0.262,0.133 -0.539,0.199 -0.836,0.199 -0.469,0 -0.855,-0.117 -1.16,-0.355 -0.305,-0.234 -0.528,-0.563 -0.676,-0.984 -0.148,-0.422 -0.223,-0.914 -0.223,-1.469 0,-0.543 0.086,-1.024 0.254,-1.449 0.168,-0.426 0.407,-0.762 0.723,-1.004 0.316,-0.246 0.699,-0.371 1.144,-0.371 0.598,0 1.079,0.214 1.446,0.636 z m -1.223,2.863 c -0.449,0 -0.797,0.176 -1.039,0.527 -0.242,0.352 -0.363,0.887 -0.363,1.602 0,1.406 0.429,2.109 1.297,2.109 0.304,0 0.566,-0.086 0.785,-0.254 0.219,-0.175 0.398,-0.375 0.543,-0.597 v -2.696 c -0.149,-0.218 -0.324,-0.386 -0.535,-0.507 -0.207,-0.125 -0.438,-0.184 -0.688,-0.184 z"
       style="fill:#000000;fill-opacity:1;fill-rule:nonzero;stroke:none"
       transform="scale(1.3333333)" />
    <path
       id="path5"
       d="M 328.102,57.383 V 80.539 L 441.215,80.418"
       style="fill:none;stroke:#000000;stroke-width:1.41732;stroke-linecap:round;stroke-linejoin:miter;stroke-miterlimit:4;stroke-dasharray:none;stroke-opacity:1"
       transform="scale(1.3333333)" />
    <path
       id="path6"
       d="m -387.024,201.017 c -0.355,0.355 -9.549,-2.107 -9.679,-2.592 -0.13,-0.485 6.602,-7.214 7.086,-7.084 0.484,0.13 2.947,9.322 2.593,9.676 z"
       style="fill:#ffffff;fill-opacity:1;fill-rule:nonzero;stroke:#000000;stroke-width:1.17266;stroke-linecap:round;stroke-linejoin:round;stroke-miterlimit:4;stroke-dasharray:none;stroke-opacity:1"
       transform="matrix(-1.3333333,0.31164133,0.35726533,1.1630587,0,0)" />
    <path
       id="path7"
       d="m 456.172,39.285 h 81.02 v 21.109 h -81.02 z"
       style="fill:#005580;fill-opacity:1;fill-rule:nonzero;stroke:#005580;stroke-width:1.41732;stroke-linecap:round;stroke-linejoin:round;stroke-miterlimit:4;stroke-dasharray:none;stroke-opacity:1"
       transform="scale(1.3333333)" />
    <path
       id="path8"
       d="m 465.129,53.465 h -0.984 l 1.996,-2.852 -1.75,-2.551 h 1.019 l 1.254,2.012 1.266,-2.012 h 0.984 l -1.742,2.512 1.988,2.891 h -1.055 l -1.48,-2.32 z m 7.469,-0.598 c 0.414,0 0.742,-0.074 0.984,-0.23 0.238,-0.153 0.359,-0.364 0.359,-0.625 0,-0.16 -0.031,-0.301 -0.093,-0.422 -0.059,-0.117 -0.18,-0.227 -0.364,-0.32 -0.187,-0.102 -0.468,-0.2 -0.851,-0.293 -0.375,-0.094 -0.699,-0.2 -0.977,-0.321 -0.273,-0.121 -0.484,-0.281 -0.64,-0.476 -0.149,-0.192 -0.227,-0.446 -0.227,-0.758 0,-0.453 0.191,-0.813 0.57,-1.078 0.379,-0.262 0.875,-0.395 1.485,-0.395 0.433,0 0.808,0.059 1.133,0.176 0.324,0.117 0.597,0.258 0.824,0.422 l -0.379,0.582 c -0.203,-0.141 -0.43,-0.254 -0.676,-0.344 -0.246,-0.09 -0.547,-0.137 -0.894,-0.137 -0.422,0 -0.723,0.067 -0.903,0.2 -0.176,0.129 -0.265,0.3 -0.265,0.507 0,0.161 0.043,0.293 0.128,0.399 0.086,0.105 0.235,0.195 0.446,0.277 0.207,0.082 0.496,0.176 0.859,0.274 0.356,0.093 0.66,0.207 0.926,0.34 0.262,0.128 0.465,0.3 0.609,0.511 0.149,0.207 0.219,0.481 0.219,0.817 0,0.382 -0.109,0.691 -0.328,0.933 -0.219,0.235 -0.5,0.406 -0.852,0.516 -0.343,0.105 -0.711,0.16 -1.097,0.16 -0.489,0 -0.903,-0.07 -1.25,-0.211 -0.34,-0.144 -0.629,-0.316 -0.86,-0.519 l 0.493,-0.567 c 0.211,0.172 0.453,0.317 0.726,0.426 0.277,0.105 0.574,0.156 0.891,0.156 z m 7.547,-7.086 0.863,0.11 v 7.574 h -0.754 l -0.082,-0.715 c -0.203,0.289 -0.438,0.496 -0.699,0.633 -0.258,0.133 -0.539,0.199 -0.836,0.199 -0.469,0 -0.856,-0.117 -1.16,-0.355 -0.305,-0.235 -0.528,-0.563 -0.676,-0.985 -0.149,-0.422 -0.219,-0.914 -0.219,-1.472 0,-0.54 0.082,-1.02 0.25,-1.446 0.168,-0.426 0.41,-0.762 0.723,-1.004 0.32,-0.246 0.699,-0.371 1.144,-0.371 0.598,0 1.078,0.215 1.446,0.637 z m -1.219,2.864 c -0.453,0 -0.801,0.175 -1.043,0.527 -0.242,0.351 -0.363,0.883 -0.363,1.598 0,1.41 0.433,2.113 1.296,2.113 0.305,0 0.567,-0.086 0.786,-0.254 0.218,-0.176 0.398,-0.375 0.543,-0.598 v -2.695 c -0.149,-0.219 -0.325,-0.391 -0.536,-0.508 -0.207,-0.125 -0.437,-0.183 -0.683,-0.183 z m 5.351,0.402 c 0,-0.227 0.078,-0.422 0.239,-0.582 0.16,-0.164 0.355,-0.242 0.589,-0.242 0.239,0 0.438,0.078 0.594,0.242 0.16,0.16 0.239,0.355 0.239,0.582 0,0.23 -0.079,0.426 -0.239,0.59 -0.156,0.164 -0.355,0.246 -0.594,0.246 -0.234,0 -0.429,-0.082 -0.589,-0.246 -0.161,-0.164 -0.239,-0.36 -0.239,-0.59 z m 0,3.699 c 0,-0.223 0.078,-0.418 0.239,-0.582 0.16,-0.164 0.355,-0.246 0.589,-0.246 0.239,0 0.438,0.082 0.594,0.246 0.16,0.164 0.239,0.359 0.239,0.582 0,0.231 -0.079,0.43 -0.239,0.594 -0.156,0.16 -0.355,0.242 -0.594,0.242 -0.234,0 -0.429,-0.082 -0.589,-0.242 -0.161,-0.164 -0.239,-0.363 -0.239,-0.594 z m 6.993,-7.211 c 0.191,0 0.339,0.059 0.453,0.176 0.117,0.113 0.175,0.258 0.175,0.426 0,0.172 -0.058,0.32 -0.175,0.437 -0.114,0.117 -0.262,0.176 -0.453,0.176 -0.184,0 -0.332,-0.059 -0.45,-0.176 -0.113,-0.117 -0.172,-0.265 -0.172,-0.437 0,-0.168 0.059,-0.313 0.172,-0.426 0.118,-0.117 0.266,-0.176 0.45,-0.176 z m 0.683,2.527 v 4.719 h 1.524 v 0.684 h -4.051 v -0.684 h 1.668 v -4.035 h -1.617 v -0.684 z m 3.422,5.403 v -5.403 h 0.734 l 0.067,0.75 c 0.219,-0.277 0.492,-0.488 0.82,-0.636 0.328,-0.149 0.649,-0.227 0.965,-0.227 0.527,0 0.914,0.141 1.152,0.422 0.242,0.281 0.364,0.672 0.364,1.168 v 3.926 h -0.86 v -3.289 c 0,-0.367 -0.019,-0.668 -0.062,-0.891 -0.039,-0.226 -0.129,-0.394 -0.262,-0.5 -0.129,-0.105 -0.328,-0.156 -0.602,-0.156 -0.211,0 -0.41,0.043 -0.597,0.137 -0.184,0.093 -0.352,0.207 -0.496,0.347 -0.145,0.137 -0.266,0.278 -0.36,0.418 v 3.934 z m 10.441,-0.274 c -0.183,0.125 -0.41,0.219 -0.671,0.289 -0.262,0.067 -0.52,0.102 -0.774,0.102 -0.582,0 -1.031,-0.152 -1.344,-0.457 -0.316,-0.305 -0.472,-0.695 -0.472,-1.176 V 48.73 h -1.243 v -0.668 h 1.243 v -1.226 l 0.863,-0.102 v 1.328 h 1.863 l -0.101,0.668 h -1.762 v 3.211 c 0,0.301 0.078,0.528 0.234,0.688 0.16,0.156 0.426,0.234 0.793,0.234 0.203,0 0.391,-0.023 0.563,-0.07 0.168,-0.051 0.328,-0.109 0.476,-0.188 z m 2.543,-2.121 c 0.024,0.625 0.188,1.082 0.493,1.368 0.308,0.285 0.671,0.425 1.089,0.425 0.274,0 0.524,-0.043 0.747,-0.125 0.222,-0.078 0.453,-0.203 0.691,-0.363 l 0.406,0.57 c -0.25,0.2 -0.535,0.356 -0.859,0.465 -0.328,0.113 -0.656,0.172 -0.996,0.172 -0.528,0 -0.977,-0.117 -1.344,-0.355 -0.367,-0.235 -0.645,-0.563 -0.84,-0.985 -0.191,-0.422 -0.289,-0.914 -0.289,-1.472 0,-0.547 0.098,-1.032 0.289,-1.454 0.195,-0.425 0.469,-0.757 0.82,-1 0.356,-0.246 0.77,-0.367 1.25,-0.367 0.68,0 1.215,0.239 1.606,0.707 0.394,0.473 0.59,1.121 0.59,1.942 0,0.09 -0.004,0.179 -0.012,0.261 -0.004,0.082 -0.008,0.153 -0.012,0.211 z m 1.469,-2.414 c -0.402,0 -0.738,0.145 -1.008,0.426 -0.269,0.285 -0.422,0.727 -0.457,1.32 h 2.817 c -0.008,-0.578 -0.137,-1.011 -0.379,-1.304 -0.242,-0.293 -0.567,-0.442 -0.973,-0.442 z m 8.399,-1.168 0.265,0.813 c -0.23,0.07 -0.476,0.113 -0.738,0.133 -0.254,0.015 -0.535,0.023 -0.84,0.023 0.625,0.289 0.938,0.742 0.938,1.359 0,0.536 -0.18,0.973 -0.54,1.321 -0.355,0.343 -0.851,0.515 -1.492,0.515 -0.179,0 -0.332,-0.007 -0.453,-0.023 -0.121,-0.02 -0.238,-0.043 -0.351,-0.078 -0.082,0.058 -0.149,0.133 -0.204,0.23 -0.05,0.094 -0.078,0.192 -0.078,0.293 0,0.129 0.051,0.238 0.153,0.324 0.105,0.082 0.293,0.125 0.57,0.125 h 0.977 c 0.359,0 0.687,0.067 0.972,0.196 0.289,0.129 0.516,0.308 0.684,0.527 0.168,0.219 0.25,0.469 0.25,0.746 0,0.528 -0.227,0.938 -0.676,1.219 -0.449,0.285 -1.082,0.426 -1.902,0.426 -0.574,0 -1.028,-0.059 -1.36,-0.18 -0.332,-0.113 -0.57,-0.293 -0.714,-0.539 -0.141,-0.238 -0.211,-0.539 -0.211,-0.906 h 0.781 c 0,0.207 0.039,0.383 0.121,0.519 0.082,0.137 0.234,0.239 0.449,0.301 0.215,0.07 0.524,0.102 0.926,0.102 0.598,0 1.031,-0.075 1.305,-0.223 0.273,-0.149 0.41,-0.367 0.41,-0.664 0,-0.254 -0.117,-0.449 -0.348,-0.578 -0.234,-0.129 -0.523,-0.196 -0.875,-0.196 h -0.961 c -0.469,0 -0.812,-0.101 -1.031,-0.308 -0.219,-0.203 -0.328,-0.442 -0.328,-0.707 0,-0.367 0.195,-0.684 0.594,-0.942 -0.606,-0.324 -0.907,-0.82 -0.907,-1.492 0,-0.367 0.09,-0.691 0.27,-0.972 0.183,-0.282 0.433,-0.504 0.758,-0.664 0.328,-0.161 0.699,-0.243 1.125,-0.243 0.453,0 0.824,-0.019 1.109,-0.054 0.281,-0.039 0.523,-0.094 0.727,-0.161 0.203,-0.07 0.414,-0.148 0.625,-0.242 z m -2.461,1.086 c -0.434,0 -0.758,0.121 -0.965,0.356 -0.203,0.234 -0.309,0.535 -0.309,0.89 0,0.368 0.106,0.668 0.313,0.907 0.215,0.234 0.539,0.351 0.98,0.351 0.379,0 0.672,-0.109 0.871,-0.332 0.203,-0.223 0.305,-0.531 0.305,-0.93 0,-0.828 -0.399,-1.242 -1.195,-1.242 z m 4.902,2.496 c 0.023,0.625 0.187,1.082 0.492,1.368 0.309,0.285 0.672,0.425 1.086,0.425 0.277,0 0.527,-0.043 0.75,-0.125 0.223,-0.078 0.453,-0.203 0.692,-0.363 l 0.406,0.57 c -0.25,0.2 -0.535,0.356 -0.864,0.465 -0.324,0.113 -0.656,0.172 -0.992,0.172 -0.527,0 -0.976,-0.117 -1.343,-0.355 -0.368,-0.235 -0.649,-0.563 -0.844,-0.985 -0.192,-0.422 -0.285,-0.914 -0.285,-1.472 0,-0.547 0.093,-1.032 0.285,-1.454 0.195,-0.425 0.469,-0.757 0.82,-1 0.356,-0.246 0.774,-0.367 1.254,-0.367 0.68,0 1.215,0.239 1.605,0.707 0.391,0.473 0.59,1.121 0.59,1.942 0,0.09 -0.004,0.179 -0.011,0.261 -0.004,0.082 -0.008,0.153 -0.012,0.211 z m 1.465,-2.414 c -0.399,0 -0.735,0.145 -1.004,0.426 -0.27,0.285 -0.422,0.727 -0.457,1.32 h 2.816 c -0.008,-0.578 -0.136,-1.011 -0.379,-1.304 -0.242,-0.293 -0.566,-0.442 -0.976,-0.442 z m 4.062,4.809 v -0.664 h 0.84 v -4.074 h -0.84 v -0.665 h 1.5 l 0.157,1.278 c 0.21,-0.445 0.46,-0.789 0.761,-1.031 0.297,-0.243 0.688,-0.364 1.176,-0.364 0.152,0 0.285,0.012 0.402,0.035 0.118,0.02 0.243,0.051 0.364,0.082 l -0.121,1.829 h -0.711 v -1.149 c -0.012,0 -0.028,0 -0.043,0 -0.828,0 -1.422,0.59 -1.782,1.774 v 2.285 h 1.098 v 0.664 z"
       style="fill:#ffffff;fill-opacity:1;fill-rule:nonzero;stroke:none"
       transform="scale(1.3333333)" />
    <path
       id="path9"
       d="m 260.059,34.723 0.863,0.109 v 7.574 h -0.754 l -0.082,-0.715 c -0.203,0.289 -0.434,0.5 -0.699,0.633 -0.258,0.133 -0.539,0.199 -0.836,0.199 -0.469,0 -0.852,-0.117 -1.156,-0.355 -0.305,-0.234 -0.532,-0.563 -0.68,-0.984 -0.145,-0.422 -0.219,-0.914 -0.219,-1.473 0,-0.539 0.082,-1.02 0.25,-1.445 0.168,-0.426 0.41,-0.762 0.723,-1.004 0.32,-0.246 0.699,-0.371 1.144,-0.371 0.598,0 1.082,0.214 1.446,0.636 z m -1.219,2.863 c -0.453,0 -0.801,0.176 -1.043,0.527 -0.242,0.352 -0.363,0.887 -0.363,1.602 0,1.406 0.433,2.109 1.296,2.109 0.305,0 0.567,-0.082 0.786,-0.254 0.218,-0.175 0.402,-0.375 0.543,-0.597 v -2.696 c -0.145,-0.218 -0.325,-0.386 -0.532,-0.507 -0.211,-0.125 -0.437,-0.184 -0.687,-0.184 z m 6.871,-3.109 c 0.191,0 0.344,0.058 0.461,0.175 0.117,0.118 0.176,0.258 0.176,0.426 0,0.172 -0.059,0.32 -0.176,0.442 -0.117,0.113 -0.27,0.171 -0.461,0.171 -0.184,0 -0.332,-0.058 -0.445,-0.171 -0.114,-0.122 -0.172,-0.27 -0.172,-0.442 0,-0.168 0.058,-0.312 0.172,-0.426 0.113,-0.117 0.261,-0.175 0.445,-0.175 z m 0.805,2.527 v 4.535 c 0,0.602 -0.137,1.106 -0.411,1.512 -0.269,0.406 -0.66,0.73 -1.175,0.976 -0.512,0.246 -1.129,0.43 -1.856,0.551 l -0.144,-0.664 c 0.535,-0.09 1.008,-0.223 1.418,-0.402 0.41,-0.176 0.73,-0.418 0.957,-0.727 0.234,-0.308 0.351,-0.703 0.351,-1.191 V 37.688 H 263.41 V 37.004 Z M 270,34.75 v 2.992 c 0.211,-0.277 0.469,-0.492 0.777,-0.633 0.313,-0.144 0.625,-0.218 0.946,-0.218 0.523,0 0.91,0.14 1.152,0.421 0.242,0.282 0.363,0.672 0.363,1.168 v 3.926 h -0.859 v -3.902 c 0,-0.324 -0.078,-0.563 -0.227,-0.707 -0.152,-0.152 -0.386,-0.227 -0.707,-0.227 -0.207,0 -0.402,0.047 -0.586,0.137 -0.183,0.094 -0.351,0.207 -0.496,0.344 -0.148,0.137 -0.269,0.277 -0.363,0.422 v 3.933 h -0.863 V 34.84 Z m 9.578,7.383 c -0.183,0.125 -0.41,0.219 -0.672,0.289 -0.261,0.066 -0.523,0.101 -0.773,0.101 -0.582,0 -1.031,-0.152 -1.344,-0.457 -0.316,-0.304 -0.473,-0.695 -0.473,-1.175 v -3.219 h -1.242 v -0.668 h 1.242 v -1.223 l 0.86,-0.105 v 1.328 h 1.867 l -0.102,0.668 h -1.765 v 3.211 c 0,0.301 0.082,0.527 0.238,0.687 0.16,0.157 0.426,0.235 0.793,0.235 0.203,0 0.391,-0.024 0.559,-0.071 0.172,-0.046 0.332,-0.109 0.48,-0.183 z m 3.078,-4.145 c 0,-0.226 0.078,-0.422 0.235,-0.582 0.16,-0.16 0.355,-0.242 0.589,-0.242 0.239,0 0.438,0.082 0.594,0.242 0.16,0.16 0.242,0.356 0.242,0.582 0,0.231 -0.082,0.426 -0.242,0.59 -0.156,0.164 -0.355,0.246 -0.594,0.246 -0.234,0 -0.429,-0.082 -0.589,-0.246 -0.157,-0.164 -0.235,-0.359 -0.235,-0.59 z m 0,3.7 c 0,-0.223 0.078,-0.415 0.235,-0.579 0.16,-0.164 0.355,-0.246 0.589,-0.246 0.239,0 0.438,0.082 0.594,0.246 0.16,0.164 0.242,0.356 0.242,0.579 0,0.23 -0.082,0.429 -0.242,0.593 -0.156,0.16 -0.355,0.242 -0.594,0.242 -0.234,0 -0.429,-0.082 -0.589,-0.242 -0.157,-0.164 -0.235,-0.363 -0.235,-0.593 z m 9.231,0.445 c -0.188,0.125 -0.41,0.219 -0.672,0.289 -0.266,0.066 -0.524,0.101 -0.777,0.101 -0.579,0 -1.028,-0.152 -1.344,-0.457 -0.313,-0.304 -0.469,-0.695 -0.469,-1.175 v -3.219 h -1.242 v -0.668 h 1.242 v -1.223 l 0.859,-0.105 v 1.328 h 1.868 l -0.102,0.668 h -1.766 v 3.211 c 0,0.301 0.078,0.527 0.239,0.687 0.16,0.157 0.425,0.235 0.793,0.235 0.203,0 0.386,-0.024 0.558,-0.071 0.172,-0.046 0.332,-0.109 0.477,-0.183 z m 3.91,-7.656 c 0.191,0 0.344,0.058 0.457,0.175 0.117,0.118 0.176,0.258 0.176,0.426 0,0.172 -0.059,0.32 -0.176,0.442 -0.113,0.113 -0.266,0.171 -0.457,0.171 -0.18,0 -0.328,-0.058 -0.445,-0.171 -0.118,-0.122 -0.176,-0.27 -0.176,-0.442 0,-0.168 0.058,-0.312 0.176,-0.426 0.117,-0.117 0.265,-0.175 0.445,-0.175 z m 0.687,2.527 v 4.719 h 1.524 v 0.683 h -4.051 v -0.683 h 1.668 v -4.035 h -1.617 v -0.684 z m 7.707,5.129 c -0.183,0.125 -0.406,0.219 -0.671,0.289 -0.262,0.066 -0.52,0.101 -0.774,0.101 -0.582,0 -1.027,-0.152 -1.344,-0.457 -0.312,-0.304 -0.472,-0.695 -0.472,-1.175 v -3.219 h -1.239 v -0.668 h 1.239 v -1.223 l 0.863,-0.105 v 1.328 h 1.867 l -0.101,0.668 h -1.766 v 3.211 c 0,0.301 0.078,0.527 0.234,0.687 0.164,0.157 0.426,0.235 0.797,0.235 0.203,0 0.387,-0.024 0.559,-0.071 0.172,-0.046 0.328,-0.109 0.476,-0.183 z m 3.973,-7.301 v 6.238 c 0,0.27 0.082,0.457 0.246,0.571 0.164,0.109 0.383,0.164 0.645,0.164 0.16,0 0.312,-0.016 0.461,-0.051 0.152,-0.035 0.3,-0.082 0.445,-0.137 l 0.23,0.629 c -0.144,0.07 -0.328,0.137 -0.546,0.192 -0.215,0.054 -0.461,0.085 -0.735,0.085 -0.476,0 -0.867,-0.132 -1.164,-0.394 -0.297,-0.266 -0.445,-0.637 -0.445,-1.102 v -5.515 h -1.656 v -0.68 z m 4.727,5.18 c 0.023,0.625 0.187,1.082 0.492,1.367 0.308,0.285 0.672,0.426 1.086,0.426 0.277,0 0.527,-0.039 0.75,-0.121 0.222,-0.082 0.453,-0.204 0.691,-0.368 l 0.406,0.571 c -0.25,0.199 -0.535,0.355 -0.863,0.468 -0.324,0.114 -0.656,0.168 -0.992,0.168 -0.527,0 -0.977,-0.117 -1.344,-0.355 -0.367,-0.234 -0.648,-0.563 -0.844,-0.984 -0.191,-0.422 -0.285,-0.914 -0.285,-1.469 0,-0.551 0.094,-1.035 0.285,-1.457 0.196,-0.426 0.469,-0.758 0.821,-1 0.359,-0.242 0.773,-0.367 1.254,-0.367 0.679,0 1.214,0.238 1.605,0.711 0.391,0.468 0.59,1.117 0.59,1.937 0,0.094 -0.004,0.18 -0.012,0.262 -0.004,0.082 -0.008,0.152 -0.011,0.211 z m 1.464,-2.41 c -0.398,0 -0.734,0.14 -1.003,0.425 -0.27,0.282 -0.422,0.723 -0.457,1.317 h 2.816 c -0.008,-0.578 -0.137,-1.012 -0.379,-1.301 -0.242,-0.297 -0.566,-0.441 -0.977,-0.441 z"
       style="fill:#000000;fill-opacity:1;fill-rule:nonzero;stroke:none"
       transform="scale(1.3333333)" />
    <path
       id="path10"
       d="M 323.77,27.383 V 50.539 L 210.656,50.422"
       style="fill:none;stroke:#000000;stroke-width:1.41732;stroke-linecap:round;stroke-linejoin:miter;stroke-miterlimit:4;stroke-dasharray:none;stroke-opacity:1"
       transform="scale(1.3333333)" />
    <path
       id="path11"
       d="m 212.582,5.961 c -0.355,0.355 -9.549,-2.107 -9.679,-2.592 -0.13,-0.485 6.602,-7.214 7.086,-7.084 0.484,0.13 2.947,9.322 2.593,9.676 z"
       style="fill:#ffffff;fill-opacity:1;fill-rule:nonzero;stroke:#000000;stroke-width:1.17266;stroke-linecap:round;stroke-linejoin:round;stroke-miterlimit:4;stroke-dasharray:none;stroke-opacity:1"
       transform="matrix(1.3333333,0.31164133,-0.35726533,1.1630587,0,0)" />
    <path
       id="path12"
       d="m 117.172,39.285 h 76.535 v 21.109 h -76.535 z"
       style="fill:#800015;fill-opacity:1;fill-rule:nonzero;stroke:#800015;stroke-width:1.41732;stroke-linecap:round;stroke-linejoin:round;stroke-miterlimit:4;stroke-dasharray:none;stroke-opacity:1"
       transform="scale(1.3333333)" />
    <path
       id="path13"
       d="m 126.129,53.465 h -0.984 l 1.996,-2.852 -1.75,-2.551 h 1.019 l 1.254,2.012 1.266,-2.012 h 0.984 l -1.742,2.512 1.988,2.891 h -1.055 l -1.476,-2.32 z m 7.469,-0.598 c 0.414,0 0.742,-0.074 0.984,-0.23 0.238,-0.153 0.359,-0.364 0.359,-0.625 0,-0.16 -0.031,-0.301 -0.093,-0.422 -0.059,-0.117 -0.18,-0.227 -0.364,-0.32 -0.187,-0.102 -0.468,-0.2 -0.851,-0.293 -0.375,-0.094 -0.699,-0.2 -0.977,-0.321 -0.273,-0.121 -0.484,-0.281 -0.64,-0.476 -0.149,-0.192 -0.223,-0.446 -0.223,-0.758 0,-0.453 0.187,-0.813 0.566,-1.078 0.379,-0.262 0.875,-0.395 1.485,-0.395 0.433,0 0.812,0.059 1.133,0.176 0.324,0.117 0.597,0.258 0.824,0.422 l -0.379,0.582 c -0.203,-0.141 -0.426,-0.254 -0.676,-0.344 -0.246,-0.09 -0.543,-0.137 -0.894,-0.137 -0.422,0 -0.723,0.067 -0.903,0.2 -0.176,0.129 -0.265,0.3 -0.265,0.507 0,0.161 0.043,0.293 0.128,0.399 0.086,0.105 0.239,0.195 0.446,0.277 0.207,0.082 0.496,0.176 0.863,0.274 0.352,0.093 0.656,0.207 0.922,0.34 0.262,0.128 0.465,0.3 0.609,0.511 0.149,0.207 0.219,0.481 0.219,0.817 0,0.382 -0.109,0.691 -0.328,0.933 -0.219,0.235 -0.5,0.406 -0.848,0.516 -0.347,0.105 -0.711,0.16 -1.097,0.16 -0.493,0 -0.907,-0.07 -1.254,-0.211 -0.34,-0.144 -0.629,-0.316 -0.86,-0.519 l 0.493,-0.567 c 0.211,0.172 0.453,0.317 0.726,0.426 0.277,0.105 0.574,0.156 0.895,0.156 z m 7.547,-7.086 0.863,0.11 v 7.574 h -0.754 l -0.082,-0.715 c -0.203,0.289 -0.434,0.496 -0.699,0.633 -0.258,0.133 -0.539,0.199 -0.836,0.199 -0.469,0 -0.856,-0.117 -1.16,-0.355 -0.301,-0.235 -0.528,-0.563 -0.676,-0.985 -0.145,-0.422 -0.219,-0.914 -0.219,-1.472 0,-0.54 0.082,-1.02 0.25,-1.446 0.168,-0.426 0.41,-0.762 0.723,-1.004 0.32,-0.246 0.699,-0.371 1.144,-0.371 0.598,0 1.078,0.215 1.446,0.637 z m -1.219,2.864 c -0.453,0 -0.801,0.175 -1.043,0.527 -0.242,0.351 -0.363,0.883 -0.363,1.598 0,1.41 0.433,2.113 1.296,2.113 0.305,0 0.567,-0.086 0.786,-0.254 0.218,-0.176 0.398,-0.375 0.543,-0.598 v -2.695 c -0.149,-0.219 -0.325,-0.391 -0.532,-0.508 -0.211,-0.125 -0.437,-0.183 -0.687,-0.183 z m 5.351,0.402 c 0,-0.227 0.078,-0.422 0.239,-0.582 0.16,-0.164 0.355,-0.242 0.589,-0.242 0.239,0 0.438,0.078 0.594,0.242 0.16,0.16 0.242,0.355 0.242,0.582 0,0.23 -0.082,0.426 -0.242,0.59 -0.156,0.164 -0.355,0.246 -0.594,0.246 -0.234,0 -0.429,-0.082 -0.589,-0.246 -0.161,-0.164 -0.239,-0.36 -0.239,-0.59 z m 0,3.699 c 0,-0.223 0.078,-0.418 0.239,-0.582 0.16,-0.164 0.355,-0.246 0.589,-0.246 0.239,0 0.438,0.082 0.594,0.246 0.16,0.164 0.242,0.359 0.242,0.582 0,0.231 -0.082,0.43 -0.242,0.594 -0.156,0.16 -0.355,0.242 -0.594,0.242 -0.234,0 -0.429,-0.082 -0.589,-0.242 -0.161,-0.164 -0.239,-0.363 -0.239,-0.594 z m 6.782,0.121 c 0.418,0 0.746,-0.074 0.984,-0.23 0.238,-0.153 0.359,-0.364 0.359,-0.625 0,-0.16 -0.031,-0.301 -0.093,-0.422 -0.059,-0.117 -0.18,-0.227 -0.364,-0.32 -0.183,-0.102 -0.468,-0.2 -0.851,-0.293 -0.371,-0.094 -0.699,-0.2 -0.973,-0.321 -0.273,-0.121 -0.488,-0.281 -0.644,-0.476 -0.149,-0.196 -0.223,-0.446 -0.223,-0.758 0,-0.453 0.187,-0.813 0.566,-1.078 0.383,-0.262 0.875,-0.395 1.485,-0.395 0.433,0 0.812,0.059 1.133,0.176 0.324,0.117 0.601,0.258 0.824,0.422 l -0.379,0.582 c -0.199,-0.141 -0.426,-0.254 -0.676,-0.344 -0.246,-0.09 -0.543,-0.137 -0.895,-0.137 -0.421,0 -0.722,0.067 -0.902,0.2 -0.176,0.129 -0.265,0.3 -0.265,0.507 0,0.161 0.043,0.293 0.128,0.399 0.09,0.105 0.239,0.195 0.446,0.277 0.207,0.082 0.496,0.176 0.863,0.274 0.352,0.093 0.66,0.207 0.922,0.34 0.262,0.128 0.465,0.3 0.609,0.511 0.149,0.207 0.223,0.481 0.223,0.817 0,0.382 -0.109,0.691 -0.328,0.929 -0.219,0.239 -0.504,0.41 -0.852,0.52 -0.347,0.105 -0.711,0.16 -1.097,0.16 -0.489,0 -0.907,-0.07 -1.254,-0.211 -0.34,-0.144 -0.629,-0.316 -0.86,-0.519 l 0.493,-0.567 c 0.21,0.172 0.453,0.317 0.726,0.426 0.277,0.105 0.574,0.156 0.895,0.156 z m 8.605,0.324 c -0.187,0.121 -0.41,0.219 -0.672,0.289 -0.265,0.067 -0.523,0.102 -0.773,0.102 -0.582,0 -1.031,-0.152 -1.344,-0.457 -0.316,-0.305 -0.473,-0.695 -0.473,-1.176 V 48.73 h -1.242 v -0.668 h 1.242 v -1.226 l 0.86,-0.102 v 1.328 h 1.867 l -0.102,0.668 h -1.765 v 3.211 c 0,0.301 0.078,0.528 0.238,0.688 0.16,0.156 0.426,0.234 0.793,0.234 0.203,0 0.391,-0.023 0.559,-0.07 0.171,-0.051 0.332,-0.109 0.476,-0.188 z m 1.918,0.274 v -0.664 h 0.84 v -4.074 h -0.84 v -0.665 h 1.496 l 0.16,1.278 c 0.207,-0.445 0.461,-0.789 0.758,-1.031 0.297,-0.243 0.692,-0.364 1.18,-0.364 0.152,0 0.285,0.012 0.398,0.035 0.121,0.02 0.242,0.051 0.367,0.082 l -0.125,1.829 h -0.707 v -1.149 c -0.011,0 -0.027,0 -0.047,0 -0.828,0 -1.421,0.59 -1.777,1.774 v 2.285 h 1.098 v 0.664 z m 8.148,-7.93 c 0.192,0 0.344,0.059 0.458,0.176 0.113,0.113 0.171,0.258 0.171,0.426 0,0.172 -0.058,0.32 -0.171,0.437 -0.114,0.117 -0.266,0.176 -0.458,0.176 -0.183,0 -0.332,-0.059 -0.445,-0.176 -0.117,-0.117 -0.176,-0.265 -0.176,-0.437 0,-0.168 0.059,-0.313 0.176,-0.426 0.113,-0.117 0.262,-0.176 0.445,-0.176 z m 0.688,2.527 v 4.719 h 1.523 v 0.684 h -4.054 v -0.684 h 1.668 v -4.035 h -1.614 v -0.684 z m 3.418,5.403 v -5.403 h 0.734 l 0.067,0.75 c 0.218,-0.277 0.492,-0.488 0.82,-0.636 0.328,-0.149 0.648,-0.227 0.965,-0.227 0.531,0 0.914,0.141 1.152,0.422 0.246,0.281 0.367,0.672 0.367,1.168 v 3.926 h -0.863 v -3.289 c 0,-0.367 -0.019,-0.668 -0.062,-0.891 -0.039,-0.226 -0.129,-0.394 -0.262,-0.5 -0.129,-0.105 -0.328,-0.156 -0.598,-0.156 -0.215,0 -0.414,0.043 -0.601,0.137 -0.184,0.093 -0.352,0.207 -0.496,0.347 -0.145,0.137 -0.266,0.278 -0.36,0.418 v 3.934 z m 10.547,-5.977 0.265,0.813 c -0.234,0.07 -0.48,0.113 -0.738,0.133 -0.258,0.015 -0.539,0.023 -0.844,0.023 0.629,0.289 0.942,0.742 0.942,1.359 0,0.536 -0.18,0.973 -0.539,1.321 -0.356,0.343 -0.852,0.515 -1.492,0.515 -0.184,0 -0.336,-0.007 -0.457,-0.023 -0.122,-0.02 -0.235,-0.043 -0.348,-0.078 -0.082,0.058 -0.152,0.133 -0.207,0.23 -0.051,0.094 -0.074,0.192 -0.074,0.293 0,0.129 0.05,0.238 0.152,0.324 0.102,0.082 0.293,0.125 0.57,0.125 h 0.973 c 0.363,0 0.687,0.067 0.976,0.196 0.286,0.129 0.512,0.308 0.68,0.527 0.168,0.219 0.25,0.469 0.25,0.746 0,0.528 -0.222,0.938 -0.676,1.219 -0.449,0.285 -1.082,0.426 -1.902,0.426 -0.574,0 -1.027,-0.059 -1.359,-0.18 -0.332,-0.113 -0.571,-0.293 -0.711,-0.539 -0.141,-0.238 -0.211,-0.539 -0.211,-0.906 h 0.777 c 0,0.207 0.043,0.383 0.125,0.519 0.082,0.137 0.231,0.239 0.445,0.301 0.215,0.07 0.524,0.102 0.93,0.102 0.594,0 1.028,-0.075 1.301,-0.223 0.273,-0.149 0.41,-0.367 0.41,-0.664 0,-0.254 -0.117,-0.449 -0.348,-0.578 -0.234,-0.129 -0.523,-0.196 -0.871,-0.196 h -0.964 c -0.469,0 -0.813,-0.101 -1.032,-0.308 -0.218,-0.203 -0.328,-0.442 -0.328,-0.707 0,-0.367 0.199,-0.684 0.594,-0.942 -0.606,-0.324 -0.906,-0.82 -0.906,-1.492 0,-0.367 0.089,-0.691 0.273,-0.972 0.18,-0.282 0.434,-0.504 0.758,-0.664 0.324,-0.161 0.699,-0.243 1.121,-0.243 0.457,0 0.824,-0.019 1.109,-0.054 0.285,-0.039 0.528,-0.094 0.727,-0.161 0.207,-0.07 0.414,-0.148 0.629,-0.242 z m -2.465,1.086 c -0.434,0 -0.754,0.121 -0.961,0.356 -0.207,0.234 -0.309,0.535 -0.309,0.89 0,0.368 0.102,0.668 0.313,0.907 0.211,0.234 0.539,0.351 0.98,0.351 0.379,0 0.668,-0.109 0.871,-0.332 0.2,-0.223 0.301,-0.531 0.301,-0.93 0,-0.828 -0.398,-1.242 -1.195,-1.242 z"
       style="fill:#ffffff;fill-opacity:1;fill-rule:nonzero;stroke:none"
       transform="scale(1.3333333)" />
    <path
       id="path14"
       d="m 285.055,0 h 81.761 c 3.461,0 6.246,2.785 6.246,6.246 v 8.617 c 0,3.461 -2.785,6.246 -6.246,6.246 h -81.761 c -3.457,0 -6.246,-2.785 -6.246,-6.246 V 6.246 C 278.809,2.785 281.598,0 285.055,0 Z"
       style="fill:#007580;fill-opacity:1;fill-rule:nonzero;stroke:none"
       transform="scale(1.3333333)" />
    <path
       id="path15"
       d="m 290.477,6.496 0.859,0.109 v 7.575 h -0.754 L 290.5,13.465 c -0.199,0.289 -0.434,0.496 -0.695,0.633 -0.262,0.132 -0.539,0.199 -0.836,0.199 -0.469,0 -0.856,-0.117 -1.16,-0.356 -0.305,-0.234 -0.532,-0.562 -0.676,-0.984 -0.149,-0.422 -0.223,-0.914 -0.223,-1.473 0,-0.539 0.086,-1.019 0.254,-1.445 0.168,-0.426 0.406,-0.762 0.723,-1.004 0.316,-0.246 0.699,-0.371 1.144,-0.371 0.598,0 1.078,0.215 1.446,0.637 z m -1.223,2.859 c -0.449,0 -0.797,0.18 -1.039,0.532 -0.242,0.351 -0.363,0.883 -0.363,1.597 0,1.411 0.429,2.114 1.296,2.114 0.305,0 0.567,-0.086 0.786,-0.254 0.218,-0.176 0.398,-0.375 0.543,-0.598 V 10.051 C 290.328,9.832 290.152,9.66 289.941,9.543 289.734,9.418 289.504,9.355 289.254,9.355 Z m 6.875,-3.105 c 0.191,0 0.344,0.059 0.461,0.176 0.113,0.113 0.172,0.258 0.172,0.426 0,0.171 -0.059,0.32 -0.172,0.437 -0.117,0.117 -0.27,0.176 -0.461,0.176 -0.188,0 -0.336,-0.059 -0.449,-0.176 -0.114,-0.117 -0.168,-0.266 -0.168,-0.437 0,-0.168 0.054,-0.313 0.168,-0.426 0.113,-0.117 0.261,-0.176 0.449,-0.176 z m 0.805,2.527 v 4.535 c 0,0.602 -0.137,1.106 -0.411,1.512 -0.273,0.406 -0.664,0.731 -1.175,0.973 -0.512,0.246 -1.133,0.433 -1.856,0.555 l -0.144,-0.664 c 0.531,-0.09 1.004,-0.223 1.414,-0.403 0.41,-0.176 0.73,-0.422 0.961,-0.726 0.23,-0.309 0.347,-0.707 0.347,-1.192 V 9.461 h -2.246 V 8.777 Z m 3.48,-2.257 v 2.996 c 0.211,-0.282 0.473,-0.493 0.781,-0.637 0.309,-0.141 0.625,-0.215 0.942,-0.215 0.527,0 0.91,0.141 1.156,0.422 0.242,0.281 0.363,0.668 0.363,1.168 v 3.926 h -0.863 v -3.907 c 0,-0.324 -0.074,-0.558 -0.227,-0.707 -0.148,-0.148 -0.382,-0.222 -0.707,-0.222 -0.203,0 -0.398,0.043 -0.582,0.136 -0.187,0.094 -0.351,0.208 -0.5,0.344 -0.144,0.137 -0.265,0.278 -0.363,0.422 v 3.934 h -0.859 V 6.613 Z m 9.578,7.386 c -0.183,0.121 -0.406,0.219 -0.672,0.285 -0.261,0.071 -0.519,0.106 -0.773,0.106 -0.582,0 -1.027,-0.152 -1.344,-0.457 -0.312,-0.305 -0.473,-0.695 -0.473,-1.176 V 9.445 h -1.238 V 8.777 h 1.238 V 7.551 l 0.864,-0.102 v 1.328 h 1.867 l -0.102,0.668 h -1.765 v 3.211 c 0,0.301 0.078,0.528 0.234,0.688 0.16,0.156 0.426,0.234 0.797,0.234 0.199,0 0.387,-0.023 0.559,-0.07 0.171,-0.051 0.328,-0.11 0.476,-0.188 z m 3.078,-4.144 c 0,-0.227 0.078,-0.422 0.235,-0.582 0.164,-0.164 0.359,-0.242 0.59,-0.242 0.242,0 0.437,0.078 0.597,0.242 0.16,0.16 0.238,0.355 0.238,0.582 0,0.23 -0.078,0.426 -0.238,0.59 -0.16,0.164 -0.355,0.246 -0.597,0.246 -0.231,0 -0.426,-0.082 -0.59,-0.246 -0.157,-0.164 -0.235,-0.36 -0.235,-0.59 z m 0,3.699 c 0,-0.223 0.078,-0.418 0.235,-0.582 0.164,-0.164 0.359,-0.246 0.59,-0.246 0.242,0 0.437,0.082 0.597,0.246 0.16,0.164 0.238,0.359 0.238,0.582 0,0.23 -0.078,0.43 -0.238,0.594 -0.16,0.16 -0.355,0.242 -0.597,0.242 -0.231,0 -0.426,-0.082 -0.59,-0.242 -0.157,-0.164 -0.235,-0.364 -0.235,-0.594 z m 7.586,-6.457 c 0.461,0 0.848,0.058 1.156,0.176 0.313,0.113 0.61,0.285 0.891,0.511 l -0.5,0.579 c -0.223,-0.188 -0.457,-0.321 -0.707,-0.399 -0.246,-0.082 -0.504,-0.125 -0.773,-0.125 -0.387,0 -0.746,0.094 -1.075,0.277 -0.328,0.184 -0.589,0.485 -0.793,0.911 -0.199,0.418 -0.296,0.988 -0.296,1.711 0,0.699 0.093,1.261 0.281,1.687 0.191,0.422 0.449,0.73 0.773,0.918 0.325,0.188 0.688,0.281 1.09,0.281 0.391,0 0.715,-0.058 0.973,-0.179 0.262,-0.118 0.48,-0.254 0.668,-0.411 l 0.461,0.586 c -0.215,0.207 -0.496,0.391 -0.84,0.543 -0.348,0.149 -0.77,0.227 -1.274,0.227 -0.574,0 -1.093,-0.141 -1.554,-0.418 -0.461,-0.277 -0.828,-0.691 -1.098,-1.234 -0.269,-0.543 -0.402,-1.211 -0.402,-2 0,-0.793 0.136,-1.461 0.41,-2 0.273,-0.543 0.644,-0.954 1.101,-1.227 0.457,-0.277 0.961,-0.414 1.508,-0.414 z M 328.035,13 c 0,0.219 0.035,0.375 0.106,0.477 0.074,0.097 0.183,0.168 0.336,0.214 l -0.211,0.606 c -0.235,-0.031 -0.438,-0.106 -0.61,-0.223 -0.176,-0.117 -0.301,-0.297 -0.379,-0.539 -0.195,0.25 -0.441,0.442 -0.734,0.57 -0.293,0.129 -0.609,0.192 -0.961,0.192 -0.539,0 -0.965,-0.152 -1.277,-0.457 -0.309,-0.305 -0.465,-0.707 -0.465,-1.211 0,-0.559 0.219,-0.984 0.652,-1.281 0.434,-0.297 1.059,-0.446 1.883,-0.446 h 0.793 v -0.453 c 0,-0.39 -0.113,-0.664 -0.344,-0.824 -0.226,-0.164 -0.539,-0.246 -0.941,-0.246 -0.18,0 -0.387,0.019 -0.629,0.066 -0.238,0.039 -0.496,0.11 -0.777,0.211 L 324.25,9.004 c 0.328,-0.125 0.637,-0.211 0.93,-0.262 0.293,-0.051 0.57,-0.078 0.836,-0.078 0.668,0 1.172,0.16 1.511,0.473 0.34,0.316 0.508,0.738 0.508,1.273 z m -2.23,0.641 c 0.265,0 0.519,-0.067 0.757,-0.203 0.243,-0.137 0.446,-0.325 0.606,-0.563 v -1.391 h -0.781 c -0.594,0 -1.012,0.106 -1.258,0.309 -0.246,0.207 -0.367,0.48 -0.367,0.824 0,0.684 0.347,1.024 1.043,1.024 z m 8.804,0.265 c -0.183,0.121 -0.41,0.219 -0.671,0.285 -0.262,0.071 -0.52,0.106 -0.774,0.106 -0.582,0 -1.031,-0.152 -1.344,-0.457 -0.316,-0.305 -0.472,-0.695 -0.472,-1.176 V 9.445 h -1.243 V 8.777 h 1.243 V 7.551 l 0.863,-0.102 v 1.328 h 1.863 l -0.101,0.668 h -1.762 v 3.211 c 0,0.301 0.078,0.528 0.234,0.688 0.16,0.156 0.426,0.234 0.793,0.234 0.203,0 0.391,-0.023 0.563,-0.07 0.168,-0.051 0.328,-0.11 0.476,-0.188 z m 2.543,-2.125 c 0.024,0.629 0.188,1.082 0.493,1.371 0.308,0.286 0.671,0.426 1.085,0.426 0.278,0 0.528,-0.043 0.75,-0.125 0.223,-0.082 0.454,-0.203 0.692,-0.363 l 0.406,0.57 c -0.25,0.199 -0.535,0.356 -0.859,0.465 -0.328,0.113 -0.66,0.172 -0.996,0.172 -0.528,0 -0.977,-0.117 -1.344,-0.356 -0.367,-0.234 -0.649,-0.562 -0.84,-0.984 -0.191,-0.422 -0.289,-0.914 -0.289,-1.473 0,-0.546 0.098,-1.031 0.289,-1.457 0.191,-0.422 0.465,-0.754 0.82,-1 0.356,-0.242 0.77,-0.363 1.25,-0.363 0.68,0 1.215,0.238 1.606,0.707 0.394,0.473 0.59,1.121 0.59,1.941 0,0.09 -0.004,0.18 -0.012,0.262 -0.004,0.082 -0.008,0.153 -0.012,0.207 z m 1.469,-2.41 c -0.402,0 -0.738,0.145 -1.008,0.426 -0.269,0.285 -0.422,0.723 -0.457,1.32 h 2.817 c -0.008,-0.578 -0.137,-1.012 -0.379,-1.305 -0.242,-0.292 -0.567,-0.441 -0.973,-0.441 z m 8.399,-1.168 0.265,0.813 c -0.23,0.07 -0.476,0.113 -0.738,0.132 -0.254,0.016 -0.535,0.024 -0.84,0.024 0.625,0.289 0.938,0.742 0.938,1.359 0,0.535 -0.18,0.973 -0.54,1.317 -0.355,0.347 -0.851,0.519 -1.492,0.519 -0.179,0 -0.332,-0.008 -0.457,-0.023 -0.117,-0.02 -0.234,-0.043 -0.347,-0.078 -0.082,0.058 -0.149,0.132 -0.204,0.23 -0.05,0.094 -0.078,0.192 -0.078,0.293 0,0.129 0.051,0.238 0.153,0.32 0.105,0.086 0.293,0.129 0.57,0.129 h 0.977 c 0.359,0 0.683,0.067 0.972,0.196 0.285,0.128 0.516,0.308 0.684,0.527 0.164,0.219 0.25,0.469 0.25,0.746 0,0.527 -0.227,0.938 -0.676,1.219 -0.449,0.285 -1.082,0.426 -1.902,0.426 -0.578,0 -1.028,-0.059 -1.36,-0.18 -0.332,-0.117 -0.57,-0.293 -0.715,-0.539 -0.14,-0.238 -0.21,-0.539 -0.21,-0.906 h 0.781 c 0,0.207 0.039,0.382 0.121,0.519 0.082,0.137 0.23,0.234 0.449,0.301 0.215,0.07 0.524,0.101 0.926,0.101 0.594,0 1.031,-0.074 1.305,-0.222 0.273,-0.149 0.41,-0.371 0.41,-0.664 0,-0.254 -0.117,-0.45 -0.352,-0.578 -0.23,-0.129 -0.523,-0.196 -0.871,-0.196 h -0.965 c -0.469,0 -0.808,-0.101 -1.027,-0.308 -0.223,-0.203 -0.332,-0.442 -0.332,-0.707 0,-0.368 0.199,-0.684 0.597,-0.946 -0.605,-0.32 -0.91,-0.816 -0.91,-1.492 0,-0.363 0.094,-0.687 0.274,-0.969 0.179,-0.281 0.433,-0.504 0.758,-0.664 0.324,-0.16 0.699,-0.242 1.125,-0.242 0.453,0 0.824,-0.019 1.105,-0.055 0.285,-0.039 0.527,-0.093 0.731,-0.16 0.203,-0.07 0.414,-0.148 0.625,-0.242 z m -2.461,1.086 c -0.434,0 -0.758,0.121 -0.965,0.356 -0.203,0.234 -0.309,0.535 -0.309,0.89 0,0.367 0.106,0.668 0.313,0.903 0.214,0.238 0.539,0.355 0.98,0.355 0.379,0 0.672,-0.109 0.871,-0.332 0.203,-0.223 0.305,-0.531 0.305,-0.93 0,-0.828 -0.399,-1.242 -1.195,-1.242 z m 6.281,-0.625 c 0.762,0 1.34,0.254 1.726,0.766 0.391,0.508 0.586,1.191 0.586,2.047 0,0.55 -0.09,1.035 -0.265,1.461 -0.18,0.421 -0.442,0.757 -0.785,1 -0.344,0.238 -0.77,0.359 -1.274,0.359 -0.762,0 -1.34,-0.258 -1.73,-0.77 -0.395,-0.511 -0.59,-1.195 -0.59,-2.043 0,-0.55 0.086,-1.043 0.265,-1.464 0.176,-0.43 0.438,-0.758 0.786,-0.997 0.347,-0.238 0.777,-0.359 1.281,-0.359 z m 0,0.703 c -0.465,0 -0.817,0.172 -1.055,0.52 -0.238,0.343 -0.355,0.879 -0.355,1.597 0,0.715 0.117,1.246 0.347,1.59 0.239,0.344 0.586,0.516 1.051,0.516 0.465,0 0.817,-0.176 1.047,-0.52 0.238,-0.343 0.355,-0.879 0.355,-1.593 0,-0.719 -0.117,-1.25 -0.347,-1.59 -0.235,-0.348 -0.582,-0.52 -1.043,-0.52 z m 4.148,4.813 v -0.664 h 0.84 V 9.438 h -0.84 V 8.777 h 1.496 l 0.161,1.278 c 0.21,-0.446 0.46,-0.789 0.757,-1.032 0.301,-0.242 0.692,-0.363 1.18,-0.363 0.152,0 0.285,0.012 0.402,0.035 0.118,0.02 0.243,0.047 0.364,0.082 l -0.121,1.828 h -0.711 V 9.453 c -0.012,0 -0.028,0 -0.043,0 -0.828,0 -1.422,0.594 -1.782,1.777 v 2.286 h 1.098 v 0.664 z m 10.594,-5.403 -1.894,5.438 c -0.129,0.363 -0.29,0.699 -0.485,1.004 -0.191,0.304 -0.441,0.554 -0.754,0.754 -0.308,0.203 -0.699,0.328 -1.172,0.375 l -0.132,-0.688 c 0.371,-0.062 0.664,-0.156 0.878,-0.281 0.215,-0.129 0.387,-0.289 0.508,-0.488 0.129,-0.196 0.239,-0.434 0.336,-0.711 h -0.289 l -1.887,-5.403 h 0.922 l 1.551,4.743 1.527,-4.743 z"
       style="fill:#ffffff;fill-opacity:1;fill-rule:nonzero;stroke:none"
       transform="scale(1.3333333)" />
    <path
       id="path16"
       d="m 456.172,69.285 h 81.02 v 21.109 h -81.02 z"
       style="fill:#005580;fill-opacity:1;fill-rule:nonzero;stroke:#005580;stroke-width:1.41732;stroke-linecap:round;stroke-linejoin:round;stroke-miterlimit:4;stroke-dasharray:none;stroke-opacity:1"
       transform="scale(1.3333333)" />
    <path
       id="path17"
       d="m 465.129,83.465 h -0.984 l 1.996,-2.852 -1.75,-2.551 h 1.019 l 1.254,2.012 1.266,-2.012 h 0.984 l -1.742,2.512 1.988,2.891 h -1.055 l -1.48,-2.32 z m 7.469,-0.598 c 0.414,0 0.742,-0.074 0.984,-0.23 0.238,-0.153 0.359,-0.364 0.359,-0.625 0,-0.16 -0.031,-0.301 -0.093,-0.422 -0.059,-0.117 -0.18,-0.227 -0.364,-0.32 -0.187,-0.102 -0.468,-0.2 -0.851,-0.293 -0.375,-0.094 -0.699,-0.2 -0.977,-0.321 -0.273,-0.121 -0.484,-0.281 -0.64,-0.476 -0.149,-0.192 -0.227,-0.446 -0.227,-0.758 0,-0.453 0.191,-0.813 0.57,-1.078 0.379,-0.262 0.875,-0.395 1.485,-0.395 0.433,0 0.808,0.059 1.133,0.176 0.324,0.117 0.597,0.258 0.824,0.422 l -0.379,0.582 c -0.203,-0.141 -0.43,-0.254 -0.676,-0.344 -0.246,-0.09 -0.547,-0.137 -0.894,-0.137 -0.422,0 -0.723,0.067 -0.903,0.2 -0.176,0.129 -0.265,0.3 -0.265,0.507 0,0.161 0.043,0.293 0.128,0.399 0.086,0.105 0.235,0.195 0.446,0.277 0.207,0.082 0.496,0.176 0.859,0.274 0.356,0.093 0.66,0.207 0.926,0.34 0.262,0.128 0.465,0.3 0.609,0.511 0.149,0.207 0.219,0.481 0.219,0.817 0,0.382 -0.109,0.691 -0.328,0.933 -0.219,0.235 -0.5,0.406 -0.852,0.516 -0.343,0.105 -0.711,0.16 -1.097,0.16 -0.489,0 -0.903,-0.07 -1.25,-0.211 -0.34,-0.144 -0.629,-0.316 -0.86,-0.519 l 0.493,-0.567 c 0.211,0.172 0.453,0.317 0.726,0.426 0.277,0.105 0.574,0.156 0.891,0.156 z m 7.547,-7.086 0.863,0.11 v 7.574 h -0.754 l -0.082,-0.715 c -0.203,0.289 -0.438,0.496 -0.699,0.633 -0.258,0.133 -0.539,0.199 -0.836,0.199 -0.469,0 -0.856,-0.117 -1.16,-0.355 -0.305,-0.235 -0.528,-0.563 -0.676,-0.985 -0.149,-0.422 -0.219,-0.914 -0.219,-1.472 0,-0.54 0.082,-1.02 0.25,-1.446 0.168,-0.426 0.41,-0.762 0.723,-1.004 0.32,-0.246 0.699,-0.371 1.144,-0.371 0.598,0 1.078,0.215 1.446,0.637 z m -1.219,2.864 c -0.453,0 -0.801,0.175 -1.043,0.527 -0.242,0.351 -0.363,0.883 -0.363,1.598 0,1.41 0.433,2.113 1.296,2.113 0.305,0 0.567,-0.086 0.786,-0.254 0.218,-0.176 0.398,-0.375 0.543,-0.598 v -2.695 c -0.149,-0.219 -0.325,-0.391 -0.536,-0.508 -0.207,-0.125 -0.437,-0.183 -0.683,-0.183 z m 5.351,0.402 c 0,-0.227 0.078,-0.422 0.239,-0.582 0.16,-0.164 0.355,-0.242 0.589,-0.242 0.239,0 0.438,0.078 0.594,0.242 0.16,0.16 0.239,0.355 0.239,0.582 0,0.23 -0.079,0.426 -0.239,0.59 -0.156,0.164 -0.355,0.246 -0.594,0.246 -0.234,0 -0.429,-0.082 -0.589,-0.246 -0.161,-0.164 -0.239,-0.36 -0.239,-0.59 z m 0,3.699 c 0,-0.223 0.078,-0.418 0.239,-0.582 0.16,-0.164 0.355,-0.246 0.589,-0.246 0.239,0 0.438,0.082 0.594,0.246 0.16,0.164 0.239,0.359 0.239,0.582 0,0.231 -0.079,0.43 -0.239,0.594 -0.156,0.16 -0.355,0.242 -0.594,0.242 -0.234,0 -0.429,-0.082 -0.589,-0.242 -0.161,-0.164 -0.239,-0.363 -0.239,-0.594 z m 6.993,-7.211 c 0.191,0 0.339,0.059 0.453,0.176 0.117,0.113 0.175,0.258 0.175,0.426 0,0.172 -0.058,0.32 -0.175,0.437 -0.114,0.117 -0.262,0.176 -0.453,0.176 -0.184,0 -0.332,-0.059 -0.45,-0.176 -0.113,-0.117 -0.172,-0.265 -0.172,-0.437 0,-0.168 0.059,-0.313 0.172,-0.426 0.118,-0.117 0.266,-0.176 0.45,-0.176 z m 0.683,2.527 v 4.719 h 1.524 v 0.684 h -4.051 v -0.684 h 1.668 v -4.035 h -1.617 v -0.684 z m 3.422,5.403 v -5.403 h 0.734 l 0.067,0.75 c 0.219,-0.277 0.492,-0.488 0.82,-0.636 0.328,-0.149 0.649,-0.227 0.965,-0.227 0.527,0 0.914,0.141 1.152,0.422 0.242,0.281 0.364,0.672 0.364,1.168 v 3.926 h -0.86 v -3.289 c 0,-0.367 -0.019,-0.668 -0.062,-0.891 -0.039,-0.226 -0.129,-0.394 -0.262,-0.5 -0.129,-0.105 -0.328,-0.156 -0.602,-0.156 -0.211,0 -0.41,0.043 -0.597,0.137 -0.184,0.093 -0.352,0.207 -0.496,0.347 -0.145,0.137 -0.266,0.278 -0.36,0.418 v 3.934 z m 10.441,-0.274 c -0.183,0.125 -0.41,0.219 -0.671,0.289 -0.262,0.067 -0.52,0.102 -0.774,0.102 -0.582,0 -1.031,-0.152 -1.344,-0.457 -0.316,-0.305 -0.472,-0.695 -0.472,-1.176 V 78.73 h -1.243 v -0.668 h 1.243 v -1.226 l 0.863,-0.102 v 1.328 h 1.863 l -0.101,0.668 h -1.762 v 3.211 c 0,0.301 0.078,0.528 0.234,0.688 0.16,0.156 0.426,0.234 0.793,0.234 0.203,0 0.391,-0.023 0.563,-0.07 0.168,-0.051 0.328,-0.109 0.476,-0.188 z m 2.543,-2.121 c 0.024,0.625 0.188,1.082 0.493,1.368 0.308,0.285 0.671,0.425 1.089,0.425 0.274,0 0.524,-0.043 0.747,-0.125 0.222,-0.082 0.453,-0.203 0.691,-0.363 l 0.406,0.57 c -0.25,0.2 -0.535,0.356 -0.859,0.465 -0.328,0.113 -0.656,0.172 -0.996,0.172 -0.528,0 -0.977,-0.117 -1.344,-0.355 -0.367,-0.235 -0.645,-0.563 -0.84,-0.985 -0.191,-0.422 -0.289,-0.914 -0.289,-1.472 0,-0.547 0.098,-1.032 0.289,-1.454 0.195,-0.425 0.469,-0.757 0.82,-1 0.356,-0.246 0.77,-0.367 1.25,-0.367 0.68,0 1.215,0.239 1.606,0.707 0.394,0.473 0.59,1.121 0.59,1.942 0,0.09 -0.004,0.179 -0.012,0.261 -0.004,0.082 -0.008,0.153 -0.012,0.211 z m 1.469,-2.414 c -0.402,0 -0.738,0.145 -1.008,0.426 -0.269,0.285 -0.422,0.727 -0.457,1.32 h 2.817 c -0.008,-0.578 -0.137,-1.011 -0.379,-1.304 -0.242,-0.293 -0.567,-0.442 -0.973,-0.442 z m 8.399,-1.168 0.265,0.813 c -0.23,0.07 -0.476,0.113 -0.738,0.133 -0.254,0.015 -0.535,0.023 -0.84,0.023 0.625,0.289 0.938,0.742 0.938,1.359 0,0.536 -0.18,0.973 -0.54,1.321 -0.355,0.343 -0.851,0.515 -1.492,0.515 -0.179,0 -0.332,-0.007 -0.453,-0.023 -0.121,-0.02 -0.238,-0.043 -0.351,-0.078 -0.082,0.058 -0.149,0.133 -0.204,0.23 -0.05,0.094 -0.078,0.192 -0.078,0.293 0,0.129 0.051,0.238 0.153,0.324 0.105,0.082 0.293,0.125 0.57,0.125 h 0.977 c 0.359,0 0.687,0.067 0.972,0.196 0.289,0.129 0.516,0.308 0.684,0.527 0.168,0.219 0.25,0.469 0.25,0.746 0,0.528 -0.227,0.938 -0.676,1.219 -0.449,0.285 -1.082,0.426 -1.902,0.426 -0.574,0 -1.028,-0.059 -1.36,-0.18 -0.332,-0.117 -0.57,-0.293 -0.714,-0.539 -0.141,-0.238 -0.211,-0.539 -0.211,-0.906 h 0.781 c 0,0.207 0.039,0.383 0.121,0.519 0.082,0.137 0.234,0.235 0.449,0.301 0.215,0.07 0.524,0.102 0.926,0.102 0.598,0 1.031,-0.075 1.305,-0.223 0.273,-0.149 0.41,-0.371 0.41,-0.664 0,-0.254 -0.117,-0.449 -0.348,-0.578 -0.234,-0.129 -0.523,-0.196 -0.875,-0.196 h -0.961 c -0.469,0 -0.812,-0.101 -1.031,-0.308 -0.219,-0.203 -0.328,-0.442 -0.328,-0.707 0,-0.367 0.195,-0.684 0.594,-0.942 -0.606,-0.324 -0.907,-0.82 -0.907,-1.496 0,-0.363 0.09,-0.687 0.27,-0.968 0.183,-0.282 0.433,-0.504 0.758,-0.664 0.328,-0.161 0.699,-0.243 1.125,-0.243 0.453,0 0.824,-0.019 1.109,-0.054 0.281,-0.039 0.523,-0.094 0.727,-0.161 0.203,-0.07 0.414,-0.148 0.625,-0.242 z m -2.461,1.086 c -0.434,0 -0.758,0.121 -0.965,0.356 -0.203,0.234 -0.309,0.535 -0.309,0.89 0,0.368 0.106,0.668 0.313,0.907 0.215,0.234 0.539,0.351 0.98,0.351 0.379,0 0.672,-0.109 0.871,-0.332 0.203,-0.223 0.305,-0.531 0.305,-0.93 0,-0.828 -0.399,-1.242 -1.195,-1.242 z m 4.902,2.496 c 0.023,0.625 0.187,1.082 0.492,1.368 0.309,0.285 0.672,0.425 1.086,0.425 0.277,0 0.527,-0.043 0.75,-0.125 0.223,-0.082 0.453,-0.203 0.692,-0.363 l 0.406,0.57 c -0.25,0.2 -0.535,0.356 -0.864,0.465 -0.324,0.113 -0.656,0.172 -0.992,0.172 -0.527,0 -0.976,-0.117 -1.343,-0.355 -0.368,-0.235 -0.649,-0.563 -0.844,-0.985 -0.192,-0.422 -0.285,-0.914 -0.285,-1.472 0,-0.547 0.093,-1.032 0.285,-1.454 0.195,-0.425 0.469,-0.757 0.82,-1 0.356,-0.246 0.774,-0.367 1.254,-0.367 0.68,0 1.215,0.239 1.605,0.707 0.391,0.473 0.59,1.121 0.59,1.942 0,0.09 -0.004,0.179 -0.011,0.261 -0.004,0.082 -0.008,0.153 -0.012,0.211 z m 1.465,-2.414 c -0.399,0 -0.735,0.145 -1.004,0.426 -0.27,0.285 -0.422,0.727 -0.457,1.32 h 2.816 c -0.008,-0.578 -0.136,-1.011 -0.379,-1.304 -0.242,-0.293 -0.566,-0.442 -0.976,-0.442 z m 4.062,4.809 v -0.664 h 0.84 v -4.074 h -0.84 v -0.665 h 1.5 l 0.157,1.278 c 0.21,-0.445 0.46,-0.789 0.761,-1.031 0.297,-0.243 0.688,-0.364 1.176,-0.364 0.152,0 0.285,0.012 0.402,0.035 0.118,0.02 0.243,0.047 0.364,0.082 l -0.121,1.829 h -0.711 v -1.153 c -0.012,0 -0.028,0 -0.043,0 -0.828,0 -1.422,0.594 -1.782,1.778 v 2.285 h 1.098 v 0.664 z"
       style="fill:#ffffff;fill-opacity:1;fill-rule:nonzero;stroke:none"
       transform="scale(1.3333333)" />
  </g>
</svg>
