<?xml version="1.0" encoding="UTF-8" standalone="no"?>
<!-- Created with Inkscape (http://www.inkscape.org/) -->

<svg
   version="1.1"
   id="svg1"
   width="869.29132"
   height="126.46792"
   viewBox="0 0 869.29132 126.46792"
   sodipodi:docname="privatelink.pdf"
   xmlns:inkscape="http://www.inkscape.org/namespaces/inkscape"
   xmlns:sodipodi="http://sodipodi.sourceforge.net/DTD/sodipodi-0.dtd"
   xmlns="http://www.w3.org/2000/svg"
   xmlns:svg="http://www.w3.org/2000/svg">
  <defs
     id="defs1" />
  <sodipodi:namedview
     id="namedview1"
     pagecolor="#ffffff"
     bordercolor="#000000"
     borderopacity="0.25"
     inkscape:showpageshadow="2"
     inkscape:pageopacity="0.0"
     inkscape:pagecheckerboard="0"
     inkscape:deskcolor="#d1d1d1">
    <inkscape:page
       x="0"
       y="0"
       inkscape:label="1"
       id="page1"
       width="869.29132"
       height="126.46792"
       margin="0"
       bleed="0" />
  </sodipodi:namedview>
  <g
     id="g1"
     inkscape:groupmode="layer"
     inkscape:label="1">
    <path
       id="path1"
       d="m 216.992,38.469 0.86,0.109 v 7.574 h -0.754 l -0.082,-0.714 c -0.2,0.289 -0.434,0.5 -0.696,0.632 -0.261,0.133 -0.539,0.2 -0.836,0.2 -0.468,0 -0.855,-0.118 -1.16,-0.352 -0.304,-0.238 -0.531,-0.566 -0.676,-0.988 -0.148,-0.422 -0.222,-0.914 -0.222,-1.469 0,-0.543 0.086,-1.023 0.254,-1.449 0.168,-0.426 0.406,-0.762 0.722,-1.004 0.317,-0.246 0.7,-0.367 1.145,-0.367 0.598,0 1.078,0.211 1.445,0.632 z m -1.222,2.863 c -0.45,0 -0.797,0.176 -1.04,0.527 -0.242,0.352 -0.363,0.887 -0.363,1.602 0,1.406 0.43,2.113 1.297,2.113 0.305,0 0.566,-0.086 0.785,-0.258 0.219,-0.175 0.399,-0.375 0.543,-0.593 v -2.7 c -0.148,-0.218 -0.324,-0.386 -0.535,-0.507 -0.207,-0.121 -0.437,-0.184 -0.687,-0.184 z m 6.875,-3.109 c 0.191,0 0.343,0.058 0.46,0.175 0.114,0.118 0.172,0.258 0.172,0.426 0,0.176 -0.058,0.321 -0.172,0.442 -0.117,0.117 -0.269,0.172 -0.46,0.172 -0.188,0 -0.336,-0.055 -0.45,-0.172 -0.113,-0.121 -0.168,-0.27 -0.168,-0.442 0,-0.168 0.055,-0.308 0.168,-0.426 0.114,-0.117 0.262,-0.175 0.45,-0.175 z m 0.804,2.527 v 4.535 c 0,0.602 -0.137,1.106 -0.41,1.512 -0.273,0.406 -0.664,0.734 -1.176,0.976 -0.511,0.247 -1.133,0.43 -1.855,0.555 l -0.145,-0.668 c 0.532,-0.09 1.004,-0.222 1.414,-0.402 0.411,-0.176 0.731,-0.418 0.961,-0.727 0.231,-0.308 0.348,-0.703 0.348,-1.191 V 41.434 H 220.34 V 40.75 Z m 3.481,-2.254 v 2.996 c 0.211,-0.281 0.472,-0.496 0.781,-0.637 0.309,-0.144 0.625,-0.214 0.941,-0.214 0.528,0 0.91,0.136 1.157,0.418 0.242,0.281 0.363,0.671 0.363,1.171 v 3.922 h -0.863 V 42.25 c 0,-0.324 -0.075,-0.562 -0.227,-0.707 -0.148,-0.152 -0.383,-0.227 -0.707,-0.227 -0.203,0 -0.398,0.047 -0.582,0.137 -0.188,0.094 -0.352,0.207 -0.5,0.344 -0.145,0.137 -0.266,0.277 -0.363,0.422 v 3.933 h -0.86 v -7.566 z m 9.578,7.383 c -0.184,0.125 -0.406,0.219 -0.672,0.289 -0.262,0.066 -0.52,0.102 -0.774,0.102 -0.582,0 -1.027,-0.153 -1.343,-0.458 -0.313,-0.304 -0.473,-0.695 -0.473,-1.171 v -3.223 h -1.238 V 40.75 h 1.238 v -1.223 l 0.863,-0.105 v 1.328 h 1.868 l -0.102,0.668 h -1.766 v 3.211 c 0,0.301 0.079,0.531 0.235,0.687 0.16,0.157 0.426,0.235 0.797,0.235 0.199,0 0.386,-0.024 0.558,-0.071 0.172,-0.046 0.328,-0.109 0.477,-0.183 z m 3.078,-4.141 c 0,-0.23 0.078,-0.426 0.234,-0.586 0.164,-0.16 0.36,-0.242 0.59,-0.242 0.242,0 0.438,0.082 0.598,0.242 0.16,0.16 0.238,0.356 0.238,0.586 0,0.227 -0.078,0.426 -0.238,0.59 -0.16,0.164 -0.356,0.246 -0.598,0.246 -0.23,0 -0.426,-0.082 -0.59,-0.246 -0.156,-0.164 -0.234,-0.363 -0.234,-0.59 z m 0,3.696 c 0,-0.223 0.078,-0.414 0.234,-0.579 0.164,-0.164 0.36,-0.246 0.59,-0.246 0.242,0 0.438,0.082 0.598,0.246 0.16,0.165 0.238,0.356 0.238,0.579 0,0.234 -0.078,0.429 -0.238,0.593 -0.16,0.161 -0.356,0.243 -0.598,0.243 -0.23,0 -0.426,-0.082 -0.59,-0.243 -0.156,-0.164 -0.234,-0.359 -0.234,-0.593 z m 5.621,-1.676 c 0.023,0.625 0.188,1.082 0.492,1.367 0.309,0.285 0.672,0.426 1.086,0.426 0.277,0 0.527,-0.039 0.75,-0.121 0.223,-0.082 0.453,-0.203 0.692,-0.364 l 0.406,0.567 c -0.25,0.199 -0.535,0.355 -0.863,0.469 -0.325,0.113 -0.657,0.168 -0.993,0.168 -0.527,0 -0.976,-0.118 -1.343,-0.352 -0.368,-0.238 -0.649,-0.566 -0.844,-0.988 -0.192,-0.422 -0.285,-0.914 -0.285,-1.469 0,-0.547 0.093,-1.035 0.285,-1.457 0.195,-0.426 0.469,-0.758 0.82,-1 0.356,-0.242 0.774,-0.363 1.254,-0.363 0.68,0 1.215,0.234 1.606,0.707 0.39,0.472 0.589,1.117 0.589,1.937 0,0.094 -0.004,0.18 -0.011,0.262 -0.004,0.082 -0.008,0.152 -0.012,0.211 z m 1.465,-2.41 c -0.399,0 -0.734,0.14 -1.004,0.425 -0.27,0.282 -0.422,0.723 -0.457,1.317 h 2.816 c -0.007,-0.578 -0.136,-1.012 -0.379,-1.301 -0.242,-0.297 -0.566,-0.441 -0.976,-0.441 z m 4.535,4.804 h -0.984 l 1.996,-2.851 -1.75,-2.551 h 1.019 l 1.25,2.012 1.27,-2.012 h 0.984 l -1.746,2.516 1.992,2.886 h -1.058 l -1.477,-2.32 z m 8.047,-5.511 c 0.476,0 0.859,0.113 1.144,0.347 0.286,0.231 0.493,0.559 0.618,0.985 0.129,0.422 0.191,0.914 0.191,1.476 0,0.543 -0.078,1.028 -0.23,1.457 -0.153,0.422 -0.379,0.758 -0.688,1 -0.309,0.242 -0.695,0.364 -1.164,0.364 -0.59,0 -1.066,-0.208 -1.426,-0.625 v 2.574 l -0.863,0.109 V 40.75 h 0.734 l 0.075,0.754 c 0.195,-0.274 0.433,-0.488 0.707,-0.641 0.273,-0.148 0.574,-0.222 0.902,-0.222 z m -0.207,0.691 c -0.297,0 -0.559,0.09 -0.789,0.27 -0.231,0.179 -0.414,0.378 -0.559,0.597 v 2.676 c 0.141,0.207 0.317,0.375 0.528,0.496 0.214,0.121 0.453,0.18 0.707,0.18 0.449,0 0.785,-0.168 1.011,-0.512 0.227,-0.344 0.34,-0.875 0.34,-1.594 0,-1.41 -0.414,-2.113 -1.238,-2.113 z m 5.992,-3.109 c 0.191,0 0.344,0.058 0.453,0.175 0.117,0.118 0.176,0.258 0.176,0.426 0,0.176 -0.059,0.321 -0.176,0.442 -0.109,0.117 -0.262,0.172 -0.453,0.172 -0.184,0 -0.332,-0.055 -0.449,-0.172 -0.113,-0.121 -0.172,-0.27 -0.172,-0.442 0,-0.168 0.059,-0.308 0.172,-0.426 0.117,-0.117 0.265,-0.175 0.449,-0.175 z m 0.688,2.527 v 4.719 h 1.519 v 0.683 h -4.051 v -0.683 h 1.668 v -4.035 h -1.617 V 40.75 Z m 3.468,5.402 v -0.66 h 0.844 v -4.078 h -0.844 V 40.75 h 1.5 l 0.157,1.277 c 0.21,-0.441 0.464,-0.785 0.761,-1.031 0.297,-0.242 0.688,-0.363 1.18,-0.363 0.148,0 0.281,0.012 0.398,0.039 0.121,0.019 0.243,0.047 0.364,0.078 l -0.121,1.828 h -0.707 V 41.43 c -0.016,0 -0.032,0 -0.047,0 -0.828,0 -1.422,0.59 -1.782,1.773 v 2.289 h 1.098 v 0.66 z m 6.782,-2.394 c 0.023,0.625 0.187,1.082 0.492,1.367 0.308,0.285 0.668,0.426 1.086,0.426 0.277,0 0.527,-0.039 0.75,-0.121 0.222,-0.082 0.453,-0.203 0.691,-0.364 l 0.406,0.567 c -0.25,0.199 -0.539,0.355 -0.863,0.469 -0.324,0.113 -0.656,0.168 -0.992,0.168 -0.527,0 -0.977,-0.118 -1.344,-0.352 -0.367,-0.238 -0.648,-0.566 -0.844,-0.988 -0.191,-0.422 -0.285,-0.914 -0.285,-1.469 0,-0.547 0.094,-1.035 0.285,-1.457 0.196,-0.426 0.469,-0.758 0.821,-1 0.355,-0.242 0.773,-0.363 1.254,-0.363 0.679,0 1.214,0.234 1.605,0.707 0.391,0.472 0.59,1.117 0.59,1.937 0,0.094 -0.004,0.18 -0.012,0.262 -0.004,0.082 -0.008,0.152 -0.012,0.211 z m 1.464,-2.41 c -0.398,0 -0.734,0.14 -1.003,0.425 -0.27,0.282 -0.422,0.723 -0.458,1.317 h 2.817 c -0.012,-0.578 -0.137,-1.012 -0.379,-1.301 -0.242,-0.297 -0.57,-0.441 -0.977,-0.441 z m 5.848,4.211 c 0.418,0 0.746,-0.079 0.984,-0.231 0.239,-0.156 0.36,-0.363 0.36,-0.629 0,-0.16 -0.031,-0.301 -0.094,-0.418 -0.059,-0.121 -0.18,-0.226 -0.363,-0.324 -0.184,-0.098 -0.469,-0.195 -0.852,-0.293 -0.371,-0.09 -0.695,-0.199 -0.972,-0.316 -0.274,-0.125 -0.489,-0.282 -0.641,-0.477 -0.152,-0.195 -0.227,-0.449 -0.227,-0.762 0,-0.453 0.188,-0.812 0.571,-1.074 0.379,-0.265 0.871,-0.394 1.48,-0.394 0.434,0 0.813,0.054 1.133,0.171 0.324,0.118 0.602,0.258 0.824,0.422 l -0.379,0.586 c -0.199,-0.14 -0.425,-0.258 -0.675,-0.343 -0.247,-0.094 -0.543,-0.141 -0.891,-0.141 -0.426,0 -0.727,0.066 -0.906,0.199 -0.176,0.133 -0.266,0.301 -0.266,0.508 0,0.16 0.043,0.297 0.129,0.402 0.09,0.102 0.238,0.196 0.445,0.278 0.211,0.082 0.496,0.172 0.863,0.269 0.352,0.098 0.661,0.211 0.922,0.34 0.262,0.129 0.469,0.301 0.61,0.512 0.148,0.211 0.222,0.48 0.222,0.816 0,0.383 -0.109,0.695 -0.328,0.934 -0.218,0.234 -0.504,0.406 -0.851,0.515 -0.348,0.11 -0.711,0.161 -1.098,0.161 -0.488,0 -0.906,-0.071 -1.25,-0.211 -0.344,-0.141 -0.629,-0.317 -0.863,-0.516 l 0.492,-0.57 c 0.211,0.175 0.453,0.316 0.727,0.425 0.277,0.106 0.574,0.161 0.894,0.161 z m 3.801,2.453 v -0.754 h 5.129 v 0.754 z m 9.902,-9.543 0.86,0.109 v 7.574 h -0.754 l -0.082,-0.714 c -0.2,0.289 -0.434,0.5 -0.696,0.632 -0.261,0.133 -0.539,0.2 -0.836,0.2 -0.468,0 -0.855,-0.118 -1.16,-0.352 -0.304,-0.238 -0.531,-0.566 -0.676,-0.988 -0.148,-0.422 -0.222,-0.914 -0.222,-1.469 0,-0.543 0.086,-1.023 0.254,-1.449 0.168,-0.426 0.406,-0.762 0.722,-1.004 0.317,-0.246 0.7,-0.367 1.145,-0.367 0.598,0 1.078,0.211 1.445,0.632 z m -1.222,2.863 c -0.45,0 -0.797,0.176 -1.04,0.527 -0.242,0.352 -0.363,0.887 -0.363,1.602 0,1.406 0.43,2.113 1.297,2.113 0.305,0 0.566,-0.086 0.785,-0.258 0.219,-0.175 0.399,-0.375 0.543,-0.593 v -2.7 c -0.148,-0.218 -0.324,-0.386 -0.535,-0.507 -0.207,-0.121 -0.437,-0.184 -0.687,-0.184 z m 8.011,3.641 c 0,0.218 0.035,0.379 0.11,0.476 0.07,0.098 0.179,0.172 0.332,0.215 l -0.211,0.606 c -0.231,-0.032 -0.438,-0.106 -0.61,-0.219 -0.175,-0.121 -0.3,-0.301 -0.379,-0.539 -0.195,0.25 -0.441,0.437 -0.734,0.57 -0.289,0.125 -0.609,0.188 -0.961,0.188 -0.539,0 -0.965,-0.153 -1.273,-0.458 -0.313,-0.304 -0.469,-0.707 -0.469,-1.21 0,-0.555 0.219,-0.985 0.652,-1.282 0.434,-0.297 1.063,-0.445 1.883,-0.445 h 0.793 v -0.453 c 0,-0.387 -0.113,-0.664 -0.344,-0.824 -0.226,-0.164 -0.539,-0.246 -0.941,-0.246 -0.18,0 -0.387,0.023 -0.629,0.066 -0.238,0.043 -0.496,0.113 -0.777,0.211 l -0.227,-0.652 c 0.328,-0.122 0.637,-0.211 0.93,-0.262 0.293,-0.051 0.57,-0.074 0.836,-0.074 0.668,0 1.172,0.156 1.511,0.468 0.34,0.317 0.508,0.739 0.508,1.274 z m -2.23,0.64 c 0.265,0 0.519,-0.066 0.758,-0.199 0.242,-0.137 0.445,-0.324 0.605,-0.566 v -1.387 h -0.777 c -0.598,0 -1.016,0.101 -1.262,0.305 -0.246,0.207 -0.367,0.48 -0.367,0.828 0,0.679 0.347,1.019 1.043,1.019 z m 8.804,0.266 c -0.183,0.125 -0.41,0.219 -0.671,0.289 -0.262,0.066 -0.52,0.102 -0.774,0.102 -0.582,0 -1.031,-0.153 -1.344,-0.458 -0.316,-0.304 -0.472,-0.695 -0.472,-1.171 v -3.223 h -1.242 v -0.664 h 1.242 v -1.227 l 0.863,-0.105 v 1.328 h 1.863 l -0.101,0.668 h -1.762 v 3.211 c 0,0.301 0.078,0.531 0.234,0.687 0.161,0.157 0.426,0.235 0.793,0.235 0.204,0 0.391,-0.024 0.563,-0.071 0.168,-0.046 0.328,-0.109 0.476,-0.183 z m 2.543,-2.121 c 0.024,0.625 0.188,1.082 0.493,1.367 0.308,0.285 0.671,0.426 1.089,0.426 0.274,0 0.524,-0.039 0.747,-0.121 0.222,-0.082 0.453,-0.203 0.691,-0.364 l 0.406,0.567 c -0.25,0.199 -0.535,0.355 -0.859,0.469 -0.328,0.113 -0.656,0.168 -0.996,0.168 -0.528,0 -0.977,-0.118 -1.344,-0.352 -0.367,-0.238 -0.645,-0.566 -0.84,-0.988 -0.191,-0.422 -0.289,-0.914 -0.289,-1.469 0,-0.547 0.098,-1.035 0.289,-1.457 0.195,-0.426 0.469,-0.758 0.82,-1 0.356,-0.242 0.77,-0.363 1.25,-0.363 0.68,0 1.215,0.234 1.606,0.707 0.394,0.472 0.59,1.117 0.59,1.937 0,0.094 -0.004,0.18 -0.012,0.262 -0.004,0.082 -0.008,0.152 -0.012,0.211 z m 1.469,-2.41 c -0.402,0 -0.738,0.14 -1.008,0.425 -0.269,0.282 -0.421,0.723 -0.457,1.317 h 2.817 c -0.008,-0.578 -0.137,-1.012 -0.379,-1.301 -0.242,-0.297 -0.567,-0.441 -0.973,-0.441 z"
       style="fill:#000000;fill-opacity:1;fill-rule:nonzero;stroke:none"
       transform="scale(1.3333333)" />
    <path
       id="path2"
       d="m 340.516,38.469 0.863,0.109 v 7.574 h -0.754 l -0.082,-0.711 c -0.203,0.286 -0.434,0.497 -0.699,0.629 -0.258,0.133 -0.539,0.2 -0.836,0.2 -0.469,0 -0.856,-0.118 -1.16,-0.352 -0.301,-0.238 -0.528,-0.566 -0.676,-0.984 -0.145,-0.426 -0.219,-0.918 -0.219,-1.473 0,-0.539 0.082,-1.023 0.25,-1.445 0.168,-0.43 0.41,-0.766 0.723,-1.008 0.32,-0.246 0.699,-0.367 1.144,-0.367 0.598,0 1.078,0.211 1.446,0.636 z m -1.219,2.863 c -0.453,0 -0.801,0.176 -1.043,0.527 -0.242,0.352 -0.363,0.887 -0.363,1.602 0,1.406 0.433,2.113 1.297,2.113 0.304,0 0.566,-0.086 0.785,-0.258 0.218,-0.175 0.398,-0.371 0.543,-0.593 v -2.7 c -0.149,-0.218 -0.325,-0.386 -0.532,-0.507 -0.211,-0.121 -0.437,-0.184 -0.687,-0.184 z m 6.871,-3.109 c 0.191,0 0.344,0.058 0.461,0.175 0.117,0.118 0.176,0.258 0.176,0.426 0,0.176 -0.059,0.321 -0.176,0.442 -0.117,0.117 -0.27,0.175 -0.461,0.175 -0.184,0 -0.332,-0.058 -0.445,-0.175 -0.114,-0.121 -0.172,-0.266 -0.172,-0.442 0,-0.168 0.058,-0.308 0.172,-0.426 0.113,-0.117 0.261,-0.175 0.445,-0.175 z m 0.805,2.531 v 4.531 c 0,0.602 -0.137,1.106 -0.411,1.512 -0.269,0.41 -0.66,0.734 -1.175,0.976 -0.512,0.247 -1.129,0.43 -1.856,0.555 l -0.144,-0.668 c 0.535,-0.09 1.008,-0.222 1.418,-0.398 0.41,-0.18 0.73,-0.422 0.957,-0.731 0.234,-0.308 0.347,-0.703 0.347,-1.187 v -3.91 h -2.246 v -0.68 z m 3.48,-2.258 v 2.996 c 0.215,-0.281 0.473,-0.492 0.781,-0.637 0.313,-0.144 0.625,-0.214 0.942,-0.214 0.527,0 0.914,0.14 1.156,0.418 0.242,0.281 0.363,0.671 0.363,1.171 v 3.922 h -0.859 V 42.25 c 0,-0.324 -0.078,-0.562 -0.227,-0.707 -0.152,-0.152 -0.386,-0.227 -0.707,-0.227 -0.207,0 -0.402,0.047 -0.586,0.137 -0.183,0.094 -0.351,0.207 -0.496,0.344 -0.148,0.137 -0.269,0.277 -0.367,0.422 v 3.933 h -0.859 V 38.59 Z m 9.582,7.383 c -0.187,0.125 -0.41,0.219 -0.672,0.289 -0.265,0.07 -0.523,0.102 -0.773,0.102 -0.582,0 -1.031,-0.153 -1.344,-0.458 -0.316,-0.3 -0.473,-0.695 -0.473,-1.171 v -3.223 h -1.242 v -0.664 h 1.242 v -1.227 l 0.86,-0.101 v 1.328 h 1.867 l -0.102,0.664 h -1.765 v 3.211 c 0,0.301 0.078,0.531 0.238,0.687 0.16,0.157 0.426,0.235 0.793,0.235 0.203,0 0.391,-0.024 0.559,-0.071 0.172,-0.046 0.332,-0.109 0.476,-0.183 z m 3.074,-4.141 c 0,-0.23 0.082,-0.426 0.239,-0.586 0.16,-0.16 0.355,-0.242 0.59,-0.242 0.238,0 0.437,0.082 0.593,0.242 0.16,0.16 0.242,0.356 0.242,0.586 0,0.227 -0.082,0.426 -0.242,0.59 -0.156,0.164 -0.355,0.246 -0.593,0.246 -0.235,0 -0.43,-0.082 -0.59,-0.246 -0.157,-0.164 -0.239,-0.363 -0.239,-0.59 z m 0,3.696 c 0,-0.223 0.082,-0.414 0.239,-0.579 0.16,-0.164 0.355,-0.246 0.59,-0.246 0.238,0 0.437,0.082 0.593,0.246 0.16,0.165 0.242,0.356 0.242,0.579 0,0.234 -0.082,0.433 -0.242,0.597 -0.156,0.16 -0.355,0.239 -0.593,0.239 -0.235,0 -0.43,-0.079 -0.59,-0.239 -0.157,-0.164 -0.239,-0.363 -0.239,-0.597 z m 8.813,-0.461 c 0,0.218 0.035,0.379 0.105,0.476 0.075,0.102 0.184,0.172 0.336,0.215 l -0.211,0.606 c -0.234,-0.032 -0.437,-0.102 -0.609,-0.219 -0.176,-0.121 -0.301,-0.301 -0.379,-0.539 -0.195,0.25 -0.441,0.437 -0.734,0.57 -0.293,0.125 -0.61,0.188 -0.961,0.188 -0.539,0 -0.965,-0.153 -1.278,-0.458 -0.308,-0.3 -0.464,-0.707 -0.464,-1.207 0,-0.558 0.218,-0.984 0.652,-1.285 0.433,-0.297 1.059,-0.445 1.879,-0.445 h 0.797 v -0.449 c 0,-0.391 -0.114,-0.668 -0.344,-0.828 -0.227,-0.164 -0.539,-0.246 -0.945,-0.246 -0.176,0 -0.383,0.023 -0.625,0.066 -0.239,0.043 -0.496,0.113 -0.778,0.211 l -0.226,-0.652 c 0.328,-0.122 0.636,-0.207 0.929,-0.262 0.293,-0.051 0.571,-0.074 0.836,-0.074 0.668,0 1.172,0.156 1.512,0.472 0.34,0.313 0.508,0.739 0.508,1.27 z m -2.231,0.64 c 0.266,0 0.52,-0.066 0.758,-0.199 0.242,-0.137 0.446,-0.324 0.606,-0.562 v -1.391 h -0.782 c -0.593,0 -1.015,0.101 -1.261,0.309 -0.242,0.203 -0.364,0.48 -0.364,0.824 0,0.679 0.348,1.019 1.043,1.019 z m 4.516,0.539 v -5.398 h 0.734 l 0.067,0.746 c 0.219,-0.277 0.492,-0.488 0.82,-0.633 0.328,-0.152 0.649,-0.226 0.965,-0.226 0.531,0 0.914,0.14 1.152,0.418 0.246,0.281 0.367,0.671 0.367,1.171 v 3.922 h -0.863 v -3.285 c 0,-0.371 -0.019,-0.668 -0.062,-0.894 -0.039,-0.227 -0.129,-0.391 -0.262,-0.496 -0.129,-0.106 -0.328,-0.161 -0.598,-0.161 -0.215,0 -0.414,0.047 -0.601,0.137 -0.184,0.094 -0.352,0.211 -0.496,0.352 -0.145,0.136 -0.266,0.273 -0.36,0.414 v 3.933 z m 8.211,-5.511 c 0.762,0 1.34,0.254 1.73,0.761 0.387,0.512 0.582,1.192 0.582,2.047 0,0.551 -0.085,1.039 -0.265,1.461 -0.18,0.426 -0.438,0.758 -0.785,1 -0.344,0.242 -0.77,0.36 -1.27,0.36 -0.765,0 -1.344,-0.254 -1.734,-0.77 -0.395,-0.512 -0.59,-1.191 -0.59,-2.039 0,-0.555 0.09,-1.043 0.266,-1.469 0.179,-0.426 0.441,-0.758 0.785,-0.992 0.347,-0.242 0.777,-0.359 1.281,-0.359 z m 0,0.703 c -0.465,0 -0.816,0.172 -1.055,0.515 -0.238,0.348 -0.355,0.879 -0.355,1.602 0,0.715 0.117,1.242 0.347,1.59 0.239,0.34 0.59,0.511 1.055,0.511 0.465,0 0.813,-0.171 1.043,-0.515 0.238,-0.348 0.356,-0.879 0.356,-1.598 0,-0.719 -0.118,-1.246 -0.348,-1.59 -0.234,-0.343 -0.582,-0.515 -1.043,-0.515 z m 4.098,4.808 v -5.398 h 0.734 l 0.066,0.746 c 0.219,-0.277 0.493,-0.488 0.821,-0.633 0.328,-0.152 0.648,-0.226 0.965,-0.226 0.527,0 0.914,0.14 1.152,0.418 0.242,0.281 0.363,0.671 0.363,1.171 v 3.922 h -0.859 v -3.285 c 0,-0.371 -0.02,-0.668 -0.063,-0.894 -0.039,-0.227 -0.129,-0.391 -0.261,-0.496 -0.129,-0.106 -0.329,-0.161 -0.602,-0.161 -0.211,0 -0.41,0.047 -0.598,0.137 -0.183,0.094 -0.351,0.211 -0.496,0.352 -0.144,0.136 -0.265,0.273 -0.359,0.414 v 3.933 z m 10.648,-5.398 -1.898,5.434 c -0.129,0.367 -0.289,0.703 -0.485,1.007 -0.191,0.301 -0.441,0.555 -0.754,0.754 -0.304,0.199 -0.699,0.324 -1.172,0.371 l -0.132,-0.687 c 0.371,-0.059 0.664,-0.153 0.879,-0.281 0.218,-0.125 0.386,-0.29 0.507,-0.485 0.129,-0.195 0.239,-0.433 0.336,-0.715 h -0.289 l -1.886,-5.398 h 0.921 l 1.551,4.742 1.528,-4.742 z m 5.219,-0.113 c 0.172,0 0.336,0.035 0.496,0.113 0.16,0.074 0.293,0.219 0.394,0.434 0.106,0.214 0.157,0.531 0.157,0.945 v 4.019 h -0.801 V 42.27 c 0,-0.336 -0.02,-0.582 -0.063,-0.731 -0.039,-0.152 -0.156,-0.227 -0.351,-0.227 -0.16,0 -0.324,0.051 -0.485,0.153 -0.16,0.101 -0.312,0.265 -0.46,0.492 v 4.195 h -0.805 V 42.27 c 0,-0.336 -0.02,-0.582 -0.063,-0.731 -0.039,-0.152 -0.156,-0.227 -0.351,-0.227 -0.168,0 -0.332,0.051 -0.489,0.153 -0.156,0.101 -0.308,0.265 -0.457,0.492 v 4.195 h -0.793 v -5.398 h 0.676 l 0.051,0.625 c 0.149,-0.211 0.313,-0.383 0.492,-0.524 0.184,-0.144 0.414,-0.214 0.684,-0.214 0.203,0 0.398,0.05 0.578,0.148 0.18,0.094 0.316,0.285 0.398,0.563 0.149,-0.211 0.317,-0.383 0.5,-0.512 0.184,-0.133 0.414,-0.199 0.692,-0.199 z m 4.64,-2.418 c 0.192,0 0.344,0.058 0.457,0.175 0.118,0.118 0.176,0.258 0.176,0.426 0,0.176 -0.058,0.321 -0.176,0.442 -0.113,0.117 -0.265,0.175 -0.457,0.175 -0.179,0 -0.328,-0.058 -0.445,-0.175 -0.117,-0.121 -0.176,-0.266 -0.176,-0.442 0,-0.168 0.059,-0.308 0.176,-0.426 0.117,-0.117 0.266,-0.175 0.445,-0.175 z m 0.688,2.531 v 4.715 h 1.523 v 0.683 h -4.05 v -0.683 h 1.664 v -4.035 h -1.614 v -0.68 z m 4.496,4.664 h 3.008 l -0.113,0.734 h -3.95 V 45.5 l 2.996,-4 h -2.761 v -0.746 h 3.797 v 0.664 z m 5.754,-1.66 c 0.027,0.625 0.191,1.082 0.492,1.371 0.309,0.281 0.672,0.422 1.09,0.422 0.277,0 0.523,-0.039 0.746,-0.121 0.223,-0.082 0.453,-0.203 0.695,-0.364 l 0.403,0.567 c -0.25,0.199 -0.535,0.355 -0.86,0.469 -0.324,0.113 -0.656,0.168 -0.996,0.168 -0.527,0 -0.972,-0.118 -1.343,-0.352 -0.368,-0.238 -0.645,-0.566 -0.84,-0.984 -0.192,-0.426 -0.289,-0.914 -0.289,-1.473 0,-0.547 0.097,-1.031 0.289,-1.457 0.195,-0.426 0.468,-0.758 0.82,-1 0.355,-0.242 0.773,-0.363 1.25,-0.363 0.68,0 1.215,0.234 1.605,0.707 0.395,0.472 0.59,1.117 0.59,1.937 0,0.094 -0.004,0.18 -0.011,0.262 -0.004,0.082 -0.008,0.152 -0.012,0.211 z m 1.469,-2.41 c -0.403,0 -0.735,0.14 -1.004,0.425 -0.274,0.286 -0.426,0.723 -0.457,1.317 h 2.812 c -0.008,-0.578 -0.133,-1.012 -0.379,-1.301 -0.242,-0.293 -0.566,-0.441 -0.972,-0.441 z"
       style="fill:#000000;fill-opacity:1;fill-rule:nonzero;stroke:none"
       transform="scale(1.3333333)" />
    <path
       id="path3"
       d="M 323.914,31.129 V 54.285 L 221.844,54.168"
       style="fill:none;stroke:#000000;stroke-width:1.41732;stroke-linecap:round;stroke-linejoin:miter;stroke-miterlimit:4;stroke-dasharray:none;stroke-opacity:1"
       transform="scale(1.3333333)" />
    <path
       id="path4"
       d="m 223.492,7.462 c -0.355,0.355 -9.546,-2.108 -9.676,-2.593 -0.129,-0.485 6.599,-7.213 7.083,-7.083 0.484,0.13 2.947,9.322 2.593,9.676 z"
       style="fill:#ffffff;fill-opacity:1;fill-rule:nonzero;stroke:#000000;stroke-width:1.17266;stroke-linecap:round;stroke-linejoin:round;stroke-miterlimit:4;stroke-dasharray:none;stroke-opacity:1"
       transform="matrix(1.3333333,0.31164133,-0.35726533,1.1630587,0,0)" />
    <path
       id="path5"
       d="m 213.695,10.087 c -0.354,0.355 -9.545,-2.108 -9.675,-2.593 -0.13,-0.485 6.598,-7.213 7.082,-7.083 0.484,0.13 2.947,9.322 2.593,9.676 z"
       style="fill:#ffffff;fill-opacity:1;fill-rule:nonzero;stroke:#000000;stroke-width:1.17266;stroke-linecap:round;stroke-linejoin:round;stroke-miterlimit:4;stroke-dasharray:none;stroke-opacity:1"
       transform="matrix(1.3333333,0.31164133,-0.35726533,1.1630587,0,0)" />
    <path
       id="path6"
       d="m 328.113,31.133 v 23.152 l 113.11,-0.117"
       style="fill:none;stroke:#000000;stroke-width:1.41732;stroke-linecap:round;stroke-linejoin:miter;stroke-miterlimit:4;stroke-dasharray:none;stroke-opacity:1"
       transform="scale(1.3333333)" />
    <path
       id="path7"
       d="m -394.56,172.939 c -0.354,0.354 -9.545,-2.109 -9.675,-2.593 -0.13,-0.485 6.598,-7.214 7.083,-7.084 0.484,0.13 2.947,9.322 2.592,9.677 z"
       style="fill:#ffffff;fill-opacity:1;fill-rule:nonzero;stroke:#000000;stroke-width:1.17266;stroke-linecap:round;stroke-linejoin:round;stroke-miterlimit:4;stroke-dasharray:none;stroke-opacity:1"
       transform="matrix(-1.3333333,0.31164133,0.35726533,1.1630587,0,0)" />
    <path
       id="path8"
       d="m 340.516,68.469 0.863,0.109 v 7.574 h -0.754 l -0.082,-0.711 c -0.203,0.286 -0.434,0.497 -0.699,0.629 -0.258,0.133 -0.539,0.2 -0.836,0.2 -0.469,0 -0.856,-0.118 -1.16,-0.352 -0.301,-0.238 -0.528,-0.566 -0.676,-0.984 -0.145,-0.426 -0.219,-0.914 -0.219,-1.473 0,-0.539 0.082,-1.023 0.25,-1.445 0.168,-0.43 0.41,-0.766 0.723,-1.008 0.32,-0.246 0.699,-0.367 1.144,-0.367 0.598,0 1.078,0.211 1.446,0.636 z m -1.219,2.863 c -0.453,0 -0.801,0.176 -1.043,0.527 -0.242,0.352 -0.363,0.887 -0.363,1.602 0,1.406 0.433,2.113 1.297,2.113 0.304,0 0.566,-0.086 0.785,-0.258 0.218,-0.175 0.398,-0.371 0.543,-0.593 v -2.7 c -0.149,-0.218 -0.325,-0.386 -0.532,-0.507 -0.211,-0.121 -0.437,-0.184 -0.687,-0.184 z m 6.871,-3.109 c 0.191,0 0.344,0.058 0.461,0.175 0.117,0.118 0.176,0.258 0.176,0.426 0,0.176 -0.059,0.321 -0.176,0.442 -0.117,0.117 -0.27,0.175 -0.461,0.175 -0.184,0 -0.332,-0.058 -0.445,-0.175 -0.114,-0.121 -0.172,-0.266 -0.172,-0.442 0,-0.168 0.058,-0.308 0.172,-0.426 0.113,-0.117 0.261,-0.175 0.445,-0.175 z m 0.805,2.531 v 4.531 c 0,0.602 -0.137,1.106 -0.411,1.512 -0.269,0.41 -0.66,0.734 -1.175,0.976 -0.512,0.247 -1.129,0.43 -1.856,0.555 l -0.144,-0.668 c 0.535,-0.09 1.008,-0.222 1.418,-0.398 0.41,-0.18 0.73,-0.422 0.957,-0.731 0.234,-0.308 0.347,-0.703 0.347,-1.187 v -3.91 h -2.246 v -0.68 z m 3.48,-2.258 v 2.996 c 0.215,-0.281 0.473,-0.492 0.781,-0.637 0.313,-0.144 0.625,-0.214 0.942,-0.214 0.527,0 0.914,0.14 1.156,0.418 0.242,0.281 0.363,0.671 0.363,1.171 v 3.922 h -0.859 V 72.25 c 0,-0.324 -0.078,-0.562 -0.227,-0.707 -0.152,-0.152 -0.386,-0.227 -0.707,-0.227 -0.207,0 -0.402,0.047 -0.586,0.141 -0.183,0.09 -0.351,0.203 -0.496,0.344 -0.148,0.137 -0.269,0.273 -0.367,0.418 v 3.933 h -0.859 V 68.59 Z m 9.582,7.387 c -0.187,0.121 -0.41,0.219 -0.672,0.285 -0.265,0.07 -0.523,0.102 -0.773,0.102 -0.582,0 -1.031,-0.153 -1.344,-0.458 -0.316,-0.3 -0.473,-0.695 -0.473,-1.171 v -3.223 h -1.242 v -0.664 h 1.242 v -1.227 l 0.86,-0.101 v 1.328 h 1.867 l -0.102,0.664 h -1.765 v 3.211 c 0,0.301 0.078,0.531 0.238,0.687 0.16,0.157 0.426,0.235 0.793,0.235 0.203,0 0.391,-0.024 0.559,-0.071 0.172,-0.046 0.332,-0.109 0.476,-0.183 z m 3.074,-4.145 c 0,-0.23 0.082,-0.426 0.239,-0.586 0.16,-0.16 0.355,-0.242 0.59,-0.242 0.238,0 0.437,0.082 0.593,0.242 0.16,0.16 0.242,0.356 0.242,0.586 0,0.227 -0.082,0.426 -0.242,0.59 -0.156,0.164 -0.355,0.246 -0.593,0.246 -0.235,0 -0.43,-0.082 -0.59,-0.246 -0.157,-0.164 -0.239,-0.363 -0.239,-0.59 z m 0,3.696 c 0,-0.223 0.082,-0.414 0.239,-0.579 0.16,-0.164 0.355,-0.246 0.59,-0.246 0.238,0 0.437,0.082 0.593,0.246 0.16,0.165 0.242,0.356 0.242,0.579 0,0.234 -0.082,0.433 -0.242,0.597 -0.156,0.16 -0.355,0.239 -0.593,0.239 -0.235,0 -0.43,-0.079 -0.59,-0.239 -0.157,-0.164 -0.239,-0.363 -0.239,-0.597 z m 6.993,-7.211 c 0.191,0 0.343,0.058 0.457,0.175 0.113,0.118 0.171,0.258 0.171,0.426 0,0.176 -0.058,0.321 -0.171,0.442 -0.114,0.117 -0.266,0.175 -0.457,0.175 -0.184,0 -0.332,-0.058 -0.446,-0.175 -0.117,-0.121 -0.176,-0.266 -0.176,-0.442 0,-0.168 0.059,-0.308 0.176,-0.426 0.114,-0.117 0.262,-0.175 0.446,-0.175 z m 0.687,2.531 v 4.715 h 1.523 v 0.683 h -4.054 v -0.683 h 1.668 v -4.035 h -1.614 v -0.68 z m 5.254,4.805 c 0.418,0 0.746,-0.079 0.984,-0.231 0.243,-0.156 0.36,-0.363 0.36,-0.625 0,-0.164 -0.032,-0.301 -0.09,-0.422 -0.059,-0.121 -0.18,-0.226 -0.367,-0.324 -0.184,-0.098 -0.465,-0.195 -0.848,-0.293 -0.375,-0.09 -0.699,-0.195 -0.977,-0.316 -0.273,-0.125 -0.488,-0.282 -0.64,-0.477 -0.153,-0.195 -0.227,-0.449 -0.227,-0.758 0,-0.457 0.192,-0.816 0.571,-1.078 0.379,-0.262 0.875,-0.394 1.48,-0.394 0.434,0 0.813,0.058 1.133,0.171 0.328,0.118 0.601,0.258 0.828,0.422 l -0.379,0.586 c -0.203,-0.14 -0.43,-0.254 -0.68,-0.343 -0.246,-0.094 -0.543,-0.141 -0.89,-0.141 -0.426,0 -0.727,0.066 -0.903,0.203 -0.179,0.129 -0.265,0.297 -0.265,0.508 0,0.16 0.043,0.293 0.125,0.398 0.09,0.102 0.238,0.196 0.449,0.278 0.207,0.082 0.496,0.172 0.859,0.269 0.352,0.098 0.661,0.211 0.926,0.34 0.262,0.129 0.465,0.301 0.61,0.512 0.144,0.211 0.218,0.48 0.218,0.816 0,0.383 -0.109,0.695 -0.328,0.934 -0.219,0.234 -0.5,0.41 -0.851,0.519 -0.344,0.106 -0.711,0.157 -1.098,0.157 -0.488,0 -0.906,-0.071 -1.25,-0.211 -0.344,-0.141 -0.629,-0.317 -0.863,-0.516 l 0.492,-0.57 c 0.215,0.175 0.457,0.316 0.73,0.425 0.278,0.106 0.575,0.161 0.891,0.161 z m 3.801,2.457 v -0.754 h 5.129 v 0.754 z m 10.539,-3.043 c 0,0.218 0.035,0.379 0.109,0.476 0.07,0.102 0.18,0.172 0.332,0.215 l -0.211,0.606 c -0.23,-0.032 -0.437,-0.102 -0.609,-0.219 -0.176,-0.121 -0.301,-0.301 -0.379,-0.539 -0.195,0.25 -0.441,0.437 -0.734,0.57 -0.289,0.125 -0.61,0.188 -0.961,0.188 -0.539,0 -0.965,-0.153 -1.274,-0.458 -0.312,-0.3 -0.468,-0.707 -0.468,-1.207 0,-0.558 0.218,-0.984 0.652,-1.285 0.433,-0.297 1.062,-0.445 1.883,-0.445 h 0.793 v -0.449 c 0,-0.391 -0.114,-0.668 -0.344,-0.828 -0.227,-0.164 -0.539,-0.246 -0.942,-0.246 -0.179,0 -0.386,0.023 -0.628,0.066 -0.239,0.043 -0.497,0.113 -0.778,0.211 l -0.226,-0.652 c 0.328,-0.122 0.636,-0.207 0.929,-0.262 0.293,-0.051 0.571,-0.074 0.836,-0.074 0.668,0 1.172,0.156 1.512,0.472 0.34,0.313 0.508,0.739 0.508,1.27 z m -2.231,0.64 c 0.266,0 0.52,-0.066 0.758,-0.199 0.242,-0.137 0.445,-0.324 0.606,-0.562 v -1.391 h -0.778 c -0.597,0 -1.015,0.101 -1.261,0.309 -0.247,0.203 -0.368,0.48 -0.368,0.824 0,0.679 0.348,1.019 1.043,1.019 z m 6.957,-0.086 c 0.274,0 0.524,-0.043 0.754,-0.129 0.239,-0.089 0.453,-0.203 0.653,-0.343 l 0.422,0.566 c -0.239,0.199 -0.52,0.359 -0.852,0.477 -0.332,0.113 -0.656,0.172 -0.977,0.172 -0.535,0 -0.992,-0.114 -1.371,-0.344 -0.379,-0.231 -0.664,-0.555 -0.863,-0.973 -0.199,-0.422 -0.297,-0.914 -0.297,-1.476 0,-0.539 0.098,-1.024 0.297,-1.454 0.199,-0.425 0.488,-0.761 0.867,-1.007 0.379,-0.25 0.84,-0.375 1.379,-0.375 0.688,0 1.289,0.207 1.805,0.625 l -0.418,0.574 c -0.469,-0.32 -0.934,-0.481 -1.399,-0.481 -0.464,0 -0.847,0.176 -1.148,0.528 -0.301,0.347 -0.449,0.879 -0.449,1.59 0,0.722 0.148,1.242 0.449,1.57 0.301,0.32 0.684,0.48 1.148,0.48 z m 8,0.356 c -0.183,0.121 -0.406,0.219 -0.671,0.285 -0.262,0.07 -0.52,0.102 -0.774,0.102 -0.582,0 -1.027,-0.153 -1.344,-0.458 -0.312,-0.3 -0.472,-0.695 -0.472,-1.171 v -3.223 h -1.239 v -0.664 h 1.239 v -1.227 l 0.863,-0.101 v 1.328 h 1.867 l -0.101,0.664 h -1.766 v 3.211 c 0,0.301 0.078,0.531 0.234,0.687 0.164,0.157 0.426,0.239 0.797,0.239 0.203,0 0.387,-0.028 0.559,-0.075 0.172,-0.046 0.328,-0.109 0.476,-0.183 z m 3.914,-7.66 c 0.192,0 0.344,0.058 0.457,0.175 0.118,0.118 0.176,0.258 0.176,0.426 0,0.176 -0.058,0.321 -0.176,0.442 -0.113,0.117 -0.265,0.175 -0.457,0.175 -0.179,0 -0.328,-0.058 -0.445,-0.175 -0.117,-0.121 -0.176,-0.266 -0.176,-0.442 0,-0.168 0.059,-0.308 0.176,-0.426 0.117,-0.117 0.266,-0.175 0.445,-0.175 z m 0.688,2.531 v 4.719 h 1.523 v 0.679 h -4.05 v -0.679 h 1.664 v -4.039 h -1.614 v -0.68 z m 7.922,0 -1.961,5.398 h -1 l -1.949,-5.398 h 0.91 l 1.566,4.613 1.543,-4.613 z m 2.328,3.004 c 0.027,0.625 0.191,1.082 0.492,1.371 0.309,0.281 0.672,0.426 1.09,0.426 0.277,0 0.523,-0.043 0.746,-0.125 0.223,-0.082 0.453,-0.203 0.695,-0.364 l 0.403,0.571 c -0.25,0.195 -0.535,0.351 -0.86,0.465 -0.324,0.113 -0.656,0.168 -0.996,0.168 -0.527,0 -0.972,-0.118 -1.343,-0.352 -0.368,-0.238 -0.645,-0.566 -0.84,-0.984 -0.192,-0.426 -0.289,-0.914 -0.289,-1.473 0,-0.547 0.097,-1.031 0.289,-1.457 0.195,-0.422 0.468,-0.758 0.82,-1 0.355,-0.242 0.773,-0.363 1.25,-0.363 0.68,0 1.215,0.234 1.605,0.707 0.395,0.472 0.59,1.117 0.59,1.937 0,0.094 -0.004,0.18 -0.011,0.262 -0.004,0.082 -0.008,0.152 -0.012,0.211 z m 1.469,-2.41 c -0.403,0 -0.735,0.14 -1.004,0.425 -0.274,0.286 -0.426,0.723 -0.457,1.317 h 2.812 c -0.008,-0.578 -0.133,-1.012 -0.379,-1.301 -0.242,-0.293 -0.566,-0.441 -0.972,-0.441 z"
       style="fill:#000000;fill-opacity:1;fill-rule:nonzero;stroke:none"
       transform="scale(1.3333333)" />
    <path
       id="path9"
       d="m 328.113,61.133 v 23.152 l 113.11,-0.117"
       style="fill:none;stroke:#000000;stroke-width:1.41732;stroke-linecap:round;stroke-linejoin:miter;stroke-miterlimit:4;stroke-dasharray:none;stroke-opacity:1"
       transform="scale(1.3333333)" />
    <path
       id="path10"
       d="m -385.962,205.027 c -0.354,0.355 -9.545,-2.109 -9.675,-2.593 -0.13,-0.485 6.598,-7.214 7.083,-7.084 0.484,0.13 2.947,9.322 2.592,9.677 z"
       style="fill:#ffffff;fill-opacity:1;fill-rule:nonzero;stroke:#000000;stroke-width:1.17266;stroke-linecap:round;stroke-linejoin:round;stroke-miterlimit:4;stroke-dasharray:none;stroke-opacity:1"
       transform="matrix(-1.3333333,0.31164133,0.35726533,1.1630587,0,0)" />
    <path
       id="path11"
       d="m 253.688,68.469 0.863,0.109 v 7.574 h -0.754 l -0.082,-0.711 c -0.203,0.286 -0.434,0.497 -0.699,0.629 -0.258,0.133 -0.539,0.2 -0.836,0.2 -0.469,0 -0.852,-0.118 -1.157,-0.352 -0.304,-0.238 -0.531,-0.566 -0.679,-0.984 -0.145,-0.426 -0.219,-0.914 -0.219,-1.473 0,-0.539 0.082,-1.023 0.25,-1.445 0.168,-0.43 0.41,-0.766 0.723,-1.008 0.32,-0.246 0.699,-0.367 1.144,-0.367 0.598,0 1.082,0.211 1.446,0.636 z m -1.219,2.863 c -0.453,0 -0.797,0.176 -1.043,0.527 -0.242,0.352 -0.364,0.887 -0.364,1.602 0,1.406 0.434,2.113 1.297,2.113 0.305,0 0.567,-0.086 0.786,-0.258 0.218,-0.175 0.402,-0.371 0.543,-0.593 v -2.7 c -0.145,-0.218 -0.325,-0.386 -0.532,-0.507 -0.211,-0.121 -0.437,-0.184 -0.687,-0.184 z m 6.871,-3.109 c 0.191,0 0.344,0.058 0.461,0.175 0.117,0.118 0.176,0.258 0.176,0.426 0,0.176 -0.059,0.321 -0.176,0.442 -0.117,0.117 -0.27,0.175 -0.461,0.175 -0.184,0 -0.332,-0.058 -0.445,-0.175 -0.114,-0.121 -0.168,-0.266 -0.168,-0.442 0,-0.168 0.054,-0.308 0.168,-0.426 0.113,-0.117 0.261,-0.175 0.445,-0.175 z m 0.805,2.531 v 4.531 c 0,0.602 -0.137,1.106 -0.411,1.512 -0.269,0.41 -0.66,0.734 -1.172,0.976 -0.515,0.247 -1.132,0.43 -1.859,0.555 l -0.141,-0.668 c 0.532,-0.09 1.004,-0.222 1.415,-0.398 0.41,-0.18 0.73,-0.422 0.957,-0.731 0.234,-0.308 0.351,-0.703 0.351,-1.187 v -3.91 h -2.246 v -0.68 z m 3.484,-2.258 v 2.996 c 0.211,-0.281 0.469,-0.492 0.777,-0.637 0.313,-0.144 0.625,-0.214 0.946,-0.214 0.523,0 0.91,0.14 1.152,0.418 0.242,0.281 0.363,0.671 0.363,1.171 v 3.922 h -0.859 V 72.25 c 0,-0.324 -0.074,-0.562 -0.227,-0.707 -0.152,-0.152 -0.386,-0.227 -0.707,-0.227 -0.207,0 -0.402,0.047 -0.586,0.141 -0.183,0.09 -0.351,0.203 -0.496,0.344 -0.148,0.137 -0.269,0.273 -0.363,0.418 v 3.933 h -0.863 V 68.59 Z m 9.578,7.387 c -0.184,0.121 -0.41,0.219 -0.672,0.285 -0.262,0.07 -0.519,0.102 -0.773,0.102 -0.582,0 -1.032,-0.153 -1.344,-0.458 -0.316,-0.3 -0.473,-0.695 -0.473,-1.171 v -3.223 h -1.242 v -0.664 h 1.242 v -1.227 l 0.864,-0.101 v 1.328 h 1.863 l -0.102,0.664 h -1.761 v 3.211 c 0,0.301 0.078,0.531 0.234,0.687 0.16,0.157 0.426,0.235 0.793,0.235 0.203,0 0.391,-0.024 0.562,-0.071 0.168,-0.046 0.329,-0.109 0.477,-0.183 z m 3.078,-4.145 c 0,-0.23 0.078,-0.426 0.235,-0.586 0.16,-0.16 0.355,-0.242 0.589,-0.242 0.239,0 0.438,0.082 0.594,0.242 0.16,0.16 0.242,0.356 0.242,0.586 0,0.227 -0.082,0.426 -0.242,0.59 -0.156,0.164 -0.355,0.246 -0.594,0.246 -0.234,0 -0.429,-0.082 -0.589,-0.246 -0.157,-0.164 -0.235,-0.363 -0.235,-0.59 z m 0,3.696 c 0,-0.223 0.078,-0.414 0.235,-0.579 0.16,-0.164 0.355,-0.246 0.589,-0.246 0.239,0 0.438,0.082 0.594,0.246 0.16,0.165 0.242,0.356 0.242,0.579 0,0.234 -0.082,0.433 -0.242,0.597 -0.156,0.16 -0.355,0.239 -0.594,0.239 -0.234,0 -0.429,-0.079 -0.589,-0.239 -0.157,-0.164 -0.235,-0.363 -0.235,-0.597 z m 6.777,0.125 c 0.418,0 0.747,-0.079 0.985,-0.231 0.242,-0.156 0.359,-0.363 0.359,-0.625 0,-0.164 -0.031,-0.301 -0.09,-0.422 -0.058,-0.121 -0.179,-0.226 -0.367,-0.324 -0.183,-0.098 -0.469,-0.195 -0.851,-0.293 -0.371,-0.09 -0.696,-0.195 -0.973,-0.316 -0.273,-0.125 -0.488,-0.282 -0.641,-0.477 -0.152,-0.195 -0.226,-0.449 -0.226,-0.758 0,-0.457 0.191,-0.816 0.57,-1.078 0.379,-0.265 0.871,-0.394 1.481,-0.394 0.433,0 0.812,0.058 1.132,0.171 0.325,0.118 0.602,0.258 0.829,0.422 l -0.379,0.586 c -0.203,-0.14 -0.43,-0.254 -0.68,-0.343 -0.246,-0.094 -0.543,-0.141 -0.891,-0.141 -0.425,0 -0.726,0.066 -0.902,0.203 -0.18,0.129 -0.27,0.297 -0.27,0.504 0,0.164 0.043,0.297 0.129,0.402 0.09,0.102 0.239,0.196 0.45,0.278 0.207,0.082 0.492,0.172 0.859,0.269 0.352,0.098 0.66,0.211 0.922,0.34 0.265,0.129 0.469,0.301 0.613,0.512 0.145,0.211 0.219,0.48 0.219,0.816 0,0.383 -0.11,0.695 -0.328,0.934 -0.219,0.234 -0.504,0.41 -0.852,0.519 -0.344,0.106 -0.711,0.157 -1.098,0.157 -0.488,0 -0.906,-0.071 -1.25,-0.211 -0.343,-0.141 -0.628,-0.317 -0.863,-0.516 l 0.492,-0.57 c 0.215,0.175 0.457,0.316 0.731,0.425 0.277,0.106 0.574,0.161 0.89,0.161 z m 5.18,-4.805 v 3.824 c 0,0.356 0.074,0.613 0.223,0.77 0.144,0.156 0.375,0.234 0.687,0.234 0.297,0 0.575,-0.082 0.84,-0.25 0.266,-0.172 0.473,-0.371 0.621,-0.605 v -3.973 h 0.86 v 5.398 h -0.731 l -0.074,-0.726 c -0.211,0.273 -0.477,0.48 -0.789,0.629 -0.313,0.144 -0.625,0.215 -0.938,0.215 -0.523,0 -0.914,-0.137 -1.175,-0.415 -0.258,-0.281 -0.383,-0.671 -0.383,-1.175 v -3.926 z m 8.485,-2.285 c 0.289,0 0.55,0.027 0.789,0.078 0.234,0.051 0.457,0.125 0.672,0.215 l -0.278,0.64 c -0.176,-0.074 -0.363,-0.129 -0.558,-0.168 -0.196,-0.039 -0.395,-0.054 -0.602,-0.054 -0.754,0 -1.133,0.297 -1.133,0.894 v 1.098 h 1.832 l -0.094,0.68 h -1.738 v 4.3 h -0.863 v -4.3 h -1.285 v -0.68 h 1.285 v -1.074 c 0,-0.336 0.086,-0.625 0.258,-0.868 0.176,-0.242 0.41,-0.429 0.707,-0.558 0.297,-0.137 0.633,-0.203 1.008,-0.203 z m 6.152,0 c 0.289,0 0.555,0.027 0.789,0.078 0.238,0.051 0.461,0.125 0.672,0.215 l -0.278,0.64 c -0.171,-0.074 -0.359,-0.129 -0.558,-0.168 -0.195,-0.039 -0.395,-0.054 -0.598,-0.054 -0.758,0 -1.136,0.297 -1.136,0.894 v 1.098 h 1.832 l -0.094,0.68 h -1.738 v 4.3 h -0.86 v -4.3 h -1.289 v -0.68 h 1.289 v -1.074 c 0,-0.336 0.086,-0.625 0.254,-0.868 0.176,-0.242 0.414,-0.429 0.711,-0.558 0.297,-0.137 0.633,-0.203 1.004,-0.203 z m 5.012,0.129 c 0.191,0 0.343,0.058 0.453,0.175 0.117,0.118 0.176,0.258 0.176,0.426 0,0.176 -0.059,0.321 -0.176,0.442 -0.11,0.117 -0.262,0.171 -0.453,0.171 -0.184,0 -0.332,-0.054 -0.45,-0.171 -0.113,-0.121 -0.171,-0.27 -0.171,-0.442 0,-0.168 0.058,-0.308 0.171,-0.426 0.118,-0.117 0.266,-0.175 0.45,-0.175 z m 0.683,2.574 v 4.297 h 1.524 v 0.683 h -4.051 v -0.683 h 1.668 v -3.617 h -1.617 v -0.68 z m 3.946,4.98 h -0.985 l 1.996,-2.851 -1.75,-2.547 h 1.02 l 1.254,2.008 1.265,-2.008 h 0.985 l -1.743,2.512 1.989,2.886 h -1.059 l -1.476,-2.316 z"
       style="fill:#000000;fill-opacity:1;fill-rule:nonzero;stroke:none"
       transform="scale(1.3333333)" />
    <path
       id="path12"
       d="M 323.777,61.133 V 84.285 L 246.758,84.168"
       style="fill:none;stroke:#000000;stroke-width:1.41732;stroke-linecap:round;stroke-linejoin:miter;stroke-miterlimit:4;stroke-dasharray:none;stroke-opacity:1"
       transform="scale(1.3333333)" />
    <path
       id="path13"
       d="m 254.45,33.429 c -0.355,0.355 -9.546,-2.108 -9.676,-2.593 -0.13,-0.485 6.599,-7.213 7.083,-7.083 0.484,0.13 2.947,9.322 2.593,9.676 z"
       style="fill:#ffffff;fill-opacity:1;fill-rule:nonzero;stroke:#000000;stroke-width:1.17266;stroke-linecap:round;stroke-linejoin:round;stroke-miterlimit:4;stroke-dasharray:none;stroke-opacity:1"
       transform="matrix(1.3333333,0.31164133,-0.35726533,1.1630587,0,0)" />
    <path
       id="path14"
       d="m 153.18,73.031 h 76.535 V 94.14 H 153.18 Z"
       style="fill:#800015;fill-opacity:1;fill-rule:nonzero;stroke:#800015;stroke-width:1.41732;stroke-linecap:round;stroke-linejoin:round;stroke-miterlimit:4;stroke-dasharray:none;stroke-opacity:1"
       transform="scale(1.3333333)" />
    <path
       id="path15"
       d="m 162.137,87.211 h -0.985 l 1.996,-2.852 -1.75,-2.547 h 1.024 l 1.25,2.008 1.266,-2.008 h 0.984 l -1.742,2.512 1.988,2.887 h -1.055 l -1.476,-2.316 z m 7.468,-0.594 c 0.418,0 0.747,-0.078 0.985,-0.23 0.238,-0.157 0.359,-0.364 0.359,-0.629 0,-0.16 -0.031,-0.301 -0.094,-0.418 -0.058,-0.121 -0.179,-0.227 -0.363,-0.324 -0.183,-0.098 -0.469,-0.196 -0.851,-0.293 -0.371,-0.09 -0.696,-0.2 -0.973,-0.317 -0.273,-0.125 -0.488,-0.281 -0.641,-0.476 -0.152,-0.196 -0.226,-0.45 -0.226,-0.762 0,-0.453 0.187,-0.813 0.566,-1.074 0.383,-0.266 0.875,-0.395 1.485,-0.395 0.433,0 0.812,0.059 1.132,0.172 0.325,0.117 0.602,0.258 0.825,0.422 l -0.379,0.586 c -0.2,-0.141 -0.426,-0.258 -0.676,-0.344 -0.246,-0.094 -0.543,-0.14 -0.891,-0.14 -0.425,0 -0.726,0.066 -0.906,0.199 -0.176,0.133 -0.266,0.301 -0.266,0.508 0,0.16 0.043,0.296 0.129,0.402 0.09,0.101 0.239,0.195 0.446,0.277 0.211,0.082 0.496,0.172 0.863,0.27 0.351,0.097 0.66,0.211 0.922,0.34 0.261,0.129 0.469,0.3 0.609,0.511 0.149,0.211 0.223,0.481 0.223,0.817 0,0.383 -0.11,0.695 -0.328,0.933 -0.219,0.235 -0.504,0.407 -0.852,0.516 -0.348,0.109 -0.711,0.16 -1.098,0.16 -0.488,0 -0.906,-0.07 -1.25,-0.211 -0.343,-0.14 -0.632,-0.316 -0.863,-0.515 l 0.492,-0.571 c 0.211,0.176 0.454,0.317 0.727,0.426 0.277,0.105 0.574,0.16 0.894,0.16 z m 7.547,-7.09 0.864,0.11 v 7.574 h -0.754 l -0.082,-0.715 c -0.203,0.289 -0.434,0.5 -0.7,0.633 -0.257,0.133 -0.535,0.199 -0.835,0.199 -0.469,0 -0.852,-0.117 -1.157,-0.351 -0.304,-0.239 -0.531,-0.567 -0.679,-0.989 -0.145,-0.422 -0.219,-0.914 -0.219,-1.468 0,-0.543 0.082,-1.024 0.25,-1.45 0.168,-0.425 0.41,-0.761 0.722,-1.004 0.321,-0.246 0.7,-0.367 1.145,-0.367 0.598,0 1.082,0.211 1.445,0.633 z m -1.218,2.864 c -0.454,0 -0.797,0.175 -1.043,0.527 -0.243,0.352 -0.364,0.887 -0.364,1.602 0,1.406 0.434,2.113 1.297,2.113 0.305,0 0.567,-0.086 0.785,-0.258 0.219,-0.176 0.403,-0.371 0.543,-0.594 v -2.699 c -0.144,-0.219 -0.324,-0.387 -0.531,-0.508 -0.211,-0.121 -0.437,-0.183 -0.687,-0.183 z m 5.355,0.406 c 0,-0.231 0.078,-0.426 0.234,-0.586 0.161,-0.16 0.356,-0.242 0.59,-0.242 0.239,0 0.438,0.082 0.594,0.242 0.16,0.16 0.242,0.355 0.242,0.586 0,0.226 -0.082,0.426 -0.242,0.59 -0.156,0.164 -0.355,0.246 -0.594,0.246 -0.234,0 -0.429,-0.082 -0.59,-0.246 -0.156,-0.164 -0.234,-0.364 -0.234,-0.59 z m 0,3.695 c 0,-0.222 0.078,-0.414 0.234,-0.578 0.161,-0.164 0.356,-0.246 0.59,-0.246 0.239,0 0.438,0.082 0.594,0.246 0.16,0.164 0.242,0.356 0.242,0.578 0,0.235 -0.082,0.43 -0.242,0.594 -0.156,0.164 -0.355,0.242 -0.594,0.242 -0.234,0 -0.429,-0.078 -0.59,-0.242 -0.156,-0.164 -0.234,-0.359 -0.234,-0.594 z m 6.777,0.125 c 0.418,0 0.746,-0.078 0.985,-0.23 0.238,-0.157 0.359,-0.364 0.359,-0.629 0,-0.16 -0.031,-0.301 -0.094,-0.418 -0.058,-0.121 -0.179,-0.227 -0.363,-0.324 -0.183,-0.098 -0.469,-0.196 -0.851,-0.293 -0.372,-0.09 -0.696,-0.2 -0.973,-0.317 -0.274,-0.125 -0.488,-0.281 -0.641,-0.476 -0.152,-0.196 -0.226,-0.45 -0.226,-0.762 0,-0.453 0.187,-0.813 0.57,-1.074 0.379,-0.266 0.871,-0.395 1.48,-0.395 0.434,0 0.813,0.059 1.133,0.172 0.325,0.117 0.602,0.258 0.828,0.422 l -0.382,0.586 c -0.2,-0.141 -0.426,-0.258 -0.676,-0.344 -0.246,-0.094 -0.543,-0.14 -0.891,-0.14 -0.426,0 -0.726,0.066 -0.902,0.199 -0.18,0.133 -0.27,0.301 -0.27,0.508 0,0.16 0.043,0.296 0.129,0.402 0.09,0.101 0.239,0.195 0.446,0.277 0.211,0.082 0.496,0.172 0.863,0.27 0.351,0.097 0.66,0.211 0.922,0.34 0.265,0.129 0.468,0.3 0.609,0.511 0.149,0.211 0.223,0.481 0.223,0.817 0,0.383 -0.11,0.695 -0.328,0.933 -0.219,0.235 -0.504,0.407 -0.852,0.516 -0.344,0.109 -0.711,0.16 -1.098,0.16 -0.488,0 -0.906,-0.07 -1.25,-0.211 -0.343,-0.14 -0.628,-0.316 -0.863,-0.515 l 0.492,-0.571 c 0.211,0.176 0.457,0.317 0.731,0.426 0.273,0.105 0.574,0.16 0.89,0.16 z m 8.606,0.321 c -0.184,0.124 -0.41,0.218 -0.672,0.289 -0.262,0.066 -0.52,0.101 -0.773,0.101 -0.582,0 -1.032,-0.152 -1.344,-0.457 -0.317,-0.305 -0.473,-0.695 -0.473,-1.172 v -3.222 h -1.242 v -0.665 h 1.242 v -1.226 l 0.863,-0.106 v 1.332 h 1.864 l -0.102,0.665 h -1.762 v 3.211 c 0,0.3 0.079,0.531 0.235,0.687 0.16,0.156 0.426,0.234 0.793,0.234 0.203,0 0.39,-0.023 0.562,-0.07 0.168,-0.047 0.328,-0.109 0.477,-0.184 z m 1.918,0.273 v -0.66 h 0.84 v -4.078 h -0.84 v -0.661 h 1.496 l 0.16,1.274 c 0.207,-0.441 0.461,-0.785 0.758,-1.027 0.297,-0.247 0.691,-0.368 1.18,-0.368 0.152,0 0.285,0.012 0.402,0.039 0.117,0.02 0.238,0.047 0.363,0.082 l -0.125,1.825 h -0.707 v -1.149 c -0.012,0 -0.027,0 -0.047,0 -0.824,0 -1.418,0.59 -1.777,1.774 v 2.289 h 1.098 v 0.66 z m 8.148,-7.93 c 0.192,0 0.344,0.059 0.457,0.176 0.117,0.117 0.176,0.258 0.176,0.426 0,0.176 -0.059,0.32 -0.176,0.441 -0.113,0.117 -0.265,0.172 -0.457,0.172 -0.179,0 -0.328,-0.055 -0.445,-0.172 -0.117,-0.121 -0.176,-0.265 -0.176,-0.441 0,-0.168 0.059,-0.309 0.176,-0.426 0.117,-0.117 0.266,-0.176 0.445,-0.176 z m 0.688,2.531 v 4.715 h 1.523 v 0.684 h -4.051 v -0.684 h 1.664 v -4.035 h -1.613 v -0.68 z m 3.422,5.399 v -5.399 h 0.73 l 0.067,0.747 c 0.218,-0.278 0.492,-0.489 0.82,-0.637 0.328,-0.149 0.652,-0.223 0.965,-0.223 0.531,0 0.914,0.141 1.156,0.418 0.242,0.281 0.363,0.672 0.363,1.172 v 3.922 h -0.863 v -3.289 c 0,-0.367 -0.02,-0.664 -0.059,-0.891 -0.043,-0.226 -0.129,-0.39 -0.261,-0.496 -0.133,-0.105 -0.332,-0.16 -0.602,-0.16 -0.211,0 -0.41,0.047 -0.602,0.137 -0.183,0.093 -0.347,0.211 -0.496,0.351 -0.144,0.137 -0.261,0.274 -0.359,0.414 v 3.934 z m 10.543,-5.977 0.265,0.813 c -0.23,0.07 -0.476,0.117 -0.738,0.133 -0.258,0.015 -0.535,0.027 -0.84,0.027 0.625,0.285 0.938,0.738 0.938,1.355 0,0.536 -0.18,0.973 -0.539,1.321 -0.356,0.344 -0.852,0.515 -1.493,0.515 -0.179,0 -0.332,-0.007 -0.457,-0.023 -0.117,-0.016 -0.234,-0.043 -0.347,-0.078 -0.082,0.058 -0.153,0.137 -0.207,0.23 -0.051,0.094 -0.075,0.192 -0.075,0.293 0,0.129 0.051,0.239 0.153,0.325 0.101,0.085 0.293,0.128 0.57,0.128 h 0.973 c 0.363,0 0.687,0.063 0.976,0.196 0.285,0.129 0.512,0.304 0.68,0.527 0.168,0.219 0.254,0.465 0.254,0.742 0,0.532 -0.227,0.938 -0.68,1.223 -0.445,0.281 -1.082,0.426 -1.902,0.426 -0.574,0 -1.027,-0.063 -1.36,-0.18 -0.328,-0.117 -0.566,-0.297 -0.71,-0.539 -0.141,-0.242 -0.211,-0.543 -0.211,-0.91 h 0.781 c 0,0.211 0.039,0.383 0.121,0.519 0.082,0.137 0.23,0.239 0.445,0.301 0.219,0.07 0.528,0.106 0.93,0.106 0.594,0 1.027,-0.079 1.301,-0.227 0.277,-0.148 0.414,-0.367 0.414,-0.66 0,-0.258 -0.117,-0.453 -0.352,-0.582 -0.23,-0.129 -0.523,-0.195 -0.871,-0.195 h -0.965 c -0.468,0 -0.812,-0.102 -1.031,-0.305 -0.219,-0.207 -0.328,-0.442 -0.328,-0.711 0,-0.367 0.199,-0.684 0.598,-0.942 -0.606,-0.32 -0.911,-0.82 -0.911,-1.492 0,-0.367 0.09,-0.691 0.274,-0.968 0.18,-0.286 0.433,-0.508 0.758,-0.668 0.324,-0.161 0.699,-0.243 1.125,-0.243 0.453,0 0.824,-0.015 1.105,-0.054 0.285,-0.039 0.527,-0.09 0.731,-0.16 0.203,-0.067 0.414,-0.149 0.625,-0.239 z m -2.461,1.09 c -0.438,0 -0.758,0.117 -0.965,0.352 -0.207,0.238 -0.309,0.535 -0.309,0.894 0,0.364 0.106,0.664 0.313,0.903 0.211,0.234 0.539,0.351 0.98,0.351 0.379,0 0.668,-0.109 0.871,-0.332 0.203,-0.222 0.305,-0.531 0.305,-0.926 0,-0.828 -0.398,-1.242 -1.195,-1.242 z"
       style="fill:#ffffff;fill-opacity:1;fill-rule:nonzero;stroke:none"
       transform="scale(1.3333333)" />
    <path
       id="path16"
       d="m 275.852,3.746 h 100.187 c 3.457,0 6.246,2.785 6.246,6.246 v 8.617 c 0,3.461 -2.789,6.246 -6.246,6.246 H 275.852 c -3.461,0 -6.247,-2.785 -6.247,-6.246 V 9.992 c 0,-3.461 2.786,-6.246 6.247,-6.246 z"
       style="fill:#000080;fill-opacity:1;fill-rule:nonzero;stroke:none"
       transform="scale(1.3333333)" />
    <path
       id="path17"
       d="m 281.273,10.242 0.86,0.11 v 7.574 h -0.754 l -0.082,-0.715 c -0.199,0.289 -0.434,0.5 -0.695,0.633 -0.262,0.133 -0.54,0.199 -0.836,0.199 -0.469,0 -0.856,-0.117 -1.161,-0.355 -0.304,-0.235 -0.531,-0.563 -0.675,-0.985 -0.149,-0.422 -0.223,-0.914 -0.223,-1.469 0,-0.543 0.086,-1.023 0.254,-1.449 0.164,-0.426 0.406,-0.762 0.723,-1.004 0.316,-0.246 0.699,-0.367 1.14,-0.367 0.602,0 1.082,0.211 1.449,0.633 z m -1.222,2.863 c -0.449,0 -0.797,0.176 -1.039,0.528 -0.242,0.351 -0.367,0.887 -0.367,1.601 0,1.407 0.433,2.114 1.3,2.114 0.301,0 0.563,-0.086 0.782,-0.258 0.218,-0.176 0.402,-0.375 0.546,-0.594 v -2.699 c -0.148,-0.219 -0.328,-0.387 -0.535,-0.508 -0.207,-0.121 -0.437,-0.184 -0.687,-0.184 z m 6.871,-3.109 c 0.191,0 0.348,0.059 0.465,0.176 0.113,0.117 0.172,0.258 0.172,0.426 0,0.172 -0.059,0.32 -0.172,0.441 -0.117,0.117 -0.274,0.172 -0.465,0.172 -0.184,0 -0.332,-0.055 -0.445,-0.172 -0.114,-0.121 -0.168,-0.269 -0.168,-0.441 0,-0.168 0.054,-0.309 0.168,-0.426 0.113,-0.117 0.261,-0.176 0.445,-0.176 z m 0.805,2.527 v 4.536 c 0,0.601 -0.137,1.105 -0.411,1.511 -0.269,0.407 -0.66,0.735 -1.171,0.977 -0.512,0.246 -1.133,0.43 -1.856,0.555 l -0.144,-0.668 c 0.531,-0.09 1.003,-0.223 1.414,-0.403 0.41,-0.176 0.73,-0.418 0.961,-0.726 0.23,-0.309 0.347,-0.703 0.347,-1.192 v -3.906 h -2.246 v -0.684 z m 3.484,-2.253 v 2.996 c 0.211,-0.282 0.473,-0.496 0.777,-0.637 0.313,-0.145 0.629,-0.215 0.946,-0.215 0.527,0 0.91,0.137 1.152,0.418 0.242,0.281 0.367,0.672 0.367,1.172 v 3.922 h -0.863 v -3.903 c 0,-0.324 -0.074,-0.562 -0.227,-0.707 -0.148,-0.152 -0.386,-0.226 -0.707,-0.226 -0.203,0 -0.398,0.047 -0.586,0.137 -0.183,0.093 -0.347,0.207 -0.496,0.343 -0.148,0.137 -0.269,0.278 -0.363,0.422 v 3.934 h -0.863 v -7.567 z m 9.578,7.382 c -0.184,0.125 -0.406,0.219 -0.672,0.289 -0.262,0.067 -0.519,0.102 -0.773,0.102 -0.582,0 -1.028,-0.152 -1.344,-0.457 -0.312,-0.305 -0.473,-0.695 -0.473,-1.172 v -3.223 h -1.238 v -0.668 h 1.238 v -1.222 l 0.864,-0.106 v 1.328 h 1.867 l -0.106,0.668 h -1.761 v 3.211 c 0,0.301 0.078,0.532 0.234,0.688 0.16,0.156 0.426,0.234 0.797,0.234 0.199,0 0.387,-0.023 0.558,-0.07 0.172,-0.047 0.329,-0.109 0.477,-0.184 z m 3.078,-4.14 c 0,-0.231 0.078,-0.426 0.235,-0.586 0.16,-0.16 0.359,-0.242 0.589,-0.242 0.243,0 0.438,0.082 0.598,0.242 0.16,0.16 0.238,0.355 0.238,0.586 0,0.226 -0.078,0.426 -0.238,0.59 -0.16,0.164 -0.355,0.246 -0.598,0.246 -0.23,0 -0.429,-0.082 -0.589,-0.246 -0.157,-0.168 -0.235,-0.364 -0.235,-0.59 z m 0,3.695 c 0,-0.223 0.078,-0.414 0.235,-0.578 0.16,-0.164 0.359,-0.246 0.589,-0.246 0.243,0 0.438,0.082 0.598,0.246 0.16,0.164 0.238,0.355 0.238,0.578 0,0.234 -0.078,0.43 -0.238,0.594 -0.16,0.164 -0.355,0.242 -0.598,0.242 -0.23,0 -0.429,-0.078 -0.589,-0.242 -0.157,-0.164 -0.235,-0.36 -0.235,-0.594 z m 9.625,-4.176 c 0,0.551 -0.117,0.992 -0.355,1.324 -0.231,0.333 -0.551,0.575 -0.961,0.723 -0.41,0.152 -0.883,0.227 -1.418,0.227 h -0.903 v 2.621 h -0.89 v -7.063 h 1.805 c 0.839,0 1.503,0.176 1.988,0.528 0.488,0.351 0.734,0.902 0.734,1.64 z m -0.953,0.012 c 0,-0.363 -0.07,-0.652 -0.215,-0.867 -0.144,-0.215 -0.344,-0.367 -0.597,-0.461 -0.247,-0.094 -0.532,-0.145 -0.848,-0.145 h -1.024 v 3.016 h 0.985 c 0.328,0 0.621,-0.043 0.879,-0.133 0.254,-0.09 0.457,-0.246 0.597,-0.465 0.149,-0.226 0.223,-0.543 0.223,-0.945 z m 2.477,4.883 v -0.66 h 0.839 v -4.078 h -0.839 v -0.665 h 1.496 l 0.16,1.278 c 0.207,-0.442 0.461,-0.785 0.758,-1.031 0.297,-0.243 0.691,-0.364 1.179,-0.364 0.153,0 0.286,0.012 0.403,0.035 0.117,0.024 0.238,0.051 0.363,0.082 l -0.125,1.829 h -0.707 v -1.149 c -0.012,0 -0.027,0 -0.047,0 -0.824,0 -1.418,0.59 -1.777,1.774 v 2.289 h 1.097 v 0.66 z m 8.148,-7.93 c 0.191,0 0.344,0.059 0.457,0.176 0.117,0.117 0.176,0.258 0.176,0.426 0,0.172 -0.059,0.32 -0.176,0.441 -0.113,0.117 -0.266,0.172 -0.457,0.172 -0.18,0 -0.328,-0.055 -0.445,-0.172 -0.117,-0.121 -0.176,-0.269 -0.176,-0.441 0,-0.168 0.059,-0.309 0.176,-0.426 0.117,-0.117 0.265,-0.176 0.445,-0.176 z m 0.688,2.527 v 4.719 h 1.523 v 0.684 h -4.051 v -0.684 h 1.664 v -4.035 h -1.613 v -0.684 z m 7.921,0 -1.964,5.403 h -1 l -1.946,-5.403 h 0.91 l 1.567,4.618 1.543,-4.618 z m 5.52,4.223 c 0,0.219 0.035,0.379 0.105,0.477 0.075,0.097 0.184,0.172 0.336,0.215 l -0.211,0.605 c -0.234,-0.031 -0.437,-0.105 -0.609,-0.219 -0.176,-0.121 -0.301,-0.301 -0.379,-0.539 -0.195,0.25 -0.441,0.438 -0.734,0.567 -0.293,0.128 -0.61,0.191 -0.961,0.191 -0.539,0 -0.965,-0.152 -1.278,-0.457 -0.308,-0.305 -0.464,-0.707 -0.464,-1.211 0,-0.555 0.218,-0.984 0.652,-1.281 0.434,-0.297 1.059,-0.446 1.883,-0.446 h 0.793 v -0.453 c 0,-0.386 -0.114,-0.664 -0.344,-0.824 -0.227,-0.164 -0.539,-0.246 -0.945,-0.246 -0.176,0 -0.383,0.023 -0.625,0.066 -0.239,0.043 -0.496,0.114 -0.778,0.211 l -0.226,-0.652 c 0.328,-0.121 0.637,-0.211 0.93,-0.262 0.292,-0.05 0.57,-0.074 0.835,-0.074 0.668,0 1.172,0.156 1.512,0.469 0.34,0.316 0.508,0.738 0.508,1.273 z m -2.231,0.641 c 0.266,0 0.52,-0.067 0.758,-0.199 0.242,-0.137 0.446,-0.325 0.606,-0.567 v -1.387 h -0.781 c -0.594,0 -1.012,0.102 -1.258,0.305 -0.246,0.207 -0.367,0.481 -0.367,0.828 0,0.68 0.347,1.02 1.042,1.02 z m 8.805,0.265 c -0.183,0.125 -0.41,0.219 -0.672,0.289 -0.261,0.067 -0.523,0.102 -0.773,0.102 -0.582,0 -1.031,-0.152 -1.344,-0.457 -0.316,-0.305 -0.473,-0.695 -0.473,-1.172 v -3.223 h -1.242 v -0.668 h 1.242 v -1.222 l 0.864,-0.106 v 1.328 h 1.863 l -0.102,0.668 h -1.761 v 3.211 c 0,0.301 0.078,0.532 0.234,0.688 0.16,0.156 0.426,0.234 0.793,0.234 0.203,0 0.391,-0.023 0.559,-0.07 0.172,-0.047 0.332,-0.109 0.48,-0.184 z m 2.543,-2.121 c 0.024,0.625 0.188,1.082 0.492,1.367 0.309,0.286 0.672,0.426 1.086,0.426 0.278,0 0.528,-0.039 0.75,-0.121 0.223,-0.082 0.453,-0.203 0.692,-0.363 l 0.406,0.566 c -0.25,0.199 -0.535,0.356 -0.863,0.469 -0.325,0.113 -0.657,0.168 -0.993,0.168 -0.527,0 -0.976,-0.117 -1.343,-0.355 -0.367,-0.235 -0.649,-0.563 -0.84,-0.985 -0.192,-0.422 -0.289,-0.914 -0.289,-1.469 0,-0.546 0.097,-1.035 0.289,-1.457 0.191,-0.425 0.465,-0.757 0.82,-1 0.356,-0.242 0.77,-0.363 1.25,-0.363 0.68,0 1.215,0.234 1.606,0.707 0.39,0.473 0.589,1.117 0.589,1.938 0,0.093 -0.003,0.179 -0.011,0.261 -0.004,0.082 -0.008,0.153 -0.012,0.211 z m 1.469,-2.41 c -0.402,0 -0.738,0.141 -1.008,0.426 -0.269,0.281 -0.422,0.723 -0.457,1.316 h 2.816 c -0.007,-0.578 -0.136,-1.011 -0.378,-1.301 -0.243,-0.296 -0.567,-0.441 -0.973,-0.441 z m 4.367,4.805 v -7.063 h 0.895 v 6.266 h 3.218 l -0.101,0.797 z m 7.84,-7.93 c 0.191,0 0.344,0.059 0.457,0.176 0.117,0.117 0.176,0.258 0.176,0.426 0,0.172 -0.059,0.32 -0.176,0.441 -0.113,0.113 -0.266,0.172 -0.457,0.172 -0.18,0 -0.328,-0.059 -0.445,-0.172 -0.118,-0.121 -0.172,-0.269 -0.172,-0.441 0,-0.168 0.054,-0.309 0.172,-0.426 0.117,-0.117 0.265,-0.176 0.445,-0.176 z m 0.687,2.527 v 4.719 h 1.524 v 0.684 h -4.051 v -0.684 h 1.668 v -4.035 h -1.617 v -0.684 z m 3.422,5.403 v -5.403 h 0.735 l 0.066,0.75 c 0.219,-0.277 0.492,-0.488 0.82,-0.636 0.329,-0.149 0.649,-0.223 0.965,-0.223 0.528,0 0.914,0.137 1.153,0.418 0.242,0.281 0.363,0.672 0.363,1.172 v 3.922 h -0.859 v -3.289 c 0,-0.367 -0.024,-0.664 -0.063,-0.891 -0.043,-0.226 -0.129,-0.391 -0.262,-0.496 -0.129,-0.109 -0.332,-0.16 -0.601,-0.16 -0.211,0 -0.41,0.047 -0.598,0.137 -0.187,0.093 -0.352,0.211 -0.5,0.351 -0.141,0.137 -0.262,0.274 -0.359,0.414 v 3.934 z m 7.071,-7.684 v 7.684 h -0.86 v -7.574 z m 3.605,2.281 -2.43,2.434 2.711,2.969 h -1.132 l -2.657,-2.949 2.391,-2.454 z"
       style="fill:#ffffff;fill-opacity:1;fill-rule:nonzero;stroke:none"
       transform="scale(1.3333333)" />
    <path
       id="path18"
       d="M 456.18,43.031 H 537.2 V 64.14 h -81.02 z"
       style="fill:#4d4d4d;fill-opacity:1;fill-rule:nonzero;stroke:#4d4d4d;stroke-width:1.41732;stroke-linecap:round;stroke-linejoin:round;stroke-miterlimit:4;stroke-dasharray:none;stroke-opacity:1"
       transform="scale(1.3333333)" />
    <path
       id="path19"
       d="m 465.137,57.211 h -0.985 l 1.996,-2.852 -1.75,-2.547 h 1.024 l 1.25,2.008 1.266,-2.008 h 0.984 l -1.742,2.512 1.988,2.887 h -1.055 l -1.476,-2.316 z m 7.468,-0.594 c 0.418,0 0.747,-0.078 0.985,-0.23 0.238,-0.157 0.359,-0.364 0.359,-0.629 0,-0.16 -0.031,-0.301 -0.094,-0.418 -0.058,-0.121 -0.179,-0.227 -0.363,-0.324 -0.183,-0.098 -0.469,-0.196 -0.851,-0.293 -0.371,-0.09 -0.7,-0.2 -0.973,-0.317 -0.273,-0.125 -0.488,-0.281 -0.645,-0.476 -0.148,-0.196 -0.222,-0.45 -0.222,-0.762 0,-0.453 0.187,-0.813 0.566,-1.074 0.383,-0.266 0.875,-0.395 1.485,-0.395 0.433,0 0.812,0.059 1.132,0.172 0.325,0.117 0.602,0.258 0.825,0.422 l -0.379,0.586 c -0.2,-0.141 -0.426,-0.258 -0.676,-0.344 -0.246,-0.094 -0.543,-0.14 -0.895,-0.14 -0.421,0 -0.722,0.066 -0.902,0.199 -0.176,0.133 -0.266,0.301 -0.266,0.508 0,0.16 0.043,0.296 0.129,0.402 0.09,0.101 0.239,0.195 0.446,0.277 0.207,0.082 0.496,0.172 0.863,0.27 0.351,0.097 0.66,0.211 0.922,0.34 0.261,0.129 0.465,0.3 0.609,0.511 0.149,0.211 0.223,0.481 0.223,0.817 0,0.383 -0.11,0.695 -0.328,0.933 -0.219,0.235 -0.504,0.407 -0.852,0.516 -0.348,0.109 -0.711,0.16 -1.098,0.16 -0.488,0 -0.906,-0.07 -1.253,-0.211 -0.34,-0.14 -0.629,-0.316 -0.86,-0.515 l 0.492,-0.571 c 0.211,0.176 0.454,0.317 0.727,0.426 0.277,0.105 0.574,0.16 0.894,0.16 z m 7.547,-7.09 0.864,0.11 v 7.574 h -0.754 l -0.082,-0.715 c -0.203,0.289 -0.434,0.5 -0.7,0.633 -0.257,0.133 -0.539,0.199 -0.835,0.199 -0.469,0 -0.856,-0.117 -1.157,-0.351 -0.304,-0.239 -0.531,-0.567 -0.679,-0.985 -0.145,-0.426 -0.219,-0.918 -0.219,-1.472 0,-0.543 0.082,-1.024 0.25,-1.446 0.168,-0.429 0.41,-0.765 0.722,-1.008 0.321,-0.246 0.7,-0.367 1.145,-0.367 0.598,0 1.082,0.211 1.445,0.633 z m -1.218,2.864 c -0.454,0 -0.801,0.175 -1.043,0.527 -0.243,0.352 -0.364,0.887 -0.364,1.602 0,1.406 0.434,2.113 1.297,2.113 0.305,0 0.567,-0.086 0.785,-0.258 0.219,-0.176 0.403,-0.375 0.543,-0.594 v -2.699 c -0.144,-0.219 -0.324,-0.387 -0.531,-0.508 -0.211,-0.121 -0.437,-0.183 -0.687,-0.183 z m 5.351,0.406 c 0,-0.231 0.082,-0.426 0.238,-0.586 0.161,-0.16 0.356,-0.242 0.59,-0.242 0.239,0 0.438,0.082 0.594,0.242 0.16,0.16 0.242,0.355 0.242,0.586 0,0.226 -0.082,0.426 -0.242,0.59 -0.156,0.164 -0.355,0.246 -0.594,0.246 -0.234,0 -0.429,-0.082 -0.59,-0.246 -0.156,-0.164 -0.238,-0.364 -0.238,-0.59 z m 0,3.695 c 0,-0.222 0.082,-0.414 0.238,-0.578 0.161,-0.164 0.356,-0.246 0.59,-0.246 0.239,0 0.438,0.082 0.594,0.246 0.16,0.164 0.242,0.356 0.242,0.578 0,0.235 -0.082,0.43 -0.242,0.594 -0.156,0.164 -0.355,0.242 -0.594,0.242 -0.234,0 -0.429,-0.078 -0.59,-0.242 -0.156,-0.164 -0.238,-0.359 -0.238,-0.594 z m 5.809,-3.98 c 0.191,-0.258 0.422,-0.457 0.679,-0.598 0.266,-0.144 0.551,-0.215 0.856,-0.215 0.484,0 0.875,0.113 1.172,0.348 0.297,0.23 0.511,0.558 0.648,0.984 0.137,0.422 0.207,0.914 0.207,1.477 0,0.543 -0.082,1.027 -0.246,1.457 -0.16,0.422 -0.398,0.758 -0.719,1 -0.316,0.242 -0.707,0.363 -1.171,0.363 -0.629,0 -1.118,-0.226 -1.473,-0.676 l -0.063,0.559 h -0.754 v -7.574 l 0.864,-0.11 z m 1.218,4.121 c 0.454,0 0.797,-0.176 1.04,-0.524 0.246,-0.351 0.367,-0.886 0.367,-1.605 0,-1.41 -0.426,-2.113 -1.274,-2.113 -0.3,0 -0.566,0.089 -0.793,0.269 -0.23,0.18 -0.418,0.379 -0.558,0.598 v 2.676 c 0.136,0.214 0.316,0.386 0.527,0.511 0.215,0.125 0.445,0.188 0.691,0.188 z m 6.129,-4.934 c 0.762,0 1.336,0.254 1.727,0.762 0.391,0.512 0.586,1.191 0.586,2.047 0,0.551 -0.09,1.039 -0.266,1.461 -0.179,0.426 -0.441,0.758 -0.785,1 -0.348,0.238 -0.769,0.359 -1.273,0.359 -0.762,0 -1.34,-0.258 -1.735,-0.769 -0.39,-0.512 -0.59,-1.192 -0.59,-2.039 0,-0.555 0.09,-1.043 0.27,-1.469 0.176,-0.426 0.437,-0.758 0.785,-0.992 0.348,-0.243 0.774,-0.36 1.281,-0.36 z m 0,0.703 c -0.464,0 -0.816,0.172 -1.058,0.516 -0.235,0.348 -0.352,0.879 -0.352,1.602 0,0.714 0.117,1.242 0.348,1.589 0.234,0.34 0.586,0.512 1.051,0.512 0.465,0 0.812,-0.172 1.047,-0.519 0.234,-0.344 0.355,-0.875 0.355,-1.594 0,-0.719 -0.117,-1.246 -0.352,-1.59 -0.23,-0.344 -0.578,-0.516 -1.039,-0.516 z m 6.153,-0.703 c 0.761,0 1.34,0.254 1.73,0.762 0.387,0.512 0.582,1.191 0.582,2.047 0,0.551 -0.086,1.039 -0.265,1.461 -0.18,0.426 -0.438,0.758 -0.786,1 -0.343,0.238 -0.769,0.359 -1.269,0.359 -0.766,0 -1.344,-0.258 -1.734,-0.769 -0.395,-0.512 -0.59,-1.192 -0.59,-2.039 0,-0.555 0.09,-1.043 0.265,-1.469 0.18,-0.426 0.442,-0.758 0.785,-0.992 0.348,-0.243 0.778,-0.36 1.282,-0.36 z m 0,0.703 c -0.465,0 -0.817,0.172 -1.055,0.516 -0.238,0.348 -0.355,0.879 -0.355,1.602 0,0.714 0.117,1.242 0.347,1.589 0.239,0.34 0.59,0.512 1.055,0.512 0.465,0 0.812,-0.172 1.043,-0.519 0.238,-0.344 0.355,-0.875 0.355,-1.594 0,-0.719 -0.117,-1.246 -0.347,-1.59 -0.235,-0.344 -0.582,-0.516 -1.043,-0.516 z m 6.199,-2.765 v 6.242 c 0,0.266 0.082,0.453 0.246,0.566 0.168,0.11 0.383,0.164 0.649,0.164 0.16,0 0.312,-0.015 0.46,-0.05 0.149,-0.036 0.301,-0.079 0.446,-0.137 l 0.23,0.629 c -0.144,0.074 -0.328,0.137 -0.547,0.191 -0.215,0.059 -0.461,0.086 -0.734,0.086 -0.481,0 -0.867,-0.133 -1.164,-0.394 -0.297,-0.266 -0.445,-0.633 -0.445,-1.102 V 50.32 h -1.657 v -0.683 z m 4.73,5.179 c 0.024,0.625 0.188,1.082 0.493,1.368 0.308,0.285 0.668,0.425 1.086,0.425 0.277,0 0.527,-0.039 0.75,-0.121 0.222,-0.082 0.453,-0.203 0.691,-0.363 l 0.406,0.566 c -0.25,0.2 -0.539,0.356 -0.863,0.469 -0.324,0.113 -0.656,0.168 -0.992,0.168 -0.528,0 -0.977,-0.117 -1.344,-0.351 -0.367,-0.239 -0.648,-0.567 -0.844,-0.989 -0.191,-0.422 -0.285,-0.914 -0.285,-1.468 0,-0.547 0.094,-1.036 0.285,-1.458 0.196,-0.425 0.469,-0.757 0.821,-1 0.355,-0.242 0.773,-0.363 1.253,-0.363 0.68,0 1.215,0.235 1.606,0.707 0.391,0.473 0.59,1.117 0.59,1.938 0,0.094 -0.004,0.179 -0.012,0.261 -0.004,0.083 -0.008,0.153 -0.012,0.211 z m 1.465,-2.41 c -0.398,0 -0.734,0.141 -1.004,0.426 -0.269,0.281 -0.422,0.723 -0.457,1.316 h 2.817 c -0.012,-0.578 -0.137,-1.011 -0.379,-1.3 -0.242,-0.297 -0.57,-0.442 -0.977,-0.442 z m 7.879,3.625 c 0,0.219 0.035,0.379 0.106,0.477 0.074,0.097 0.183,0.172 0.336,0.215 l -0.211,0.605 c -0.235,-0.031 -0.438,-0.105 -0.61,-0.219 -0.176,-0.121 -0.3,-0.3 -0.383,-0.539 -0.191,0.25 -0.437,0.438 -0.73,0.571 -0.293,0.125 -0.609,0.187 -0.961,0.187 -0.539,0 -0.965,-0.152 -1.277,-0.457 -0.309,-0.305 -0.465,-0.707 -0.465,-1.211 0,-0.555 0.215,-0.984 0.652,-1.281 0.434,-0.297 1.059,-0.445 1.879,-0.445 H 523 V 53.48 c 0,-0.386 -0.113,-0.664 -0.344,-0.824 -0.226,-0.164 -0.539,-0.246 -0.945,-0.246 -0.176,0 -0.387,0.024 -0.625,0.067 -0.238,0.043 -0.5,0.113 -0.777,0.211 l -0.227,-0.653 c 0.328,-0.121 0.637,-0.211 0.93,-0.262 0.293,-0.05 0.57,-0.074 0.836,-0.074 0.668,0 1.172,0.156 1.511,0.469 0.336,0.316 0.508,0.738 0.508,1.273 z m -2.23,0.641 c 0.265,0 0.519,-0.067 0.758,-0.199 0.242,-0.137 0.445,-0.325 0.605,-0.567 V 54.52 h -0.781 c -0.594,0 -1.016,0.101 -1.262,0.304 -0.242,0.207 -0.363,0.481 -0.363,0.828 0,0.68 0.347,1.02 1.043,1.02 z m 4.515,0.539 v -5.399 h 0.735 l 0.066,0.747 c 0.219,-0.278 0.492,-0.489 0.82,-0.637 0.329,-0.149 0.649,-0.223 0.965,-0.223 0.532,0 0.914,0.141 1.153,0.418 0.242,0.281 0.367,0.672 0.367,1.172 v 3.922 h -0.863 v -3.289 c 0,-0.367 -0.02,-0.664 -0.063,-0.891 -0.039,-0.226 -0.129,-0.39 -0.262,-0.496 -0.129,-0.109 -0.328,-0.16 -0.597,-0.16 -0.215,0 -0.414,0.047 -0.602,0.137 -0.183,0.093 -0.351,0.211 -0.496,0.351 -0.145,0.137 -0.266,0.274 -0.359,0.414 v 3.934 z"
       style="fill:#ffffff;fill-opacity:1;fill-rule:nonzero;stroke:none"
       transform="scale(1.3333333)" />
    <path
       id="path20"
       d="m 105.641,43.031 h 87.875 V 64.14 h -87.875 z"
       style="fill:#800055;fill-opacity:1;fill-rule:nonzero;stroke:#800055;stroke-width:1.41732;stroke-linecap:round;stroke-linejoin:round;stroke-miterlimit:4;stroke-dasharray:none;stroke-opacity:1"
       transform="scale(1.3333333)" />
    <path
       id="path21"
       d="m 114.598,57.211 h -0.985 l 1.996,-2.852 -1.75,-2.547 h 1.024 l 1.25,2.008 1.265,-2.008 h 0.985 l -1.742,2.512 1.988,2.887 h -1.055 l -1.476,-2.316 z m 7.468,-0.594 c 0.418,0 0.746,-0.078 0.985,-0.23 0.238,-0.157 0.359,-0.364 0.359,-0.629 0,-0.16 -0.031,-0.301 -0.094,-0.418 -0.058,-0.121 -0.179,-0.227 -0.363,-0.324 -0.183,-0.098 -0.469,-0.196 -0.851,-0.293 -0.372,-0.09 -0.7,-0.2 -0.973,-0.317 -0.274,-0.125 -0.488,-0.281 -0.645,-0.476 -0.148,-0.196 -0.222,-0.45 -0.222,-0.762 0,-0.453 0.187,-0.813 0.566,-1.074 0.383,-0.266 0.875,-0.395 1.484,-0.395 0.434,0 0.813,0.059 1.133,0.172 0.325,0.117 0.602,0.258 0.825,0.422 l -0.379,0.586 c -0.203,-0.141 -0.426,-0.258 -0.676,-0.344 -0.246,-0.094 -0.543,-0.14 -0.895,-0.14 -0.422,0 -0.722,0.066 -0.902,0.199 -0.176,0.133 -0.266,0.301 -0.266,0.508 0,0.16 0.043,0.296 0.129,0.402 0.09,0.101 0.239,0.195 0.446,0.277 0.207,0.082 0.496,0.172 0.863,0.27 0.351,0.097 0.66,0.211 0.922,0.34 0.261,0.129 0.465,0.3 0.609,0.511 0.149,0.211 0.223,0.481 0.223,0.817 0,0.383 -0.11,0.695 -0.328,0.933 -0.219,0.235 -0.504,0.407 -0.852,0.516 -0.348,0.109 -0.711,0.16 -1.098,0.16 -0.488,0 -0.906,-0.07 -1.254,-0.211 -0.339,-0.14 -0.628,-0.316 -0.859,-0.515 l 0.492,-0.571 c 0.211,0.176 0.453,0.317 0.727,0.426 0.277,0.105 0.574,0.16 0.894,0.16 z m 7.547,-7.09 0.864,0.11 v 7.574 h -0.754 l -0.082,-0.715 c -0.203,0.289 -0.434,0.5 -0.7,0.633 -0.257,0.133 -0.539,0.199 -0.836,0.199 -0.468,0 -0.851,-0.117 -1.156,-0.351 -0.304,-0.239 -0.531,-0.567 -0.679,-0.985 -0.145,-0.426 -0.219,-0.918 -0.219,-1.472 0,-0.543 0.082,-1.024 0.25,-1.446 0.168,-0.429 0.41,-0.765 0.722,-1.008 0.321,-0.246 0.7,-0.367 1.145,-0.367 0.598,0 1.082,0.211 1.445,0.633 z m -1.218,2.864 c -0.454,0 -0.801,0.175 -1.043,0.527 -0.243,0.352 -0.364,0.887 -0.364,1.602 0,1.406 0.434,2.113 1.297,2.113 0.305,0 0.567,-0.086 0.785,-0.258 0.219,-0.176 0.403,-0.375 0.543,-0.594 v -2.699 c -0.144,-0.219 -0.324,-0.387 -0.531,-0.508 -0.211,-0.121 -0.437,-0.183 -0.687,-0.183 z m 5.351,0.406 c 0,-0.231 0.082,-0.426 0.238,-0.586 0.161,-0.16 0.356,-0.242 0.59,-0.242 0.238,0 0.438,0.082 0.594,0.242 0.16,0.16 0.242,0.355 0.242,0.586 0,0.226 -0.082,0.426 -0.242,0.59 -0.156,0.164 -0.356,0.246 -0.594,0.246 -0.234,0 -0.429,-0.082 -0.59,-0.246 -0.156,-0.164 -0.238,-0.364 -0.238,-0.59 z m 0,3.695 c 0,-0.222 0.082,-0.414 0.238,-0.578 0.161,-0.164 0.356,-0.246 0.59,-0.246 0.238,0 0.438,0.082 0.594,0.246 0.16,0.164 0.242,0.356 0.242,0.578 0,0.235 -0.082,0.43 -0.242,0.594 -0.156,0.164 -0.356,0.242 -0.594,0.242 -0.234,0 -0.429,-0.078 -0.59,-0.242 -0.156,-0.164 -0.238,-0.359 -0.238,-0.594 z m 8.176,-6.965 0.863,0.11 v 7.574 h -0.754 l -0.082,-0.715 c -0.203,0.289 -0.437,0.5 -0.699,0.633 -0.258,0.133 -0.539,0.199 -0.836,0.199 -0.469,0 -0.855,-0.117 -1.16,-0.351 -0.305,-0.239 -0.527,-0.567 -0.676,-0.985 -0.148,-0.426 -0.219,-0.918 -0.219,-1.472 0,-0.543 0.082,-1.024 0.25,-1.446 0.168,-0.429 0.407,-0.765 0.723,-1.008 0.316,-0.246 0.699,-0.367 1.145,-0.367 0.597,0 1.078,0.211 1.445,0.633 z m -1.219,2.864 c -0.453,0 -0.801,0.175 -1.043,0.527 -0.242,0.352 -0.363,0.887 -0.363,1.602 0,1.406 0.433,2.113 1.297,2.113 0.304,0 0.566,-0.086 0.785,-0.258 0.219,-0.176 0.398,-0.375 0.543,-0.594 v -2.699 c -0.149,-0.219 -0.324,-0.387 -0.531,-0.508 -0.211,-0.121 -0.442,-0.183 -0.688,-0.183 z m 8.008,3.64 c 0,0.219 0.035,0.379 0.109,0.477 0.071,0.097 0.184,0.172 0.332,0.215 l -0.211,0.605 c -0.23,-0.031 -0.433,-0.105 -0.609,-0.219 -0.176,-0.121 -0.301,-0.3 -0.379,-0.539 -0.195,0.25 -0.441,0.438 -0.734,0.571 -0.289,0.125 -0.61,0.187 -0.957,0.187 -0.543,0 -0.969,-0.152 -1.278,-0.457 -0.312,-0.305 -0.468,-0.707 -0.468,-1.211 0,-0.555 0.218,-0.984 0.652,-1.281 0.434,-0.297 1.062,-0.445 1.883,-0.445 h 0.793 V 53.48 c 0,-0.386 -0.114,-0.664 -0.344,-0.824 -0.223,-0.164 -0.539,-0.246 -0.941,-0.246 -0.18,0 -0.387,0.024 -0.625,0.067 -0.243,0.043 -0.5,0.113 -0.782,0.211 l -0.226,-0.653 c 0.328,-0.121 0.64,-0.211 0.929,-0.262 0.293,-0.05 0.575,-0.074 0.836,-0.074 0.668,0 1.176,0.156 1.512,0.469 0.34,0.316 0.508,0.738 0.508,1.273 z m -2.231,0.641 c 0.266,0 0.52,-0.067 0.758,-0.199 0.246,-0.137 0.446,-0.325 0.606,-0.567 V 54.52 h -0.778 c -0.593,0 -1.015,0.101 -1.261,0.304 -0.243,0.207 -0.364,0.481 -0.364,0.828 0,0.68 0.344,1.02 1.039,1.02 z m 8.805,0.266 c -0.183,0.124 -0.406,0.218 -0.672,0.289 -0.261,0.066 -0.519,0.101 -0.773,0.101 -0.582,0 -1.028,-0.152 -1.344,-0.457 -0.312,-0.305 -0.473,-0.695 -0.473,-1.172 v -3.222 h -1.238 v -0.665 h 1.238 v -1.226 l 0.864,-0.102 v 1.328 h 1.867 l -0.106,0.665 h -1.761 v 3.211 c 0,0.3 0.078,0.531 0.234,0.687 0.16,0.156 0.426,0.234 0.797,0.234 0.199,0 0.387,-0.023 0.559,-0.07 0.171,-0.047 0.328,-0.109 0.476,-0.184 z m 2.543,-2.122 c 0.027,0.625 0.192,1.082 0.492,1.368 0.309,0.285 0.672,0.425 1.09,0.425 0.278,0 0.528,-0.039 0.746,-0.121 0.223,-0.082 0.453,-0.203 0.696,-0.363 l 0.402,0.566 c -0.25,0.2 -0.535,0.356 -0.859,0.469 -0.325,0.113 -0.657,0.168 -0.997,0.168 -0.527,0 -0.972,-0.117 -1.343,-0.351 -0.364,-0.239 -0.645,-0.567 -0.84,-0.985 -0.192,-0.426 -0.289,-0.918 -0.289,-1.472 0,-0.547 0.097,-1.036 0.289,-1.458 0.195,-0.425 0.469,-0.757 0.82,-1 0.356,-0.242 0.774,-0.363 1.25,-0.363 0.68,0 1.215,0.235 1.606,0.707 0.394,0.473 0.589,1.117 0.589,1.938 0,0.094 -0.003,0.179 -0.011,0.261 -0.004,0.083 -0.008,0.153 -0.012,0.211 z m 1.469,-2.41 c -0.402,0 -0.735,0.141 -1.004,0.426 -0.273,0.281 -0.426,0.723 -0.457,1.316 h 2.812 c -0.007,-0.578 -0.132,-1.011 -0.378,-1.3 -0.243,-0.297 -0.567,-0.442 -0.973,-0.442 z m 6.48,-1.492 v 6.297 h -0.886 v -6.297 h -2.203 v -0.766 h 5.328 l -0.094,0.766 z m 5.731,-1.633 c 0.191,0 0.344,0.059 0.457,0.176 0.113,0.117 0.172,0.258 0.172,0.426 0,0.176 -0.059,0.32 -0.172,0.441 -0.113,0.117 -0.266,0.172 -0.457,0.172 -0.184,0 -0.332,-0.055 -0.449,-0.172 -0.114,-0.121 -0.172,-0.265 -0.172,-0.441 0,-0.168 0.058,-0.309 0.172,-0.426 0.117,-0.117 0.265,-0.176 0.449,-0.176 z m 0.687,2.531 v 4.715 h 1.524 v 0.684 h -4.055 v -0.684 h 1.668 v -4.035 h -1.613 v -0.68 z m 6.977,-0.113 c 0.172,0 0.34,0.035 0.5,0.113 0.16,0.075 0.293,0.219 0.394,0.434 0.102,0.215 0.153,0.531 0.153,0.945 v 4.02 h -0.801 v -3.883 c 0,-0.336 -0.02,-0.582 -0.059,-0.734 -0.043,-0.149 -0.16,-0.223 -0.355,-0.223 -0.16,0 -0.32,0.051 -0.481,0.152 -0.16,0.098 -0.316,0.262 -0.461,0.493 v 4.195 h -0.808 v -3.883 c 0,-0.336 -0.02,-0.582 -0.059,-0.734 -0.043,-0.149 -0.16,-0.223 -0.355,-0.223 -0.168,0 -0.328,0.051 -0.488,0.152 -0.157,0.098 -0.309,0.262 -0.454,0.493 v 4.195 h -0.796 v -5.399 h 0.675 l 0.051,0.626 c 0.149,-0.211 0.313,-0.383 0.492,-0.524 0.188,-0.144 0.414,-0.215 0.684,-0.215 0.207,0 0.398,0.047 0.578,0.149 0.184,0.093 0.316,0.281 0.402,0.562 0.145,-0.211 0.313,-0.383 0.496,-0.512 0.184,-0.132 0.418,-0.199 0.692,-0.199 z m 3.273,3.117 c 0.024,0.625 0.188,1.082 0.493,1.368 0.308,0.285 0.671,0.425 1.085,0.425 0.278,0 0.528,-0.039 0.75,-0.121 0.223,-0.082 0.454,-0.203 0.692,-0.363 l 0.406,0.566 c -0.25,0.2 -0.535,0.356 -0.863,0.469 -0.324,0.113 -0.656,0.168 -0.992,0.168 -0.528,0 -0.977,-0.117 -1.344,-0.351 -0.367,-0.239 -0.649,-0.567 -0.844,-0.985 -0.191,-0.426 -0.285,-0.918 -0.285,-1.472 0,-0.547 0.094,-1.036 0.285,-1.458 0.195,-0.425 0.469,-0.757 0.82,-1 0.356,-0.242 0.774,-0.363 1.254,-0.363 0.68,0 1.215,0.235 1.606,0.707 0.39,0.473 0.59,1.117 0.59,1.938 0,0.094 -0.004,0.179 -0.012,0.261 -0.004,0.083 -0.008,0.153 -0.012,0.211 z m 1.465,-2.41 c -0.398,0 -0.734,0.141 -1.004,0.426 -0.269,0.281 -0.422,0.723 -0.457,1.316 h 2.817 c -0.008,-0.578 -0.137,-1.011 -0.379,-1.3 -0.242,-0.297 -0.567,-0.442 -0.977,-0.442 z"
       style="fill:#ffffff;fill-opacity:1;fill-rule:nonzero;stroke:none"
       transform="scale(1.3333333)" />
    <path
       id="path22"
       d="M 456.18,73.031 H 537.2 V 94.14 h -81.02 z"
       style="fill:#4d4d4d;fill-opacity:1;fill-rule:nonzero;stroke:#4d4d4d;stroke-width:1.41732;stroke-linecap:round;stroke-linejoin:round;stroke-miterlimit:4;stroke-dasharray:none;stroke-opacity:1"
       transform="scale(1.3333333)" />
    <path
       id="path23"
       d="m 465.137,87.211 h -0.985 l 1.996,-2.852 -1.75,-2.547 h 1.024 l 1.25,2.008 1.266,-2.008 h 0.984 l -1.742,2.512 1.988,2.887 h -1.055 l -1.476,-2.316 z m 7.468,-0.594 c 0.418,0 0.747,-0.078 0.985,-0.23 0.238,-0.157 0.359,-0.364 0.359,-0.629 0,-0.16 -0.031,-0.301 -0.094,-0.418 -0.058,-0.121 -0.179,-0.227 -0.363,-0.324 -0.183,-0.098 -0.469,-0.196 -0.851,-0.293 -0.371,-0.09 -0.7,-0.2 -0.973,-0.317 -0.273,-0.125 -0.488,-0.281 -0.645,-0.476 -0.148,-0.196 -0.222,-0.45 -0.222,-0.762 0,-0.453 0.187,-0.813 0.566,-1.074 0.383,-0.266 0.875,-0.395 1.485,-0.395 0.433,0 0.812,0.059 1.132,0.172 0.325,0.117 0.602,0.258 0.825,0.422 l -0.379,0.586 c -0.2,-0.141 -0.426,-0.258 -0.676,-0.344 -0.246,-0.094 -0.543,-0.14 -0.895,-0.14 -0.421,0 -0.722,0.066 -0.902,0.199 -0.176,0.133 -0.266,0.301 -0.266,0.508 0,0.16 0.043,0.296 0.129,0.402 0.09,0.101 0.239,0.195 0.446,0.277 0.207,0.082 0.496,0.172 0.863,0.27 0.351,0.097 0.66,0.211 0.922,0.34 0.261,0.129 0.465,0.3 0.609,0.511 0.149,0.211 0.223,0.481 0.223,0.817 0,0.383 -0.11,0.695 -0.328,0.933 -0.219,0.235 -0.504,0.407 -0.852,0.516 -0.348,0.109 -0.711,0.16 -1.098,0.16 -0.488,0 -0.906,-0.07 -1.253,-0.211 -0.34,-0.14 -0.629,-0.316 -0.86,-0.515 l 0.492,-0.571 c 0.211,0.176 0.454,0.317 0.727,0.426 0.277,0.105 0.574,0.16 0.894,0.16 z m 7.547,-7.09 0.864,0.11 v 7.574 h -0.754 l -0.082,-0.715 c -0.203,0.289 -0.434,0.5 -0.7,0.633 -0.257,0.133 -0.539,0.199 -0.835,0.199 -0.469,0 -0.856,-0.117 -1.157,-0.351 -0.304,-0.239 -0.531,-0.567 -0.679,-0.989 -0.145,-0.422 -0.219,-0.914 -0.219,-1.468 0,-0.543 0.082,-1.024 0.25,-1.45 0.168,-0.425 0.41,-0.761 0.722,-1.004 0.321,-0.246 0.7,-0.367 1.145,-0.367 0.598,0 1.082,0.211 1.445,0.633 z m -1.218,2.864 c -0.454,0 -0.801,0.175 -1.043,0.527 -0.243,0.352 -0.364,0.887 -0.364,1.602 0,1.406 0.434,2.113 1.297,2.113 0.305,0 0.567,-0.086 0.785,-0.258 0.219,-0.176 0.403,-0.371 0.543,-0.594 v -2.699 c -0.144,-0.219 -0.324,-0.387 -0.531,-0.508 -0.211,-0.121 -0.437,-0.183 -0.687,-0.183 z m 5.351,0.406 c 0,-0.231 0.082,-0.426 0.238,-0.586 0.161,-0.16 0.356,-0.242 0.59,-0.242 0.239,0 0.438,0.082 0.594,0.242 0.16,0.16 0.242,0.355 0.242,0.586 0,0.226 -0.082,0.426 -0.242,0.59 -0.156,0.164 -0.355,0.246 -0.594,0.246 -0.234,0 -0.429,-0.082 -0.59,-0.246 -0.156,-0.164 -0.238,-0.364 -0.238,-0.59 z m 0,3.695 c 0,-0.222 0.082,-0.414 0.238,-0.578 0.161,-0.164 0.356,-0.246 0.59,-0.246 0.239,0 0.438,0.082 0.594,0.246 0.16,0.164 0.242,0.356 0.242,0.578 0,0.235 -0.082,0.43 -0.242,0.594 -0.156,0.164 -0.355,0.242 -0.594,0.242 -0.234,0 -0.429,-0.078 -0.59,-0.242 -0.156,-0.164 -0.238,-0.359 -0.238,-0.594 z m 5.809,-3.98 c 0.191,-0.258 0.422,-0.457 0.679,-0.598 0.266,-0.144 0.551,-0.215 0.856,-0.215 0.484,0 0.875,0.113 1.172,0.348 0.297,0.23 0.511,0.558 0.648,0.984 0.137,0.422 0.207,0.914 0.207,1.477 0,0.543 -0.082,1.031 -0.246,1.457 -0.16,0.422 -0.398,0.758 -0.719,1 -0.316,0.242 -0.707,0.363 -1.171,0.363 -0.629,0 -1.118,-0.226 -1.473,-0.676 l -0.063,0.559 h -0.754 v -7.574 l 0.864,-0.11 z m 1.218,4.121 c 0.454,0 0.797,-0.176 1.04,-0.524 0.246,-0.351 0.367,-0.886 0.367,-1.605 0,-1.41 -0.426,-2.113 -1.274,-2.113 -0.3,0 -0.566,0.089 -0.793,0.269 -0.23,0.18 -0.418,0.379 -0.558,0.598 v 2.676 c 0.136,0.214 0.316,0.386 0.527,0.511 0.215,0.125 0.445,0.188 0.691,0.188 z m 6.129,-4.934 c 0.762,0 1.336,0.254 1.727,0.762 0.391,0.512 0.586,1.191 0.586,2.047 0,0.551 -0.09,1.039 -0.266,1.461 -0.179,0.426 -0.441,0.758 -0.785,1 -0.348,0.238 -0.769,0.359 -1.273,0.359 -0.762,0 -1.34,-0.258 -1.735,-0.769 -0.39,-0.512 -0.59,-1.192 -0.59,-2.039 0,-0.555 0.09,-1.043 0.27,-1.469 0.176,-0.426 0.437,-0.758 0.785,-0.992 0.348,-0.243 0.774,-0.36 1.281,-0.36 z m 0,0.703 c -0.464,0 -0.816,0.172 -1.058,0.516 -0.235,0.344 -0.352,0.879 -0.352,1.602 0,0.714 0.117,1.242 0.348,1.589 0.234,0.34 0.586,0.512 1.051,0.512 0.465,0 0.812,-0.172 1.047,-0.519 0.234,-0.344 0.355,-0.875 0.355,-1.594 0,-0.719 -0.117,-1.246 -0.352,-1.59 -0.23,-0.344 -0.578,-0.516 -1.039,-0.516 z m 6.153,-0.703 c 0.761,0 1.34,0.254 1.73,0.762 0.387,0.512 0.582,1.191 0.582,2.047 0,0.551 -0.086,1.039 -0.265,1.461 -0.18,0.426 -0.438,0.758 -0.786,1 -0.343,0.238 -0.769,0.359 -1.269,0.359 -0.766,0 -1.344,-0.258 -1.734,-0.769 -0.395,-0.512 -0.59,-1.192 -0.59,-2.039 0,-0.555 0.09,-1.043 0.265,-1.469 0.18,-0.426 0.442,-0.758 0.785,-0.992 0.348,-0.243 0.778,-0.36 1.282,-0.36 z m 0,0.703 c -0.465,0 -0.817,0.172 -1.055,0.516 -0.238,0.344 -0.355,0.879 -0.355,1.602 0,0.714 0.117,1.242 0.347,1.589 0.239,0.34 0.59,0.512 1.055,0.512 0.465,0 0.812,-0.172 1.043,-0.519 0.238,-0.344 0.355,-0.875 0.355,-1.594 0,-0.719 -0.117,-1.246 -0.347,-1.59 -0.235,-0.344 -0.582,-0.516 -1.043,-0.516 z m 6.199,-2.765 v 6.242 c 0,0.266 0.082,0.453 0.246,0.566 0.168,0.11 0.383,0.164 0.649,0.164 0.16,0 0.312,-0.015 0.46,-0.05 0.149,-0.036 0.301,-0.079 0.446,-0.137 l 0.23,0.629 c -0.144,0.074 -0.328,0.137 -0.547,0.191 -0.215,0.059 -0.461,0.086 -0.734,0.086 -0.481,0 -0.867,-0.133 -1.164,-0.394 -0.297,-0.266 -0.445,-0.633 -0.445,-1.102 v -5.516 h -1.657 v -0.679 z m 4.73,5.179 c 0.024,0.625 0.188,1.082 0.493,1.368 0.308,0.285 0.668,0.425 1.086,0.425 0.277,0 0.527,-0.039 0.75,-0.121 0.222,-0.082 0.453,-0.203 0.691,-0.363 l 0.406,0.566 c -0.25,0.2 -0.539,0.356 -0.863,0.469 -0.324,0.113 -0.656,0.168 -0.992,0.168 -0.528,0 -0.977,-0.117 -1.344,-0.351 -0.367,-0.239 -0.648,-0.567 -0.844,-0.989 -0.191,-0.422 -0.285,-0.914 -0.285,-1.468 0,-0.547 0.094,-1.036 0.285,-1.458 0.196,-0.425 0.469,-0.757 0.821,-1 0.355,-0.242 0.773,-0.363 1.253,-0.363 0.68,0 1.215,0.235 1.606,0.707 0.391,0.473 0.59,1.117 0.59,1.938 0,0.094 -0.004,0.179 -0.012,0.261 -0.004,0.083 -0.008,0.153 -0.012,0.211 z m 1.465,-2.41 c -0.398,0 -0.734,0.141 -1.004,0.426 -0.269,0.281 -0.422,0.723 -0.457,1.316 h 2.817 c -0.012,-0.578 -0.137,-1.011 -0.379,-1.3 -0.242,-0.297 -0.57,-0.442 -0.977,-0.442 z m 7.879,3.625 c 0,0.219 0.035,0.379 0.106,0.477 0.074,0.097 0.183,0.172 0.336,0.215 l -0.211,0.605 c -0.235,-0.031 -0.438,-0.105 -0.61,-0.219 -0.176,-0.121 -0.3,-0.3 -0.383,-0.539 -0.191,0.25 -0.437,0.438 -0.73,0.571 -0.293,0.125 -0.609,0.187 -0.961,0.187 -0.539,0 -0.965,-0.152 -1.277,-0.457 -0.309,-0.305 -0.465,-0.707 -0.465,-1.211 0,-0.555 0.215,-0.984 0.652,-1.281 0.434,-0.297 1.059,-0.445 1.879,-0.445 H 523 V 83.48 c 0,-0.386 -0.113,-0.664 -0.344,-0.824 -0.226,-0.164 -0.539,-0.246 -0.945,-0.246 -0.176,0 -0.387,0.024 -0.625,0.067 -0.238,0.043 -0.5,0.113 -0.777,0.211 l -0.227,-0.653 c 0.328,-0.121 0.637,-0.211 0.93,-0.262 0.293,-0.05 0.57,-0.074 0.836,-0.074 0.668,0 1.172,0.156 1.511,0.469 0.336,0.316 0.508,0.738 0.508,1.273 z m -2.23,0.641 c 0.265,0 0.519,-0.067 0.758,-0.199 0.242,-0.137 0.445,-0.325 0.605,-0.567 V 84.52 h -0.781 c -0.594,0 -1.016,0.101 -1.262,0.304 -0.242,0.207 -0.363,0.481 -0.363,0.828 0,0.68 0.347,1.02 1.043,1.02 z m 4.515,0.539 v -5.399 h 0.735 l 0.066,0.747 c 0.219,-0.278 0.492,-0.489 0.82,-0.637 0.329,-0.149 0.649,-0.223 0.965,-0.223 0.532,0 0.914,0.141 1.153,0.418 0.242,0.281 0.367,0.672 0.367,1.172 v 3.922 h -0.863 v -3.289 c 0,-0.367 -0.02,-0.664 -0.063,-0.891 -0.039,-0.226 -0.129,-0.39 -0.262,-0.496 -0.129,-0.105 -0.328,-0.16 -0.597,-0.16 -0.215,0 -0.414,0.047 -0.602,0.137 -0.183,0.093 -0.351,0.211 -0.496,0.351 -0.145,0.137 -0.266,0.274 -0.359,0.414 v 3.934 z"
       style="fill:#ffffff;fill-opacity:1;fill-rule:nonzero;stroke:none"
       transform="scale(1.3333333)" />
    <path
       id="path24"
       d="m 40.746,3.789 h 75.371 c 3.461,0 6.246,2.785 6.246,6.246 v 8.617 c 0,3.457 -2.785,6.246 -6.246,6.246 H 40.746 c -3.461,0 -6.246,-2.789 -6.246,-6.246 v -8.617 c 0,-3.461 2.785,-6.246 6.246,-6.246 z"
       style="fill:#805500;fill-opacity:1;fill-rule:nonzero;stroke:none"
       transform="scale(1.3333333)" />
    <path
       id="path25"
       d="m 46.164,10.281 0.863,0.11 v 7.574 h -0.754 l -0.082,-0.711 c -0.203,0.285 -0.433,0.496 -0.695,0.629 -0.262,0.133 -0.539,0.199 -0.836,0.199 -0.469,0 -0.855,-0.117 -1.16,-0.352 -0.305,-0.238 -0.531,-0.566 -0.676,-0.984 -0.148,-0.426 -0.222,-0.918 -0.222,-1.473 0,-0.539 0.086,-1.023 0.25,-1.445 0.168,-0.43 0.41,-0.766 0.722,-1.008 0.321,-0.246 0.699,-0.367 1.145,-0.367 0.597,0 1.082,0.211 1.445,0.637 z m -1.219,2.864 c -0.453,0 -0.797,0.175 -1.039,0.527 -0.246,0.351 -0.367,0.887 -0.367,1.601 0,1.407 0.434,2.114 1.297,2.114 0.305,0 0.566,-0.086 0.785,-0.258 0.219,-0.176 0.402,-0.371 0.543,-0.594 V 13.836 C 46.02,13.617 45.84,13.449 45.633,13.328 45.426,13.207 45.195,13.145 44.945,13.145 Z m 6.871,-3.11 c 0.192,0 0.348,0.059 0.461,0.176 0.118,0.117 0.176,0.258 0.176,0.426 0,0.175 -0.058,0.32 -0.176,0.441 -0.113,0.117 -0.269,0.176 -0.461,0.176 -0.183,0 -0.332,-0.059 -0.445,-0.176 -0.113,-0.121 -0.168,-0.266 -0.168,-0.441 0,-0.168 0.055,-0.309 0.168,-0.426 0.113,-0.117 0.262,-0.176 0.445,-0.176 z m 0.805,2.531 v 4.532 c 0,0.601 -0.137,1.105 -0.41,1.511 -0.27,0.411 -0.66,0.735 -1.172,0.977 -0.516,0.246 -1.133,0.43 -1.859,0.555 l -0.141,-0.668 c 0.531,-0.09 1.004,-0.223 1.414,-0.399 0.41,-0.179 0.731,-0.422 0.957,-0.73 0.235,-0.309 0.352,-0.703 0.352,-1.188 v -3.91 h -2.246 v -0.68 z m 3.484,-2.257 v 2.996 c 0.211,-0.282 0.469,-0.493 0.778,-0.637 0.312,-0.145 0.625,-0.215 0.945,-0.215 0.527,0 0.91,0.141 1.152,0.418 0.243,0.281 0.364,0.672 0.364,1.172 v 3.922 h -0.86 v -3.903 c 0,-0.324 -0.074,-0.562 -0.226,-0.707 -0.149,-0.152 -0.387,-0.226 -0.707,-0.226 -0.207,0 -0.399,0.047 -0.586,0.141 -0.184,0.089 -0.348,0.203 -0.496,0.339 -0.149,0.137 -0.27,0.278 -0.364,0.422 v 3.934 h -0.863 v -7.563 z m 9.579,7.382 c -0.184,0.125 -0.411,0.219 -0.672,0.289 -0.262,0.067 -0.52,0.102 -0.774,0.102 -0.582,0 -1.031,-0.152 -1.343,-0.457 C 62.578,17.32 62.422,16.93 62.422,16.453 V 13.23 H 61.18 v -0.664 h 1.242 V 11.34 l 0.863,-0.102 v 1.328 h 1.867 l -0.105,0.664 h -1.762 v 3.211 c 0,0.301 0.078,0.532 0.235,0.688 0.16,0.156 0.425,0.234 0.796,0.234 0.2,0 0.387,-0.023 0.559,-0.07 0.168,-0.047 0.328,-0.109 0.477,-0.184 z m 3.078,-4.14 c 0,-0.231 0.078,-0.426 0.234,-0.586 0.16,-0.16 0.359,-0.242 0.59,-0.242 0.238,0 0.437,0.082 0.594,0.242 0.164,0.16 0.242,0.355 0.242,0.586 0,0.226 -0.078,0.426 -0.242,0.59 -0.157,0.164 -0.356,0.246 -0.594,0.246 -0.231,0 -0.43,-0.082 -0.59,-0.246 -0.156,-0.164 -0.234,-0.364 -0.234,-0.59 z m 0,3.695 c 0,-0.223 0.078,-0.414 0.234,-0.578 0.16,-0.164 0.359,-0.246 0.59,-0.246 0.238,0 0.437,0.082 0.594,0.246 0.164,0.164 0.242,0.355 0.242,0.578 0,0.234 -0.078,0.434 -0.242,0.598 -0.157,0.16 -0.356,0.238 -0.594,0.238 -0.231,0 -0.43,-0.078 -0.59,-0.238 C 68.84,17.68 68.762,17.48 68.762,17.246 Z m 9.578,-2.844 c 0,0.739 -0.094,1.34 -0.285,1.809 -0.192,0.465 -0.446,0.824 -0.762,1.082 -0.313,0.254 -0.66,0.43 -1.035,0.527 -0.371,0.098 -0.742,0.145 -1.106,0.145 h -1.621 v -7.063 h 1.508 c 0.414,0 0.813,0.047 1.203,0.141 0.395,0.09 0.746,0.262 1.063,0.512 0.316,0.246 0.57,0.597 0.754,1.054 0.187,0.461 0.281,1.055 0.281,1.793 z m -0.949,0 c 0,-0.617 -0.063,-1.109 -0.196,-1.476 -0.129,-0.371 -0.3,-0.649 -0.511,-0.832 -0.211,-0.184 -0.446,-0.309 -0.696,-0.371 -0.25,-0.059 -0.496,-0.09 -0.738,-0.09 h -0.832 v 5.621 h 0.84 c 0.254,0 0.508,-0.043 0.758,-0.121 0.254,-0.082 0.484,-0.223 0.687,-0.43 0.211,-0.203 0.375,-0.492 0.5,-0.867 0.125,-0.371 0.188,-0.852 0.188,-1.434 z m 6.336,2.383 c 0,0.219 0.035,0.379 0.105,0.477 0.074,0.101 0.184,0.172 0.332,0.215 l -0.207,0.605 c -0.234,-0.031 -0.437,-0.102 -0.613,-0.219 -0.172,-0.121 -0.301,-0.301 -0.379,-0.539 -0.195,0.25 -0.438,0.438 -0.731,0.571 -0.293,0.125 -0.613,0.187 -0.961,0.187 -0.539,0 -0.964,-0.152 -1.277,-0.457 -0.312,-0.301 -0.465,-0.707 -0.465,-1.207 0,-0.559 0.215,-0.984 0.649,-1.285 0.437,-0.297 1.062,-0.445 1.882,-0.445 h 0.797 v -0.45 c 0,-0.39 -0.117,-0.668 -0.343,-0.828 -0.227,-0.164 -0.543,-0.246 -0.946,-0.246 -0.175,0 -0.386,0.024 -0.625,0.066 -0.238,0.043 -0.5,0.114 -0.781,0.211 l -0.223,-0.652 c 0.329,-0.121 0.637,-0.207 0.926,-0.262 0.297,-0.05 0.574,-0.074 0.836,-0.074 0.672,0 1.176,0.156 1.516,0.473 0.336,0.312 0.508,0.738 0.508,1.269 z m -2.235,0.641 c 0.27,0 0.524,-0.067 0.762,-0.199 0.242,-0.137 0.445,-0.325 0.605,-0.563 v -1.391 h -0.781 c -0.594,0 -1.016,0.102 -1.262,0.309 -0.242,0.203 -0.363,0.48 -0.363,0.824 0,0.68 0.348,1.02 1.039,1.02 z m 8.809,0.265 c -0.188,0.125 -0.41,0.219 -0.672,0.289 -0.266,0.067 -0.524,0.102 -0.777,0.102 -0.579,0 -1.028,-0.152 -1.344,-0.457 C 87.195,17.32 87.039,16.93 87.039,16.453 V 13.23 h -1.242 v -0.664 h 1.242 V 11.34 l 0.859,-0.102 v 1.328 h 1.868 l -0.102,0.664 h -1.766 v 3.211 c 0,0.301 0.079,0.532 0.239,0.688 0.16,0.156 0.425,0.234 0.793,0.234 0.203,0 0.386,-0.023 0.558,-0.07 0.172,-0.047 0.332,-0.109 0.477,-0.184 z m 5.73,-0.906 c 0,0.219 0.039,0.379 0.11,0.477 0.07,0.101 0.183,0.172 0.332,0.215 l -0.211,0.605 c -0.231,-0.031 -0.434,-0.102 -0.61,-0.219 -0.172,-0.121 -0.3,-0.301 -0.379,-0.539 -0.195,0.25 -0.437,0.438 -0.734,0.571 -0.289,0.125 -0.609,0.187 -0.957,0.187 -0.539,0 -0.965,-0.152 -1.277,-0.457 -0.313,-0.305 -0.469,-0.707 -0.469,-1.207 0,-0.559 0.219,-0.984 0.652,-1.285 0.434,-0.297 1.063,-0.445 1.883,-0.445 h 0.793 v -0.45 c 0,-0.39 -0.113,-0.668 -0.34,-0.828 -0.226,-0.164 -0.543,-0.246 -0.945,-0.246 -0.18,0 -0.387,0.024 -0.625,0.066 -0.238,0.043 -0.5,0.114 -0.781,0.211 l -0.227,-0.652 c 0.328,-0.121 0.641,-0.207 0.93,-0.262 0.293,-0.05 0.574,-0.074 0.836,-0.074 0.672,0 1.176,0.156 1.511,0.473 0.34,0.312 0.508,0.738 0.508,1.269 z m -2.23,0.641 c 0.269,0 0.519,-0.067 0.761,-0.199 0.243,-0.137 0.442,-0.325 0.602,-0.563 v -1.391 h -0.777 c -0.594,0 -1.016,0.102 -1.262,0.309 -0.242,0.203 -0.363,0.48 -0.363,0.824 0,0.68 0.347,1.02 1.039,1.02 z m 6.355,-0.055 c 0.418,0 0.746,-0.078 0.985,-0.23 0.238,-0.157 0.359,-0.364 0.359,-0.625 0,-0.164 -0.031,-0.305 -0.094,-0.422 -0.058,-0.121 -0.179,-0.227 -0.363,-0.324 -0.184,-0.098 -0.469,-0.196 -0.852,-0.293 -0.371,-0.09 -0.699,-0.196 -0.972,-0.317 -0.274,-0.125 -0.489,-0.281 -0.645,-0.476 -0.148,-0.196 -0.222,-0.45 -0.222,-0.758 0,-0.457 0.187,-0.817 0.566,-1.078 0.383,-0.266 0.875,-0.395 1.484,-0.395 0.434,0 0.813,0.059 1.133,0.172 0.324,0.117 0.602,0.258 0.824,0.422 l -0.379,0.586 c -0.199,-0.141 -0.425,-0.254 -0.675,-0.344 -0.246,-0.094 -0.543,-0.141 -0.895,-0.141 -0.422,0 -0.722,0.067 -0.902,0.2 -0.176,0.132 -0.266,0.3 -0.266,0.507 0,0.165 0.043,0.297 0.129,0.403 0.09,0.101 0.238,0.195 0.445,0.277 0.211,0.082 0.496,0.172 0.864,0.27 0.351,0.097 0.66,0.211 0.922,0.34 0.261,0.128 0.464,0.3 0.609,0.511 0.148,0.211 0.223,0.481 0.223,0.817 0,0.382 -0.11,0.695 -0.329,0.933 -0.218,0.235 -0.503,0.41 -0.851,0.52 -0.348,0.105 -0.711,0.156 -1.098,0.156 -0.488,0 -0.906,-0.07 -1.254,-0.211 -0.34,-0.141 -0.629,-0.316 -0.859,-0.516 l 0.492,-0.57 c 0.211,0.176 0.453,0.317 0.727,0.426 0.277,0.105 0.574,0.16 0.894,0.16 z m 4.996,-1.801 c 0.024,0.625 0.188,1.082 0.493,1.368 0.304,0.285 0.667,0.425 1.085,0.425 0.278,0 0.528,-0.039 0.75,-0.121 0.219,-0.082 0.454,-0.203 0.692,-0.363 l 0.406,0.566 c -0.25,0.2 -0.539,0.356 -0.863,0.469 -0.324,0.113 -0.656,0.168 -0.996,0.168 -0.528,0 -0.973,-0.117 -1.344,-0.352 -0.363,-0.238 -0.645,-0.566 -0.84,-0.984 -0.191,-0.426 -0.289,-0.918 -0.289,-1.473 0,-0.546 0.098,-1.035 0.289,-1.457 0.195,-0.425 0.469,-0.757 0.82,-1 0.356,-0.242 0.774,-0.363 1.25,-0.363 0.684,0 1.219,0.235 1.606,0.707 0.394,0.473 0.59,1.117 0.59,1.938 0,0.093 -0.004,0.179 -0.012,0.261 -0.004,0.082 -0.008,0.153 -0.012,0.211 z m 1.465,-2.41 c -0.398,0 -0.734,0.141 -1.004,0.426 -0.269,0.285 -0.422,0.723 -0.457,1.316 h 2.817 c -0.012,-0.578 -0.137,-1.011 -0.383,-1.3 -0.242,-0.293 -0.567,-0.442 -0.973,-0.442 z m 8.297,4.531 c -0.184,0.125 -0.406,0.219 -0.672,0.289 -0.262,0.067 -0.519,0.102 -0.773,0.102 -0.582,0 -1.028,-0.152 -1.344,-0.457 -0.316,-0.305 -0.473,-0.695 -0.473,-1.172 V 13.23 h -1.238 v -0.664 h 1.238 V 11.34 l 0.864,-0.102 v 1.328 h 1.867 l -0.106,0.664 h -1.761 v 3.211 c 0,0.301 0.078,0.532 0.234,0.688 0.16,0.156 0.426,0.234 0.797,0.234 0.199,0 0.387,-0.023 0.558,-0.07 0.168,-0.047 0.329,-0.109 0.477,-0.184 z"
       style="fill:#ffffff;fill-opacity:1;fill-rule:nonzero;stroke:none"
       transform="scale(1.3333333)" />
    <path
       id="path26"
       d="M 128.266,14.344 H 243.793"
       style="fill:none;stroke:#000000;stroke-width:1.41732;stroke-linecap:round;stroke-linejoin:miter;stroke-miterlimit:4;stroke-dasharray:none;stroke-opacity:1"
       transform="scale(1.3333333)" />
    <path
       id="path27"
       d="m -222.197,81.167 c -0.354,0.354 -9.546,-2.113 -9.675,-2.593 -0.13,-0.485 6.598,-7.214 7.081,-7.088 0.484,0.13 2.948,9.326 2.594,9.681 z"
       style="fill:#ffffff;fill-opacity:1;fill-rule:nonzero;stroke:#000000;stroke-width:1.17266;stroke-linecap:round;stroke-linejoin:round;stroke-miterlimit:4;stroke-dasharray:none;stroke-opacity:1"
       transform="matrix(-1.3333333,0.31164133,0.35726533,1.1630587,0,0)" />
    <path
       id="path28"
       d="m -231.993,83.792 c -0.355,0.354 -9.547,-2.113 -9.676,-2.593 -0.13,-0.485 6.599,-7.214 7.082,-7.088 0.484,0.13 2.948,9.326 2.594,9.681 z"
       style="fill:#ffffff;fill-opacity:1;fill-rule:nonzero;stroke:#000000;stroke-width:1.17266;stroke-linecap:round;stroke-linejoin:round;stroke-miterlimit:4;stroke-dasharray:none;stroke-opacity:1"
       transform="matrix(-1.3333333,0.31164133,0.35726533,1.1630587,0,0)" />
    <path
       id="path29"
       d="m 133.805,0.246 0.859,0.109 V 7.93 h -0.754 l -0.082,-0.715 c -0.199,0.289 -0.433,0.496 -0.695,0.633 -0.262,0.132 -0.539,0.199 -0.836,0.199 -0.469,0 -0.856,-0.117 -1.16,-0.356 -0.305,-0.234 -0.532,-0.562 -0.676,-0.984 -0.149,-0.422 -0.223,-0.914 -0.223,-1.473 0,-0.539 0.086,-1.019 0.25,-1.445 0.168,-0.426 0.41,-0.762 0.727,-1.004 0.316,-0.246 0.699,-0.371 1.14,-0.371 0.598,0 1.083,0.215 1.45,0.637 z m -1.223,2.863 c -0.449,0 -0.797,0.176 -1.039,0.528 -0.242,0.351 -0.367,0.883 -0.367,1.597 0,1.411 0.433,2.114 1.301,2.114 0.3,0 0.562,-0.086 0.781,-0.254 0.219,-0.176 0.402,-0.375 0.547,-0.598 V 3.801 C 133.656,3.582 133.477,3.41 133.27,3.293 133.062,3.168 132.832,3.109 132.582,3.109 Z M 139.453,0 c 0.192,0 0.348,0.059 0.465,0.176 0.113,0.113 0.172,0.258 0.172,0.426 0,0.171 -0.059,0.32 -0.172,0.441 -0.117,0.113 -0.273,0.172 -0.465,0.172 -0.183,0 -0.332,-0.059 -0.445,-0.172 -0.113,-0.121 -0.168,-0.27 -0.168,-0.441 0,-0.168 0.055,-0.313 0.168,-0.426 C 139.121,0.059 139.27,0 139.453,0 Z m 0.805,2.527 v 4.535 c 0,0.602 -0.137,1.106 -0.41,1.512 -0.27,0.406 -0.66,0.731 -1.172,0.973 -0.512,0.246 -1.133,0.433 -1.856,0.555 l -0.144,-0.664 c 0.531,-0.09 1.004,-0.223 1.414,-0.403 0.41,-0.176 0.73,-0.418 0.961,-0.726 0.23,-0.309 0.347,-0.707 0.347,-1.192 V 3.211 h -2.246 V 2.527 Z m 3.484,-2.254 v 2.993 c 0.211,-0.278 0.473,-0.493 0.778,-0.637 0.312,-0.141 0.628,-0.215 0.945,-0.215 0.527,0 0.91,0.141 1.152,0.422 0.246,0.281 0.367,0.672 0.367,1.168 V 7.93 h -0.863 V 4.027 c 0,-0.328 -0.074,-0.562 -0.226,-0.711 -0.149,-0.148 -0.387,-0.222 -0.707,-0.222 -0.204,0 -0.399,0.043 -0.586,0.136 -0.184,0.094 -0.348,0.208 -0.497,0.344 -0.148,0.137 -0.269,0.278 -0.363,0.422 V 7.93 h -0.863 V 0.363 Z m 9.578,7.383 c -0.183,0.125 -0.406,0.219 -0.672,0.289 -0.261,0.067 -0.519,0.102 -0.773,0.102 -0.582,0 -1.027,-0.152 -1.344,-0.457 -0.312,-0.305 -0.472,-0.695 -0.472,-1.176 V 3.195 H 148.82 V 2.527 h 1.239 V 1.301 l 0.863,-0.102 v 1.328 h 1.867 l -0.105,0.668 h -1.762 v 3.211 c 0,0.301 0.078,0.528 0.234,0.688 0.16,0.156 0.426,0.234 0.797,0.234 0.199,0 0.387,-0.023 0.559,-0.07 0.172,-0.051 0.328,-0.11 0.476,-0.188 z m 3.078,-4.144 c 0,-0.227 0.079,-0.422 0.235,-0.582 0.16,-0.164 0.359,-0.242 0.59,-0.242 0.242,0 0.437,0.078 0.597,0.242 0.16,0.16 0.239,0.355 0.239,0.582 0,0.23 -0.079,0.426 -0.239,0.59 -0.16,0.164 -0.355,0.246 -0.597,0.246 -0.231,0 -0.43,-0.082 -0.59,-0.246 -0.156,-0.164 -0.235,-0.36 -0.235,-0.59 z m 0,3.699 c 0,-0.223 0.079,-0.418 0.235,-0.582 0.16,-0.164 0.359,-0.246 0.59,-0.246 0.242,0 0.437,0.082 0.597,0.246 0.16,0.164 0.239,0.359 0.239,0.582 0,0.23 -0.079,0.43 -0.239,0.594 -0.16,0.16 -0.355,0.242 -0.597,0.242 -0.231,0 -0.43,-0.082 -0.59,-0.242 -0.156,-0.164 -0.235,-0.364 -0.235,-0.594 z m 7.36,-4.797 c 0.476,0 0.859,0.117 1.144,0.352 0.286,0.23 0.493,0.558 0.618,0.984 0.128,0.418 0.191,0.91 0.191,1.477 0,0.543 -0.078,1.027 -0.231,1.457 -0.152,0.421 -0.378,0.754 -0.687,1 -0.309,0.242 -0.695,0.363 -1.164,0.363 -0.59,0 -1.067,-0.211 -1.426,-0.625 v 2.574 l -0.863,0.106 V 2.527 h 0.734 l 0.074,0.754 c 0.196,-0.277 0.434,-0.488 0.707,-0.64 0.274,-0.149 0.575,-0.227 0.903,-0.227 z m -0.207,0.695 c -0.297,0 -0.559,0.09 -0.789,0.27 -0.231,0.18 -0.414,0.375 -0.559,0.594 v 2.679 c 0.141,0.207 0.317,0.375 0.527,0.496 0.215,0.122 0.454,0.18 0.708,0.18 0.449,0 0.785,-0.172 1.011,-0.512 0.227,-0.343 0.34,-0.875 0.34,-1.597 0,-1.407 -0.414,-2.11 -1.238,-2.11 z m 3.996,4.821 V 7.266 h 0.84 V 3.191 h -0.84 V 2.527 h 1.496 l 0.16,1.278 c 0.207,-0.446 0.461,-0.789 0.758,-1.032 0.297,-0.242 0.691,-0.363 1.18,-0.363 0.152,0 0.285,0.012 0.402,0.035 0.117,0.02 0.238,0.047 0.363,0.082 l -0.125,1.828 h -0.707 V 3.207 c -0.012,0 -0.027,0 -0.047,0 -0.824,0 -1.418,0.59 -1.777,1.773 v 2.286 h 1.098 V 7.93 Z M 175.695,0 c 0.192,0 0.344,0.059 0.457,0.176 0.118,0.113 0.176,0.258 0.176,0.426 0,0.171 -0.058,0.32 -0.176,0.441 -0.113,0.113 -0.265,0.172 -0.457,0.172 -0.179,0 -0.328,-0.059 -0.445,-0.172 -0.117,-0.121 -0.176,-0.27 -0.176,-0.441 0,-0.168 0.059,-0.313 0.176,-0.426 C 175.367,0.059 175.516,0 175.695,0 Z m 0.688,2.527 v 4.719 h 1.523 V 7.93 h -4.051 V 7.246 h 1.665 V 3.211 h -1.614 V 2.527 Z m 7.922,0 -1.965,5.403 h -1 l -1.945,-5.403 h 0.91 l 1.566,4.618 1.543,-4.618 z m 5.519,4.223 c 0,0.219 0.035,0.375 0.106,0.477 0.074,0.097 0.183,0.171 0.336,0.214 l -0.211,0.606 c -0.235,-0.031 -0.438,-0.106 -0.61,-0.223 -0.175,-0.117 -0.3,-0.297 -0.379,-0.535 -0.195,0.246 -0.441,0.438 -0.734,0.566 -0.293,0.129 -0.609,0.192 -0.961,0.192 -0.539,0 -0.965,-0.152 -1.277,-0.457 -0.309,-0.305 -0.465,-0.707 -0.465,-1.211 0,-0.559 0.219,-0.984 0.652,-1.281 0.434,-0.297 1.059,-0.446 1.883,-0.446 h 0.793 V 4.199 c 0,-0.39 -0.113,-0.664 -0.344,-0.824 -0.226,-0.164 -0.539,-0.246 -0.945,-0.246 -0.176,0 -0.383,0.023 -0.625,0.066 -0.238,0.039 -0.496,0.11 -0.777,0.211 l -0.227,-0.652 c 0.328,-0.125 0.637,-0.211 0.93,-0.262 0.293,-0.051 0.57,-0.078 0.836,-0.078 0.668,0 1.172,0.16 1.511,0.473 0.34,0.316 0.508,0.738 0.508,1.273 z m -2.23,0.641 c 0.265,0 0.519,-0.067 0.758,-0.2 0.242,-0.136 0.445,-0.328 0.605,-0.566 V 5.234 h -0.781 c -0.594,0 -1.012,0.106 -1.262,0.309 -0.242,0.207 -0.363,0.48 -0.363,0.828 0,0.68 0.347,1.02 1.043,1.02 z m 8.804,0.265 c -0.183,0.125 -0.41,0.219 -0.671,0.289 -0.262,0.067 -0.524,0.102 -0.774,0.102 -0.582,0 -1.031,-0.152 -1.344,-0.457 -0.316,-0.305 -0.472,-0.695 -0.472,-1.176 V 3.195 h -1.242 V 2.527 h 1.242 V 1.301 L 194,1.199 v 1.328 h 1.863 l -0.101,0.668 H 194 v 3.211 c 0,0.301 0.078,0.528 0.234,0.688 0.161,0.156 0.426,0.234 0.793,0.234 0.203,0 0.391,-0.023 0.559,-0.07 0.172,-0.051 0.332,-0.11 0.48,-0.188 z m 2.543,-2.121 c 0.024,0.625 0.188,1.082 0.493,1.367 0.308,0.286 0.671,0.426 1.086,0.426 0.277,0 0.527,-0.039 0.75,-0.121 0.222,-0.082 0.453,-0.207 0.691,-0.367 l 0.406,0.57 c -0.25,0.199 -0.535,0.356 -0.863,0.465 -0.324,0.113 -0.656,0.172 -0.992,0.172 -0.528,0 -0.977,-0.117 -1.344,-0.356 -0.367,-0.234 -0.648,-0.562 -0.84,-0.984 -0.191,-0.422 -0.289,-0.914 -0.289,-1.473 0,-0.546 0.098,-1.031 0.289,-1.453 0.192,-0.426 0.465,-0.758 0.82,-1 0.356,-0.246 0.77,-0.367 1.25,-0.367 0.68,0 1.215,0.238 1.606,0.711 0.391,0.469 0.59,1.117 0.59,1.937 0,0.09 -0.004,0.18 -0.012,0.262 -0.004,0.082 -0.008,0.153 -0.012,0.211 z m 1.469,-2.41 c -0.402,0 -0.738,0.141 -1.008,0.422 -0.269,0.285 -0.422,0.726 -0.457,1.32 h 2.817 C 201.754,4.289 201.625,3.855 201.383,3.562 201.141,3.27 200.816,3.125 200.41,3.125 Z m 3.492,6.664 V 9.035 h 5.125 v 0.754 z m 8.774,-9.434 v 6.239 c 0,0.269 0.082,0.457 0.246,0.57 0.168,0.109 0.383,0.164 0.644,0.164 0.161,0 0.317,-0.016 0.461,-0.051 0.153,-0.035 0.301,-0.082 0.45,-0.14 l 0.23,0.633 c -0.148,0.07 -0.332,0.132 -0.551,0.187 -0.215,0.059 -0.461,0.09 -0.734,0.09 -0.477,0 -0.863,-0.133 -1.164,-0.395 -0.297,-0.269 -0.446,-0.636 -0.446,-1.105 V 1.035 h -1.656 V 0.355 Z M 218.773,0 c 0.192,0 0.344,0.059 0.457,0.176 0.114,0.113 0.172,0.258 0.172,0.426 0,0.171 -0.058,0.32 -0.172,0.437 -0.113,0.117 -0.265,0.176 -0.457,0.176 -0.183,0 -0.332,-0.059 -0.445,-0.176 -0.117,-0.117 -0.176,-0.266 -0.176,-0.437 0,-0.168 0.059,-0.313 0.176,-0.426 C 218.441,0.059 218.59,0 218.773,0 Z m 0.688,2.527 v 4.719 h 1.523 V 7.93 H 216.93 V 7.246 h 1.668 V 3.211 h -1.614 V 2.527 Z m 3.418,5.403 V 2.527 h 0.734 l 0.067,0.75 c 0.218,-0.277 0.492,-0.488 0.82,-0.636 0.328,-0.149 0.648,-0.227 0.965,-0.227 0.531,0 0.914,0.141 1.152,0.422 0.242,0.281 0.367,0.672 0.367,1.168 V 7.93 h -0.863 V 4.641 c 0,-0.368 -0.019,-0.668 -0.062,-0.891 -0.039,-0.227 -0.129,-0.395 -0.262,-0.5 -0.129,-0.105 -0.328,-0.156 -0.598,-0.156 -0.215,0 -0.414,0.043 -0.601,0.136 -0.184,0.094 -0.352,0.208 -0.496,0.348 -0.145,0.137 -0.266,0.277 -0.36,0.418 V 7.93 Z m 7.074,-7.684 V 7.93 H 229.09 V 0.355 Z m 3.606,2.281 -2.434,2.43 2.715,2.973 h -1.133 l -2.656,-2.95 2.387,-2.453 z m 3.464,4.805 c 0.418,0 0.747,-0.074 0.985,-0.23 0.238,-0.153 0.359,-0.364 0.359,-0.625 0,-0.161 -0.031,-0.301 -0.094,-0.422 C 238.215,5.938 238.094,5.828 237.91,5.734 237.727,5.633 237.441,5.535 237.059,5.441 236.688,5.348 236.363,5.242 236.086,5.125 235.812,5 235.598,4.84 235.445,4.645 c -0.152,-0.192 -0.226,-0.446 -0.226,-0.758 0,-0.453 0.191,-0.813 0.57,-1.078 0.379,-0.262 0.871,-0.395 1.481,-0.395 0.433,0 0.812,0.059 1.132,0.176 0.325,0.117 0.602,0.258 0.828,0.422 l -0.382,0.582 c -0.2,-0.141 -0.426,-0.254 -0.676,-0.344 -0.246,-0.09 -0.543,-0.137 -0.891,-0.137 -0.426,0 -0.726,0.067 -0.902,0.199 -0.18,0.129 -0.27,0.301 -0.27,0.508 0,0.16 0.043,0.293 0.129,0.399 0.09,0.105 0.239,0.195 0.446,0.277 0.211,0.082 0.496,0.176 0.863,0.274 0.351,0.093 0.66,0.207 0.922,0.339 0.265,0.129 0.469,0.301 0.609,0.512 0.149,0.207 0.223,0.481 0.223,0.817 0,0.382 -0.11,0.691 -0.328,0.933 -0.219,0.234 -0.504,0.406 -0.852,0.516 -0.344,0.105 -0.711,0.16 -1.098,0.16 -0.488,0 -0.906,-0.07 -1.25,-0.211 -0.343,-0.145 -0.628,-0.316 -0.863,-0.52 l 0.492,-0.566 c 0.211,0.172 0.457,0.316 0.731,0.426 0.273,0.105 0.574,0.156 0.89,0.156 z"
       style="fill:#000000;fill-opacity:1;fill-rule:nonzero;stroke:none"
       transform="scale(1.3333333)" />
  </g>
</svg>
