<?xml version="1.0" encoding="UTF-8" standalone="no"?>
<!-- Created with Inkscape (http://www.inkscape.org/) -->

<svg
   version="1.1"
   id="svg1"
   width="869.29132"
   height="124.7811"
   viewBox="0 0 869.29132 124.7811"
   sodipodi:docname="typed-notation.pdf"
   xmlns:inkscape="http://www.inkscape.org/namespaces/inkscape"
   xmlns:sodipodi="http://sodipodi.sourceforge.net/DTD/sodipodi-0.dtd"
   xmlns="http://www.w3.org/2000/svg"
   xmlns:svg="http://www.w3.org/2000/svg">
  <defs
     id="defs1" />
  <sodipodi:namedview
     id="namedview1"
     pagecolor="#ffffff"
     bordercolor="#000000"
     borderopacity="0.25"
     inkscape:showpageshadow="2"
     inkscape:pageopacity="0.0"
     inkscape:pagecheckerboard="0"
     inkscape:deskcolor="#d1d1d1">
    <inkscape:page
       x="0"
       y="0"
       inkscape:label="1"
       id="page1"
       width="869.29132"
       height="124.7811"
       margin="0"
       bleed="0" />
  </sodipodi:namedview>
  <g
     id="g1"
     inkscape:groupmode="layer"
     inkscape:label="1">
    <path
       id="path1"
       d="m 126.188,0.566 h 399.597 c 1.57,0 2.836,1.266 2.836,2.836 v 32.782 c 0,1.57 -1.266,2.836 -2.836,2.836 H 126.188 c -1.571,0 -2.836,-1.266 -2.836,-2.836 V 3.402 c 0,-1.57 1.265,-2.836 2.836,-2.836 z"
       style="fill:#f9f9f9;fill-opacity:1;fill-rule:nonzero;stroke:#cccccc;stroke-width:1.13386;stroke-linecap:round;stroke-linejoin:round;stroke-miterlimit:4;stroke-dasharray:3.40158, 3.40158;stroke-dashoffset:0;stroke-opacity:1"
       transform="scale(1.3333333)" />
    <path
       id="path2"
       d="m 3.4444853,-5.5088678 c 0.4746094,0 0.8554688,0.1171875 1.1367188,0.3515625 0.2871093,0.2285156 0.4951172,0.5507812 0.6210937,0.9726562 0.131836,0.421875 0.1992188,0.9140625 0.1992188,1.4765625 0,0.5478516 -0.079102,1.0371094 -0.234375,1.4648438 -0.1494141,0.42187499 -0.3808594,0.75585936 -0.6914063,0.99609374 -0.3046875,0.24316406 -0.6914062,0.36328125 -1.1601562,0.36328125 -0.5947266,0 -1.0722657,-0.20507813 -1.4296875,-0.62109375 V 2.0614447 L 1.0304228,2.1669134 v -7.5703125 h 0.7265625 l 0.082031,0.7617188 c 0.1933593,-0.28125 0.4277343,-0.4951172 0.703125,-0.6445313 0.2724609,-0.1464843 0.5742187,-0.2226562 0.902344,-0.2226562 z m -0.2109375,0.6914062 c -0.2988281,0 -0.5595703,0.09082 -0.7851562,0.2695313 -0.2285157,0.1816406 -0.4160157,0.3808594 -0.5625,0.5976562 v 2.671875 c 0.140625,0.2109375 0.3164062,0.38085941 0.5273437,0.50390629 0.2167969,0.1171875 0.4570313,0.17578125 0.7148438,0.17578125 0.4453125,0 0.7792968,-0.16992188 1.0078125,-0.51562504 0.2255859,-0.3427734 0.3398437,-0.8730468 0.3398437,-1.59375 0,-1.40625 -0.4160156,-2.109375 -1.2421875,-2.109375 z m 3.9990235,4.81640629 v -0.65625 h 0.84375 V -4.7354303 h -0.84375 v -0.6679688 h 1.5 l 0.1640625,1.2773438 c 0.2021484,-0.4453125 0.4511718,-0.7880859 0.75,-1.03125 0.2958984,-0.2402344 0.6914062,-0.3632813 1.1835942,-0.3632813 0.146484,0 0.28125,0.011719 0.398437,0.035156 0.117188,0.023437 0.237305,0.052734 0.363281,0.082031 l -0.117187,1.828125 h -0.714844 v -1.1484375 c -0.0088,0 -0.02344,0 -0.04687,0 -0.8291016,0 -1.4179687,0.5917969 -1.7695312,1.7695313 v 2.29687499 h 1.0898442 v 0.65625 z M 14.017728,-2.3916803 c 0.02344,0.6269531 0.1875,1.0839844 0.492187,1.3710937 0.304688,0.28125004 0.662109,0.42187504 1.078125,0.42187504 0.28125,0 0.530273,-0.0380859 0.75,-0.1171875 0.225586,-0.0849609 0.457031,-0.2109375 0.691406,-0.37500004 l 0.410157,0.57421879 c -0.251954,0.19628906 -0.539063,0.3515625 -0.867188,0.46875 -0.322266,0.10839843 -0.650391,0.1640625 -0.984375,0.1640625 -0.533203,0 -0.981445,-0.1171875 -1.347656,-0.3515625 -0.369141,-0.234375 -0.650391,-0.5625 -0.84375,-0.98437499 -0.1875,-0.421875 -0.28125,-0.9140625 -0.28125,-1.4765625 0,-0.5449219 0.09375,-1.03125 0.28125,-1.453125 0.193359,-0.421875 0.46875,-0.7529297 0.820312,-0.9960938 0.357422,-0.2402343 0.776367,-0.3632812 1.253907,-0.3632812 0.679687,0 1.21289,0.234375 1.605468,0.703125 0.389649,0.46875 0.585938,1.1132812 0.585938,1.9335937 0,0.09375 -0.0059,0.1845703 -0.01172,0.2695313 0,0.079102 -0.0059,0.149414 -0.01172,0.2109375 z m 1.464843,-2.4140625 c -0.398437,0 -0.735351,0.1464844 -1.007812,0.4335937 -0.275391,0.28125 -0.427735,0.7207032 -0.457031,1.3125 h 2.8125 c -0.0088,-0.5771484 -0.134766,-1.0107421 -0.375,-1.3007812 -0.243165,-0.2958984 -0.56836,-0.4453125 -0.972657,-0.4453125 z m 7.245117,-2.8710938 0.855469,0.1054688 v 7.57031249 h -0.75 l -0.08203,-0.71484375 c -0.205078,0.29003906 -0.439453,0.50097656 -0.703125,0.6328125 -0.257813,0.13183593 -0.536133,0.19921875 -0.832031,0.19921875 -0.46875,0 -0.855469,-0.1171875 -1.160157,-0.3515625 -0.304687,-0.234375 -0.533203,-0.5625 -0.679687,-0.98437499 -0.149414,-0.421875 -0.222656,-0.9140625 -0.222656,-1.4765625 0,-0.5390625 0.08203,-1.0195313 0.246093,-1.4414063 0.169922,-0.4277343 0.413086,-0.7646484 0.726563,-1.0078125 0.319336,-0.2402343 0.703125,-0.3632812 1.148437,-0.3632812 0.600586,0 1.083985,0.2109375 1.453125,0.6328125 z m -1.230468,2.859375 c -0.445313,0 -0.791016,0.1757813 -1.03125,0.5273438 -0.243164,0.3515625 -0.363282,0.8847656 -0.363282,1.59375 0,1.415039 0.427735,2.12109374 1.289063,2.12109374 0.304687,0 0.56543,-0.0849609 0.785156,-0.2578125 0.216797,-0.17871094 0.401367,-0.37792974 0.550781,-0.59765624 v -2.6953125 c -0.149414,-0.2167969 -0.328125,-0.3867188 -0.539062,-0.5039063 -0.210938,-0.1230468 -0.442383,-0.1875 -0.691406,-0.1875 z m 6.1875,-3.1054687 c 0.193359,0 0.345703,0.058594 0.457031,0.1757812 0.117187,0.1113282 0.175781,0.2519532 0.175781,0.421875 0,0.1728516 -0.05859,0.3164063 -0.175781,0.4335938 -0.111328,0.1171875 -0.263672,0.1757812 -0.457031,0.1757812 -0.181641,0 -0.328125,-0.058594 -0.445313,-0.1757812 -0.111328,-0.1171875 -0.164062,-0.2607422 -0.164062,-0.4335938 0,-0.1699218 0.05273,-0.3105468 0.164062,-0.421875 0.117188,-0.1171875 0.263672,-0.1757812 0.445313,-0.1757812 z m 0.691406,2.5195312 v 4.72265629 h 1.523437 v 0.6796875 h -4.054687 v -0.6796875 h 1.675781 V -4.7119928 H 25.90347 v -0.6914063 z m 5.862305,4.78125004 c 0.272461,0 0.527343,-0.0410156 0.761718,-0.12890625 0.234375,-0.09375 0.448243,-0.2109375 0.644532,-0.35156249 l 0.421875,0.57421874 c -0.234375,0.19628906 -0.521485,0.3515625 -0.855469,0.46875 -0.328125,0.1171875 -0.65332,0.17578125 -0.972656,0.17578125 -0.539063,0 -0.996094,-0.11425782 -1.371094,-0.33984375 -0.375,-0.234375 -0.665039,-0.55664063 -0.867188,-0.97265624 -0.196289,-0.421875 -0.292968,-0.9140625 -0.292968,-1.4765625 0,-0.5390625 0.09668,-1.022461 0.292968,-1.453125 0.202149,-0.4277344 0.492188,-0.7646484 0.867188,-1.0078125 0.380859,-0.2490234 0.84375,-0.375 1.382812,-0.375 0.685547,0 1.289063,0.2080078 1.804688,0.6210937 l -0.421875,0.5742188 c -0.46875,-0.3193359 -0.93457,-0.4804688 -1.394531,-0.4804688 -0.462891,0 -0.84375,0.1757813 -1.148438,0.5273438 -0.298828,0.3515625 -0.445312,0.8847656 -0.445312,1.59375 0,0.7207031 0.146484,1.2421875 0.445312,1.5703125 0.304688,0.32226561 0.685547,0.48046874 1.148438,0.48046874 z m 7.582031,-0.56250004 c 0,0.2197266 0.03516,0.38085941 0.105469,0.48046879 0.07031,0.10253906 0.178711,0.17285156 0.328125,0.2109375 l -0.210938,0.609375 c -0.228515,-0.03222657 -0.430664,-0.10546875 -0.609375,-0.22265625 -0.172851,-0.1171875 -0.298828,-0.29589844 -0.375,-0.5390625 -0.196289,0.25195312 -0.442383,0.44238281 -0.738281,0.57421875 -0.290039,0.12304687 -0.606445,0.1875 -0.949219,0.1875 -0.539062,0 -0.966797,-0.15234375 -1.277344,-0.45703125 -0.313476,-0.3046875 -0.46875,-0.70605474 -0.46875,-1.20703124 0,-0.553711 0.213868,-0.9785156 0.644532,-1.2773438 0.436523,-0.3046875 1.066406,-0.4570312 1.886718,-0.4570312 h 0.796875 v -0.4453125 c 0,-0.3896484 -0.114257,-0.6621094 -0.339843,-0.8203125 -0.228516,-0.1640625 -0.544922,-0.2460938 -0.949219,-0.2460938 -0.181641,0 -0.392578,0.020508 -0.632813,0.058594 -0.234375,0.041016 -0.492187,0.1113281 -0.773437,0.2109375 l -0.222656,-0.6445313 c 0.328125,-0.1230468 0.635742,-0.2109375 0.925781,-0.2578125 0.295898,-0.052734 0.574219,-0.082031 0.832031,-0.082031 0.670899,0 1.174805,0.1582031 1.511719,0.46875 0.342773,0.3134766 0.515625,0.7353516 0.515625,1.265625 z m -2.238281,0.64453129 c 0.272461,0 0.527343,-0.0644531 0.761718,-0.19921875 0.240235,-0.13183594 0.445313,-0.31933594 0.609375,-0.56250004 v -1.3945312 h -0.785156 c -0.594726,0 -1.013672,0.1054687 -1.253906,0.3164062 -0.243164,0.2050782 -0.363281,0.4775391 -0.363281,0.8203125 0,0.67968754 0.342773,1.01953129 1.03125,1.01953129 z m 8.815429,0.26953125 c -0.1875,0.12597656 -0.416015,0.21972656 -0.679687,0.28125 -0.257813,0.0703125 -0.515625,0.10546875 -0.773438,0.10546875 -0.580078,0 -1.02832,-0.15234375 -1.347656,-0.45703125 -0.313476,-0.3046875 -0.46875,-0.69433594 -0.46875,-1.17187504 V -4.7354303 H 43.89761 v -0.6679688 h 1.230469 v -1.21875 l 0.867188,-0.1054687 v 1.3242187 h 1.863281 l -0.105469,0.6679688 h -1.757812 v 3.2109375 c 0,0.3046875 0.07617,0.5361328 0.234375,0.69140624 0.164062,0.15820312 0.427734,0.234375 0.796875,0.234375 0.202148,0 0.386718,-0.0234375 0.550781,-0.0703125 0.169922,-0.046875 0.331055,-0.10839844 0.480469,-0.1875 z m 2.542969,-2.12109374 c 0.02344,0.6269531 0.1875,1.0839844 0.492188,1.3710937 0.304687,0.28125004 0.662109,0.42187504 1.078125,0.42187504 0.28125,0 0.530273,-0.0380859 0.75,-0.1171875 0.225586,-0.0849609 0.457031,-0.2109375 0.691406,-0.37500004 l 0.410156,0.57421879 c -0.251953,0.19628906 -0.539062,0.3515625 -0.867187,0.46875 -0.322266,0.10839843 -0.650391,0.1640625 -0.984375,0.1640625 -0.533204,0 -0.981446,-0.1171875 -1.347657,-0.3515625 -0.36914,-0.234375 -0.65039,-0.5625 -0.84375,-0.98437499 -0.1875,-0.421875 -0.28125,-0.9140625 -0.28125,-1.4765625 0,-0.5449219 0.09375,-1.03125 0.28125,-1.453125 0.19336,-0.421875 0.46875,-0.7529297 0.820313,-0.9960938 0.357422,-0.2402343 0.776367,-0.3632812 1.253906,-0.3632812 0.679688,0 1.212891,0.234375 1.605469,0.703125 0.389648,0.46875 0.585937,1.1132812 0.585937,1.9335937 0,0.09375 -0.0059,0.1845703 -0.01172,0.2695313 0,0.079102 -0.0059,0.149414 -0.01172,0.2109375 z m 1.464844,-2.4140625 c -0.398438,0 -0.735352,0.1464844 -1.007813,0.4335937 -0.27539,0.28125 -0.427734,0.7207032 -0.457031,1.3125 h 2.8125 c -0.0088,-0.5771484 -0.134766,-1.0107421 -0.375,-1.3007812 -0.243164,-0.2958984 -0.568359,-0.4453125 -0.972656,-0.4453125 z m 0,0"
       style="fill:#000000;fill-opacity:1;fill-rule:nonzero;stroke:none"
       aria-label="predicate"
       transform="matrix(1.3333333,0,0,1.3333333,274.27845,19.442813)" />
    <path
       id="path3"
       d="M 263.02,19.715 203.41,19.598"
       style="fill:none;stroke:#000000;stroke-width:1.41732;stroke-linecap:round;stroke-linejoin:round;stroke-miterlimit:4;stroke-dasharray:none;stroke-opacity:1"
       transform="scale(1.3333333)" />
    <path
       id="path4"
       d="m -238.963,91.749 c -0.354,0.355 -9.545,-2.108 -9.675,-2.593 -0.13,-0.484 6.598,-7.213 7.082,-7.083 0.485,0.13 2.948,9.322 2.593,9.676 z"
       style="fill:#000000;fill-opacity:1;fill-rule:nonzero;stroke:#000000;stroke-width:1.17266;stroke-linecap:round;stroke-linejoin:round;stroke-miterlimit:4;stroke-dasharray:none;stroke-opacity:1"
       transform="matrix(-1.3333333,0.31164133,0.35726533,1.1630587,0,0)" />
    <path
       id="path5"
       d="m 147.652,9.102 h 45.313 c 3.461,0 6.246,2.785 6.246,6.246 v 8.617 c 0,3.461 -2.785,6.246 -6.246,6.246 h -45.313 c -3.461,0 -6.246,-2.785 -6.246,-6.246 v -8.617 c 0,-3.461 2.785,-6.246 6.246,-6.246 z"
       style="fill:#f2f2f2;fill-opacity:1;fill-rule:nonzero;stroke:#4d4d4d;stroke-width:1.41732;stroke-linecap:round;stroke-linejoin:round;stroke-miterlimit:4;stroke-dasharray:none;stroke-opacity:1"
       transform="scale(1.3333333)" />
    <path
       id="path6"
       d="m 2.8711076,-0.59744638 c 0.413086,0 0.7382813,-0.0732422 0.9726563,-0.22265625 0.2402344,-0.15527343 0.3632812,-0.36621097 0.3632812,-0.63281247 0,-0.1552735 -0.032227,-0.2929688 -0.09375,-0.4101563 -0.055664,-0.1230469 -0.1757812,-0.234375 -0.3632812,-0.328125 -0.1816406,-0.099609 -0.4628906,-0.1992187 -0.84375,-0.2929687 -0.375,-0.09375 -0.703125,-0.1992188 -0.984375,-0.3164063 C 1.6464983,-2.9236183 1.4355608,-3.0847511 1.2890764,-3.2810401 1.1396623,-3.4743995 1.0664201,-3.7292823 1.0664201,-4.0427589 c 0,-0.4511719 0.1875,-0.8085937 0.5625,-1.0664062 0.3808594,-0.2636719 0.8789063,-0.3984375 1.4882813,-0.3984375 0.4277344,0 0.8027344,0.058594 1.125,0.1757812 0.328125,0.1113281 0.6035156,0.2460938 0.8320312,0.4101563 l -0.3867187,0.5859375 c -0.2050781,-0.140625 -0.4306641,-0.2519532 -0.6796875,-0.3398438 -0.2431641,-0.09375 -0.5390625,-0.140625 -0.890625,-0.140625 -0.421875,0 -0.7236328,0.067383 -0.9023438,0.1992188 -0.1728515,0.1347656 -0.2578125,0.3046875 -0.2578125,0.515625 0,0.1582031 0.041016,0.290039 0.1289063,0.3984375 0.084961,0.102539 0.2285156,0.196289 0.4335937,0.28125 0.2109375,0.079101 0.4980469,0.1699218 0.8671875,0.2695312 0.3515625,0.09375 0.6591797,0.2080078 0.9257813,0.3398438 0.2636719,0.1259765 0.46875,0.2929687 0.609375,0.5039062 0.1464844,0.2109375 0.2226562,0.4863281 0.2226562,0.8203125 0,0.3837891 -0.1113281,0.69726565 -0.328125,0.93750002 -0.2197265,0.234375 -0.5039062,0.40722657 -0.8554687,0.515625 C 3.6152483,0.064663 3.251967,0.11739737 2.8711076,0.11739737 c -0.4921875,0 -0.9111328,-0.0703125 -1.2539062,-0.2109375 -0.3457031,-0.140625 -0.63281252,-0.31054687 -0.86718752,-0.515625 L 1.2422014,-1.1833839 c 0.2109375,0.1816406 0.4511719,0.32519534 0.7265625,0.43359377 0.28125,0.10253907 0.5800781,0.15234375 0.9023437,0.15234375 z M 8.0420061,-5.4021339 v 3.8320313 c 0,0.3515625 0.073242,0.60644529 0.2226562,0.76171872 0.1464844,0.15820313 0.3779297,0.234375 0.6914063,0.234375 0.2958984,0 0.5771484,-0.0820313 0.84375,-0.24609375 C 10.06349,-0.9900245 10.271498,-1.1951026 10.420912,-1.4294776 v -3.9726563 h 0.855469 V 2.09875e-4 H 10.5381 L 10.46779,-0.72635263 c -0.210937,0.27539063 -0.4746091,0.48632813 -0.7851559,0.6328125 -0.3134766,0.140625 -0.6269532,0.2109375 -0.9375,0.2109375 -0.5244141,0 -0.9140625,-0.13476562 -1.171875,-0.41015625 C 7.3154436,-0.57400888 7.1865373,-0.966587 7.1865373,-1.4763526 v -3.9257813 z m 6.1523439,0.703125 c 0.193359,-0.2578125 0.421875,-0.4570312 0.679687,-0.5976562 0.263672,-0.140625 0.553711,-0.2109375 0.867188,-0.2109375 0.474609,0 0.861328,0.1171875 1.160156,0.3515625 0.295899,0.2285156 0.509766,0.5507812 0.644531,0.9726562 0.140625,0.421875 0.210938,0.9140625 0.210938,1.4765625 0,0.5478516 -0.08203,1.0371094 -0.246094,1.4648438 -0.158203,0.42187497 -0.395508,0.75585935 -0.714844,0.99609372 -0.313476,0.24316407 -0.703125,0.36328125 -1.171875,0.36328125 -0.626953,0 -1.11914,-0.22558593 -1.476562,-0.6796875 l -0.05859,0.562500005 h -0.75 V -7.5701026 l 0.855469,-0.1054688 z m 1.230469,4.12500002 c 0.445312,0 0.788086,-0.17578125 1.03125,-0.52734372 0.240234,-0.3515625 0.363281,-0.8847657 0.363281,-1.6054688 0,-1.40625 -0.421875,-2.109375 -1.265625,-2.109375 -0.304688,0 -0.571289,0.09082 -0.796875,0.2695313 -0.228516,0.1816406 -0.416016,0.3808593 -0.5625,0.5976562 v 2.671875 c 0.140625,0.2197266 0.316406,0.39257815 0.527344,0.51562502 0.216796,0.12597657 0.451171,0.1875 0.703125,0.1875 z m 6.799804,-7.34765622 c 0.1875,0 0.339844,0.058594 0.457032,0.1757812 0.117187,0.1113281 0.175781,0.2519531 0.175781,0.421875 0,0.1728516 -0.05859,0.3164063 -0.175781,0.4335938 -0.117188,0.1171875 -0.269532,0.1757812 -0.457032,0.1757812 -0.1875,0 -0.339843,-0.058594 -0.457031,-0.1757812 -0.111328,-0.1171875 -0.164062,-0.2607422 -0.164062,-0.4335938 0,-0.1699219 0.05273,-0.3105469 0.164062,-0.421875 0.117188,-0.1171875 0.269531,-0.1757812 0.457031,-0.1757812 z m 0.796875,2.5195312 v 4.53515627 c 0,0.60351563 -0.137695,1.10449219 -0.410156,1.51171875 -0.266602,0.40429688 -0.65625,0.72949218 -1.171875,0.97265628 -0.509766,0.2490234 -1.125,0.4335937 -1.851562,0.5507812 l -0.140625,-0.65625 c 0.530273,-0.09375 0.999023,-0.2314453 1.40625,-0.4101562 0.413085,-0.17285159 0.732421,-0.41601565 0.960937,-0.72656253 0.234375,-0.3046875 0.351563,-0.69726562 0.351563,-1.18359375 V -4.7107276 h -2.25 v -0.6914063 z m 3.304688,3.0117188 c 0.02344,0.6269531 0.1875,1.0839843 0.492187,1.3710937 0.304688,0.28125002 0.66211,0.42187502 1.078125,0.42187502 0.28125,0 0.530274,-0.0380859 0.75,-0.1171875 0.225586,-0.0849609 0.457032,-0.2109375 0.691407,-0.37500002 l 0.410156,0.57421877 c -0.251953,0.19628907 -0.539063,0.3515625 -0.867188,0.46875 -0.322265,0.10839844 -0.65039,0.1640625 -0.984375,0.1640625 -0.533203,0 -0.981445,-0.117187495 -1.347656,-0.3515625 -0.369141,-0.234375 -0.650391,-0.5625 -0.84375,-0.98437497 -0.1875,-0.421875 -0.28125,-0.9140625 -0.28125,-1.4765625 0,-0.5449219 0.09375,-1.03125 0.28125,-1.453125 0.193359,-0.421875 0.46875,-0.7529297 0.820313,-0.9960938 0.357421,-0.2402344 0.776367,-0.3632812 1.253906,-0.3632812 0.679687,0 1.21289,0.234375 1.605469,0.703125 0.389648,0.46875 0.585937,1.1132812 0.585937,1.9335937 0,0.09375 -0.0059,0.1845703 -0.01172,0.2695313 0,0.079101 -0.0059,0.149414 -0.01172,0.2109375 z m 1.464844,-2.4140625 c -0.398438,0 -0.735352,0.1464843 -1.007813,0.4335937 -0.275391,0.28125 -0.427734,0.7207031 -0.457031,1.3125 h 2.8125 c -0.0088,-0.5771484 -0.134766,-1.0107422 -0.375,-1.3007812 -0.243164,-0.2958985 -0.56836,-0.4453125 -0.972656,-0.4453125 z m 6.448242,4.18359372 c 0.272461,0 0.527343,-0.0410156 0.761718,-0.12890625 0.234375,-0.09375 0.448243,-0.2109375 0.644532,-0.35156247 l 0.421875,0.57421872 c -0.234375,0.19628907 -0.521485,0.3515625 -0.855469,0.46875 -0.328125,0.1171875 -0.65332,0.17578125 -0.972656,0.17578125 -0.539063,0 -0.996094,-0.11425781 -1.371094,-0.33984375 -0.375,-0.234375 -0.665039,-0.55664062 -0.867188,-0.97265622 -0.196289,-0.421875 -0.292968,-0.9140625 -0.292968,-1.4765625 0,-0.5390625 0.09668,-1.022461 0.292968,-1.453125 0.202149,-0.4277344 0.492188,-0.7646485 0.867188,-1.0078125 0.380859,-0.2490235 0.84375,-0.375 1.382812,-0.375 0.685547,0 1.289063,0.2080078 1.804688,0.6210937 l -0.421875,0.5742188 c -0.46875,-0.319336 -0.93457,-0.4804688 -1.394531,-0.4804688 -0.462891,0 -0.84375,0.1757813 -1.148438,0.5273438 -0.298828,0.3515625 -0.445312,0.8847656 -0.445312,1.59375 0,0.7207031 0.146484,1.2421875 0.445312,1.5703125 0.304688,0.3222656 0.685547,0.48046872 1.148438,0.48046872 z m 8.003906,0.3515625 c -0.1875,0.12597657 -0.416016,0.21972657 -0.679688,0.28125 -0.257812,0.0703125 -0.515625,0.10546875 -0.773437,0.10546875 -0.580078,0 -1.02832,-0.15234375 -1.347656,-0.45703125 -0.313477,-0.3046875 -0.46875,-0.69433592 -0.46875,-1.17187502 v -3.2226562 h -1.230469 v -0.6679688 h 1.230469 v -1.21875 l 0.867187,-0.1054687 v 1.3242187 h 1.863281 l -0.105468,0.6679688 h -1.757813 v 3.2109375 c 0,0.3046875 0.07617,0.53613279 0.234375,0.69140622 0.164063,0.15820313 0.427735,0.234375 0.796875,0.234375 0.202149,0 0.386719,-0.0234375 0.550781,-0.0703125 0.169922,-0.046875 0.331055,-0.10839843 0.480469,-0.1875 z m 0,0"
       style="fill:#000000;fill-opacity:1;fill-rule:nonzero;stroke:none"
       aria-label="subject"
       transform="matrix(1.3333333,0,0,1.3333333,198.41404,31.038783)" />
    <path
       id="path7"
       d="m 282.652,9.102 h 38.352 c 3.461,0 6.246,2.785 6.246,6.246 v 8.617 c 0,3.461 -2.785,6.246 -6.246,6.246 h -38.352 c -3.461,0 -6.246,-2.785 -6.246,-6.246 v -8.617 c 0,-3.461 2.785,-6.246 6.246,-6.246 z"
       style="fill:#f2f2f2;fill-opacity:1;fill-rule:nonzero;stroke:#4d4d4d;stroke-width:1.41732;stroke-linecap:round;stroke-linejoin:round;stroke-miterlimit:4;stroke-dasharray:none;stroke-opacity:1"
       transform="scale(1.3333333)" />
    <path
       id="path8"
       d="m 3.0820231,-5.5076026 c 0.7646485,0 1.3417969,0.2548828 1.734375,0.7617187 0.3896485,0.5097656 0.5859375,1.1894531 0.5859375,2.0390625 0,0.5566406 -0.09082,1.0429688 -0.2695312,1.4648438 -0.1816406,0.42187497 -0.4423828,0.75585935 -0.7851563,0.99609372 -0.3457031,0.24316407 -0.7705078,0.36328125 -1.2773437,0.36328125 -0.7587891,0 -1.3359375,-0.25195312 -1.734375,-0.76171875 C 0.94335125,-1.1599464 0.74999188,-1.8425636 0.74999188,-2.6951026 c 0,-0.553711 0.0878906,-1.0429688 0.26953122,-1.4648438 0.178711,-0.421875 0.4394532,-0.75 0.7851563,-0.984375 0.3515625,-0.2402344 0.7763672,-0.3632812 1.2773437,-0.3632812 z m 0,0.703125 c -0.4628906,0 -0.8144531,0.1728515 -1.0546875,0.515625 -0.234375,0.3457031 -0.3515625,0.8759765 -0.3515625,1.59375 0,0.7207031 0.1171875,1.2509765 0.3515625,1.59375 0.234375,0.3457031 0.5800782,0.51562497 1.0429688,0.51562497 0.46875,0 0.8203125,-0.16992187 1.0546875,-0.51562497 0.234375,-0.3515625 0.3515625,-0.8847657 0.3515625,-1.6054688 0,-0.7089844 -0.1171875,-1.2363281 -0.3515625,-1.5820312 -0.234375,-0.3427735 -0.5830078,-0.515625 -1.0429688,-0.515625 z m 4.959961,0.1054687 c 0.1933593,-0.2578125 0.421875,-0.4570312 0.6796875,-0.5976562 0.2636718,-0.140625 0.5537109,-0.2109375 0.8671875,-0.2109375 0.4746089,0 0.8613279,0.1171875 1.1601559,0.3515625 0.295899,0.2285156 0.509766,0.5507812 0.644532,0.9726562 0.140625,0.421875 0.210937,0.9140625 0.210937,1.4765625 0,0.5478516 -0.08203,1.0371094 -0.246094,1.4648438 -0.158203,0.42187497 -0.395507,0.75585935 -0.714843,0.99609372 -0.313477,0.24316407 -0.7031254,0.36328125 -1.1718754,0.36328125 -0.6269532,0 -1.1191407,-0.22558593 -1.4765625,-0.6796875 L 7.9365153,2.09875e-4 h -0.75 V -7.5701026 l 0.8554688,-0.1054688 z m 1.2304687,4.12500002 c 0.4453125,0 0.7880862,-0.17578125 1.0312502,-0.52734372 0.240234,-0.3515625 0.363281,-0.8847657 0.363281,-1.6054688 0,-1.40625 -0.421875,-2.109375 -1.2656249,-2.109375 -0.3046875,0 -0.5712891,0.09082 -0.796875,0.2695313 -0.2285157,0.1816406 -0.4160157,0.3808593 -0.5625,0.5976562 v 2.671875 c 0.140625,0.2197266 0.3164062,0.39257815 0.5273437,0.51562502 0.2167969,0.12597657 0.4511719,0.1875 0.703125,0.1875 z M 16.069328,-7.9216651 c 0.1875,0 0.339844,0.058594 0.457031,0.1757812 0.117188,0.1113281 0.175781,0.2519531 0.175781,0.421875 0,0.1728516 -0.05859,0.3164063 -0.175781,0.4335938 -0.117187,0.1171875 -0.269531,0.1757812 -0.457031,0.1757812 -0.1875,0 -0.339844,-0.058594 -0.457031,-0.1757812 -0.111329,-0.1171875 -0.164063,-0.2607422 -0.164063,-0.4335938 0,-0.1699219 0.05273,-0.3105469 0.164063,-0.421875 0.117187,-0.1171875 0.269531,-0.1757812 0.457031,-0.1757812 z m 0.796875,2.5195312 v 4.53515627 c 0,0.60351563 -0.137695,1.10449219 -0.410156,1.51171875 -0.266602,0.40429688 -0.65625,0.72949218 -1.171875,0.97265628 -0.509766,0.2490234 -1.125,0.4335937 -1.851563,0.5507812 l -0.140625,-0.65625 c 0.530274,-0.09375 0.999024,-0.2314453 1.40625,-0.4101562 0.413086,-0.17285159 0.732422,-0.41601565 0.960938,-0.72656253 0.234375,-0.3046875 0.351562,-0.69726562 0.351562,-1.18359375 V -4.7107276 h -2.25 v -0.6914063 z m 3.307617,3.0117188 c 0.02344,0.6269531 0.1875,1.0839843 0.492188,1.3710937 0.304687,0.28125002 0.662109,0.42187502 1.078125,0.42187502 0.28125,0 0.530273,-0.0380859 0.75,-0.1171875 0.225585,-0.0849609 0.457031,-0.2109375 0.691406,-0.37500002 l 0.410156,0.57421877 c -0.251953,0.19628907 -0.539062,0.3515625 -0.867187,0.46875 -0.322266,0.10839844 -0.650391,0.1640625 -0.984375,0.1640625 -0.533204,0 -0.981446,-0.117187495 -1.347657,-0.3515625 -0.36914,-0.234375 -0.65039,-0.5625 -0.84375,-0.98437497 -0.1875,-0.421875 -0.28125,-0.9140625 -0.28125,-1.4765625 0,-0.5449219 0.09375,-1.03125 0.28125,-1.453125 0.19336,-0.421875 0.46875,-0.7529297 0.820313,-0.9960938 0.357422,-0.2402344 0.776367,-0.3632812 1.253906,-0.3632812 0.679688,0 1.212891,0.234375 1.605469,0.703125 0.389648,0.46875 0.585937,1.1132812 0.585937,1.9335937 0,0.09375 -0.0059,0.1845703 -0.01172,0.2695313 0,0.079101 -0.0059,0.149414 -0.01172,0.2109375 z m 1.464844,-2.4140625 c -0.398438,0 -0.735352,0.1464843 -1.007813,0.4335937 -0.27539,0.28125 -0.427734,0.7207031 -0.457031,1.3125 h 2.8125 c -0.0088,-0.5771484 -0.134766,-1.0107422 -0.375,-1.3007812 -0.243164,-0.2958985 -0.568359,-0.4453125 -0.972656,-0.4453125 z m 6.445312,4.18359372 c 0.272461,0 0.527344,-0.0410156 0.761719,-0.12890625 0.234375,-0.09375 0.448242,-0.2109375 0.644531,-0.35156247 l 0.421875,0.57421872 c -0.234375,0.19628907 -0.521484,0.3515625 -0.855468,0.46875 -0.328125,0.1171875 -0.653321,0.17578125 -0.972657,0.17578125 -0.539062,0 -0.996093,-0.11425781 -1.371093,-0.33984375 -0.375,-0.234375 -0.66504,-0.55664062 -0.867188,-0.97265622 -0.196289,-0.421875 -0.292969,-0.9140625 -0.292969,-1.4765625 0,-0.5390625 0.09668,-1.022461 0.292969,-1.453125 0.202148,-0.4277344 0.492188,-0.7646485 0.867188,-1.0078125 0.380859,-0.2490235 0.84375,-0.375 1.382812,-0.375 0.685547,0 1.289063,0.2080078 1.804688,0.6210937 l -0.421875,0.5742188 c -0.46875,-0.319336 -0.934571,-0.4804688 -1.394532,-0.4804688 -0.46289,0 -0.84375,0.1757813 -1.148437,0.5273438 -0.298828,0.3515625 -0.445313,0.8847656 -0.445313,1.59375 0,0.7207031 0.146485,1.2421875 0.445313,1.5703125 0.304687,0.3222656 0.685547,0.48046872 1.148437,0.48046872 z m 8.006836,0.3515625 c -0.1875,0.12597657 -0.416015,0.21972657 -0.679687,0.28125 -0.257813,0.0703125 -0.515625,0.10546875 -0.773438,0.10546875 -0.580078,0 -1.02832,-0.15234375 -1.347656,-0.45703125 -0.313477,-0.3046875 -0.46875,-0.69433592 -0.46875,-1.17187502 v -3.2226562 h -1.230469 v -0.6679688 h 1.230469 v -1.21875 l 0.867187,-0.1054687 v 1.3242187 h 1.863282 l -0.105469,0.6679688 h -1.757813 v 3.2109375 c 0,0.3046875 0.07617,0.53613279 0.234375,0.69140622 0.164063,0.15820313 0.427735,0.234375 0.796875,0.234375 0.202149,0 0.386719,-0.0234375 0.550782,-0.0703125 0.169922,-0.046875 0.331054,-0.10839843 0.480468,-0.1875 z M 53.475578,-8.6980323 v -0.65625 h 0.84375 v -4.0781247 h -0.84375 v -0.667969 h 1.5 l 0.164062,1.277344 c 0.202149,-0.445313 0.451172,-0.788086 0.75,-1.03125 0.295899,-0.240235 0.691407,-0.363282 1.183594,-0.363282 0.146484,0 0.28125,0.01172 0.398438,0.03516 0.117187,0.02344 0.237304,0.05273 0.363281,0.08203 l -0.117188,1.828125 h -0.714843 v -1.148438 c -0.0088,0 -0.02344,0 -0.04687,0 -0.829102,0 -1.417969,0.591797 -1.769532,1.769532 v 2.2968747 h 1.089844 v 0.65625 z m 9.342773,-7.6757817 0.855469,0.105469 v 7.5703127 h -0.75 l -0.08203,-0.7148438 c -0.205078,0.2900391 -0.439453,0.5009766 -0.703125,0.6328125 -0.257813,0.131836 -0.536133,0.1992188 -0.832031,0.1992188 -0.46875,0 -0.855469,-0.1171875 -1.160157,-0.3515625 -0.304687,-0.234375 -0.533203,-0.5625 -0.679687,-0.984375 -0.149414,-0.4218747 -0.222656,-0.9140627 -0.222656,-1.4765627 0,-0.539062 0.08203,-1.019531 0.246093,-1.441406 0.169922,-0.427734 0.413086,-0.764649 0.726563,-1.007813 0.319336,-0.240234 0.703125,-0.363281 1.148437,-0.363281 0.600586,0 1.083985,0.210938 1.453125,0.632813 z m -1.230468,2.859375 c -0.445313,0 -0.791016,0.175782 -1.03125,0.527344 -0.243165,0.351563 -0.363282,0.884766 -0.363282,1.59375 0,1.4150392 0.427735,2.1210939 1.289063,2.1210939 0.304687,0 0.565429,-0.084961 0.785156,-0.2578125 0.216797,-0.1787109 0.401367,-0.3779297 0.550781,-0.5976564 v -2.695312 c -0.149414,-0.216797 -0.328125,-0.386719 -0.539062,-0.503907 -0.210938,-0.123046 -0.442383,-0.1875 -0.691406,-0.1875 z m 7.335937,-2.859375 c 0.287109,0 0.550781,0.0293 0.785156,0.08203 0.240235,0.04687 0.46875,0.117187 0.679688,0.210937 l -0.28125,0.632813 c -0.172852,-0.07031 -0.360352,-0.123047 -0.5625,-0.164063 -0.196289,-0.03809 -0.395508,-0.05859 -0.597656,-0.05859 -0.75,0 -1.125,0.301758 -1.125,0.902344 v 1.089844 h 1.828125 l -0.09375,0.679687 h -1.734375 v 4.3007817 H 66.95507 v -4.3007817 h -1.289062 v -0.679687 h 1.289062 v -1.078125 c 0,-0.328125 0.08496,-0.612305 0.257813,-0.855469 0.169921,-0.249023 0.404296,-0.436523 0.703125,-0.5625 0.295898,-0.131836 0.632812,-0.199219 1.007812,-0.199219 z m 4.174805,3.257813 c 0,-0.225586 0.07617,-0.416016 0.234375,-0.574219 0.164062,-0.164062 0.363281,-0.246094 0.597656,-0.246094 0.234375,0 0.427734,0.08203 0.585937,0.246094 0.164063,0.158203 0.246094,0.348633 0.246094,0.574219 0,0.234375 -0.08203,0.433594 -0.246094,0.597656 -0.158203,0.164063 -0.351562,0.246094 -0.585937,0.246094 -0.234375,0 -0.433594,-0.08203 -0.597656,-0.246094 -0.158203,-0.164062 -0.234375,-0.363281 -0.234375,-0.597656 z m 0,3.7031249 c 0,-0.2255859 0.07617,-0.421875 0.234375,-0.5859375 0.164062,-0.1640624 0.363281,-0.2460934 0.597656,-0.2460934 0.234375,0 0.427734,0.08203 0.585937,0.2460934 0.164063,0.1640625 0.246094,0.3603516 0.246094,0.5859375 0,0.234375 -0.08203,0.4335938 -0.246094,0.5976563 -0.158203,0.1552734 -0.351562,0.234375 -0.585937,0.234375 -0.234375,0 -0.433594,-0.079102 -0.597656,-0.234375 -0.158203,-0.1640625 -0.234375,-0.3632813 -0.234375,-0.5976563 z M 82.333,-8.9675636 c -0.1875,0.1259766 -0.416016,0.2197266 -0.679688,0.28125 -0.257812,0.070312 -0.515625,0.1054688 -0.773437,0.1054688 -0.580078,0 -1.028321,-0.1523438 -1.347657,-0.4570313 -0.313476,-0.3046875 -0.46875,-0.6943359 -0.46875,-1.1718749 v -3.222656 H 77.833 v -0.667969 h 1.230468 v -1.21875 l 0.867188,-0.105469 v 1.324219 h 1.863281 l -0.105469,0.667969 h -1.757812 v 3.210937 c 0,0.3046877 0.07617,0.536133 0.234375,0.6914064 0.164062,0.1582032 0.427734,0.234375 0.796875,0.234375 0.202148,0 0.386719,-0.023437 0.550781,-0.070312 0.169922,-0.046875 0.331055,-0.1083984 0.480469,-0.1875 z m 6.354492,-5.1328124 -1.898438,5.4374999 c -0.125976,0.366211 -0.287109,0.703125 -0.480468,1.0078125 -0.1875,0.3046875 -0.439453,0.553711 -0.75,0.75 -0.313477,0.2021485 -0.703125,0.328125 -1.171875,0.375 l -0.140625,-0.6914062 c 0.375,-0.055664 0.667968,-0.1494141 0.878906,-0.28125 0.216797,-0.1259766 0.389648,-0.2871094 0.515625,-0.4804688 0.123047,-0.196289 0.234375,-0.4335937 0.328125,-0.7148437 h -0.28125 l -1.886719,-5.4023437 h 0.925781 l 1.546875,4.7460937 1.523438,-4.7460937 z m 4.078125,-0.105469 c 0.474609,0 0.855469,0.117188 1.136719,0.351563 0.287109,0.228515 0.495117,0.550781 0.621093,0.972656 0.131836,0.421875 0.199219,0.914062 0.199219,1.476562 0,0.547852 -0.0791,1.03711 -0.234375,1.4648442 -0.149414,0.421875 -0.380859,0.7558594 -0.691406,0.9960937 -0.304688,0.2431641 -0.691406,0.3632813 -1.160156,0.3632813 -0.594727,0 -1.072266,-0.2050781 -1.429688,-0.6210938 v 2.5664063 l -0.855469,0.1054687 v -7.5703124 h 0.726563 l 0.08203,0.761719 c 0.19336,-0.28125 0.427735,-0.495118 0.703125,-0.644532 0.272461,-0.146484 0.574219,-0.222656 0.902345,-0.222656 z m -0.210938,0.691406 c -0.298828,0 -0.55957,0.09082 -0.785156,0.269532 -0.228515,0.18164 -0.416015,0.380859 -0.5625,0.597656 v 2.6718749 c 0.140625,0.2109375 0.316406,0.3808594 0.527344,0.5039063 0.216797,0.1171875 0.457031,0.1757812 0.714844,0.1757812 0.445312,0 0.779297,-0.1699218 1.007812,-0.515625 0.225586,-0.3427734 0.339844,-0.8730464 0.339844,-1.5937504 0,-1.40625 -0.416016,-2.109375 -1.242188,-2.109375 z m 4.631836,2.425782 c 0.02344,0.626953 0.1875,1.083984 0.492188,1.3710934 0.304687,0.28125 0.662109,0.421875 1.078125,0.421875 0.28125,0 0.530273,-0.038086 0.75,-0.1171875 0.225586,-0.084961 0.457031,-0.2109375 0.691402,-0.375 l 0.41016,0.5742188 c -0.25195,0.196289 -0.53906,0.3515625 -0.867187,0.46875 -0.322266,0.1083984 -0.650391,0.1640625 -0.984375,0.1640625 -0.533203,0 -0.981445,-0.1171875 -1.347656,-0.3515625 -0.369141,-0.234375 -0.650391,-0.5625 -0.84375,-0.984375 -0.1875,-0.4218747 -0.28125,-0.9140627 -0.28125,-1.4765627 0,-0.544922 0.09375,-1.03125 0.28125,-1.453125 0.193359,-0.421875 0.46875,-0.75293 0.820312,-0.996094 0.357422,-0.240234 0.776367,-0.363281 1.253906,-0.363281 0.679688,0 1.212891,0.234375 1.60547,0.703125 0.38965,0.46875 0.58594,1.113281 0.58594,1.933594 0,0.09375 -0.006,0.18457 -0.0117,0.269531 0,0.0791 -0.006,0.149414 -0.0117,0.210938 z m 1.464844,-2.414063 c -0.398437,0 -0.735351,0.146485 -1.007812,0.433594 -0.275391,0.28125 -0.427735,0.720703 -0.457032,1.3125 h 2.8125 c -0.0088,-0.577149 -0.134765,-1.010742 -0.375,-1.300781 -0.243164,-0.295899 -0.568359,-0.445313 -0.972656,-0.445313 z m 0,0"
       style="fill:#000000;fill-opacity:1;fill-rule:nonzero;stroke:none"
       aria-label="object&#10;rdf:type"
       transform="matrix(1.3333333,0,0,1.3333333,378.41407,31.038783)" />
    <path
       id="path9"
       d="M 390.52,19.715 330.91,19.598"
       style="fill:none;stroke:#000000;stroke-width:1.41732;stroke-linecap:round;stroke-linejoin:round;stroke-miterlimit:4;stroke-dasharray:none;stroke-opacity:1"
       transform="scale(1.3333333)" />
    <path
       id="path10"
       d="m -357.922,123.624 c -0.354,0.355 -9.545,-2.108 -9.675,-2.593 -0.13,-0.484 6.598,-7.213 7.082,-7.083 0.484,0.13 2.947,9.322 2.593,9.676 z"
       style="fill:#000000;fill-opacity:1;fill-rule:nonzero;stroke:#000000;stroke-width:1.17266;stroke-linecap:round;stroke-linejoin:round;stroke-miterlimit:4;stroke-dasharray:none;stroke-opacity:1"
       transform="matrix(-1.3333333,0.31164133,0.35726533,1.1630587,0,0)" />
    <path
       id="path11"
       d="m 410.152,9.102 h 82.473 c 3.461,0 6.246,2.785 6.246,6.246 v 8.617 c 0,3.461 -2.785,6.246 -6.246,6.246 h -82.473 c -3.461,0 -6.246,-2.785 -6.246,-6.246 v -8.617 c 0,-3.461 2.785,-6.246 6.246,-6.246 z"
       style="fill:#f2f2f2;fill-opacity:1;fill-rule:nonzero;stroke:#4d4d4d;stroke-width:1.41732;stroke-linecap:round;stroke-linejoin:round;stroke-miterlimit:4;stroke-dasharray:none;stroke-opacity:1"
       transform="scale(1.3333333)" />
    <path
       id="path12"
       d="M 1.0781679,2.09875e-4 V -0.65604013 h 0.84375 V -4.7341651 h -0.84375 v -0.6679688 h 1.5 l 0.1640625,1.2773438 c 0.2021484,-0.4453125 0.4511719,-0.788086 0.75,-1.03125 0.2958984,-0.2402344 0.6914062,-0.3632813 1.1835937,-0.3632813 0.1464844,0 0.28125,0.011719 0.3984375,0.035156 0.1171875,0.023437 0.2373047,0.052734 0.3632813,0.082031 l -0.1171875,1.828125 H 4.6055116 v -1.1484375 c -0.00879,0 -0.023437,0 -0.046875,0 -0.8291015,0 -1.4179687,0.5917969 -1.7695312,1.7695313 v 2.29687497 H 3.8789491 V 2.09875e-4 Z M 10.418012,-7.6755714 11.27348,-7.5701026 V 2.09875e-4 h -0.75 L 10.44145,-0.71463388 c -0.205078,0.29003907 -0.439453,0.50097657 -0.7031249,0.6328125 -0.2578125,0.13183594 -0.5361328,0.19921875 -0.8320312,0.19921875 -0.46875,0 -0.8554688,-0.117187495 -1.1601563,-0.3515625 -0.3046875,-0.234375 -0.5332031,-0.5625 -0.6796875,-0.98437497 -0.149414,-0.421875 -0.2226562,-0.9140625 -0.2226562,-1.4765625 0,-0.5390625 0.082031,-1.0195313 0.2460937,-1.4414063 0.1699219,-0.4277344 0.413086,-0.7646484 0.7265625,-1.0078125 0.319336,-0.2402344 0.703125,-0.3632812 1.1484375,-0.3632812 0.600586,0 1.0839844,0.2109375 1.4531254,0.6328125 z m -1.2304691,2.859375 c -0.4453125,0 -0.7910156,0.1757813 -1.03125,0.5273438 -0.2431641,0.3515625 -0.3632813,0.8847656 -0.3632813,1.59375 0,1.415039 0.4277344,2.12109372 1.2890625,2.12109372 0.3046875,0 0.5654297,-0.0849609 0.7851563,-0.2578125 C 10.084027,-1.0105323 10.268598,-1.2097511 10.418012,-1.4294776 v -2.6953125 c -0.149414,-0.2167969 -0.328125,-0.3867188 -0.5390629,-0.5039063 -0.2109375,-0.1230469 -0.4423828,-0.1875 -0.6914062,-0.1875 z m 7.3388671,-2.859375 c 0.287109,0 0.550781,0.029297 0.785156,0.082031 0.240235,0.046875 0.46875,0.1171875 0.679688,0.2109375 l -0.28125,0.6328125 c -0.172852,-0.070312 -0.360352,-0.1230469 -0.5625,-0.1640625 -0.196289,-0.038086 -0.395508,-0.058594 -0.597656,-0.058594 -0.75,0 -1.125,0.3017578 -1.125,0.9023438 v 1.0898437 h 1.828125 l -0.09375,0.6796875 H 15.424848 V 2.09875e-4 H 14.55766 V -4.3005714 h -1.289062 v -0.6796875 h 1.289062 v -1.078125 c 0,-0.328125 0.08496,-0.6123047 0.257813,-0.8554687 0.169921,-0.2490235 0.404296,-0.4365235 0.703125,-0.5625 0.295898,-0.131836 0.632812,-0.1992188 1.007812,-0.1992188 z m 4.807617,7.07812502 c 0.413086,0 0.738282,-0.0732422 0.972657,-0.22265625 0.240234,-0.15527343 0.363281,-0.36621097 0.363281,-0.63281247 0,-0.1552735 -0.03223,-0.2929688 -0.09375,-0.4101563 -0.05566,-0.1230469 -0.175781,-0.234375 -0.363281,-0.328125 -0.181641,-0.099609 -0.462891,-0.1992187 -0.84375,-0.2929687 -0.375,-0.09375 -0.703125,-0.1992188 -0.984375,-0.3164063 -0.275391,-0.1230469 -0.486329,-0.2841797 -0.632813,-0.4804687 -0.149414,-0.1933594 -0.222656,-0.4482422 -0.222656,-0.7617188 0,-0.4511719 0.1875,-0.8085937 0.5625,-1.0664062 0.380859,-0.2636719 0.878906,-0.3984375 1.488281,-0.3984375 0.427734,0 0.802734,0.058594 1.125,0.1757812 0.328125,0.1113281 0.603516,0.2460938 0.832031,0.4101563 l -0.386718,0.5859375 c -0.205079,-0.140625 -0.430665,-0.2519532 -0.679688,-0.3398438 -0.243164,-0.09375 -0.539062,-0.140625 -0.890625,-0.140625 -0.421875,0 -0.723633,0.067383 -0.902344,0.1992188 -0.172851,0.1347656 -0.257812,0.3046875 -0.257812,0.515625 0,0.1582031 0.04101,0.290039 0.128906,0.3984375 0.08496,0.102539 0.228516,0.196289 0.433594,0.28125 0.210937,0.079101 0.498047,0.1699218 0.867187,0.2695312 0.351563,0.09375 0.65918,0.2080078 0.925782,0.3398438 0.263671,0.1259765 0.46875,0.2929687 0.609375,0.5039062 0.146484,0.2109375 0.222656,0.4863281 0.222656,0.8203125 0,0.3837891 -0.111328,0.69726565 -0.328125,0.93750002 -0.219727,0.234375 -0.503906,0.40722657 -0.855469,0.515625 -0.345703,0.09960938 -0.708984,0.15234375 -1.089844,0.15234375 -0.492187,0 -0.911133,-0.0703125 -1.253906,-0.2109375 -0.345703,-0.140625 -0.632812,-0.31054687 -0.867187,-0.515625 l 0.492187,-0.57421877 c 0.210938,0.1816406 0.451172,0.32519534 0.726563,0.43359377 0.28125,0.10253907 0.580078,0.15234375 0.902343,0.15234375 z m 5.519532,-3.82031252 c 0,-0.2255859 0.07617,-0.4160156 0.234375,-0.5742187 0.164062,-0.1640625 0.363281,-0.2460938 0.597656,-0.2460938 0.234375,0 0.427734,0.082031 0.585937,0.2460938 0.164063,0.1582031 0.246094,0.3486328 0.246094,0.5742187 0,0.234375 -0.08203,0.4335938 -0.246094,0.5976563 -0.158203,0.1640625 -0.351562,0.2460937 -0.585937,0.2460937 -0.234375,0 -0.433594,-0.082031 -0.597656,-0.2460937 -0.158204,-0.1640625 -0.234375,-0.3632813 -0.234375,-0.5976563 z m 0,3.70312502 c 0,-0.22558593 0.07617,-0.42187502 0.234375,-0.58593752 0.164062,-0.1640625 0.363281,-0.2460937 0.597656,-0.2460937 0.234375,0 0.427734,0.082031 0.585937,0.2460937 0.164063,0.1640625 0.246094,0.36035159 0.246094,0.58593752 0,0.234375 -0.08203,0.43359375 -0.246094,0.59765625 -0.158203,0.15527344 -0.351562,0.234375 -0.585937,0.234375 -0.234375,0 -0.433594,-0.07910156 -0.597656,-0.234375 -0.158204,-0.1640625 -0.234375,-0.36328125 -0.234375,-0.59765625 z m 9.424804,-4.37109372 c 0,0.5332031 -0.169922,0.9609375 -0.503906,1.2890625 -0.328125,0.328125 -0.735352,0.5507812 -1.21875,0.6679687 L 36.653363,2.09875e-4 H 35.586957 L 33.653363,-3.0349464 H 32.704144 V 2.09875e-4 H 31.813519 V -7.0544776 h 1.816407 c 0.867187,0 1.523437,0.1699218 1.96875,0.5039062 0.451172,0.328125 0.679687,0.8173828 0.679687,1.4648438 z m -0.949219,0 c 0,-0.4453125 -0.134765,-0.7646485 -0.398437,-0.9609375 -0.257813,-0.2021485 -0.662109,-0.3046875 -1.207031,-0.3046875 h -1.019532 v 2.625 h 1.019532 c 0.506836,0 0.902343,-0.099609 1.183593,-0.3046875 0.28125,-0.2109375 0.421875,-0.5625 0.421875,-1.0546875 z m 3.304688,2.6953125 c 0.02344,0.6269531 0.1875,1.0839843 0.492187,1.3710937 0.304688,0.28125002 0.66211,0.42187502 1.078125,0.42187502 0.28125,0 0.530274,-0.0380859 0.75,-0.1171875 0.225586,-0.0849609 0.457032,-0.2109375 0.691407,-0.37500002 l 0.410156,0.57421877 c -0.251953,0.19628907 -0.539063,0.3515625 -0.867188,0.46875 -0.322265,0.10839844 -0.65039,0.1640625 -0.984375,0.1640625 -0.533203,0 -0.981445,-0.117187495 -1.347656,-0.3515625 -0.36914,-0.234375 -0.65039,-0.5625 -0.84375,-0.98437497 -0.1875,-0.421875 -0.28125,-0.9140625 -0.28125,-1.4765625 0,-0.5449219 0.09375,-1.03125 0.28125,-1.453125 0.19336,-0.421875 0.46875,-0.7529297 0.820313,-0.9960938 0.357422,-0.2402344 0.776367,-0.3632812 1.253906,-0.3632812 0.679687,0 1.212891,0.234375 1.605469,0.703125 0.389648,0.46875 0.585937,1.1132812 0.585937,1.9335937 0,0.09375 -0.0059,0.1845703 -0.01172,0.2695313 0,0.079101 -0.0059,0.149414 -0.01172,0.2109375 z m 1.464844,-2.4140625 c -0.398438,0 -0.735352,0.1464843 -1.007813,0.4335937 -0.27539,0.28125 -0.427734,0.7207031 -0.457031,1.3125 h 2.8125 c -0.0088,-0.5771484 -0.134766,-1.0107422 -0.375,-1.3007812 -0.243164,-0.2958985 -0.568359,-0.4453125 -0.972656,-0.4453125 z m 5.850586,4.20703122 c 0.413086,0 0.738281,-0.0732422 0.972656,-0.22265625 0.240234,-0.15527343 0.363281,-0.36621097 0.363281,-0.63281247 0,-0.1552735 -0.03223,-0.2929688 -0.09375,-0.4101563 -0.05566,-0.1230469 -0.175781,-0.234375 -0.363281,-0.328125 -0.181641,-0.099609 -0.462891,-0.1992187 -0.84375,-0.2929687 -0.375,-0.09375 -0.703125,-0.1992188 -0.984375,-0.3164063 -0.275391,-0.1230469 -0.486328,-0.2841797 -0.632813,-0.4804687 -0.149414,-0.1933594 -0.222656,-0.4482422 -0.222656,-0.7617188 0,-0.4511719 0.1875,-0.8085937 0.5625,-1.0664062 0.38086,-0.2636719 0.878906,-0.3984375 1.488281,-0.3984375 0.427735,0 0.802735,0.058594 1.125,0.1757812 0.328125,0.1113281 0.603516,0.2460938 0.832032,0.4101563 l -0.386719,0.5859375 c -0.205078,-0.140625 -0.430664,-0.2519532 -0.679688,-0.3398438 -0.243164,-0.09375 -0.539062,-0.140625 -0.890625,-0.140625 -0.421875,0 -0.723632,0.067383 -0.902343,0.1992188 -0.172852,0.1347656 -0.257813,0.3046875 -0.257813,0.515625 0,0.1582031 0.04102,0.290039 0.128906,0.3984375 0.08496,0.102539 0.228516,0.196289 0.433594,0.28125 0.210938,0.079101 0.498047,0.1699218 0.867188,0.2695312 0.351562,0.09375 0.659179,0.2080078 0.925781,0.3398438 0.263672,0.1259765 0.46875,0.2929687 0.609375,0.5039062 0.146484,0.2109375 0.222656,0.4863281 0.222656,0.8203125 0,0.3837891 -0.111328,0.69726565 -0.328125,0.93750002 -0.219726,0.234375 -0.503906,0.40722657 -0.855469,0.515625 -0.345703,0.09960938 -0.708984,0.15234375 -1.089843,0.15234375 -0.492188,0 -0.911133,-0.0703125 -1.253907,-0.2109375 -0.345703,-0.140625 -0.632812,-0.31054687 -0.867187,-0.515625 l 0.492187,-0.57421877 c 0.210938,0.1816406 0.451172,0.32519534 0.726563,0.43359377 0.28125,0.10253907 0.580078,0.15234375 0.902344,0.15234375 z m 6.363281,-4.91015622 c 0.764648,0 1.341797,0.2548828 1.734375,0.7617187 0.389648,0.5097656 0.585937,1.1894531 0.585937,2.0390625 0,0.5566406 -0.09082,1.0429688 -0.269531,1.4648438 -0.18164,0.42187497 -0.442383,0.75585935 -0.785156,0.99609372 -0.345703,0.24316407 -0.770508,0.36328125 -1.277344,0.36328125 -0.758789,0 -1.335937,-0.25195312 -1.734375,-0.76171875 -0.392578,-0.51562502 -0.585937,-1.19824222 -0.585937,-2.05078122 0,-0.553711 0.08789,-1.0429688 0.269531,-1.4648438 0.178711,-0.421875 0.439453,-0.75 0.785156,-0.984375 0.351563,-0.2402344 0.776367,-0.3632812 1.277344,-0.3632812 z m 0,0.703125 c -0.462891,0 -0.814453,0.1728515 -1.054688,0.515625 -0.234375,0.3457031 -0.351562,0.8759765 -0.351562,1.59375 0,0.7207031 0.117187,1.2509765 0.351562,1.59375 0.234375,0.3457031 0.580079,0.51562497 1.042969,0.51562497 0.46875,0 0.820313,-0.16992187 1.054688,-0.51562497 0.234375,-0.3515625 0.351562,-0.8847657 0.351562,-1.6054688 0,-0.7089844 -0.117187,-1.2363281 -0.351562,-1.5820312 -0.234375,-0.3427735 -0.583008,-0.515625 -1.042969,-0.515625 z m 4.959961,-0.5976563 v 3.8320313 c 0,0.3515625 0.07324,0.60644529 0.222656,0.76171872 0.146484,0.15820313 0.37793,0.234375 0.691406,0.234375 0.295899,0 0.577149,-0.0820313 0.84375,-0.24609375 0.263672,-0.16992187 0.47168,-0.37499997 0.621094,-0.60937497 v -3.9726563 h 0.855469 V 2.09875e-4 h -0.738281 l -0.07031,-0.726562505 c -0.210937,0.27539063 -0.474609,0.48632813 -0.785156,0.6328125 -0.313477,0.140625 -0.626953,0.2109375 -0.9375,0.2109375 -0.524414,0 -0.914063,-0.13476562 -1.171875,-0.41015625 -0.257813,-0.28125 -0.386719,-0.67382812 -0.386719,-1.18359372 v -3.9257813 z m 5.34375,5.402343775 V -0.65604013 h 0.84375 V -4.7341651 h -0.84375 v -0.6679688 h 1.5 l 0.164062,1.2773438 c 0.202149,-0.4453125 0.451172,-0.788086 0.75,-1.03125 0.295899,-0.2402344 0.691407,-0.3632813 1.183594,-0.3632813 0.146484,0 0.28125,0.011719 0.398438,0.035156 0.117187,0.023437 0.237304,0.052734 0.363281,0.082031 l -0.117188,1.828125 h -0.714843 v -1.1484375 c -0.0088,0 -0.02344,0 -0.04687,0 -0.829102,0 -1.417969,0.5917969 -1.769532,1.7695313 v 2.29687497 H 65.41704 V 2.09875e-4 Z m 8.545898,-0.621093755 c 0.272461,0 0.527344,-0.0410156 0.761719,-0.12890625 0.234375,-0.09375 0.448242,-0.2109375 0.644531,-0.35156247 l 0.421875,0.57421872 c -0.234375,0.19628907 -0.521484,0.3515625 -0.855468,0.46875 -0.328125,0.1171875 -0.653321,0.17578125 -0.972657,0.17578125 -0.539062,0 -0.996093,-0.11425781 -1.371093,-0.33984375 -0.375,-0.234375 -0.66504,-0.55664062 -0.867188,-0.97265622 -0.196289,-0.421875 -0.292969,-0.9140625 -0.292969,-1.4765625 0,-0.5390625 0.09668,-1.022461 0.292969,-1.453125 0.202148,-0.4277344 0.492188,-0.7646485 0.867188,-1.0078125 0.380859,-0.2490235 0.84375,-0.375 1.382812,-0.375 0.685547,0 1.289063,0.2080078 1.804688,0.6210937 l -0.421875,0.5742188 c -0.46875,-0.319336 -0.934571,-0.4804688 -1.394532,-0.4804688 -0.46289,0 -0.84375,0.1757813 -1.148437,0.5273438 -0.298828,0.3515625 -0.445313,0.8847656 -0.445313,1.59375 0,0.7207031 0.146485,1.2421875 0.445313,1.5703125 0.304687,0.3222656 0.685547,0.48046872 1.148437,0.48046872 z m 4.394532,-1.76953122 c 0.02344,0.6269531 0.1875,1.0839843 0.492187,1.3710937 0.304688,0.28125002 0.662109,0.42187502 1.078125,0.42187502 0.28125,0 0.530273,-0.0380859 0.75,-0.1171875 0.225586,-0.0849609 0.457031,-0.2109375 0.691406,-0.37500002 l 0.410157,0.57421877 c -0.251954,0.19628907 -0.539063,0.3515625 -0.867188,0.46875 -0.322266,0.10839844 -0.650391,0.1640625 -0.984375,0.1640625 -0.533203,0 -0.981445,-0.117187495 -1.347656,-0.3515625 -0.369141,-0.234375 -0.650391,-0.5625 -0.84375,-0.98437497 -0.1875,-0.421875 -0.28125,-0.9140625 -0.28125,-1.4765625 0,-0.5449219 0.09375,-1.03125 0.28125,-1.453125 0.193359,-0.421875 0.46875,-0.7529297 0.820312,-0.9960938 0.357422,-0.2402344 0.776367,-0.3632812 1.253907,-0.3632812 0.679687,0 1.21289,0.234375 1.605468,0.703125 0.389649,0.46875 0.585938,1.1132812 0.585938,1.9335937 0,0.09375 -0.0059,0.1845703 -0.01172,0.2695313 0,0.079101 -0.0059,0.149414 -0.01172,0.2109375 z m 1.464843,-2.4140625 c -0.398437,0 -0.735351,0.1464843 -1.007812,0.4335937 -0.275391,0.28125 -0.427735,0.7207031 -0.457031,1.3125 h 2.8125 c -0.0088,-0.5771484 -0.134766,-1.0107422 -0.375,-1.3007812 -0.243165,-0.2958985 -0.56836,-0.4453125 -0.972657,-0.4453125 z m 0,0"
       style="fill:#000000;fill-opacity:1;fill-rule:nonzero;stroke:none"
       aria-label="rdfs:Resource"
       transform="matrix(1.3333333,0,0,1.3333333,548.41401,31.038783)" />
    <path
       id="path13"
       d="m 126.188,54.566 h 399.597 c 1.57,0 2.836,1.266 2.836,2.836 v 32.782 c 0,1.57 -1.266,2.836 -2.836,2.836 H 126.188 c -1.571,0 -2.836,-1.266 -2.836,-2.836 V 57.402 c 0,-1.57 1.265,-2.836 2.836,-2.836 z"
       style="fill:#f9f9f9;fill-opacity:1;fill-rule:nonzero;stroke:#cccccc;stroke-width:1.13386;stroke-linecap:round;stroke-linejoin:round;stroke-miterlimit:4;stroke-dasharray:3.40158, 3.40158;stroke-dashoffset:0;stroke-opacity:1"
       transform="scale(1.3333333)" />
    <path
       id="path14"
       d="m 3.4444853,-5.5087908 c 0.4746094,0 0.8554688,0.1171875 1.1367188,0.3515625 0.2871093,0.2285156 0.4951172,0.5507812 0.6210937,0.9726562 0.131836,0.421875 0.1992188,0.9140625 0.1992188,1.4765625 0,0.5478516 -0.079102,1.0371094 -0.234375,1.4648438 -0.1494141,0.42187499 -0.3808594,0.75585936 -0.6914063,0.99609374 -0.3046875,0.24316406 -0.6914062,0.36328125 -1.1601562,0.36328125 -0.5947266,0 -1.0722657,-0.20507813 -1.4296875,-0.62109375 V 2.0615217 L 1.0304228,2.1669904 v -7.5703125 h 0.7265625 l 0.082031,0.7617188 c 0.1933593,-0.28125 0.4277343,-0.4951172 0.703125,-0.6445313 0.2724609,-0.1464843 0.5742187,-0.2226562 0.902344,-0.2226562 z m -0.2109375,0.6914062 c -0.2988281,0 -0.5595703,0.09082 -0.7851562,0.2695313 -0.2285157,0.1816406 -0.4160157,0.3808594 -0.5625,0.5976562 v 2.671875 c 0.140625,0.2109375 0.3164062,0.38085941 0.5273437,0.50390629 0.2167969,0.1171875 0.4570313,0.17578125 0.7148438,0.17578125 0.4453125,0 0.7792968,-0.16992188 1.0078125,-0.51562504 0.2255859,-0.3427734 0.3398437,-0.8730468 0.3398437,-1.59375 0,-1.40625 -0.4160156,-2.109375 -1.2421875,-2.109375 z M 7.2325713,-9.783125e-4 V -0.65722831 h 0.84375 V -4.7353533 h -0.84375 v -0.6679688 h 1.5 l 0.1640625,1.2773438 c 0.2021484,-0.4453125 0.4511718,-0.7880859 0.75,-1.03125 0.2958984,-0.2402344 0.6914062,-0.3632813 1.1835942,-0.3632813 0.146484,0 0.28125,0.011719 0.398437,0.035156 0.117188,0.023437 0.237305,0.052734 0.363281,0.082031 l -0.117187,1.828125 h -0.714844 v -1.1484375 c -0.0088,0 -0.02344,0 -0.04687,0 -0.8291016,0 -1.4179687,0.5917969 -1.7695312,1.7695313 v 2.29687499 H 10.033353 V -9.783125e-4 Z M 14.017728,-2.3916033 c 0.02344,0.6269531 0.1875,1.0839844 0.492187,1.3710937 0.304688,0.28125004 0.662109,0.42187504 1.078125,0.42187504 0.28125,0 0.530273,-0.0380859 0.75,-0.1171875 0.225586,-0.0849609 0.457031,-0.2109375 0.691406,-0.37500004 l 0.410157,0.57421879 c -0.251954,0.19628906 -0.539063,0.3515625 -0.867188,0.46875 -0.322266,0.10839844 -0.650391,0.1640625 -0.984375,0.1640625 -0.533203,0 -0.981445,-0.1171875025 -1.347656,-0.3515625 -0.369141,-0.234375 -0.650391,-0.5625 -0.84375,-0.98437499 -0.1875,-0.421875 -0.28125,-0.9140625 -0.28125,-1.4765625 0,-0.5449219 0.09375,-1.03125 0.28125,-1.453125 0.193359,-0.421875 0.46875,-0.7529297 0.820312,-0.9960938 0.357422,-0.2402343 0.776367,-0.3632812 1.253907,-0.3632812 0.679687,0 1.21289,0.234375 1.605468,0.703125 0.389649,0.46875 0.585938,1.1132812 0.585938,1.9335937 0,0.09375 -0.0059,0.1845704 -0.01172,0.2695313 0,0.079102 -0.0059,0.1494141 -0.01172,0.2109375 z m 1.464843,-2.4140625 c -0.398437,0 -0.735351,0.1464844 -1.007812,0.4335937 -0.275391,0.28125 -0.427735,0.7207032 -0.457031,1.3125 h 2.8125 c -0.0088,-0.5771484 -0.134766,-1.0107421 -0.375,-1.3007812 -0.243165,-0.2958984 -0.56836,-0.4453125 -0.972657,-0.4453125 z m 7.245117,-2.8710938 0.855469,0.1054688 v 7.5703124875 h -0.75 L 22.751126,-0.71582206 c -0.205078,0.29003906 -0.439453,0.50097656 -0.703125,0.6328125 -0.257813,0.13183594 -0.536133,0.19921875 -0.832031,0.19921875 -0.46875,0 -0.855469,-0.1171875025 -1.160157,-0.3515625 -0.304687,-0.234375 -0.533203,-0.5625 -0.679687,-0.98437499 -0.149414,-0.421875 -0.222656,-0.9140625 -0.222656,-1.4765625 0,-0.5390625 0.08203,-1.0195313 0.246093,-1.4414063 0.169922,-0.4277343 0.413086,-0.7646484 0.726563,-1.0078125 0.319336,-0.2402343 0.703125,-0.3632812 1.148437,-0.3632812 0.600586,0 1.083985,0.2109375 1.453125,0.6328125 z m -1.230468,2.859375 c -0.445313,0 -0.791016,0.1757813 -1.03125,0.5273438 -0.243164,0.3515625 -0.363282,0.8847656 -0.363282,1.59375 0,1.4150391 0.427735,2.12109374 1.289063,2.12109374 0.304687,0 0.56543,-0.0849609 0.785156,-0.2578125 0.216797,-0.17871094 0.401367,-0.37792964 0.550781,-0.59765624 v -2.6953125 c -0.149414,-0.2167969 -0.328125,-0.3867188 -0.539062,-0.5039063 -0.210938,-0.1230468 -0.442383,-0.1875 -0.691406,-0.1875 z m 6.1875,-3.1054687 c 0.193359,0 0.345703,0.058594 0.457031,0.1757812 0.117187,0.1113282 0.175781,0.2519532 0.175781,0.421875 0,0.1728516 -0.05859,0.3164063 -0.175781,0.4335938 -0.111328,0.1171875 -0.263672,0.1757812 -0.457031,0.1757812 -0.181641,0 -0.328125,-0.058594 -0.445313,-0.1757812 -0.111328,-0.1171875 -0.164062,-0.2607422 -0.164062,-0.4335938 0,-0.1699218 0.05273,-0.3105468 0.164062,-0.421875 0.117188,-0.1171875 0.263672,-0.1757812 0.445313,-0.1757812 z m 0.691406,2.5195312 v 4.72265629 h 1.523437 V -9.783125e-4 H 25.844876 V -0.68066581 h 1.675781 V -4.7119158 H 25.90347 v -0.6914063 z m 5.862305,4.78125004 c 0.272461,0 0.527343,-0.0410156 0.761718,-0.12890625 0.234375,-0.09375 0.448243,-0.2109375 0.644532,-0.35156249 l 0.421875,0.57421874 c -0.234375,0.19628906 -0.521485,0.3515625 -0.855469,0.46875 -0.328125,0.1171875 -0.65332,0.17578125 -0.972656,0.17578125 -0.539063,0 -0.996094,-0.11425781 -1.371094,-0.33984375 -0.375,-0.234375 -0.665039,-0.55664063 -0.867188,-0.97265624 -0.196289,-0.421875 -0.292968,-0.9140625 -0.292968,-1.4765625 0,-0.5390625 0.09668,-1.0224609 0.292968,-1.453125 0.202149,-0.4277344 0.492188,-0.7646484 0.867188,-1.0078125 0.380859,-0.2490234 0.84375,-0.375 1.382812,-0.375 0.685547,0 1.289063,0.2080078 1.804688,0.6210937 l -0.421875,0.5742188 c -0.46875,-0.3193359 -0.93457,-0.4804688 -1.394531,-0.4804688 -0.462891,0 -0.84375,0.1757813 -1.148438,0.5273438 -0.298828,0.3515625 -0.445312,0.8847656 -0.445312,1.59375 0,0.7207031 0.146484,1.2421875 0.445312,1.5703125 0.304688,0.32226561 0.685547,0.48046874 1.148438,0.48046874 z m 7.582031,-0.56250004 c 0,0.2197266 0.03516,0.38085941 0.105469,0.48046879 0.07031,0.10253906 0.178711,0.17285156 0.328125,0.2109375 l -0.210938,0.609375 c -0.228515,-0.03222656 -0.430664,-0.10546875 -0.609375,-0.22265625 -0.172851,-0.1171875 -0.298828,-0.29589844 -0.375,-0.5390625 -0.196289,0.25195312 -0.442383,0.44238281 -0.738281,0.57421875 -0.290039,0.12304687 -0.606445,0.1875 -0.949219,0.1875 -0.539062,0 -0.966797,-0.15234375 -1.277344,-0.45703125 -0.313476,-0.3046875 -0.46875,-0.70605464 -0.46875,-1.20703124 0,-0.5537109 0.213868,-0.9785156 0.644532,-1.2773438 0.436523,-0.3046875 1.066406,-0.4570312 1.886718,-0.4570312 h 0.796875 v -0.4453125 c 0,-0.3896484 -0.114257,-0.6621094 -0.339843,-0.8203125 -0.228516,-0.1640625 -0.544922,-0.2460938 -0.949219,-0.2460938 -0.181641,0 -0.392578,0.020508 -0.632813,0.058594 -0.234375,0.041016 -0.492187,0.1113281 -0.773437,0.2109375 l -0.222656,-0.6445313 c 0.328125,-0.1230468 0.635742,-0.2109375 0.925781,-0.2578125 0.295898,-0.052734 0.574219,-0.082031 0.832031,-0.082031 0.670899,0 1.174805,0.1582031 1.511719,0.46875 0.342773,0.3134766 0.515625,0.7353516 0.515625,1.265625 z m -2.238281,0.64453129 c 0.272461,0 0.527343,-0.0644531 0.761718,-0.19921875 0.240235,-0.13183594 0.445313,-0.31933594 0.609375,-0.56250004 v -1.3945312 h -0.785156 c -0.594726,0 -1.013672,0.1054687 -1.253906,0.3164062 -0.243164,0.2050782 -0.363281,0.4775391 -0.363281,0.8203125 0,0.67968754 0.342773,1.01953129 1.03125,1.01953129 z m 8.815429,0.26953125 c -0.1875,0.12597656 -0.416015,0.21972656 -0.679687,0.28125 -0.257813,0.0703125 -0.515625,0.10546875 -0.773438,0.10546875 -0.580078,0 -1.02832,-0.15234375 -1.347656,-0.45703125 -0.313476,-0.3046875 -0.46875,-0.69433594 -0.46875,-1.17187504 V -4.7353533 H 43.89761 v -0.6679688 h 1.230469 v -1.21875 l 0.867188,-0.1054687 v 1.3242187 h 1.863281 l -0.105469,0.6679688 h -1.757812 v 3.2109375 c 0,0.3046875 0.07617,0.5361328 0.234375,0.69140624 0.164062,0.15820312 0.427734,0.234375 0.796875,0.234375 0.202148,0 0.386718,-0.0234375 0.550781,-0.0703125 0.169922,-0.046875 0.331055,-0.10839844 0.480469,-0.1875 z m 2.542969,-2.12109374 c 0.02344,0.6269531 0.1875,1.0839844 0.492188,1.3710937 0.304687,0.28125004 0.662109,0.42187504 1.078125,0.42187504 0.28125,0 0.530273,-0.0380859 0.75,-0.1171875 0.225586,-0.0849609 0.457031,-0.2109375 0.691406,-0.37500004 l 0.410156,0.57421879 c -0.251953,0.19628906 -0.539062,0.3515625 -0.867187,0.46875 -0.322266,0.10839844 -0.650391,0.1640625 -0.984375,0.1640625 -0.533204,0 -0.981446,-0.1171875025 -1.347657,-0.3515625 -0.36914,-0.234375 -0.65039,-0.5625 -0.84375,-0.98437499 -0.1875,-0.421875 -0.28125,-0.9140625 -0.28125,-1.4765625 0,-0.5449219 0.09375,-1.03125 0.28125,-1.453125 0.19336,-0.421875 0.46875,-0.7529297 0.820313,-0.9960938 0.357422,-0.2402343 0.776367,-0.3632812 1.253906,-0.3632812 0.679688,0 1.212891,0.234375 1.605469,0.703125 0.389648,0.46875 0.585937,1.1132812 0.585937,1.9335937 0,0.09375 -0.0059,0.1845704 -0.01172,0.2695313 0,0.079102 -0.0059,0.1494141 -0.01172,0.2109375 z m 1.464844,-2.4140625 c -0.398438,0 -0.735352,0.1464844 -1.007813,0.4335937 -0.27539,0.28125 -0.427734,0.7207032 -0.457031,1.3125 h 2.8125 c -0.0088,-0.5771484 -0.134766,-1.0107421 -0.375,-1.3007812 -0.243164,-0.2958984 -0.568359,-0.4453125 -0.972656,-0.4453125 z m 0,0"
       style="fill:#000000;fill-opacity:1;fill-rule:nonzero;stroke:none"
       aria-label="predicate"
       transform="matrix(1.3333333,0,0,1.3333333,274.27845,91.442711)" />
    <path
       id="path15"
       d="M 263.02,73.715 203.41,73.598"
       style="fill:none;stroke:#000000;stroke-width:1.41732;stroke-linecap:round;stroke-linejoin:round;stroke-miterlimit:4;stroke-dasharray:none;stroke-opacity:1"
       transform="scale(1.3333333)" />
    <path
       id="path16"
       d="m -223.486,149.508 c -0.354,0.355 -9.546,-2.108 -9.676,-2.593 -0.129,-0.485 6.599,-7.213 7.083,-7.083 0.484,0.13 2.947,9.322 2.593,9.676 z"
       style="fill:#ffffff;fill-opacity:1;fill-rule:nonzero;stroke:#000000;stroke-width:1.17266;stroke-linecap:round;stroke-linejoin:round;stroke-miterlimit:4;stroke-dasharray:none;stroke-opacity:1"
       transform="matrix(-1.3333333,0.31164133,0.35726533,1.1630587,0,0)" />
    <path
       id="path17"
       d="m 147.652,63.102 h 45.313 c 3.461,0 6.246,2.785 6.246,6.246 v 8.617 c 0,3.461 -2.785,6.246 -6.246,6.246 h -45.313 c -3.461,0 -6.246,-2.785 -6.246,-6.246 v -8.617 c 0,-3.461 2.785,-6.246 6.246,-6.246 z"
       style="fill:#f2f2f2;fill-opacity:1;fill-rule:nonzero;stroke:#4d4d4d;stroke-width:1.41732;stroke-linecap:round;stroke-linejoin:round;stroke-miterlimit:4;stroke-dasharray:none;stroke-opacity:1"
       transform="scale(1.3333333)" />
    <path
       id="path18"
       d="m 2.8711076,-0.59745437 c 0.413086,0 0.7382813,-0.0732422 0.9726563,-0.22265625 0.2402344,-0.15527344 0.3632812,-0.36621098 0.3632812,-0.63281248 0,-0.1552735 -0.032227,-0.2929688 -0.09375,-0.4101563 -0.055664,-0.1230468 -0.1757812,-0.234375 -0.3632812,-0.328125 -0.1816406,-0.099609 -0.4628906,-0.1992187 -0.84375,-0.2929687 -0.375,-0.09375 -0.703125,-0.1992188 -0.984375,-0.3164063 C 1.6464983,-2.9236262 1.4355608,-3.0847591 1.2890764,-3.2810481 1.1396623,-3.4744075 1.0664201,-3.7292903 1.0664201,-4.0427669 c 0,-0.4511718 0.1875,-0.8085937 0.5625,-1.0664062 0.3808594,-0.2636719 0.8789063,-0.3984375 1.4882813,-0.3984375 0.4277344,0 0.8027344,0.058594 1.125,0.1757812 0.328125,0.1113282 0.6035156,0.2460938 0.8320312,0.4101563 l -0.3867187,0.5859375 c -0.2050781,-0.140625 -0.4306641,-0.2519531 -0.6796875,-0.3398438 -0.2431641,-0.09375 -0.5390625,-0.140625 -0.890625,-0.140625 -0.421875,0 -0.7236328,0.067383 -0.9023438,0.1992188 -0.1728515,0.1347656 -0.2578125,0.3046875 -0.2578125,0.515625 0,0.1582031 0.041016,0.290039 0.1289063,0.3984375 0.084961,0.102539 0.2285156,0.196289 0.4335937,0.28125 0.2109375,0.079102 0.4980469,0.1699219 0.8671875,0.2695312 0.3515625,0.09375 0.6591797,0.2080078 0.9257813,0.3398438 0.2636719,0.1259765 0.46875,0.2929687 0.609375,0.5039062 0.1464844,0.2109375 0.2226562,0.4863282 0.2226562,0.8203125 0,0.3837891 -0.1113281,0.69726565 -0.328125,0.93750003 -0.2197265,0.234375 -0.5039062,0.40722656 -0.8554687,0.515625 C 3.6152483,0.064655 3.251967,0.11738938 2.8711076,0.11738938 c -0.4921875,0 -0.9111328,-0.0703125 -1.2539062,-0.2109375 -0.3457031,-0.140625 -0.63281252,-0.31054688 -0.86718752,-0.515625 L 1.2422014,-1.1833919 c 0.2109375,0.1816407 0.4511719,0.32519534 0.7265625,0.43359378 0.28125,0.10253906 0.5800781,0.15234375 0.9023437,0.15234375 z M 8.0420061,-5.4021419 v 3.8320313 c 0,0.3515625 0.073242,0.60644529 0.2226562,0.76171873 0.1464844,0.15820312 0.3779297,0.234375 0.6914063,0.234375 0.2958984,0 0.5771484,-0.0820313 0.84375,-0.24609375 C 10.06349,-0.9900325 10.271498,-1.1951106 10.420912,-1.4294856 v -3.9726563 h 0.855469 V 2.01875e-4 H 10.5381 L 10.467787,-0.72636062 C 10.25685,-0.45097 9.9931779,-0.2400325 9.6826311,-0.09354812 c -0.3134766,0.140625 -0.6269532,0.2109375 -0.9375,0.2109375 -0.5244141,0 -0.9140625,-0.13476563 -1.171875,-0.41015625 C 7.3154436,-0.57401687 7.1865373,-0.966595 7.1865373,-1.4763606 v -3.9257813 z m 6.1523439,0.703125 c 0.193359,-0.2578125 0.421875,-0.4570312 0.679687,-0.5976562 0.263672,-0.140625 0.553711,-0.2109375 0.867188,-0.2109375 0.474609,0 0.861328,0.1171875 1.160156,0.3515625 0.295899,0.2285156 0.509766,0.5507812 0.644531,0.9726562 0.140625,0.421875 0.210938,0.9140625 0.210938,1.4765625 0,0.5478516 -0.08203,1.0371094 -0.246094,1.4648438 -0.158203,0.42187498 -0.395508,0.75585935 -0.714844,0.99609373 -0.313476,0.24316406 -0.703125,0.36328125 -1.171875,0.36328125 -0.626953,0 -1.11914,-0.22558594 -1.476562,-0.6796875 l -0.05859,0.562499995 h -0.75 V -7.5701106 l 0.855469,-0.1054688 z m 1.230469,4.12500003 c 0.445312,0 0.788086,-0.17578125 1.03125,-0.52734373 0.240234,-0.3515625 0.363281,-0.8847656 0.363281,-1.6054688 0,-1.40625 -0.421875,-2.109375 -1.265625,-2.109375 -0.304688,0 -0.571289,0.09082 -0.796875,0.2695313 -0.228516,0.1816406 -0.416016,0.3808594 -0.5625,0.5976562 v 2.671875 c 0.140625,0.2197266 0.316406,0.39257815 0.527344,0.51562503 0.216796,0.12597656 0.451171,0.1875 0.703125,0.1875 z m 6.799804,-7.34765623 c 0.1875,0 0.339844,0.058594 0.457032,0.1757812 0.117187,0.1113282 0.175781,0.2519532 0.175781,0.421875 0,0.1728516 -0.05859,0.3164063 -0.175781,0.4335938 -0.117188,0.1171875 -0.269532,0.1757812 -0.457032,0.1757812 -0.1875,0 -0.339843,-0.058594 -0.457031,-0.1757812 -0.111328,-0.1171875 -0.164062,-0.2607422 -0.164062,-0.4335938 0,-0.1699218 0.05273,-0.3105468 0.164062,-0.421875 0.117188,-0.1171875 0.269531,-0.1757812 0.457031,-0.1757812 z m 0.796875,2.5195312 v 4.53515628 c 0,0.60351562 -0.137695,1.10449218 -0.410156,1.51171875 C 22.34474,1.04903 21.955092,1.3742253 21.439467,1.6173894 c -0.509766,0.2490234 -1.125,0.4335937 -1.851562,0.5507812 l -0.140625,-0.65625 c 0.530273,-0.09375 0.999023,-0.2314453 1.40625,-0.4101562 0.413085,-0.17285159 0.732421,-0.41601565 0.960937,-0.72656252 0.234375,-0.3046875 0.351563,-0.69726563 0.351563,-1.18359375 V -4.7107356 h -2.25 v -0.6914063 z m 3.304688,3.0117188 c 0.02344,0.6269531 0.1875,1.0839844 0.492187,1.3710937 0.304688,0.28125003 0.66211,0.42187503 1.078125,0.42187503 0.28125,0 0.530274,-0.0380859 0.75,-0.1171875 0.225586,-0.0849609 0.457032,-0.2109375 0.691407,-0.37500003 l 0.410156,0.57421878 c -0.251953,0.19628906 -0.539063,0.3515625 -0.867188,0.46875 -0.322265,0.10839843 -0.65039,0.1640625 -0.984375,0.1640625 -0.533203,0 -0.981445,-0.117187505 -1.347656,-0.3515625 -0.369141,-0.234375 -0.650391,-0.5625 -0.84375,-0.98437498 -0.1875,-0.421875 -0.28125,-0.9140625 -0.28125,-1.4765625 0,-0.5449219 0.09375,-1.03125 0.28125,-1.453125 0.193359,-0.421875 0.46875,-0.7529297 0.820313,-0.9960938 0.357421,-0.2402343 0.776367,-0.3632812 1.253906,-0.3632812 0.679687,0 1.21289,0.234375 1.605469,0.703125 0.389648,0.46875 0.585937,1.1132812 0.585937,1.9335937 0,0.09375 -0.0059,0.1845703 -0.01172,0.2695313 0,0.079102 -0.0059,0.149414 -0.01172,0.2109375 z m 1.464844,-2.4140625 c -0.398438,0 -0.735352,0.1464844 -1.007813,0.4335937 -0.275391,0.28125 -0.427734,0.7207032 -0.457031,1.3125 h 2.8125 c -0.0088,-0.5771484 -0.134766,-1.0107422 -0.375,-1.3007812 -0.243164,-0.2958985 -0.56836,-0.4453125 -0.972656,-0.4453125 z m 6.448242,4.18359373 c 0.272461,0 0.527343,-0.0410156 0.761718,-0.12890625 0.234375,-0.09375 0.448243,-0.2109375 0.644532,-0.35156248 l 0.421875,0.57421873 c -0.234375,0.19628906 -0.521485,0.3515625 -0.855469,0.46875 -0.328125,0.1171875 -0.65332,0.17578125 -0.972656,0.17578125 -0.539063,0 -0.996094,-0.11425782 -1.371094,-0.33984375 -0.375,-0.234375 -0.665039,-0.55664063 -0.867188,-0.97265623 -0.196289,-0.421875 -0.292968,-0.9140625 -0.292968,-1.4765625 0,-0.5390625 0.09668,-1.022461 0.292968,-1.453125 0.202149,-0.4277344 0.492188,-0.7646485 0.867188,-1.0078125 0.380859,-0.2490235 0.84375,-0.375 1.382812,-0.375 0.685547,0 1.289063,0.2080078 1.804688,0.6210937 l -0.421875,0.5742188 c -0.46875,-0.319336 -0.93457,-0.4804688 -1.394531,-0.4804688 -0.462891,0 -0.84375,0.1757813 -1.148438,0.5273438 -0.298828,0.3515625 -0.445312,0.8847656 -0.445312,1.59375 0,0.7207031 0.146484,1.2421875 0.445312,1.5703125 0.304688,0.3222656 0.685547,0.48046873 1.148438,0.48046873 z m 8.003906,0.3515625 c -0.1875,0.12597656 -0.416016,0.21972656 -0.679688,0.28125 -0.257812,0.0703125 -0.515625,0.10546875 -0.773437,0.10546875 -0.580078,0 -1.02832,-0.15234375 -1.347656,-0.45703125 -0.313477,-0.3046875 -0.46875,-0.69433593 -0.46875,-1.17187503 v -3.2226562 h -1.230469 v -0.6679688 h 1.230469 v -1.21875 l 0.867187,-0.1054687 v 1.3242187 h 1.863281 l -0.105468,0.6679688 h -1.757813 v 3.2109375 c 0,0.3046875 0.07617,0.53613279 0.234375,0.69140623 0.164063,0.15820312 0.427735,0.234375 0.796875,0.234375 0.202149,0 0.386719,-0.0234375 0.550781,-0.0703125 0.169922,-0.046875 0.331055,-0.10839844 0.480469,-0.1875 z m 0,0"
       style="fill:#000000;fill-opacity:1;fill-rule:nonzero;stroke:none"
       aria-label="subject"
       transform="matrix(1.3333333,0,0,1.3333333,198.41404,103.03879)" />
    <path
       id="path19"
       d="m 282.652,63.102 h 82.473 c 3.457,0 6.246,2.785 6.246,6.246 v 8.617 c 0,3.461 -2.789,6.246 -6.246,6.246 h -82.473 c -3.461,0 -6.246,-2.785 -6.246,-6.246 v -8.617 c 0,-3.461 2.785,-6.246 6.246,-6.246 z"
       style="fill:#2b8000;fill-opacity:1;fill-rule:nonzero;stroke:none"
       transform="scale(1.3333333)" />
    <path
       id="path20"
       d="M 1.0781819,2.01875e-4 V -0.65604812 h 0.84375 V -4.7341731 h -0.84375 v -0.6679688 h 1.5 l 0.1640625,1.2773438 c 0.2021484,-0.4453125 0.4511718,-0.788086 0.75,-1.03125 0.2958984,-0.2402344 0.6914062,-0.3632813 1.1835937,-0.3632813 0.1464844,0 0.28125,0.011719 0.3984375,0.035156 0.1171875,0.023437 0.2373047,0.052734 0.3632813,0.082031 l -0.1171875,1.828125 H 4.6055256 v -1.1484375 c -0.00879,0 -0.023437,0 -0.046875,0 -0.8291015,0 -1.4179687,0.5917969 -1.7695312,1.7695313 v 2.29687498 H 3.8789631 V 2.01875e-4 Z M 10.418026,-7.6755794 11.273494,-7.5701106 V 2.01875e-4 h -0.75 l -0.08203,-0.714843745 c -0.205078,0.29003906 -0.439453,0.50097656 -0.7031249,0.6328125 -0.2578125,0.13183593 -0.5361328,0.19921875 -0.8320312,0.19921875 -0.46875,0 -0.8554688,-0.117187505 -1.1601563,-0.3515625 -0.3046875,-0.234375 -0.5332031,-0.5625 -0.6796875,-0.98437498 -0.149414,-0.421875 -0.2226562,-0.9140625 -0.2226562,-1.4765625 0,-0.5390625 0.082031,-1.0195313 0.2460937,-1.4414063 0.1699219,-0.4277343 0.413086,-0.7646484 0.7265625,-1.0078125 0.319336,-0.2402343 0.703125,-0.3632812 1.1484375,-0.3632812 0.600586,0 1.0839844,0.2109375 1.4531254,0.6328125 z m -1.2304691,2.859375 c -0.4453125,0 -0.7910157,0.1757813 -1.03125,0.5273438 -0.2431641,0.3515625 -0.3632813,0.8847656 -0.3632813,1.59375 0,1.415039 0.4277344,2.12109373 1.2890625,2.12109373 0.3046875,0 0.5654297,-0.0849609 0.7851563,-0.2578125 C 10.084041,-1.0105403 10.268612,-1.2097591 10.418026,-1.4294856 v -2.6953125 c -0.149414,-0.2167969 -0.328125,-0.3867188 -0.5390629,-0.5039063 -0.2109375,-0.1230468 -0.4423828,-0.1875 -0.6914062,-0.1875 z m 7.3388671,-2.859375 c 0.287109,0 0.550781,0.029297 0.785156,0.082031 0.240235,0.046875 0.46875,0.1171875 0.679688,0.2109375 l -0.28125,0.6328125 c -0.172852,-0.070312 -0.360352,-0.1230469 -0.5625,-0.1640625 -0.196289,-0.038086 -0.395508,-0.058594 -0.597656,-0.058594 -0.75,0 -1.125,0.3017578 -1.125,0.9023438 v 1.0898437 h 1.828125 l -0.09375,0.6796875 H 15.424862 V 2.01875e-4 H 14.557674 V -4.3005794 h -1.289062 v -0.6796875 h 1.289062 v -1.078125 c 0,-0.328125 0.08496,-0.6123047 0.257813,-0.8554687 0.169921,-0.2490235 0.404296,-0.4365235 0.703125,-0.5625 0.295898,-0.131836 0.632812,-0.1992188 1.007812,-0.1992188 z m 4.807617,7.07812503 c 0.413086,0 0.738281,-0.0732422 0.972656,-0.22265625 0.240235,-0.15527344 0.363282,-0.36621098 0.363282,-0.63281248 0,-0.1552735 -0.03223,-0.2929688 -0.09375,-0.4101563 -0.05566,-0.1230468 -0.175782,-0.234375 -0.363282,-0.328125 -0.18164,-0.099609 -0.46289,-0.1992187 -0.84375,-0.2929687 -0.375,-0.09375 -0.703125,-0.1992188 -0.984375,-0.3164063 -0.27539,-0.1230468 -0.486328,-0.2841797 -0.632812,-0.4804687 -0.149414,-0.1933594 -0.222656,-0.4482422 -0.222656,-0.7617188 0,-0.4511718 0.1875,-0.8085937 0.5625,-1.0664062 0.380859,-0.2636719 0.878906,-0.3984375 1.488281,-0.3984375 0.427734,0 0.802734,0.058594 1.125,0.1757812 0.328125,0.1113282 0.603516,0.2460938 0.832031,0.4101563 l -0.386719,0.5859375 c -0.205078,-0.140625 -0.430664,-0.2519531 -0.679687,-0.3398438 -0.243164,-0.09375 -0.539063,-0.140625 -0.890625,-0.140625 -0.421875,0 -0.723633,0.067383 -0.902344,0.1992188 -0.172851,0.1347656 -0.257812,0.3046875 -0.257812,0.515625 0,0.1582031 0.04101,0.290039 0.128906,0.3984375 0.08496,0.102539 0.228516,0.196289 0.433594,0.28125 0.210937,0.079102 0.498047,0.1699219 0.867187,0.2695312 0.351563,0.09375 0.65918,0.2080078 0.925781,0.3398438 0.263672,0.1259765 0.46875,0.2929687 0.609375,0.5039062 0.146485,0.2109375 0.222657,0.4863282 0.222657,0.8203125 0,0.3837891 -0.111328,0.69726565 -0.328125,0.93750003 -0.219727,0.234375 -0.503907,0.40722656 -0.855469,0.515625 -0.345703,0.09960937 -0.708984,0.15234375 -1.089844,0.15234375 -0.492187,0 -0.911133,-0.0703125 -1.253906,-0.2109375 -0.345703,-0.140625 -0.632813,-0.31054688 -0.867188,-0.515625 l 0.492188,-0.57421878 c 0.210937,0.1816407 0.451172,0.32519534 0.726562,0.43359378 0.28125,0.10253906 0.580079,0.15234375 0.902344,0.15234375 z m 5.519531,-3.82031253 c 0,-0.2255859 0.07617,-0.4160156 0.234375,-0.5742187 0.164063,-0.1640625 0.363282,-0.2460938 0.597657,-0.2460938 0.234375,0 0.427734,0.082031 0.585937,0.2460938 0.164063,0.1582031 0.246094,0.3486328 0.246094,0.5742187 0,0.234375 -0.08203,0.4335938 -0.246094,0.5976563 -0.158203,0.1640625 -0.351562,0.2460937 -0.585937,0.2460937 -0.234375,0 -0.433594,-0.082031 -0.597657,-0.2460937 -0.158203,-0.1640625 -0.234375,-0.3632813 -0.234375,-0.5976563 z m 0,3.70312503 c 0,-0.22558594 0.07617,-0.42187503 0.234375,-0.58593753 0.164063,-0.1640625 0.363282,-0.2460937 0.597657,-0.2460937 0.234375,0 0.427734,0.082031 0.585937,0.2460937 0.164063,0.1640625 0.246094,0.36035159 0.246094,0.58593753 0,0.234375 -0.08203,0.43359375 -0.246094,0.59765625 -0.158203,0.15527343 -0.351562,0.234375 -0.585937,0.234375 -0.234375,0 -0.433594,-0.07910157 -0.597657,-0.234375 -0.158203,-0.1640625 -0.234375,-0.36328125 -0.234375,-0.59765625 z m 9.424805,-4.37109373 c 0,0.5332031 -0.169922,0.9609375 -0.503906,1.2890625 -0.328125,0.328125 -0.735352,0.5507812 -1.21875,0.6679687 L 36.653377,2.01875e-4 H 35.586971 L 33.653377,-3.0349544 H 32.704158 V 2.01875e-4 H 31.813533 V -7.0544856 h 1.816407 c 0.867187,0 1.523437,0.1699219 1.96875,0.5039062 0.451172,0.328125 0.679687,0.8173828 0.679687,1.4648438 z m -0.949219,0 c 0,-0.4453125 -0.134765,-0.7646485 -0.398437,-0.9609375 -0.257813,-0.2021485 -0.662109,-0.3046875 -1.207031,-0.3046875 h -1.019532 v 2.625 h 1.019532 c 0.506836,0 0.902343,-0.099609 1.183593,-0.3046875 0.28125,-0.2109375 0.421875,-0.5625 0.421875,-1.0546875 z m 3.304688,2.6953125 c 0.02344,0.6269531 0.1875,1.0839844 0.492187,1.3710937 0.304688,0.28125003 0.66211,0.42187503 1.078125,0.42187503 0.28125,0 0.530274,-0.0380859 0.75,-0.1171875 0.225586,-0.0849609 0.457032,-0.2109375 0.691407,-0.37500003 l 0.410156,0.57421878 c -0.251953,0.19628906 -0.539063,0.3515625 -0.867188,0.46875 -0.322265,0.10839843 -0.65039,0.1640625 -0.984375,0.1640625 -0.533203,0 -0.981445,-0.117187505 -1.347656,-0.3515625 -0.36914,-0.234375 -0.65039,-0.5625 -0.84375,-0.98437498 -0.1875,-0.421875 -0.28125,-0.9140625 -0.28125,-1.4765625 0,-0.5449219 0.09375,-1.03125 0.28125,-1.453125 0.19336,-0.421875 0.46875,-0.7529297 0.820313,-0.9960938 0.357422,-0.2402343 0.776367,-0.3632812 1.253906,-0.3632812 0.679687,0 1.212891,0.234375 1.605469,0.703125 0.389648,0.46875 0.585937,1.1132812 0.585937,1.9335937 0,0.09375 -0.0059,0.1845703 -0.01172,0.2695313 0,0.079102 -0.0059,0.149414 -0.01172,0.2109375 z m 1.464844,-2.4140625 c -0.398438,0 -0.735352,0.1464844 -1.007813,0.4335937 -0.27539,0.28125 -0.427734,0.7207032 -0.457031,1.3125 h 2.8125 c -0.0088,-0.5771484 -0.134766,-1.0107422 -0.375,-1.3007812 -0.243164,-0.2958985 -0.568359,-0.4453125 -0.972656,-0.4453125 z m 5.850586,4.20703123 c 0.413086,0 0.738281,-0.0732422 0.972656,-0.22265625 0.240234,-0.15527344 0.363281,-0.36621098 0.363281,-0.63281248 0,-0.1552735 -0.03223,-0.2929688 -0.09375,-0.4101563 -0.05566,-0.1230468 -0.175781,-0.234375 -0.363281,-0.328125 -0.181641,-0.099609 -0.462891,-0.1992187 -0.84375,-0.2929687 -0.375,-0.09375 -0.703125,-0.1992188 -0.984375,-0.3164063 -0.275391,-0.1230468 -0.486328,-0.2841797 -0.632813,-0.4804687 -0.149414,-0.1933594 -0.222656,-0.4482422 -0.222656,-0.7617188 0,-0.4511718 0.1875,-0.8085937 0.5625,-1.0664062 0.380859,-0.2636719 0.878906,-0.3984375 1.488281,-0.3984375 0.427735,0 0.802735,0.058594 1.125,0.1757812 0.328125,0.1113282 0.603516,0.2460938 0.832032,0.4101563 l -0.386719,0.5859375 c -0.205078,-0.140625 -0.430664,-0.2519531 -0.679688,-0.3398438 -0.243164,-0.09375 -0.539062,-0.140625 -0.890625,-0.140625 -0.421875,0 -0.723632,0.067383 -0.902343,0.1992188 -0.172852,0.1347656 -0.257813,0.3046875 -0.257813,0.515625 0,0.1582031 0.04102,0.290039 0.128906,0.3984375 0.08496,0.102539 0.228516,0.196289 0.433594,0.28125 0.210938,0.079102 0.498047,0.1699219 0.867188,0.2695312 0.351562,0.09375 0.659179,0.2080078 0.925781,0.3398438 0.263672,0.1259765 0.46875,0.2929687 0.609375,0.5039062 0.146484,0.2109375 0.222656,0.4863282 0.222656,0.8203125 0,0.3837891 -0.111328,0.69726565 -0.328125,0.93750003 -0.219726,0.234375 -0.503906,0.40722656 -0.855469,0.515625 -0.345703,0.09960937 -0.708984,0.15234375 -1.089843,0.15234375 -0.492188,0 -0.911133,-0.0703125 -1.253907,-0.2109375 -0.345703,-0.140625 -0.632812,-0.31054688 -0.867187,-0.515625 l 0.492187,-0.57421878 c 0.210938,0.1816407 0.451172,0.32519534 0.726563,0.43359378 0.28125,0.10253906 0.580078,0.15234375 0.902344,0.15234375 z m 6.363281,-4.91015623 c 0.764648,0 1.341797,0.2548828 1.734375,0.7617187 0.389648,0.5097657 0.585937,1.1894532 0.585937,2.0390625 0,0.5566407 -0.09082,1.0429688 -0.269531,1.4648438 -0.181641,0.42187498 -0.442383,0.75585935 -0.785156,0.99609373 -0.345703,0.24316406 -0.770508,0.36328125 -1.277344,0.36328125 -0.758789,0 -1.335937,-0.25195313 -1.734375,-0.76171875 -0.392578,-0.51562503 -0.585937,-1.19824223 -0.585937,-2.05078123 0,-0.553711 0.08789,-1.0429688 0.269531,-1.4648438 0.178711,-0.421875 0.439453,-0.75 0.785156,-0.984375 0.351563,-0.2402343 0.776367,-0.3632812 1.277344,-0.3632812 z m 0,0.703125 c -0.462891,0 -0.814453,0.1728515 -1.054688,0.515625 -0.234375,0.3457031 -0.351562,0.8759765 -0.351562,1.59375 0,0.7207031 0.117187,1.2509765 0.351562,1.59375 0.234375,0.3457031 0.580078,0.51562498 1.042969,0.51562498 0.46875,0 0.820313,-0.16992188 1.054688,-0.51562498 0.234375,-0.3515625 0.351562,-0.8847656 0.351562,-1.6054688 0,-0.7089843 -0.117187,-1.2363281 -0.351562,-1.5820312 -0.234375,-0.3427735 -0.583008,-0.515625 -1.042969,-0.515625 z m 4.959961,-0.5976563 v 3.8320313 c 0,0.3515625 0.07324,0.60644529 0.222656,0.76171873 0.146484,0.15820312 0.37793,0.234375 0.691406,0.234375 0.295899,0 0.577149,-0.0820313 0.84375,-0.24609375 0.263672,-0.16992188 0.47168,-0.37499998 0.621094,-0.60937498 v -3.9726563 h 0.855469 V 2.01875e-4 h -0.738281 l -0.07031,-0.726562495 c -0.210937,0.27539062 -0.474609,0.48632812 -0.785156,0.6328125 -0.313477,0.140625 -0.626953,0.2109375 -0.9375,0.2109375 -0.524414,0 -0.914063,-0.13476563 -1.171875,-0.41015625 -0.257813,-0.28125 -0.386719,-0.67382813 -0.386719,-1.18359373 v -3.9257813 z m 5.34375,5.402343775 V -0.65604812 h 0.84375 V -4.7341731 h -0.84375 v -0.6679688 h 1.5 l 0.164062,1.2773438 c 0.202149,-0.4453125 0.451172,-0.788086 0.75,-1.03125 0.295899,-0.2402344 0.691407,-0.3632813 1.183594,-0.3632813 0.146484,0 0.28125,0.011719 0.398438,0.035156 0.117187,0.023437 0.237304,0.052734 0.363281,0.082031 l -0.117188,1.828125 h -0.714843 v -1.1484375 c -0.0088,0 -0.02344,0 -0.04687,0 -0.829102,0 -1.417969,0.5917969 -1.769532,1.7695313 v 2.29687498 h 1.089844 V 2.01875e-4 Z m 8.545898,-0.621093745 c 0.272461,0 0.527344,-0.0410156 0.761719,-0.12890625 0.234375,-0.09375 0.448242,-0.2109375 0.644531,-0.35156248 l 0.421875,0.57421873 c -0.234375,0.19628906 -0.521484,0.3515625 -0.855469,0.46875 -0.328125,0.1171875 -0.65332,0.17578125 -0.972656,0.17578125 -0.539062,0 -0.996094,-0.11425782 -1.371094,-0.33984375 -0.375,-0.234375 -0.665039,-0.55664063 -0.867187,-0.97265623 -0.196289,-0.421875 -0.292969,-0.9140625 -0.292969,-1.4765625 0,-0.5390625 0.09668,-1.022461 0.292969,-1.453125 0.202148,-0.4277344 0.492187,-0.7646485 0.867187,-1.0078125 0.38086,-0.2490235 0.84375,-0.375 1.382813,-0.375 0.685547,0 1.289062,0.2080078 1.804687,0.6210937 l -0.421875,0.5742188 c -0.46875,-0.319336 -0.93457,-0.4804688 -1.394531,-0.4804688 -0.46289,0 -0.84375,0.1757813 -1.148437,0.5273438 -0.298828,0.3515625 -0.445313,0.8847656 -0.445313,1.59375 0,0.7207031 0.146485,1.2421875 0.445313,1.5703125 0.304687,0.3222656 0.685547,0.48046873 1.148437,0.48046873 z m 4.394531,-1.76953123 c 0.02344,0.6269531 0.1875,1.0839844 0.492188,1.3710937 0.304687,0.28125003 0.662109,0.42187503 1.078125,0.42187503 0.28125,0 0.530273,-0.0380859 0.75,-0.1171875 0.225586,-0.0849609 0.457031,-0.2109375 0.691406,-0.37500003 l 0.410156,0.57421878 c -0.251953,0.19628906 -0.539062,0.3515625 -0.867187,0.46875 -0.322266,0.10839843 -0.650391,0.1640625 -0.984375,0.1640625 -0.533203,0 -0.981445,-0.117187505 -1.347656,-0.3515625 -0.369141,-0.234375 -0.650391,-0.5625 -0.84375,-0.98437498 -0.1875,-0.421875 -0.28125,-0.9140625 -0.28125,-1.4765625 0,-0.5449219 0.09375,-1.03125 0.28125,-1.453125 0.193359,-0.421875 0.46875,-0.7529297 0.820312,-0.9960938 0.357422,-0.2402343 0.776367,-0.3632812 1.253906,-0.3632812 0.679688,0 1.212891,0.234375 1.605469,0.703125 0.389649,0.46875 0.585938,1.1132812 0.585938,1.9335937 0,0.09375 -0.0059,0.1845703 -0.01172,0.2695313 0,0.079102 -0.0059,0.149414 -0.01172,0.2109375 z m 1.464844,-2.4140625 c -0.398437,0 -0.735351,0.1464844 -1.007812,0.4335937 -0.275391,0.28125 -0.427735,0.7207032 -0.457032,1.3125 h 2.8125 c -0.0088,-0.5771484 -0.134765,-1.0107422 -0.375,-1.3007812 -0.243164,-0.2958985 -0.568359,-0.4453125 -0.972656,-0.4453125 z m 0,0"
       style="fill:#ffffff;fill-opacity:1;fill-rule:nonzero;stroke:none"
       aria-label="rdfs:Resource"
       transform="matrix(1.3333333,0,0,1.3333333,378.41399,103.03879)" />
    <path
       id="path21"
       d="m 338.988,35.551 c 1.301,2.25 -10.402,22.519 -13.004,22.519 -2.601,0 -14.304,-20.269 -13.004,-22.519 1.301,-2.254 24.708,-2.254 26.008,0 z"
       style="fill:#cccccc;fill-opacity:1;fill-rule:nonzero;stroke:#cccccc;stroke-width:0.3;stroke-linecap:round;stroke-linejoin:round;stroke-miterlimit:4;stroke-dasharray:none;stroke-opacity:1"
       transform="scale(1.3333333)" />
  </g>
</svg>
