<?xml version="1.0" encoding="UTF-8" standalone="no"?>
<!-- Created with Inkscape (http://www.inkscape.org/) -->

<svg
   version="1.1"
   id="svg1"
   width="869.29132"
   height="124.7811"
   viewBox="0 0 869.29132 124.7811"
   sodipodi:docname="typed-literals-notation.pdf"
   xmlns:inkscape="http://www.inkscape.org/namespaces/inkscape"
   xmlns:sodipodi="http://sodipodi.sourceforge.net/DTD/sodipodi-0.dtd"
   xmlns="http://www.w3.org/2000/svg"
   xmlns:svg="http://www.w3.org/2000/svg">
  <defs
     id="defs1" />
  <sodipodi:namedview
     id="namedview1"
     pagecolor="#ffffff"
     bordercolor="#000000"
     borderopacity="0.25"
     inkscape:showpageshadow="2"
     inkscape:pageopacity="0.0"
     inkscape:pagecheckerboard="0"
     inkscape:deskcolor="#d1d1d1">
    <inkscape:page
       x="0"
       y="0"
       inkscape:label="1"
       id="page1"
       width="869.29132"
       height="124.7811"
       margin="0"
       bleed="0" />
  </sodipodi:namedview>
  <g
     id="g1"
     inkscape:groupmode="layer"
     inkscape:label="1">
    <path
       id="path1"
       d="m 126.188,0.566 h 399.597 c 1.57,0 2.836,1.266 2.836,2.836 v 32.782 c 0,1.57 -1.266,2.836 -2.836,2.836 H 126.188 c -1.571,0 -2.836,-1.266 -2.836,-2.836 V 3.402 c 0,-1.57 1.265,-2.836 2.836,-2.836 z"
       style="fill:#f9f9f9;fill-opacity:1;fill-rule:nonzero;stroke:#cccccc;stroke-width:1.13386;stroke-linecap:round;stroke-linejoin:round;stroke-miterlimit:4;stroke-dasharray:3.40158, 3.40158;stroke-dashoffset:0;stroke-opacity:1"
       transform="scale(1.3333333)" />
    <path
       id="path2"
       d="m 3.4444963,-5.5090948 c 0.4746094,0 0.8554688,0.1171875 1.1367188,0.3515625 0.2871093,0.2285156 0.4951172,0.5507812 0.6210937,0.9726562 0.131836,0.421875 0.1992188,0.9140625 0.1992188,1.4765625 0,0.5478516 -0.079102,1.0371094 -0.234375,1.4648438 -0.1494141,0.42187499 -0.3808594,0.75585936 -0.6914063,0.99609374 -0.3046875,0.24316406 -0.6914062,0.36328125 -1.1601562,0.36328125 -0.5947266,0 -1.0722657,-0.20507813 -1.4296875,-0.62109375 V 2.0612177 L 1.0304338,2.1666864 v -7.5703125 h 0.7265625 l 0.082031,0.7617188 c 0.1933593,-0.28125 0.4277343,-0.4951172 0.703125,-0.6445313 0.2724609,-0.1464843 0.5742187,-0.2226562 0.902344,-0.2226562 z m -0.2109375,0.6914062 c -0.2988281,0 -0.5595703,0.09082 -0.7851562,0.2695313 -0.2285157,0.1816406 -0.4160157,0.3808594 -0.5625,0.5976562 v 2.671875 c 0.140625,0.2109375 0.3164062,0.38085941 0.5273437,0.50390629 0.2167969,0.1171875 0.4570313,0.17578125 0.7148438,0.17578125 0.4453125,0 0.7792968,-0.16992188 1.0078125,-0.51562504 0.2255859,-0.3427734 0.3398437,-0.8730468 0.3398437,-1.59375 0,-1.40625 -0.4160156,-2.109375 -1.2421875,-2.109375 z m 3.9990235,4.81640629 v -0.65625 h 0.84375 V -4.7356573 h -0.84375 v -0.6679688 h 1.5 l 0.1640625,1.2773438 c 0.2021484,-0.4453125 0.4511718,-0.7880859 0.75,-1.03125 0.2958984,-0.2402344 0.6914062,-0.3632813 1.1835942,-0.3632813 0.146484,0 0.28125,0.011719 0.398437,0.035156 0.117188,0.023437 0.237305,0.052734 0.363281,0.082031 l -0.117187,1.828125 h -0.714844 v -1.1484375 c -0.0088,0 -0.02344,0 -0.04687,0 -0.8291016,0 -1.4179687,0.5917969 -1.7695312,1.7695313 v 2.29687499 h 1.0898442 v 0.65625 z M 14.017739,-2.3919073 c 0.02344,0.6269531 0.1875,1.0839844 0.492187,1.3710937 0.304688,0.28125004 0.662109,0.42187504 1.078125,0.42187504 0.28125,0 0.530273,-0.0380859 0.75,-0.1171875 0.225586,-0.0849609 0.457031,-0.2109375 0.691406,-0.37500004 l 0.410157,0.57421879 c -0.251954,0.19628906 -0.539063,0.3515625 -0.867188,0.46875 -0.322266,0.10839844 -0.650391,0.1640625 -0.984375,0.1640625 -0.533203,0 -0.981445,-0.1171875 -1.347656,-0.3515625 -0.369141,-0.234375 -0.650391,-0.5625 -0.84375,-0.98437499 -0.1875,-0.421875 -0.28125,-0.9140625 -0.28125,-1.4765625 0,-0.5449219 0.09375,-1.03125 0.28125,-1.453125 0.193359,-0.421875 0.46875,-0.7529297 0.820312,-0.9960938 0.357422,-0.2402343 0.776367,-0.3632812 1.253907,-0.3632812 0.679687,0 1.21289,0.234375 1.605468,0.703125 0.389649,0.46875 0.585938,1.1132812 0.585938,1.9335937 0,0.09375 -0.0059,0.1845704 -0.01172,0.2695313 0,0.079102 -0.0059,0.1494141 -0.01172,0.2109375 z m 1.464843,-2.4140625 c -0.398437,0 -0.735351,0.1464844 -1.007812,0.4335937 -0.275391,0.28125 -0.427735,0.7207032 -0.457031,1.3125 h 2.8125 c -0.0088,-0.5771484 -0.134766,-1.0107421 -0.375,-1.3007812 -0.243165,-0.2958984 -0.56836,-0.4453125 -0.972657,-0.4453125 z m 7.245117,-2.8710938 0.855469,0.1054688 v 7.57031249 h -0.75 l -0.08203,-0.71484375 C 22.54606,-0.426087 22.311685,-0.2151495 22.048013,-0.08331356 21.7902,0.04852238 21.51188,0.11590519 21.215982,0.11590519 c -0.46875,0 -0.855469,-0.1171875 -1.160157,-0.3515625 -0.304687,-0.234375 -0.533203,-0.5625 -0.679687,-0.98437499 -0.149414,-0.421875 -0.222656,-0.9140625 -0.222656,-1.4765625 0,-0.5390625 0.08203,-1.0195313 0.246093,-1.4414063 0.169922,-0.4277343 0.413086,-0.7646484 0.726563,-1.0078125 0.319336,-0.2402343 0.703125,-0.3632812 1.148437,-0.3632812 0.600586,0 1.083985,0.2109375 1.453125,0.6328125 z m -1.230468,2.859375 c -0.445313,0 -0.791016,0.1757813 -1.03125,0.5273438 -0.243164,0.3515625 -0.363282,0.8847656 -0.363282,1.59375 0,1.4150391 0.427735,2.12109374 1.289063,2.12109374 0.304687,0 0.56543,-0.0849609 0.785156,-0.2578125 0.216797,-0.17871094 0.401367,-0.37792964 0.550781,-0.59765624 v -2.6953125 c -0.149414,-0.2167969 -0.328125,-0.3867188 -0.539062,-0.5039063 -0.210938,-0.1230468 -0.442383,-0.1875 -0.691406,-0.1875 z m 6.1875,-3.1054687 c 0.193359,0 0.345703,0.058594 0.457031,0.1757812 0.117187,0.1113282 0.175781,0.2519532 0.175781,0.421875 0,0.1728516 -0.05859,0.3164063 -0.175781,0.4335938 -0.111328,0.1171875 -0.263672,0.1757812 -0.457031,0.1757812 -0.181641,0 -0.328125,-0.058594 -0.445313,-0.1757812 -0.111328,-0.1171875 -0.164062,-0.2607422 -0.164062,-0.4335938 0,-0.1699218 0.05273,-0.3105468 0.164062,-0.421875 0.117188,-0.1171875 0.263672,-0.1757812 0.445313,-0.1757812 z m 0.691406,2.5195312 v 4.72265629 h 1.523437 v 0.6796875 h -4.054687 v -0.6796875 h 1.675781 V -4.7122198 h -1.617187 v -0.6914063 z m 5.862305,4.78125004 c 0.272461,0 0.527343,-0.0410156 0.761718,-0.12890625 0.234375,-0.09375 0.448243,-0.2109375 0.644532,-0.35156249 l 0.421875,0.57421874 c -0.234375,0.19628906 -0.521485,0.3515625 -0.855469,0.46875 -0.328125,0.1171875 -0.65332,0.17578125 -0.972656,0.17578125 -0.539063,0 -0.996094,-0.11425781 -1.371094,-0.33984375 -0.375,-0.234375 -0.665039,-0.55664063 -0.867188,-0.97265624 -0.196289,-0.421875 -0.292968,-0.9140625 -0.292968,-1.4765625 0,-0.5390625 0.09668,-1.0224609 0.292968,-1.453125 0.202149,-0.4277344 0.492188,-0.7646484 0.867188,-1.0078125 0.380859,-0.2490234 0.84375,-0.375 1.382812,-0.375 0.685547,0 1.289063,0.2080078 1.804688,0.6210937 l -0.421875,0.5742188 c -0.46875,-0.3193359 -0.93457,-0.4804688 -1.394531,-0.4804688 -0.462891,0 -0.84375,0.1757813 -1.148438,0.5273438 -0.298828,0.3515625 -0.445312,0.8847656 -0.445312,1.59375 0,0.7207031 0.146484,1.2421875 0.445312,1.5703125 0.304688,0.32226561 0.685547,0.48046874 1.148438,0.48046874 z m 7.582031,-0.56250004 c 0,0.2197266 0.03516,0.38085941 0.105469,0.48046879 0.07031,0.10253906 0.178711,0.17285156 0.328125,0.2109375 l -0.210938,0.609375 c -0.228515,-0.03222656 -0.430664,-0.10546875 -0.609375,-0.22265625 -0.172851,-0.1171875 -0.298828,-0.29589844 -0.375,-0.5390625 -0.196289,0.25195312 -0.442383,0.44238281 -0.738281,0.57421875 -0.290039,0.12304687 -0.606445,0.1875 -0.949219,0.1875 -0.539062,0 -0.966797,-0.15234375 -1.277344,-0.45703125 -0.313476,-0.3046875 -0.46875,-0.70605464 -0.46875,-1.20703124 0,-0.5537109 0.213868,-0.9785156 0.644532,-1.2773438 0.436523,-0.3046875 1.066406,-0.4570312 1.886718,-0.4570312 h 0.796875 v -0.4453125 c 0,-0.3896484 -0.114257,-0.6621094 -0.339843,-0.8203125 -0.228516,-0.1640625 -0.544922,-0.2460938 -0.949219,-0.2460938 -0.181641,0 -0.392578,0.020508 -0.632813,0.058594 -0.234375,0.041016 -0.492187,0.1113281 -0.773437,0.2109375 l -0.222656,-0.6445313 c 0.328125,-0.1230468 0.635742,-0.2109375 0.925781,-0.2578125 0.295898,-0.052734 0.574219,-0.082031 0.832031,-0.082031 0.670899,0 1.174805,0.1582031 1.511719,0.46875 0.342773,0.3134766 0.515625,0.7353516 0.515625,1.265625 z m -2.238281,0.64453129 c 0.272461,0 0.527343,-0.0644531 0.761718,-0.19921875 0.240235,-0.13183594 0.445313,-0.31933594 0.609375,-0.56250004 v -1.3945312 h -0.785156 c -0.594726,0 -1.013672,0.1054687 -1.253906,0.3164062 -0.243164,0.2050782 -0.363281,0.4775391 -0.363281,0.8203125 0,0.67968754 0.342773,1.01953129 1.03125,1.01953129 z m 8.815429,0.26953125 c -0.1875,0.12597656 -0.416015,0.21972656 -0.679687,0.28125 -0.257813,0.0703125 -0.515625,0.10546875 -0.773438,0.10546875 -0.580078,0 -1.02832,-0.15234375 -1.347656,-0.45703125 -0.313476,-0.3046875 -0.46875,-0.69433594 -0.46875,-1.17187504 v -3.2226562 h -1.230469 v -0.6679688 h 1.230469 v -1.21875 l 0.867188,-0.1054687 v 1.3242187 h 1.863281 l -0.105469,0.6679688 h -1.757812 v 3.2109375 c 0,0.3046875 0.07617,0.5361328 0.234375,0.69140624 0.164062,0.15820312 0.427734,0.234375 0.796875,0.234375 0.202148,0 0.386718,-0.0234375 0.550781,-0.0703125 0.169922,-0.046875 0.331055,-0.10839844 0.480469,-0.1875 z M 50.94059,-2.3919073 c 0.02344,0.6269531 0.1875,1.0839844 0.492188,1.3710937 0.304687,0.28125004 0.662109,0.42187504 1.078125,0.42187504 0.28125,0 0.530273,-0.0380859 0.75,-0.1171875 0.225586,-0.0849609 0.457031,-0.2109375 0.691406,-0.37500004 l 0.410156,0.57421879 c -0.251953,0.19628906 -0.539062,0.3515625 -0.867187,0.46875 -0.322266,0.10839844 -0.650391,0.1640625 -0.984375,0.1640625 -0.533204,0 -0.981446,-0.1171875 -1.347657,-0.3515625 -0.36914,-0.234375 -0.65039,-0.5625 -0.84375,-0.98437499 -0.1875,-0.421875 -0.28125,-0.9140625 -0.28125,-1.4765625 0,-0.5449219 0.09375,-1.03125 0.28125,-1.453125 0.19336,-0.421875 0.46875,-0.7529297 0.820313,-0.9960938 0.357422,-0.2402343 0.776367,-0.3632812 1.253906,-0.3632812 0.679688,0 1.212891,0.234375 1.605469,0.703125 0.389648,0.46875 0.585937,1.1132812 0.585937,1.9335937 0,0.09375 -0.0059,0.1845704 -0.01172,0.2695313 0,0.079102 -0.0059,0.1494141 -0.01172,0.2109375 z m 1.464844,-2.4140625 c -0.398438,0 -0.735352,0.1464844 -1.007813,0.4335937 -0.27539,0.28125 -0.427734,0.7207032 -0.457031,1.3125 h 2.8125 c -0.0088,-0.5771484 -0.134766,-1.0107421 -0.375,-1.3007812 -0.243164,-0.2958984 -0.568359,-0.4453125 -0.972656,-0.4453125 z m 0,0"
       style="fill:#000000;fill-opacity:1;fill-rule:nonzero;stroke:none"
       aria-label="predicate"
       transform="matrix(1.3333333,0,0,1.3333333,274.27843,19.443116)" />
    <path
       id="path3"
       d="M 263.02,19.715 203.41,19.598"
       style="fill:none;stroke:#000000;stroke-width:1.41732;stroke-linecap:round;stroke-linejoin:round;stroke-miterlimit:4;stroke-dasharray:none;stroke-opacity:1"
       transform="scale(1.3333333)" />
    <path
       id="path4"
       d="m -238.963,91.749 c -0.354,0.355 -9.545,-2.108 -9.675,-2.593 -0.13,-0.484 6.598,-7.213 7.082,-7.083 0.485,0.13 2.948,9.322 2.593,9.676 z"
       style="fill:#000000;fill-opacity:1;fill-rule:nonzero;stroke:#000000;stroke-width:1.17266;stroke-linecap:round;stroke-linejoin:round;stroke-miterlimit:4;stroke-dasharray:none;stroke-opacity:1"
       transform="matrix(-1.3333333,0.31164133,0.35726533,1.1630587,0,0)" />
    <path
       id="path5"
       d="m 147.652,9.102 h 45.313 c 3.461,0 6.246,2.785 6.246,6.246 v 8.617 c 0,3.461 -2.785,6.246 -6.246,6.246 h -45.313 c -3.461,0 -6.246,-2.785 -6.246,-6.246 v -8.617 c 0,-3.461 2.785,-6.246 6.246,-6.246 z"
       style="fill:#f2f2f2;fill-opacity:1;fill-rule:nonzero;stroke:#4d4d4d;stroke-width:1.41732;stroke-linecap:round;stroke-linejoin:round;stroke-miterlimit:4;stroke-dasharray:none;stroke-opacity:1"
       transform="scale(1.3333333)" />
    <path
       id="path6"
       d="m 2.8710966,-0.59773738 c 0.413086,0 0.7382813,-0.0732422 0.9726563,-0.22265625 0.2402344,-0.15527343 0.3632812,-0.36621097 0.3632812,-0.63281247 0,-0.1552735 -0.032227,-0.2929688 -0.09375,-0.4101563 -0.055664,-0.1230469 -0.1757812,-0.234375 -0.3632812,-0.328125 -0.1816406,-0.099609 -0.4628906,-0.1992187 -0.84375,-0.2929687 -0.375,-0.09375 -0.703125,-0.1992188 -0.984375,-0.3164063 C 1.6464873,-2.9239093 1.4355498,-3.0850421 1.2890654,-3.2813311 1.1396513,-3.4746905 1.0664091,-3.7295733 1.0664091,-4.0430499 c 0,-0.4511719 0.1875,-0.8085937 0.5625,-1.0664062 0.3808594,-0.2636719 0.8789063,-0.3984375 1.4882813,-0.3984375 0.4277344,0 0.8027344,0.058594 1.125,0.1757812 0.328125,0.1113281 0.6035156,0.2460938 0.8320312,0.4101563 l -0.3867187,0.5859375 c -0.2050781,-0.140625 -0.4306641,-0.2519532 -0.6796875,-0.3398438 -0.2431641,-0.09375 -0.5390625,-0.140625 -0.890625,-0.140625 -0.421875,0 -0.7236328,0.067383 -0.9023438,0.1992188 -0.1728515,0.1347656 -0.2578125,0.3046875 -0.2578125,0.515625 0,0.1582031 0.041016,0.290039 0.1289063,0.3984375 0.084961,0.102539 0.2285156,0.196289 0.4335937,0.28125 0.2109375,0.079102 0.4980469,0.1699218 0.8671875,0.2695312 0.3515625,0.09375 0.6591797,0.2080078 0.9257813,0.3398438 0.2636719,0.1259765 0.46875,0.2929687 0.609375,0.5039062 0.1464844,0.2109375 0.2226562,0.4863281 0.2226562,0.8203125 0,0.3837891 -0.1113281,0.69726565 -0.328125,0.93750002 -0.2197265,0.234375 -0.5039062,0.40722657 -0.8554687,0.515625 C 3.6152373,0.064372 3.251956,0.11710637 2.8710966,0.11710637 c -0.4921875,0 -0.9111328,-0.0703125 -1.2539062,-0.2109375 -0.3457031,-0.140625 -0.63281252,-0.31054687 -0.86718752,-0.515625 L 1.2421904,-1.1836749 c 0.2109375,0.1816406 0.4511719,0.32519534 0.7265625,0.43359377 0.28125,0.10253907 0.5800781,0.15234375 0.9023437,0.15234375 z M 8.0419951,-5.4024249 v 3.8320313 c 0,0.3515625 0.073242,0.60644529 0.2226562,0.76171872 0.1464844,0.15820313 0.3779297,0.234375 0.6914063,0.234375 0.2958984,0 0.5771484,-0.0820313 0.84375,-0.24609375 C 10.063479,-0.9903155 10.271487,-1.1953936 10.420901,-1.4297686 V -5.4024249 H 11.27637 V -8.1125e-5 h -0.738281 l -0.07031,-0.726562505 c -0.210937,0.27539063 -0.4746091,0.48632813 -0.7851559,0.6328125 -0.3134766,0.140625 -0.6269532,0.2109375 -0.9375,0.2109375 -0.5244141,0 -0.9140625,-0.13476562 -1.171875,-0.41015625 C 7.3154326,-0.57429988 7.1865263,-0.966878 7.1865263,-1.4766436 v -3.9257813 z m 6.1523439,0.703125 c 0.193359,-0.2578125 0.421875,-0.4570312 0.679687,-0.5976562 0.263672,-0.140625 0.553711,-0.2109375 0.867188,-0.2109375 0.474609,0 0.861328,0.1171875 1.160156,0.3515625 0.295899,0.2285156 0.509766,0.5507812 0.644531,0.9726562 0.140625,0.421875 0.210938,0.9140625 0.210938,1.4765625 0,0.5478516 -0.08203,1.0371094 -0.246094,1.4648438 -0.158203,0.42187497 -0.395508,0.75585935 -0.714844,0.99609372 -0.313476,0.24316407 -0.703125,0.36328125 -1.171875,0.36328125 -0.626953,0 -1.11914,-0.22558593 -1.476562,-0.6796875 L 14.08887,-8.1125e-5 h -0.75 V -7.5703936 l 0.855469,-0.1054688 z m 1.230469,4.12500002 c 0.445312,0 0.788086,-0.17578125 1.03125,-0.52734372 0.240234,-0.3515625 0.363281,-0.8847657 0.363281,-1.6054688 0,-1.40625 -0.421875,-2.109375 -1.265625,-2.109375 -0.304688,0 -0.571289,0.09082 -0.796875,0.2695313 -0.228516,0.1816406 -0.416016,0.3808593 -0.5625,0.5976562 v 2.671875 c 0.140625,0.2197266 0.316406,0.39257815 0.527344,0.51562502 0.216796,0.12597657 0.451171,0.1875 0.703125,0.1875 z m 6.799804,-7.34765622 c 0.1875,0 0.339844,0.058594 0.457032,0.1757812 0.117187,0.1113281 0.175781,0.2519531 0.175781,0.421875 0,0.1728516 -0.05859,0.3164063 -0.175781,0.4335938 -0.117188,0.1171875 -0.269532,0.1757812 -0.457032,0.1757812 -0.1875,0 -0.339843,-0.058594 -0.457031,-0.1757812 -0.111328,-0.1171875 -0.164062,-0.2607422 -0.164062,-0.4335938 0,-0.1699219 0.05273,-0.3105469 0.164062,-0.421875 0.117188,-0.1171875 0.269531,-0.1757812 0.457031,-0.1757812 z m 0.796875,2.5195312 v 4.53515627 c 0,0.60351563 -0.137695,1.10449219 -0.410156,1.51171875 -0.266602,0.40429688 -0.65625,0.72949218 -1.171875,0.97265628 -0.509766,0.2490234 -1.125,0.4335937 -1.851562,0.5507812 l -0.140625,-0.65625 c 0.530273,-0.09375 0.999023,-0.2314453 1.40625,-0.4101562 0.413085,-0.17285159 0.732421,-0.41601565 0.960937,-0.72656253 0.234375,-0.3046875 0.351563,-0.69726562 0.351563,-1.18359375 V -4.7110186 h -2.25 v -0.6914063 z m 3.304688,3.0117188 c 0.02344,0.6269531 0.1875,1.0839843 0.492187,1.3710937 0.304688,0.28125002 0.66211,0.42187502 1.078125,0.42187502 0.28125,0 0.530274,-0.0380859 0.75,-0.1171875 0.225586,-0.0849609 0.457032,-0.2109375 0.691407,-0.37500002 l 0.410156,0.57421877 c -0.251953,0.19628907 -0.539063,0.3515625 -0.867188,0.46875 -0.322265,0.10839844 -0.65039,0.1640625 -0.984375,0.1640625 -0.533203,0 -0.981445,-0.117187495 -1.347656,-0.3515625 -0.369141,-0.234375 -0.650391,-0.5625 -0.84375,-0.98437497 -0.1875,-0.421875 -0.28125,-0.9140625 -0.28125,-1.4765625 0,-0.5449219 0.09375,-1.03125 0.28125,-1.453125 0.193359,-0.421875 0.46875,-0.7529297 0.820313,-0.9960938 0.357421,-0.2402344 0.776367,-0.3632812 1.253906,-0.3632812 0.679687,0 1.21289,0.234375 1.605469,0.703125 0.389648,0.46875 0.585937,1.1132812 0.585937,1.9335937 0,0.09375 -0.0059,0.1845703 -0.01172,0.2695313 0,0.079102 -0.0059,0.149414 -0.01172,0.2109375 z m 1.464844,-2.4140625 c -0.398438,0 -0.735352,0.1464843 -1.007813,0.4335937 -0.275391,0.28125 -0.427734,0.7207031 -0.457031,1.3125 h 2.8125 c -0.0088,-0.5771484 -0.134766,-1.0107422 -0.375,-1.3007812 -0.243164,-0.2958985 -0.56836,-0.4453125 -0.972656,-0.4453125 z m 6.448242,4.18359372 c 0.272461,0 0.527343,-0.0410156 0.761718,-0.12890625 0.234375,-0.09375 0.448243,-0.2109375 0.644532,-0.35156247 l 0.421875,0.57421872 c -0.234375,0.19628907 -0.521485,0.3515625 -0.855469,0.46875 -0.328125,0.1171875 -0.65332,0.17578125 -0.972656,0.17578125 -0.539063,0 -0.996094,-0.11425781 -1.371094,-0.33984375 -0.375,-0.234375 -0.665039,-0.55664062 -0.867188,-0.97265622 -0.196289,-0.421875 -0.292968,-0.9140625 -0.292968,-1.4765625 0,-0.5390625 0.09668,-1.022461 0.292968,-1.453125 0.202149,-0.4277344 0.492188,-0.7646485 0.867188,-1.0078125 0.380859,-0.2490235 0.84375,-0.375 1.382812,-0.375 0.685547,0 1.289063,0.2080078 1.804688,0.6210937 l -0.421875,0.5742188 c -0.46875,-0.319336 -0.93457,-0.4804688 -1.394531,-0.4804688 -0.462891,0 -0.84375,0.1757813 -1.148438,0.5273438 -0.298828,0.3515625 -0.445312,0.8847656 -0.445312,1.59375 0,0.7207031 0.146484,1.2421875 0.445312,1.5703125 0.304688,0.3222656 0.685547,0.48046872 1.148438,0.48046872 z m 8.003906,0.3515625 c -0.1875,0.12597657 -0.416016,0.21972657 -0.679688,0.28125 -0.257812,0.0703125 -0.515625,0.10546875 -0.773437,0.10546875 -0.580078,0 -1.02832,-0.15234375 -1.347656,-0.45703125 -0.313477,-0.3046875 -0.46875,-0.69433592 -0.46875,-1.17187502 v -3.2226562 h -1.230469 v -0.6679688 h 1.230469 v -1.21875 l 0.867187,-0.1054687 v 1.3242187 h 1.863281 l -0.105468,0.6679688 h -1.757813 v 3.2109375 c 0,0.3046875 0.07617,0.53613279 0.234375,0.69140622 0.164063,0.15820313 0.427735,0.234375 0.796875,0.234375 0.202149,0 0.386719,-0.0234375 0.550781,-0.0703125 0.169922,-0.046875 0.331055,-0.10839843 0.480469,-0.1875 z m 0,0"
       style="fill:#000000;fill-opacity:1;fill-rule:nonzero;stroke:none"
       aria-label="subject"
       transform="matrix(1.3333333,0,0,1.3333333,198.41406,31.039171)" />
    <path
       id="path7"
       d="M 276.406,9.102 H 327.25 V 30.211 H 276.406 Z"
       style="fill:#f9f9f9;fill-opacity:1;fill-rule:nonzero;stroke:#999999;stroke-width:1.41732;stroke-linecap:round;stroke-linejoin:round;stroke-miterlimit:4;stroke-dasharray:none;stroke-opacity:1"
       transform="scale(1.3333333)" />
    <path
       id="path8"
       d="M 5.3085756,-0.70320613 V -8.1125e-5 H 1.2304506 V -0.70320613 h 1.734375 V -6.1289874 l -1.6171875,0.984375 -0.37499997,-0.609375 2.09765627,-1.3007812 h 0.7617187 v 6.35156247 z M 8.9208803,-7.1719561 c 0.4453125,0 0.8232422,0.087891 1.1367187,0.2578125 0.319336,0.1728515 0.5625,0.4072265 0.726563,0.703125 0.169921,0.2988281 0.257812,0.6328125 0.257812,1.0078125 0,0.328125 -0.05859,0.6503906 -0.175781,0.9609375 -0.111328,0.3046875 -0.290039,0.6298828 -0.539063,0.9726562 -0.243164,0.3369141 -0.5683591,0.7119141 -0.9726559,1.125 -0.3984375,0.4160156 -0.890625,0.8847656 -1.4765625,1.40625002 H 11.206037 L 11.100568,-8.1125e-5 H 6.9052553 V -0.70320613 C 7.5673647,-1.341878 8.1122866,-1.8809405 8.5341616,-2.3203936 c 0.421875,-0.4453125 0.75,-0.8232422 0.984375,-1.1367188 0.234375,-0.3193359 0.3925781,-0.6123047 0.4804687,-0.8789062 0.09375,-0.272461 0.1406247,-0.5507813 0.1406247,-0.8320313 0,-0.3984375 -0.114257,-0.7089844 -0.3398434,-0.9375 -0.2197266,-0.234375 -0.5273438,-0.3515625 -0.9257813,-0.3515625 -0.3457031,0 -0.6298828,0.064453 -0.8554687,0.1875 -0.2197266,0.1171875 -0.4423828,0.3105469 -0.6679688,0.5742188 l -0.5859375,-0.46875 c 0.272461,-0.3427735 0.5800781,-0.5976563 0.9257813,-0.7617188 0.3427734,-0.1640625 0.7529297,-0.2460937 1.2304687,-0.2460937 z m 6.1406247,0 c 0.445313,0 0.826172,0.082031 1.148438,0.2460937 0.328125,0.1582031 0.577148,0.3691406 0.75,0.6328125 0.178711,0.2666016 0.269531,0.5625 0.269531,0.890625 0,0.28125 -0.06445,0.5390625 -0.1875,0.7734375 -0.125976,0.2285156 -0.292969,0.4189453 -0.503906,0.5742188 -0.210938,0.149414 -0.442383,0.2460937 -0.691406,0.2929687 0.28125,0.023437 0.541992,0.1025391 0.785156,0.234375 0.240234,0.1347656 0.436523,0.3251953 0.585937,0.5742188 0.155274,0.2519531 0.234375,0.5566406 0.234375,0.9140625 0,0.4072265 -0.102539,0.7734375 -0.304687,1.10156247 -0.205078,0.328125 -0.489258,0.5859375 -0.855469,0.7734375 -0.369141,0.1875 -0.796875,0.28125 -1.289062,0.28125 -0.398438,0 -0.793946,-0.07617187 -1.183594,-0.22265625 -0.383789,-0.14648437 -0.711914,-0.38671875 -0.984375,-0.71484375 l 0.574219,-0.48046877 c 0.202148,0.2431641 0.445312,0.42187502 0.726562,0.53906252 0.28125,0.11132813 0.5625,0.1640625 0.84375,0.1640625 0.492188,0 0.873047,-0.12890625 1.148438,-0.38671875 0.28125,-0.25781247 0.421875,-0.60937497 0.421875,-1.05468747 0,-0.4980469 -0.140625,-0.8466797 -0.421875,-1.0429688 -0.275391,-0.1933594 -0.618164,-0.2929687 -1.03125,-0.2929687 h -0.597657 l 0.105469,-0.6796875 h 0.410156 c 0.234375,0 0.451172,-0.041016 0.65625,-0.1289063 0.202149,-0.09375 0.366211,-0.2285156 0.492188,-0.4101562 0.131836,-0.178711 0.199219,-0.4101563 0.199219,-0.6914063 0,-0.3896484 -0.128907,-0.6855469 -0.386719,-0.890625 -0.257813,-0.2021484 -0.574219,-0.3046875 -0.949219,-0.3046875 -0.304687,0 -0.574219,0.055664 -0.808594,0.1640625 -0.228515,0.1025391 -0.454101,0.2636719 -0.679687,0.4804688 l -0.480469,-0.5273438 c 0.295899,-0.28125 0.612305,-0.4833984 0.949219,-0.609375 0.342773,-0.1318359 0.694336,-0.1992187 1.054687,-0.1992187 z m 7.913086,2.765625 v 2.0039062 h 0.902344 v 0.6796875 H 22.974591 V -8.1125e-5 H 22.14256 L 22.130841,-1.7227374 h -2.929687 v -0.6210937 l 2.074219,-4.828125 0.714843,0.3046875 -1.875,4.4648437 h 2.027344 l 0.105469,-2.0039062 z m 6.632813,-2.6484375 -0.128906,0.6796875 h -2.789063 v 2.2265625 c 0.216797,-0.1083985 0.421875,-0.1875 0.609375,-0.234375 0.193359,-0.046875 0.398438,-0.070312 0.609375,-0.070312 0.577148,0 1.042969,0.196289 1.394531,0.5859375 0.357422,0.383789 0.539063,0.9257812 0.539063,1.6289062 0,0.4775391 -0.102539,0.890625 -0.304688,1.24218752 -0.196289,0.3515625 -0.474609,0.62695313 -0.832031,0.8203125 -0.351562,0.19335938 -0.770508,0.29296875 -1.253906,0.29296875 -0.421875,0 -0.802735,-0.07617187 -1.136719,-0.22265625 -0.336914,-0.14648437 -0.641602,-0.35742187 -0.914062,-0.6328125 l 0.539062,-0.50390622 c 0.421875,0.43066404 0.928711,0.64453122 1.523438,0.64453122 0.45996,0 0.820312,-0.140625 1.078125,-0.42187502 0.263671,-0.28125 0.398437,-0.6943359 0.398437,-1.2421875 0,-0.375 -0.05859,-0.6708984 -0.175781,-0.890625 -0.111328,-0.2167969 -0.263672,-0.375 -0.457031,-0.46875 -0.19629,-0.099609 -0.410157,-0.1523437 -0.644532,-0.1523437 -0.205078,0 -0.386718,0.023437 -0.550781,0.070312 -0.164062,0.041016 -0.348633,0.099609 -0.550781,0.1757812 h -0.691406 v -3.5273437 z m 4.608398,-0.1171875 c 0.263672,0 0.509766,0.035156 0.738281,0.1054687 0.234375,0.070312 0.451172,0.1728516 0.65625,0.3046875 l -0.339843,0.5859375 c -0.328125,-0.1933594 -0.688477,-0.2929687 -1.078125,-0.2929687 -0.539063,0 -0.960938,0.2578125 -1.265625,0.7734375 -0.298828,0.5097656 -0.457032,1.1923828 -0.480469,2.0507812 0.225586,-0.3339844 0.480469,-0.5771484 0.761719,-0.7265625 0.28125,-0.1464844 0.591797,-0.2226562 0.9375,-0.2226562 0.366211,0 0.703125,0.082031 1.007812,0.2460937 0.304688,0.1582031 0.544922,0.3984375 0.726563,0.7265625 0.178711,0.328125 0.269531,0.7441406 0.269531,1.2421875 0,0.5244141 -0.102539,0.9726563 -0.304688,1.3476563 -0.196289,0.3691406 -0.46289,0.65332029 -0.796875,0.85546872 -0.336914,0.19335938 -0.711914,0.29296875 -1.125,0.29296875 -0.571289,0 -1.02832,-0.140625 -1.371093,-0.421875 -0.345703,-0.28710937 -0.591797,-0.69140625 -0.738282,-1.20703127 -0.149414,-0.515625 -0.222656,-1.125 -0.222656,-1.828125 0,-0.7792969 0.09961,-1.4560547 0.304688,-2.0273437 0.202148,-0.5683594 0.498047,-1.0107422 0.890625,-1.3242188 0.398437,-0.3193359 0.873047,-0.4804687 1.429687,-0.4804687 z m -0.199219,3.28125 c -0.336914,0 -0.638671,0.09375 -0.902343,0.28125 -0.266602,0.1816406 -0.486328,0.4189453 -0.65625,0.7148437 0.01465,0.796875 0.134765,1.3828125 0.363281,1.7578125 0.234375,0.37500002 0.600586,0.56250002 1.101562,0.56250002 0.445313,0 0.779297,-0.15527343 1.007813,-0.46875002 0.225586,-0.3193359 0.339844,-0.7558594 0.339844,-1.3125 0,-0.5771484 -0.117188,-0.9755859 -0.351563,-1.1953125 -0.228515,-0.2255859 -0.527344,-0.3398437 -0.902344,-0.3398437 z m 0,0"
       style="fill:#000000;fill-opacity:1;fill-rule:nonzero;stroke:none"
       aria-label="123456"
       transform="matrix(1.3333333,0,0,1.3333333,378.41409,31.039171)" />
    <path
       id="path9"
       d="m 351.652,9.102 h 68.528 c 3.461,0 6.246,2.785 6.246,6.246 v 8.617 c 0,3.461 -2.785,6.246 -6.246,6.246 h -68.528 c -3.461,0 -6.246,-2.785 -6.246,-6.246 v -8.617 c 0,-3.461 2.785,-6.246 6.246,-6.246 z"
       style="fill:#f2f2f2;fill-opacity:1;fill-rule:nonzero;stroke:#4d4d4d;stroke-width:1.41732;stroke-linecap:round;stroke-linejoin:round;stroke-miterlimit:4;stroke-dasharray:none;stroke-opacity:1"
       transform="scale(1.3333333)" />
    <path
       id="path10"
       d="M 1.5585956,-8.1125e-5 H 0.57422063 L 2.5664081,-2.8477374 0.82031438,-5.4024249 H 1.8398456 l 1.2421875,2.015625 1.265625,-2.015625 h 0.984375 L 3.5976581,-2.8828936 5.5781269,-8.1125e-5 H 4.5234394 L 3.0468769,-2.3203936 Z M 9.0263691,-0.59773738 c 0.4130859,0 0.7382812,-0.0732422 0.9726562,-0.22265625 0.2402347,-0.15527343 0.3632817,-0.36621097 0.3632817,-0.63281247 0,-0.1552735 -0.03223,-0.2929688 -0.09375,-0.4101563 -0.05566,-0.1230469 -0.175782,-0.234375 -0.3632817,-0.328125 -0.1816406,-0.099609 -0.4628906,-0.1992187 -0.84375,-0.2929687 -0.375,-0.09375 -0.703125,-0.1992188 -0.984375,-0.3164063 C 7.8017597,-2.9239093 7.5908222,-3.0850421 7.4443378,-3.2813311 7.2949238,-3.4746905 7.2216816,-3.7295733 7.2216816,-4.0430499 c 0,-0.4511719 0.1875,-0.8085937 0.5625,-1.0664062 0.3808593,-0.2636719 0.8789062,-0.3984375 1.4882812,-0.3984375 0.4277344,0 0.8027342,0.058594 1.1250002,0.1757812 0.328125,0.1113281 0.603515,0.2460938 0.832031,0.4101563 l -0.386719,0.5859375 c -0.205078,-0.140625 -0.430664,-0.2519532 -0.679687,-0.3398438 -0.2431642,-0.09375 -0.5390627,-0.140625 -0.8906252,-0.140625 -0.421875,0 -0.7236328,0.067383 -0.9023437,0.1992188 -0.1728516,0.1347656 -0.2578125,0.3046875 -0.2578125,0.515625 0,0.1582031 0.041016,0.290039 0.1289062,0.3984375 0.084961,0.102539 0.2285156,0.196289 0.4335938,0.28125 0.2109375,0.079102 0.4980468,0.1699218 0.8671875,0.2695312 0.3515625,0.09375 0.6591799,0.2080078 0.9257809,0.3398438 0.263672,0.1259765 0.46875,0.2929687 0.609375,0.5039062 0.146485,0.2109375 0.222657,0.4863281 0.222657,0.8203125 0,0.3837891 -0.111329,0.69726565 -0.328125,0.93750002 -0.219727,0.234375 -0.503907,0.40722657 -0.855469,0.515625 C 9.7705097,0.064372 9.4072284,0.11710637 9.0263691,0.11710637 c -0.4921875,0 -0.9111328,-0.0703125 -1.2539063,-0.2109375 -0.3457031,-0.140625 -0.6328125,-0.31054687 -0.8671875,-0.515625 L 7.3974628,-1.1836749 c 0.2109375,0.1816406 0.4511719,0.32519534 0.7265625,0.43359377 0.28125,0.10253907 0.5800781,0.15234375 0.9023438,0.15234375 z m 7.5468749,-7.07812502 0.855469,0.1054688 V -8.1125e-5 h -0.75 l -0.08203,-0.714843755 c -0.205079,0.29003907 -0.439454,0.50097657 -0.703125,0.6328125 -0.257813,0.13183594 -0.536133,0.19921875 -0.832032,0.19921875 -0.46875,0 -0.855468,-0.117187495 -1.160156,-0.3515625 -0.304687,-0.234375 -0.533203,-0.5625 -0.679687,-0.98437497 -0.149414,-0.421875 -0.222657,-0.9140625 -0.222657,-1.4765625 0,-0.5390625 0.08203,-1.0195313 0.246094,-1.4414063 0.169922,-0.4277344 0.413086,-0.7646484 0.726563,-1.0078125 0.319336,-0.2402344 0.703125,-0.3632812 1.148437,-0.3632812 0.600586,0 1.083984,0.2109375 1.453125,0.6328125 z m -1.230469,2.859375 c -0.445312,0 -0.791015,0.1757813 -1.03125,0.5273438 -0.243164,0.3515625 -0.363281,0.8847656 -0.363281,1.59375 0,1.415039 0.427734,2.12109372 1.289063,2.12109372 0.304687,0 0.565429,-0.0849609 0.785156,-0.2578125 0.216797,-0.17871092 0.401367,-0.37792972 0.550781,-0.59765622 v -2.6953125 c -0.149414,-0.2167969 -0.328125,-0.3867188 -0.539062,-0.5039063 -0.210938,-0.1230469 -0.442383,-0.1875 -0.691407,-0.1875 z m 5.358399,0.3984375 c 0,-0.2255859 0.07617,-0.4160156 0.234375,-0.5742187 0.164062,-0.1640625 0.363281,-0.2460938 0.597656,-0.2460938 0.234375,0 0.427734,0.082031 0.585938,0.2460938 0.164062,0.1582031 0.246093,0.3486328 0.246093,0.5742187 0,0.234375 -0.08203,0.4335938 -0.246093,0.5976563 -0.158204,0.1640625 -0.351563,0.2460937 -0.585938,0.2460937 -0.234375,0 -0.433594,-0.082031 -0.597656,-0.2460937 -0.158203,-0.1640625 -0.234375,-0.3632813 -0.234375,-0.5976563 z m 0,3.70312502 c 0,-0.22558593 0.07617,-0.42187502 0.234375,-0.58593752 0.164062,-0.1640625 0.363281,-0.2460937 0.597656,-0.2460937 0.234375,0 0.427734,0.082031 0.585938,0.2460937 0.164062,0.1640625 0.246093,0.36035159 0.246093,0.58593752 0,0.234375 -0.08203,0.43359375 -0.246093,0.59765625 -0.158204,0.15527344 -0.351563,0.234375 -0.585938,0.234375 -0.234375,0 -0.433594,-0.07910156 -0.597656,-0.234375 -0.158203,-0.1640625 -0.234375,-0.36328125 -0.234375,-0.59765625 z m 6.984375,-7.20703122 c 0.193359,0 0.345703,0.058594 0.457031,0.1757812 0.117188,0.1113281 0.175781,0.2519531 0.175781,0.421875 0,0.1728516 -0.05859,0.3164063 -0.175781,0.4335938 -0.111328,0.1171875 -0.263672,0.1757812 -0.457031,0.1757812 -0.181641,0 -0.328125,-0.058594 -0.445313,-0.1757812 -0.111328,-0.1171875 -0.164062,-0.2607422 -0.164062,-0.4335938 0,-0.1699219 0.05273,-0.3105469 0.164062,-0.421875 0.117188,-0.1171875 0.263672,-0.1757812 0.445313,-0.1757812 z m 0.691406,2.5195312 v 4.72265627 h 1.523438 V -8.1125e-5 H 25.845705 V -0.67976863 h 1.675781 V -4.7110186 H 25.904299 V -5.4024249 Z M 31.80176,-8.1125e-5 V -5.4024249 h 0.726562 l 0.07031,0.75 c 0.216797,-0.2724609 0.492187,-0.4833984 0.820312,-0.6328125 0.328125,-0.1464844 0.647461,-0.2226562 0.960938,-0.2226562 0.530273,0 0.916992,0.140625 1.160156,0.421875 0.240234,0.2753906 0.363281,0.6621093 0.363281,1.1601562 V -8.1125e-5 H 35.036135 V -3.2813311 c 0,-0.375 -0.02051,-0.6708985 -0.05859,-0.890625 -0.04102,-0.225586 -0.125977,-0.3925782 -0.257813,-0.5039063 -0.134765,-0.1083984 -0.333984,-0.1640625 -0.597656,-0.1640625 -0.210937,0 -0.410156,0.046875 -0.597656,0.140625 -0.1875,0.09375 -0.357422,0.2109375 -0.503906,0.3515625 -0.140625,0.140625 -0.263672,0.2783203 -0.363282,0.4101563 V -8.1125e-5 Z M 42.243166,-0.26961238 c -0.1875,0.12597657 -0.416016,0.21972657 -0.679688,0.28125 -0.257812,0.0703125 -0.515625,0.10546875 -0.773437,0.10546875 -0.580078,0 -1.02832,-0.15234375 -1.347656,-0.45703125 -0.313477,-0.3046875 -0.46875,-0.69433592 -0.46875,-1.17187502 v -3.2226562 h -1.230469 v -0.6679688 h 1.230469 v -1.21875 l 0.867187,-0.1054687 v 1.3242187 h 1.863281 l -0.105468,0.6679688 h -1.757813 v 3.2109375 c 0,0.3046875 0.07617,0.53613279 0.234375,0.69140622 0.164063,0.15820313 0.427735,0.234375 0.796875,0.234375 0.202149,0 0.386719,-0.0234375 0.550781,-0.0703125 0.169922,-0.046875 0.331055,-0.10839843 0.480469,-0.1875 z m 2.545898,-2.12109372 c 0.02344,0.6269531 0.1875,1.0839843 0.492188,1.3710937 0.304687,0.28125002 0.662109,0.42187502 1.078125,0.42187502 0.28125,0 0.530273,-0.0380859 0.75,-0.1171875 0.225586,-0.0849609 0.457031,-0.2109375 0.691406,-0.37500002 l 0.410156,0.57421877 c -0.251953,0.19628907 -0.539062,0.3515625 -0.867187,0.46875 -0.322266,0.10839844 -0.650391,0.1640625 -0.984375,0.1640625 -0.533203,0 -0.981445,-0.117187495 -1.347656,-0.3515625 -0.369141,-0.234375 -0.650391,-0.5625 -0.84375,-0.98437497 -0.1875,-0.421875 -0.28125,-0.9140625 -0.28125,-1.4765625 0,-0.5449219 0.09375,-1.03125 0.28125,-1.453125 0.193359,-0.421875 0.46875,-0.7529297 0.820312,-0.9960938 0.357422,-0.2402344 0.776367,-0.3632812 1.253906,-0.3632812 0.679688,0 1.212891,0.234375 1.605469,0.703125 0.389649,0.46875 0.585938,1.1132812 0.585938,1.9335937 0,0.09375 -0.0059,0.1845703 -0.01172,0.2695313 0,0.079102 -0.0059,0.149414 -0.01172,0.2109375 z m 1.464844,-2.4140625 c -0.398437,0 -0.735351,0.1464843 -1.007812,0.4335937 -0.275391,0.28125 -0.427735,0.7207031 -0.457032,1.3125 h 2.8125 c -0.0088,-0.5771484 -0.134765,-1.0107422 -0.375,-1.3007812 -0.243164,-0.2958985 -0.568359,-0.4453125 -0.972656,-0.4453125 z m 8.390625,-1.171875 0.269531,0.8085937 c -0.234375,0.079102 -0.480468,0.1259766 -0.738281,0.140625 -0.257812,0.017578 -0.539062,0.023437 -0.84375,0.023437 0.624024,0.2900391 0.9375,0.7441406 0.9375,1.359375 0,0.5332031 -0.18164,0.9726563 -0.539062,1.3242188 -0.351563,0.3457031 -0.84961,0.515625 -1.488282,0.515625 -0.18164,0 -0.333984,-0.00586 -0.457031,-0.023437 -0.117187,-0.023437 -0.231445,-0.049805 -0.339844,-0.082031 -0.08789,0.055664 -0.158203,0.1289063 -0.210937,0.2226563 -0.05566,0.09375 -0.08203,0.1933593 -0.08203,0.2929687 0,0.1347656 0.0498,0.2431641 0.152343,0.328125 0.108399,0.0878906 0.298829,0.12890627 0.574219,0.12890627 h 0.972656 c 0.366211,0 0.691407,0.0673828 0.972657,0.19921875 0.287109,0.12597657 0.515625,0.30175782 0.679687,0.52734375 0.169922,0.21679688 0.257813,0.46289063 0.257813,0.73828125 0,0.53027348 -0.228516,0.93749998 -0.679688,1.21874998 -0.445312,0.28125 -1.078125,0.421875 -1.898437,0.421875 -0.580078,0 -1.03125,-0.058594 -1.359375,-0.1757812 C 50.496096,1.8749189 50.255861,1.6932782 50.109377,1.4530439 49.968752,1.2186689 49.898439,0.91691106 49.898439,0.55070012 h 0.785157 c 0,0.20214844 0.03809,0.36914063 0.117187,0.50390628 0.08496,0.140625 0.234375,0.2460937 0.445313,0.3164062 0.216797,0.070312 0.530273,0.1054688 0.9375,0.1054688 0.591797,0 1.02539,-0.079102 1.300781,-0.234375 0.272461,-0.1494141 0.410156,-0.36914065 0.410156,-0.65625003 0,-0.2578125 -0.117187,-0.45410156 -0.351562,-0.585937495 C 53.308596,-0.123128 53.018557,-0.18758113 52.675783,-0.18758113 h -0.972656 c -0.46875,0 -0.814453,-0.0996094 -1.03125,-0.3046875 -0.219727,-0.2109375 -0.328125,-0.44824218 -0.328125,-0.71484377 0,-0.3662109 0.199219,-0.6796875 0.597656,-0.9375 -0.603515,-0.3193359 -0.902344,-0.8203125 -0.902344,-1.5 0,-0.3574219 0.08789,-0.6796875 0.269532,-0.9609375 0.178711,-0.2871094 0.427734,-0.5097656 0.75,-0.6679687 0.328125,-0.1640625 0.703125,-0.2460938 1.125,-0.2460938 0.459961,0 0.832031,-0.014648 1.113281,-0.046875 0.28125,-0.038086 0.521484,-0.09375 0.726562,-0.1640625 0.202149,-0.070312 0.410157,-0.1523437 0.621094,-0.2460937 z m -2.460937,1.0898437 c -0.430664,0 -0.75,0.1171875 -0.960938,0.3515625 -0.205078,0.234375 -0.304687,0.5332031 -0.304687,0.890625 0,0.3691406 0.105468,0.6738281 0.316406,0.9140625 0.210937,0.234375 0.533203,0.3515625 0.972656,0.3515625 0.38086,0 0.670899,-0.1083984 0.867188,-0.328125 0.202148,-0.2255859 0.304687,-0.5390625 0.304687,-0.9375 0,-0.8261719 -0.398437,-1.2421875 -1.195312,-1.2421875 z m 4.913086,2.4960938 c 0.02344,0.6269531 0.1875,1.0839843 0.492187,1.3710937 0.304688,0.28125002 0.662109,0.42187502 1.078125,0.42187502 0.28125,0 0.530274,-0.0380859 0.75,-0.1171875 0.225586,-0.0849609 0.457031,-0.2109375 0.691406,-0.37500002 l 0.410157,0.57421877 c -0.251954,0.19628907 -0.539063,0.3515625 -0.867188,0.46875 -0.322266,0.10839844 -0.650391,0.1640625 -0.984375,0.1640625 -0.533203,0 -0.981445,-0.117187495 -1.347656,-0.3515625 -0.369141,-0.234375 -0.650391,-0.5625 -0.84375,-0.98437497 -0.1875,-0.421875 -0.28125,-0.9140625 -0.28125,-1.4765625 0,-0.5449219 0.09375,-1.03125 0.28125,-1.453125 0.193359,-0.421875 0.46875,-0.7529297 0.820312,-0.9960938 0.357422,-0.2402344 0.776368,-0.3632812 1.253907,-0.3632812 0.679687,0 1.21289,0.234375 1.605468,0.703125 0.389649,0.46875 0.585938,1.1132812 0.585938,1.9335937 0,0.09375 -0.0059,0.1845703 -0.01172,0.2695313 0,0.079102 -0.0059,0.149414 -0.01172,0.2109375 z m 1.464843,-2.4140625 c -0.398437,0 -0.735351,0.1464843 -1.007812,0.4335937 -0.275391,0.28125 -0.427735,0.7207031 -0.457031,1.3125 h 2.8125 c -0.0088,-0.5771484 -0.134766,-1.0107422 -0.375,-1.3007812 -0.243164,-0.2958985 -0.56836,-0.4453125 -0.972657,-0.4453125 z M 62.616213,-8.1125e-5 V -0.65633113 h 0.84375 V -4.7344561 h -0.84375 v -0.6679688 h 1.5 l 0.164062,1.2773438 c 0.202149,-0.4453125 0.451172,-0.788086 0.75,-1.03125 0.295899,-0.2402344 0.691407,-0.3632813 1.183594,-0.3632813 0.146484,0 0.28125,0.011719 0.398438,0.035156 0.117187,0.023437 0.237304,0.052734 0.363281,0.082031 l -0.117188,1.828125 h -0.714843 v -1.1484375 c -0.0088,0 -0.02344,0 -0.04687,0 -0.829102,0 -1.417969,0.5917969 -1.769532,1.7695313 v 2.29687497 h 1.089844 V -8.1125e-5 Z M -19.145506,-17.299886 l 1.945313,3.199219 h -0.9375 l -1.394532,-2.425781 -1.394531,2.425781 h -0.925781 l 1.945312,-3.199219 z m 6.155274,0 1.945312,3.199219 h -0.9375 l -1.394531,-2.425781 -1.394531,2.425781 h -0.925782 l 1.945313,-3.199219 z m 0,0"
       style="fill:#000000;fill-opacity:1;fill-rule:nonzero;stroke:none"
       aria-label="xsd:integer&#10;^^"
       transform="matrix(1.3333333,0,0,1.3333333,470.41406,31.039171)" />
    <path
       id="path11"
       d="m 126.188,54.566 h 399.597 c 1.57,0 2.836,1.266 2.836,2.836 v 32.782 c 0,1.57 -1.266,2.836 -2.836,2.836 H 126.188 c -1.571,0 -2.836,-1.266 -2.836,-2.836 V 57.402 c 0,-1.57 1.265,-2.836 2.836,-2.836 z"
       style="fill:#f9f9f9;fill-opacity:1;fill-rule:nonzero;stroke:#cccccc;stroke-width:1.13386;stroke-linecap:round;stroke-linejoin:round;stroke-miterlimit:4;stroke-dasharray:3.40158, 3.40158;stroke-dashoffset:0;stroke-opacity:1"
       transform="scale(1.3333333)" />
    <path
       id="path12"
       d="m 3.4444963,-5.5063901 c 0.4746094,0 0.8554688,0.1171875 1.1367188,0.3515625 0.2871093,0.2285156 0.4951172,0.5507812 0.6210937,0.9726562 0.131836,0.421875 0.1992188,0.9140625 0.1992188,1.4765625 0,0.5478516 -0.079102,1.0371094 -0.234375,1.4648438 -0.1494141,0.42187498 -0.3808594,0.75585935 -0.6914063,0.99609373 -0.3046875,0.24316406 -0.6914062,0.36328125 -1.1601562,0.36328125 -0.5947266,0 -1.0722657,-0.20507813 -1.4296875,-0.62109375 V 2.0639224 L 1.0304338,2.1693911 v -7.5703125 h 0.7265625 l 0.082031,0.7617188 c 0.1933593,-0.28125 0.4277343,-0.4951172 0.703125,-0.6445313 0.2724609,-0.1464843 0.5742187,-0.2226562 0.902344,-0.2226562 z m -0.2109375,0.6914062 c -0.2988281,0 -0.5595703,0.09082 -0.7851562,0.2695313 -0.2285157,0.1816406 -0.4160157,0.3808594 -0.5625,0.5976562 v 2.671875 c 0.140625,0.2109375 0.3164062,0.3808594 0.5273437,0.50390628 0.2167969,0.1171875 0.4570313,0.17578125 0.7148438,0.17578125 0.4453125,0 0.7792968,-0.16992188 1.0078125,-0.51562503 0.2255859,-0.3427734 0.3398437,-0.8730468 0.3398437,-1.59375 0,-1.40625 -0.4160156,-2.109375 -1.2421875,-2.109375 z m 3.9990235,4.81640628 v -0.65625 h 0.84375 V -4.7329526 h -0.84375 v -0.6679688 h 1.5 l 0.1640625,1.2773438 c 0.2021484,-0.4453125 0.4511718,-0.788086 0.75,-1.03125 0.2958984,-0.2402344 0.6914062,-0.3632813 1.1835942,-0.3632813 0.146484,0 0.28125,0.011719 0.398437,0.035156 0.117188,0.023437 0.237305,0.052734 0.363281,0.082031 l -0.117187,1.828125 h -0.714844 v -1.1484375 c -0.0088,0 -0.02344,0 -0.04687,0 -0.8291016,0 -1.4179687,0.5917969 -1.7695312,1.7695313 v 2.29687498 h 1.0898442 v 0.65625 z M 14.017739,-2.3892026 c 0.02344,0.6269531 0.1875,1.0839844 0.492187,1.3710937 0.304688,0.28125003 0.662109,0.42187503 1.078125,0.42187503 0.28125,0 0.530273,-0.0380859 0.75,-0.1171875 0.225586,-0.0849609 0.457031,-0.2109375 0.691406,-0.37500003 l 0.410157,0.57421878 c -0.251954,0.19628906 -0.539063,0.3515625 -0.867188,0.46875 -0.322266,0.10839843 -0.650391,0.1640625 -0.984375,0.1640625 -0.533203,0 -0.981445,-0.1171875 -1.347656,-0.3515625 -0.369141,-0.234375 -0.650391,-0.5625 -0.84375,-0.98437498 -0.1875,-0.421875 -0.28125,-0.9140625 -0.28125,-1.4765625 0,-0.5449219 0.09375,-1.03125 0.28125,-1.453125 0.193359,-0.421875 0.46875,-0.7529297 0.820312,-0.9960938 0.357422,-0.2402343 0.776367,-0.3632812 1.253907,-0.3632812 0.679687,0 1.21289,0.234375 1.605468,0.703125 0.389649,0.46875 0.585938,1.1132812 0.585938,1.9335937 0,0.09375 -0.0059,0.1845703 -0.01172,0.2695313 0,0.079102 -0.0059,0.149414 -0.01172,0.2109375 z m 1.464843,-2.4140625 c -0.398437,0 -0.735351,0.1464844 -1.007812,0.4335937 -0.275391,0.28125 -0.427735,0.7207032 -0.457031,1.3125 h 2.8125 c -0.0088,-0.5771484 -0.134766,-1.0107422 -0.375,-1.3007812 -0.243165,-0.2958985 -0.56836,-0.4453125 -0.972657,-0.4453125 z m 7.245117,-2.8710938 0.855469,0.1054688 v 7.57031248 h -0.75 l -0.08203,-0.71484375 c -0.205078,0.29003906 -0.439453,0.50097656 -0.703125,0.6328125 -0.257813,0.13183593 -0.536133,0.19921875 -0.832031,0.19921875 -0.46875,0 -0.855469,-0.1171875 -1.160157,-0.3515625 -0.304687,-0.234375 -0.533203,-0.5625 -0.679687,-0.98437498 -0.149414,-0.421875 -0.222656,-0.9140625 -0.222656,-1.4765625 0,-0.5390625 0.08203,-1.0195313 0.246093,-1.4414063 0.169922,-0.4277343 0.413086,-0.7646484 0.726563,-1.0078125 0.319336,-0.2402343 0.703125,-0.3632812 1.148437,-0.3632812 0.600586,0 1.083985,0.2109375 1.453125,0.6328125 z m -1.230468,2.859375 c -0.445313,0 -0.791016,0.1757813 -1.03125,0.5273438 -0.243164,0.3515625 -0.363282,0.8847656 -0.363282,1.59375 0,1.415039 0.427735,2.12109373 1.289063,2.12109373 0.304687,0 0.56543,-0.0849609 0.785156,-0.2578125 0.216797,-0.17871093 0.401367,-0.37792973 0.550781,-0.59765623 v -2.6953125 c -0.149414,-0.2167969 -0.328125,-0.3867188 -0.539062,-0.5039063 -0.210938,-0.1230468 -0.442383,-0.1875 -0.691406,-0.1875 z m 6.1875,-3.1054687 c 0.193359,0 0.345703,0.058594 0.457031,0.1757812 0.117187,0.1113282 0.175781,0.2519532 0.175781,0.421875 0,0.1728516 -0.05859,0.3164063 -0.175781,0.4335938 -0.111328,0.1171875 -0.263672,0.1757812 -0.457031,0.1757812 -0.181641,0 -0.328125,-0.058594 -0.445313,-0.1757812 -0.111328,-0.1171875 -0.164062,-0.2607422 -0.164062,-0.4335938 0,-0.1699218 0.05273,-0.3105468 0.164062,-0.421875 0.117188,-0.1171875 0.263672,-0.1757812 0.445313,-0.1757812 z m 0.691406,2.5195312 v 4.72265628 h 1.523437 v 0.6796875 h -4.054687 v -0.6796875 h 1.675781 V -4.7095151 h -1.617187 v -0.6914063 z m 5.862305,4.78125003 c 0.272461,0 0.527343,-0.0410156 0.761718,-0.12890625 0.234375,-0.09375 0.448243,-0.2109375 0.644532,-0.35156248 l 0.421875,0.57421873 c -0.234375,0.19628906 -0.521485,0.3515625 -0.855469,0.46875 -0.328125,0.1171875 -0.65332,0.17578125 -0.972656,0.17578125 -0.539063,0 -0.996094,-0.11425782 -1.371094,-0.33984375 -0.375,-0.234375 -0.665039,-0.55664063 -0.867188,-0.97265623 -0.196289,-0.421875 -0.292968,-0.9140625 -0.292968,-1.4765625 0,-0.5390625 0.09668,-1.022461 0.292968,-1.453125 0.202149,-0.4277344 0.492188,-0.7646485 0.867188,-1.0078125 0.380859,-0.2490235 0.84375,-0.375 1.382812,-0.375 0.685547,0 1.289063,0.2080078 1.804688,0.6210937 l -0.421875,0.5742188 c -0.46875,-0.319336 -0.93457,-0.4804688 -1.394531,-0.4804688 -0.462891,0 -0.84375,0.1757813 -1.148438,0.5273438 -0.298828,0.3515625 -0.445312,0.8847656 -0.445312,1.59375 0,0.7207031 0.146484,1.2421875 0.445312,1.5703125 0.304688,0.3222656 0.685547,0.48046873 1.148438,0.48046873 z m 7.582031,-0.56250003 c 0,0.21972659 0.03516,0.3808594 0.105469,0.48046878 0.07031,0.10253906 0.178711,0.17285156 0.328125,0.2109375 l -0.210938,0.609375 c -0.228515,-0.03222657 -0.430664,-0.10546875 -0.609375,-0.22265625 -0.172851,-0.1171875 -0.298828,-0.29589844 -0.375,-0.5390625 -0.196289,0.25195312 -0.442383,0.44238281 -0.738281,0.57421875 -0.290039,0.12304687 -0.606445,0.1875 -0.949219,0.1875 -0.539062,0 -0.966797,-0.15234375 -1.277344,-0.45703125 -0.313476,-0.3046875 -0.46875,-0.70605473 -0.46875,-1.20703123 0,-0.553711 0.213868,-0.9785156 0.644532,-1.2773438 0.436523,-0.3046875 1.066406,-0.4570312 1.886718,-0.4570312 h 0.796875 v -0.4453125 c 0,-0.3896485 -0.114257,-0.6621094 -0.339843,-0.8203125 -0.228516,-0.1640625 -0.544922,-0.2460938 -0.949219,-0.2460938 -0.181641,0 -0.392578,0.020508 -0.632813,0.058594 -0.234375,0.041016 -0.492187,0.1113281 -0.773437,0.2109375 l -0.222656,-0.6445313 c 0.328125,-0.1230468 0.635742,-0.2109375 0.925781,-0.2578125 0.295898,-0.052734 0.574219,-0.082031 0.832031,-0.082031 0.670899,0 1.174805,0.1582031 1.511719,0.46875 0.342773,0.3134765 0.515625,0.7353515 0.515625,1.265625 z m -2.238281,0.64453128 c 0.272461,0 0.527343,-0.0644531 0.761718,-0.19921875 0.240235,-0.13183594 0.445313,-0.31933593 0.609375,-0.56250003 v -1.3945312 h -0.785156 c -0.594726,0 -1.013672,0.1054687 -1.253906,0.3164062 -0.243164,0.2050782 -0.363281,0.4775391 -0.363281,0.8203125 0,0.67968753 0.342773,1.01953128 1.03125,1.01953128 z m 8.815429,0.26953125 c -0.1875,0.12597656 -0.416015,0.21972656 -0.679687,0.28125 -0.257813,0.0703125 -0.515625,0.10546875 -0.773438,0.10546875 -0.580078,0 -1.02832,-0.15234375 -1.347656,-0.45703125 -0.313476,-0.3046875 -0.46875,-0.69433593 -0.46875,-1.17187503 v -3.2226562 h -1.230469 v -0.6679688 h 1.230469 v -1.21875 l 0.867188,-0.1054687 v 1.3242187 h 1.863281 l -0.105469,0.6679688 h -1.757812 v 3.2109375 c 0,0.3046875 0.07617,0.53613279 0.234375,0.69140623 0.164062,0.15820312 0.427734,0.234375 0.796875,0.234375 0.202148,0 0.386718,-0.0234375 0.550781,-0.0703125 0.169922,-0.046875 0.331055,-0.10839844 0.480469,-0.1875 z M 50.94059,-2.3892026 c 0.02344,0.6269531 0.1875,1.0839844 0.492188,1.3710937 0.304687,0.28125003 0.662109,0.42187503 1.078125,0.42187503 0.28125,0 0.530273,-0.0380859 0.75,-0.1171875 0.225586,-0.0849609 0.457031,-0.2109375 0.691406,-0.37500003 l 0.410156,0.57421878 c -0.251953,0.19628906 -0.539062,0.3515625 -0.867187,0.46875 -0.322266,0.10839843 -0.650391,0.1640625 -0.984375,0.1640625 -0.533204,0 -0.981446,-0.1171875 -1.347657,-0.3515625 -0.36914,-0.234375 -0.65039,-0.5625 -0.84375,-0.98437498 -0.1875,-0.421875 -0.28125,-0.9140625 -0.28125,-1.4765625 0,-0.5449219 0.09375,-1.03125 0.28125,-1.453125 0.19336,-0.421875 0.46875,-0.7529297 0.820313,-0.9960938 0.357422,-0.2402343 0.776367,-0.3632812 1.253906,-0.3632812 0.679688,0 1.212891,0.234375 1.605469,0.703125 0.389648,0.46875 0.585937,1.1132812 0.585937,1.9335937 0,0.09375 -0.0059,0.1845703 -0.01172,0.2695313 0,0.079102 -0.0059,0.149414 -0.01172,0.2109375 z m 1.464844,-2.4140625 c -0.398438,0 -0.735352,0.1464844 -1.007813,0.4335937 -0.27539,0.28125 -0.427734,0.7207032 -0.457031,1.3125 h 2.8125 c -0.0088,-0.5771484 -0.134766,-1.0107422 -0.375,-1.3007812 -0.243164,-0.2958985 -0.568359,-0.4453125 -0.972656,-0.4453125 z m 0,0"
       style="fill:#000000;fill-opacity:1;fill-rule:nonzero;stroke:none"
       aria-label="predicate"
       transform="matrix(1.3333333,0,0,1.3333333,274.27843,91.443416)" />
    <path
       id="path13"
       d="M 263.02,73.715 203.41,73.598"
       style="fill:none;stroke:#000000;stroke-width:1.41732;stroke-linecap:round;stroke-linejoin:round;stroke-miterlimit:4;stroke-dasharray:none;stroke-opacity:1"
       transform="scale(1.3333333)" />
    <path
       id="path14"
       d="m -223.486,149.508 c -0.354,0.355 -9.546,-2.108 -9.676,-2.593 -0.129,-0.485 6.599,-7.213 7.083,-7.083 0.484,0.13 2.947,9.322 2.593,9.676 z"
       style="fill:#ffffff;fill-opacity:1;fill-rule:nonzero;stroke:#000000;stroke-width:1.17266;stroke-linecap:round;stroke-linejoin:round;stroke-miterlimit:4;stroke-dasharray:none;stroke-opacity:1"
       transform="matrix(-1.3333333,0.31164133,0.35726533,1.1630587,0,0)" />
    <path
       id="path15"
       d="m 147.652,63.102 h 45.313 c 3.461,0 6.246,2.785 6.246,6.246 v 8.617 c 0,3.461 -2.785,6.246 -6.246,6.246 h -45.313 c -3.461,0 -6.246,-2.785 -6.246,-6.246 v -8.617 c 0,-3.461 2.785,-6.246 6.246,-6.246 z"
       style="fill:#f2f2f2;fill-opacity:1;fill-rule:nonzero;stroke:#4d4d4d;stroke-width:1.41732;stroke-linecap:round;stroke-linejoin:round;stroke-miterlimit:4;stroke-dasharray:none;stroke-opacity:1"
       transform="scale(1.3333333)" />
    <path
       id="path16"
       d="m 2.8710966,-0.59774637 c 0.413086,0 0.7382813,-0.0732422 0.9726563,-0.22265625 0.2402344,-0.15527344 0.3632812,-0.36621098 0.3632812,-0.63281248 0,-0.1552735 -0.032227,-0.2929688 -0.09375,-0.4101563 -0.055664,-0.1230468 -0.1757812,-0.234375 -0.3632812,-0.328125 -0.1816406,-0.099609 -0.4628906,-0.1992187 -0.84375,-0.2929687 -0.375,-0.09375 -0.703125,-0.1992188 -0.984375,-0.3164063 C 1.6464873,-2.9239182 1.4355498,-3.0850511 1.2890654,-3.2813401 1.1396513,-3.4746995 1.0664091,-3.7295823 1.0664091,-4.0430589 c 0,-0.4511718 0.1875,-0.8085937 0.5625,-1.0664062 0.3808594,-0.2636719 0.8789063,-0.3984375 1.4882813,-0.3984375 0.4277344,0 0.8027344,0.058594 1.125,0.1757812 0.328125,0.1113282 0.6035156,0.2460938 0.8320312,0.4101563 l -0.3867187,0.5859375 c -0.2050781,-0.140625 -0.4306641,-0.2519531 -0.6796875,-0.3398438 -0.2431641,-0.09375 -0.5390625,-0.140625 -0.890625,-0.140625 -0.421875,0 -0.7236328,0.067383 -0.9023438,0.1992188 -0.1728515,0.1347656 -0.2578125,0.3046875 -0.2578125,0.515625 0,0.1582031 0.041016,0.290039 0.1289063,0.3984375 0.084961,0.102539 0.2285156,0.196289 0.4335937,0.28125 0.2109375,0.079102 0.4980469,0.1699219 0.8671875,0.2695312 0.3515625,0.09375 0.6591797,0.2080078 0.9257813,0.3398438 0.2636719,0.1259765 0.46875,0.2929687 0.609375,0.5039062 0.1464844,0.2109375 0.2226562,0.4863282 0.2226562,0.8203125 0,0.3837891 -0.1113281,0.69726565 -0.328125,0.93750003 -0.2197265,0.234375 -0.5039062,0.40722656 -0.8554687,0.515625 C 3.6152373,0.064363 3.251956,0.11709738 2.8710966,0.11709738 c -0.4921875,0 -0.9111328,-0.0703125 -1.2539062,-0.2109375 -0.3457031,-0.140625 -0.63281252,-0.31054688 -0.86718752,-0.515625 L 1.2421904,-1.1836839 c 0.2109375,0.1816407 0.4511719,0.32519534 0.7265625,0.43359378 0.28125,0.10253906 0.5800781,0.15234375 0.9023437,0.15234375 z M 8.0419951,-5.4024339 v 3.8320313 c 0,0.3515625 0.073242,0.60644529 0.2226562,0.76171873 0.1464844,0.15820312 0.3779297,0.234375 0.6914063,0.234375 0.2958984,0 0.5771484,-0.0820313 0.84375,-0.24609375 C 10.063479,-0.9903245 10.271487,-1.1954026 10.420901,-1.4297776 V -5.4024339 H 11.27637 V -9.0125e-5 h -0.738281 l -0.07031,-0.726562495 c -0.210937,0.27539062 -0.4746091,0.48632812 -0.7851559,0.6328125 -0.3134766,0.140625 -0.6269532,0.2109375 -0.9375,0.2109375 -0.5244141,0 -0.9140625,-0.13476563 -1.171875,-0.41015625 C 7.3154326,-0.57430887 7.1865263,-0.966887 7.1865263,-1.4766526 v -3.9257813 z m 6.1523439,0.703125 c 0.193359,-0.2578125 0.421875,-0.4570312 0.679687,-0.5976562 0.263672,-0.140625 0.553711,-0.2109375 0.867188,-0.2109375 0.474609,0 0.861328,0.1171875 1.160156,0.3515625 0.295899,0.2285156 0.509766,0.5507812 0.644531,0.9726562 0.140625,0.421875 0.210938,0.9140625 0.210938,1.4765625 0,0.5478516 -0.08203,1.0371094 -0.246094,1.4648438 -0.158203,0.42187498 -0.395508,0.75585935 -0.714844,0.99609373 -0.313476,0.24316406 -0.703125,0.36328125 -1.171875,0.36328125 -0.626953,0 -1.11914,-0.22558594 -1.476562,-0.6796875 L 14.08887,-9.0125e-5 h -0.75 V -7.5704026 l 0.855469,-0.1054688 z m 1.230469,4.12500003 c 0.445312,0 0.788086,-0.17578125 1.03125,-0.52734373 0.240234,-0.3515625 0.363281,-0.8847656 0.363281,-1.6054688 0,-1.40625 -0.421875,-2.109375 -1.265625,-2.109375 -0.304688,0 -0.571289,0.09082 -0.796875,0.2695313 -0.228516,0.1816406 -0.416016,0.3808594 -0.5625,0.5976562 v 2.671875 c 0.140625,0.2197266 0.316406,0.39257815 0.527344,0.51562503 0.216796,0.12597656 0.451171,0.1875 0.703125,0.1875 z m 6.799804,-7.34765623 c 0.1875,0 0.339844,0.058594 0.457032,0.1757812 0.117187,0.1113282 0.175781,0.2519532 0.175781,0.421875 0,0.1728516 -0.05859,0.3164063 -0.175781,0.4335938 -0.117188,0.1171875 -0.269532,0.1757812 -0.457032,0.1757812 -0.1875,0 -0.339843,-0.058594 -0.457031,-0.1757812 -0.111328,-0.1171875 -0.164062,-0.2607422 -0.164062,-0.4335938 0,-0.1699218 0.05273,-0.3105468 0.164062,-0.421875 0.117188,-0.1171875 0.269531,-0.1757812 0.457031,-0.1757812 z m 0.796875,2.5195312 v 4.53515628 c 0,0.60351562 -0.137695,1.10449218 -0.410156,1.51171875 -0.266602,0.40429687 -0.65625,0.72949217 -1.171875,0.97265627 -0.509766,0.2490234 -1.125,0.4335937 -1.851562,0.5507812 l -0.140625,-0.65625 c 0.530273,-0.09375 0.999023,-0.2314453 1.40625,-0.4101562 0.413085,-0.17285159 0.732421,-0.41601565 0.960937,-0.72656252 0.234375,-0.3046875 0.351563,-0.69726563 0.351563,-1.18359375 V -4.7110276 h -2.25 v -0.6914063 z m 3.304688,3.0117188 c 0.02344,0.6269531 0.1875,1.0839844 0.492187,1.3710937 0.304688,0.28125003 0.66211,0.42187503 1.078125,0.42187503 0.28125,0 0.530274,-0.0380859 0.75,-0.1171875 0.225586,-0.0849609 0.457032,-0.2109375 0.691407,-0.37500003 l 0.410156,0.57421878 c -0.251953,0.19628906 -0.539063,0.3515625 -0.867188,0.46875 -0.322265,0.10839843 -0.65039,0.1640625 -0.984375,0.1640625 -0.533203,0 -0.981445,-0.117187505 -1.347656,-0.3515625 -0.369141,-0.234375 -0.650391,-0.5625 -0.84375,-0.98437498 -0.1875,-0.421875 -0.28125,-0.9140625 -0.28125,-1.4765625 0,-0.5449219 0.09375,-1.03125 0.28125,-1.453125 0.193359,-0.421875 0.46875,-0.7529297 0.820313,-0.9960938 0.357421,-0.2402343 0.776367,-0.3632812 1.253906,-0.3632812 0.679687,0 1.21289,0.234375 1.605469,0.703125 0.389648,0.46875 0.585937,1.1132812 0.585937,1.9335937 0,0.09375 -0.0059,0.1845703 -0.01172,0.2695313 0,0.079102 -0.0059,0.149414 -0.01172,0.2109375 z m 1.464844,-2.4140625 c -0.398438,0 -0.735352,0.1464844 -1.007813,0.4335937 -0.275391,0.28125 -0.427734,0.7207032 -0.457031,1.3125 h 2.8125 c -0.0088,-0.5771484 -0.134766,-1.0107422 -0.375,-1.3007812 -0.243164,-0.2958985 -0.56836,-0.4453125 -0.972656,-0.4453125 z m 6.448242,4.18359373 c 0.272461,0 0.527343,-0.0410156 0.761718,-0.12890625 0.234375,-0.09375 0.448243,-0.2109375 0.644532,-0.35156248 l 0.421875,0.57421873 c -0.234375,0.19628906 -0.521485,0.3515625 -0.855469,0.46875 -0.328125,0.1171875 -0.65332,0.17578125 -0.972656,0.17578125 -0.539063,0 -0.996094,-0.11425782 -1.371094,-0.33984375 -0.375,-0.234375 -0.665039,-0.55664063 -0.867188,-0.97265623 -0.196289,-0.421875 -0.292968,-0.9140625 -0.292968,-1.4765625 0,-0.5390625 0.09668,-1.022461 0.292968,-1.453125 0.202149,-0.4277344 0.492188,-0.7646485 0.867188,-1.0078125 0.380859,-0.2490235 0.84375,-0.375 1.382812,-0.375 0.685547,0 1.289063,0.2080078 1.804688,0.6210937 l -0.421875,0.5742188 c -0.46875,-0.319336 -0.93457,-0.4804688 -1.394531,-0.4804688 -0.462891,0 -0.84375,0.1757813 -1.148438,0.5273438 -0.298828,0.3515625 -0.445312,0.8847656 -0.445312,1.59375 0,0.7207031 0.146484,1.2421875 0.445312,1.5703125 0.304688,0.3222656 0.685547,0.48046873 1.148438,0.48046873 z m 8.003906,0.3515625 c -0.1875,0.12597656 -0.416016,0.21972656 -0.679688,0.28125 -0.257812,0.0703125 -0.515625,0.10546875 -0.773437,0.10546875 -0.580078,0 -1.02832,-0.15234375 -1.347656,-0.45703125 -0.313477,-0.3046875 -0.46875,-0.69433593 -0.46875,-1.17187503 v -3.2226562 h -1.230469 v -0.6679688 h 1.230469 v -1.21875 l 0.867187,-0.1054687 v 1.3242187 h 1.863281 l -0.105468,0.6679688 h -1.757813 v 3.2109375 c 0,0.3046875 0.07617,0.53613279 0.234375,0.69140623 0.164063,0.15820312 0.427735,0.234375 0.796875,0.234375 0.202149,0 0.386719,-0.0234375 0.550781,-0.0703125 0.169922,-0.046875 0.331055,-0.10839844 0.480469,-0.1875 z m 0,0"
       style="fill:#000000;fill-opacity:1;fill-rule:nonzero;stroke:none"
       aria-label="subject"
       transform="matrix(1.3333333,0,0,1.3333333,198.41406,103.03918)" />
    <path
       id="path17"
       d="m 338.988,35.551 c 1.301,2.25 -10.402,22.519 -13.004,22.519 -2.601,0 -14.304,-20.269 -13.004,-22.519 1.301,-2.254 24.708,-2.254 26.008,0 z"
       style="fill:#cccccc;fill-opacity:1;fill-rule:nonzero;stroke:#cccccc;stroke-width:0.3;stroke-linecap:round;stroke-linejoin:round;stroke-miterlimit:4;stroke-dasharray:none;stroke-opacity:1"
       transform="scale(1.3333333)" />
    <path
       id="path18"
       d="m 276.406,63.102 h 81.02 v 21.109 h -81.02 z"
       style="fill:#005580;fill-opacity:1;fill-rule:nonzero;stroke:#005580;stroke-width:1.41732;stroke-linecap:round;stroke-linejoin:round;stroke-miterlimit:4;stroke-dasharray:none;stroke-opacity:1"
       transform="scale(1.3333333)" />
    <path
       id="path19"
       d="M 1.5586186,-9.0125e-5 H 0.57424363 L 2.5664311,-2.8477464 0.82033738,-5.4024339 H 1.8398686 l 1.2421875,2.015625 1.265625,-2.015625 h 0.984375 L 3.5976811,-2.8829026 5.5781499,-9.0125e-5 H 4.5234624 L 3.0468999,-2.3204026 Z M 9.0263921,-0.59774637 c 0.4130859,0 0.7382812,-0.0732422 0.9726562,-0.22265625 0.2402347,-0.15527344 0.3632817,-0.36621098 0.3632817,-0.63281248 0,-0.1552735 -0.03223,-0.2929688 -0.09375,-0.4101563 -0.05566,-0.1230468 -0.175782,-0.234375 -0.3632817,-0.328125 -0.1816406,-0.099609 -0.4628906,-0.1992187 -0.84375,-0.2929687 -0.375,-0.09375 -0.703125,-0.1992188 -0.984375,-0.3164063 C 7.8017827,-2.9239182 7.5908452,-3.0850511 7.4443608,-3.2813401 7.2949468,-3.4746995 7.2217046,-3.7295823 7.2217046,-4.0430589 c 0,-0.4511718 0.1875,-0.8085937 0.5625,-1.0664062 0.3808593,-0.2636719 0.8789062,-0.3984375 1.4882812,-0.3984375 0.4277344,0 0.8027342,0.058594 1.1250002,0.1757812 0.328125,0.1113282 0.603515,0.2460938 0.832031,0.4101563 l -0.386719,0.5859375 c -0.205078,-0.140625 -0.430664,-0.2519531 -0.679687,-0.3398438 -0.2431642,-0.09375 -0.5390627,-0.140625 -0.8906252,-0.140625 -0.421875,0 -0.7236328,0.067383 -0.9023437,0.1992188 -0.1728516,0.1347656 -0.2578125,0.3046875 -0.2578125,0.515625 0,0.1582031 0.041016,0.290039 0.1289062,0.3984375 0.084961,0.102539 0.2285156,0.196289 0.4335938,0.28125 0.2109375,0.079102 0.4980468,0.1699219 0.8671875,0.2695312 0.3515625,0.09375 0.6591799,0.2080078 0.9257809,0.3398438 0.263672,0.1259765 0.46875,0.2929687 0.609375,0.5039062 0.146485,0.2109375 0.222657,0.4863282 0.222657,0.8203125 0,0.3837891 -0.111329,0.69726565 -0.328125,0.93750003 -0.219727,0.234375 -0.503907,0.40722656 -0.855469,0.515625 C 9.7705327,0.064363 9.4072514,0.11709738 9.0263921,0.11709738 c -0.4921875,0 -0.9111328,-0.0703125 -1.2539063,-0.2109375 -0.3457031,-0.140625 -0.6328125,-0.31054688 -0.8671875,-0.515625 L 7.3974858,-1.1836839 c 0.2109375,0.1816407 0.4511719,0.32519534 0.7265625,0.43359378 0.28125,0.10253906 0.5800781,0.15234375 0.9023438,0.15234375 z m 7.5468749,-7.07812503 0.855469,0.1054688 V -9.0125e-5 h -0.75 l -0.08203,-0.714843745 c -0.205079,0.29003906 -0.439454,0.50097656 -0.703125,0.6328125 -0.257813,0.13183593 -0.536133,0.19921875 -0.832032,0.19921875 -0.46875,0 -0.855468,-0.117187505 -1.160156,-0.3515625 -0.304687,-0.234375 -0.533203,-0.5625 -0.679687,-0.98437498 -0.149414,-0.421875 -0.222657,-0.9140625 -0.222657,-1.4765625 0,-0.5390625 0.08203,-1.0195313 0.246094,-1.4414063 0.169922,-0.4277343 0.413086,-0.7646484 0.726563,-1.0078125 0.319336,-0.2402343 0.703125,-0.3632812 1.148437,-0.3632812 0.600586,0 1.083984,0.2109375 1.453125,0.6328125 z m -1.230469,2.859375 c -0.445312,0 -0.791015,0.1757813 -1.03125,0.5273438 -0.243164,0.3515625 -0.363281,0.8847656 -0.363281,1.59375 0,1.415039 0.427734,2.12109373 1.289063,2.12109373 0.304687,0 0.565429,-0.0849609 0.785156,-0.2578125 0.216797,-0.17871093 0.401367,-0.37792973 0.550781,-0.59765623 v -2.6953125 c -0.149414,-0.2167969 -0.328125,-0.3867188 -0.539062,-0.5039063 -0.210938,-0.1230468 -0.442383,-0.1875 -0.691407,-0.1875 z m 5.358399,0.3984375 c 0,-0.2255859 0.07617,-0.4160156 0.234375,-0.5742187 0.164062,-0.1640625 0.363281,-0.2460938 0.597656,-0.2460938 0.234375,0 0.427734,0.082031 0.585938,0.2460938 0.164062,0.1582031 0.246093,0.3486328 0.246093,0.5742187 0,0.234375 -0.08203,0.4335938 -0.246093,0.5976563 -0.158204,0.1640625 -0.351563,0.2460937 -0.585938,0.2460937 -0.234375,0 -0.433594,-0.082031 -0.597656,-0.2460937 -0.158203,-0.1640625 -0.234375,-0.3632813 -0.234375,-0.5976563 z m 0,3.70312503 c 0,-0.22558594 0.07617,-0.42187503 0.234375,-0.58593753 0.164062,-0.1640625 0.363281,-0.2460937 0.597656,-0.2460937 0.234375,0 0.427734,0.082031 0.585938,0.2460937 0.164062,0.1640625 0.246093,0.36035159 0.246093,0.58593753 0,0.234375 -0.08203,0.43359375 -0.246093,0.59765625 -0.158204,0.15527343 -0.351563,0.234375 -0.585938,0.234375 -0.234375,0 -0.433594,-0.07910157 -0.597656,-0.234375 -0.158203,-0.1640625 -0.234375,-0.36328125 -0.234375,-0.59765625 z m 6.984375,-7.20703123 c 0.193359,0 0.345703,0.058594 0.457031,0.1757812 0.117188,0.1113282 0.175781,0.2519532 0.175781,0.421875 0,0.1728516 -0.05859,0.3164063 -0.175781,0.4335938 -0.111328,0.1171875 -0.263672,0.1757812 -0.457031,0.1757812 -0.181641,0 -0.328125,-0.058594 -0.445313,-0.1757812 -0.111328,-0.1171875 -0.164062,-0.2607422 -0.164062,-0.4335938 0,-0.1699218 0.05273,-0.3105468 0.164062,-0.421875 0.117188,-0.1171875 0.263672,-0.1757812 0.445313,-0.1757812 z m 0.691406,2.5195312 v 4.72265628 h 1.523438 V -9.0125e-5 H 25.845728 V -0.67977762 h 1.675781 V -4.7110276 H 25.904322 V -5.4024339 Z M 31.801783,-9.0125e-5 V -5.4024339 h 0.726562 l 0.07031,0.75 c 0.216797,-0.2724609 0.492187,-0.4833984 0.820312,-0.6328125 0.328125,-0.1464843 0.647461,-0.2226562 0.960938,-0.2226562 0.530273,0 0.916992,0.140625 1.160156,0.421875 0.240234,0.2753906 0.363281,0.6621094 0.363281,1.1601562 V -9.0125e-5 H 35.036158 V -3.2813401 c 0,-0.375 -0.02051,-0.6708985 -0.05859,-0.890625 -0.04102,-0.225586 -0.125977,-0.3925781 -0.257813,-0.5039063 -0.134765,-0.1083984 -0.333984,-0.1640625 -0.597656,-0.1640625 -0.210937,0 -0.410156,0.046875 -0.597656,0.140625 -0.1875,0.09375 -0.357422,0.2109375 -0.503906,0.3515625 -0.140625,0.140625 -0.263672,0.2783203 -0.363282,0.4101563 V -9.0125e-5 Z M 42.243189,-0.26962137 c -0.1875,0.12597656 -0.416016,0.21972656 -0.679688,0.28125 -0.257812,0.0703125 -0.515625,0.10546875 -0.773437,0.10546875 -0.580078,0 -1.02832,-0.15234375 -1.347656,-0.45703125 -0.313477,-0.3046875 -0.46875,-0.69433593 -0.46875,-1.17187503 v -3.2226562 h -1.230469 v -0.6679688 h 1.230469 v -1.21875 l 0.867187,-0.1054687 v 1.3242187 h 1.863281 l -0.105468,0.6679688 h -1.757813 v 3.2109375 c 0,0.3046875 0.07617,0.53613279 0.234375,0.69140623 0.164063,0.15820312 0.427735,0.234375 0.796875,0.234375 0.202149,0 0.386719,-0.0234375 0.550781,-0.0703125 0.169922,-0.046875 0.331055,-0.10839844 0.480469,-0.1875 z m 2.545898,-2.12109373 c 0.02344,0.6269531 0.1875,1.0839844 0.492188,1.3710937 0.304687,0.28125003 0.662109,0.42187503 1.078125,0.42187503 0.28125,0 0.530273,-0.0380859 0.75,-0.1171875 0.225586,-0.0849609 0.457031,-0.2109375 0.691406,-0.37500003 l 0.410156,0.57421878 c -0.251953,0.19628906 -0.539062,0.3515625 -0.867187,0.46875 -0.322266,0.10839843 -0.650391,0.1640625 -0.984375,0.1640625 -0.533203,0 -0.981445,-0.117187505 -1.347656,-0.3515625 -0.369141,-0.234375 -0.650391,-0.5625 -0.84375,-0.98437498 -0.1875,-0.421875 -0.28125,-0.9140625 -0.28125,-1.4765625 0,-0.5449219 0.09375,-1.03125 0.28125,-1.453125 0.193359,-0.421875 0.46875,-0.7529297 0.820312,-0.9960938 0.357422,-0.2402343 0.776367,-0.3632812 1.253906,-0.3632812 0.679688,0 1.212891,0.234375 1.605469,0.703125 0.389649,0.46875 0.585938,1.1132812 0.585938,1.9335937 0,0.09375 -0.0059,0.1845703 -0.01172,0.2695313 0,0.079102 -0.0059,0.149414 -0.01172,0.2109375 z m 1.464844,-2.4140625 c -0.398437,0 -0.735351,0.1464844 -1.007812,0.4335937 -0.275391,0.28125 -0.427735,0.7207032 -0.457032,1.3125 h 2.8125 c -0.0088,-0.5771484 -0.134765,-1.0107422 -0.375,-1.3007812 -0.243164,-0.2958985 -0.568359,-0.4453125 -0.972656,-0.4453125 z m 8.390625,-1.171875 0.269531,0.8085937 c -0.234375,0.079102 -0.480468,0.1259766 -0.738281,0.140625 -0.257812,0.017578 -0.539062,0.023437 -0.84375,0.023437 0.624024,0.2900391 0.9375,0.7441407 0.9375,1.359375 0,0.5332032 -0.18164,0.9726563 -0.539062,1.3242188 -0.351563,0.3457031 -0.84961,0.515625 -1.488282,0.515625 -0.18164,0 -0.333984,-0.00586 -0.457031,-0.023437 -0.117187,-0.023437 -0.231445,-0.049805 -0.339844,-0.082031 -0.08789,0.055664 -0.158203,0.1289063 -0.210937,0.2226563 -0.05566,0.09375 -0.08203,0.1933594 -0.08203,0.2929687 0,0.1347657 0.0498,0.2431641 0.152343,0.328125 0.108399,0.0878906 0.298829,0.12890628 0.574219,0.12890628 h 0.972656 c 0.366211,0 0.691407,0.0673828 0.972657,0.19921875 0.287109,0.12597656 0.515625,0.30175781 0.679687,0.52734375 0.169922,0.21679687 0.257813,0.46289062 0.257813,0.73828125 0,0.53027347 -0.228516,0.93749997 -0.679688,1.21874997 -0.445312,0.28125 -1.078125,0.421875 -1.898437,0.421875 -0.580078,0 -1.03125,-0.058594 -1.359375,-0.1757812 C 50.496119,1.8749099 50.255884,1.6932693 50.1094,1.4530349 49.968775,1.2186599 49.898462,0.91690206 49.898462,0.55069113 h 0.785157 c 0,0.20214843 0.03809,0.36914062 0.117187,0.50390627 0.08496,0.140625 0.234375,0.2460937 0.445313,0.3164062 0.216797,0.070312 0.530273,0.1054688 0.9375,0.1054688 0.591797,0 1.02539,-0.079102 1.300781,-0.234375 0.272461,-0.1494141 0.410156,-0.36914065 0.410156,-0.65625002 0,-0.2578125 -0.117187,-0.45410157 -0.351562,-0.585937505 C 53.308619,-0.123137 53.01858,-0.18759012 52.675806,-0.18759012 H 51.70315 c -0.46875,0 -0.814453,-0.0996094 -1.03125,-0.3046875 -0.219727,-0.2109375 -0.328125,-0.44824219 -0.328125,-0.71484378 0,-0.3662109 0.199219,-0.6796875 0.597656,-0.9375 -0.603515,-0.3193359 -0.902344,-0.8203125 -0.902344,-1.5 0,-0.3574218 0.08789,-0.6796875 0.269532,-0.9609375 0.178711,-0.2871093 0.427734,-0.5097656 0.75,-0.6679687 0.328125,-0.1640625 0.703125,-0.2460938 1.125,-0.2460938 0.459961,0 0.832031,-0.014648 1.113281,-0.046875 0.28125,-0.038086 0.521484,-0.09375 0.726562,-0.1640625 0.202149,-0.070312 0.410157,-0.1523437 0.621094,-0.2460937 z m -2.460937,1.0898437 c -0.430664,0 -0.75,0.1171875 -0.960938,0.3515625 -0.205078,0.234375 -0.304687,0.5332032 -0.304687,0.890625 0,0.3691407 0.105468,0.6738282 0.316406,0.9140625 0.210937,0.234375 0.533203,0.3515625 0.972656,0.3515625 0.38086,0 0.670899,-0.1083984 0.867188,-0.328125 0.202148,-0.2255859 0.304687,-0.5390625 0.304687,-0.9375 0,-0.8261718 -0.398437,-1.2421875 -1.195312,-1.2421875 z m 4.913086,2.4960938 c 0.02344,0.6269531 0.1875,1.0839844 0.492187,1.3710937 0.304688,0.28125003 0.662109,0.42187503 1.078125,0.42187503 0.28125,0 0.530274,-0.0380859 0.75,-0.1171875 0.225586,-0.0849609 0.457031,-0.2109375 0.691406,-0.37500003 l 0.410157,0.57421878 c -0.251954,0.19628906 -0.539063,0.3515625 -0.867188,0.46875 -0.322266,0.10839843 -0.650391,0.1640625 -0.984375,0.1640625 -0.533203,0 -0.981445,-0.117187505 -1.347656,-0.3515625 -0.369141,-0.234375 -0.650391,-0.5625 -0.84375,-0.98437498 -0.1875,-0.421875 -0.28125,-0.9140625 -0.28125,-1.4765625 0,-0.5449219 0.09375,-1.03125 0.28125,-1.453125 0.193359,-0.421875 0.46875,-0.7529297 0.820312,-0.9960938 0.357422,-0.2402343 0.776368,-0.3632812 1.253907,-0.3632812 0.679687,0 1.21289,0.234375 1.605468,0.703125 0.389649,0.46875 0.585938,1.1132812 0.585938,1.9335937 0,0.09375 -0.0059,0.1845703 -0.01172,0.2695313 0,0.079102 -0.0059,0.149414 -0.01172,0.2109375 z m 1.464843,-2.4140625 c -0.398437,0 -0.735351,0.1464844 -1.007812,0.4335937 -0.275391,0.28125 -0.427735,0.7207032 -0.457031,1.3125 h 2.8125 c -0.0088,-0.5771484 -0.134766,-1.0107422 -0.375,-1.3007812 -0.243164,-0.2958985 -0.56836,-0.4453125 -0.972657,-0.4453125 z M 62.616236,-9.0125e-5 V -0.65634012 h 0.84375 V -4.7344651 h -0.84375 v -0.6679688 h 1.5 l 0.164062,1.2773438 c 0.202149,-0.4453125 0.451172,-0.788086 0.75,-1.03125 0.295899,-0.2402344 0.691407,-0.3632813 1.183594,-0.3632813 0.146484,0 0.28125,0.011719 0.398438,0.035156 0.117187,0.023437 0.237304,0.052734 0.363281,0.082031 l -0.117188,1.828125 H 66.14358 v -1.1484375 c -0.0088,0 -0.02344,0 -0.04687,0 -0.829102,0 -1.417969,0.5917969 -1.769532,1.7695313 v 2.29687498 h 1.089844 V -9.0125e-5 Z m 0,0"
       style="fill:#ffffff;fill-opacity:1;fill-rule:nonzero;stroke:none"
       aria-label="xsd:integer"
       transform="matrix(1.3333333,0,0,1.3333333,378.41403,103.03918)" />
  </g>
</svg>
